%TF.GenerationSoftware,KiCad,Pcbnew,(6.0.2)*%
%TF.CreationDate,2022-10-19T14:59:14+05:30*%
%TF.ProjectId,psu,7073752e-6b69-4636-9164-5f7063625858,rev?*%
%TF.SameCoordinates,Original*%
%TF.FileFunction,Soldermask,Top*%
%TF.FilePolarity,Negative*%
%FSLAX46Y46*%
G04 Gerber Fmt 4.6, Leading zero omitted, Abs format (unit mm)*
G04 Created by KiCad (PCBNEW (6.0.2)) date 2022-10-19 14:59:14*
%MOMM*%
%LPD*%
G01*
G04 APERTURE LIST*
G04 Aperture macros list*
%AMRoundRect*
0 Rectangle with rounded corners*
0 $1 Rounding radius*
0 $2 $3 $4 $5 $6 $7 $8 $9 X,Y pos of 4 corners*
0 Add a 4 corners polygon primitive as box body*
4,1,4,$2,$3,$4,$5,$6,$7,$8,$9,$2,$3,0*
0 Add four circle primitives for the rounded corners*
1,1,$1+$1,$2,$3*
1,1,$1+$1,$4,$5*
1,1,$1+$1,$6,$7*
1,1,$1+$1,$8,$9*
0 Add four rect primitives between the rounded corners*
20,1,$1+$1,$2,$3,$4,$5,0*
20,1,$1+$1,$4,$5,$6,$7,0*
20,1,$1+$1,$6,$7,$8,$9,0*
20,1,$1+$1,$8,$9,$2,$3,0*%
G04 Aperture macros list end*
%ADD10R,2.500000X1.800000*%
%ADD11RoundRect,0.250000X-0.450000X0.350000X-0.450000X-0.350000X0.450000X-0.350000X0.450000X0.350000X0*%
%ADD12RoundRect,0.250000X-0.475000X0.337500X-0.475000X-0.337500X0.475000X-0.337500X0.475000X0.337500X0*%
%ADD13RoundRect,0.150000X-0.662500X-0.150000X0.662500X-0.150000X0.662500X0.150000X-0.662500X0.150000X0*%
%ADD14R,2.514000X3.200000*%
%ADD15R,1.800000X2.500000*%
%ADD16RoundRect,0.250000X0.337500X0.475000X-0.337500X0.475000X-0.337500X-0.475000X0.337500X-0.475000X0*%
%ADD17RoundRect,0.250000X0.475000X-0.337500X0.475000X0.337500X-0.475000X0.337500X-0.475000X-0.337500X0*%
%ADD18RoundRect,0.250000X-0.337500X-0.475000X0.337500X-0.475000X0.337500X0.475000X-0.337500X0.475000X0*%
%ADD19RoundRect,0.250000X1.000000X-1.950000X1.000000X1.950000X-1.000000X1.950000X-1.000000X-1.950000X0*%
%ADD20RoundRect,0.250000X0.725000X-0.600000X0.725000X0.600000X-0.725000X0.600000X-0.725000X-0.600000X0*%
%ADD21O,1.950000X1.700000*%
%ADD22R,1.250000X1.200000*%
%ADD23R,1.500000X1.000000*%
%ADD24R,4.500000X2.250000*%
%ADD25RoundRect,0.250000X0.350000X0.450000X-0.350000X0.450000X-0.350000X-0.450000X0.350000X-0.450000X0*%
%ADD26RoundRect,0.150000X-0.587500X-0.150000X0.587500X-0.150000X0.587500X0.150000X-0.587500X0.150000X0*%
%ADD27RoundRect,0.250000X0.450000X-0.350000X0.450000X0.350000X-0.450000X0.350000X-0.450000X-0.350000X0*%
%ADD28RoundRect,0.250000X-0.350000X-0.450000X0.350000X-0.450000X0.350000X0.450000X-0.350000X0.450000X0*%
%ADD29RoundRect,0.250000X0.750000X-0.600000X0.750000X0.600000X-0.750000X0.600000X-0.750000X-0.600000X0*%
%ADD30O,2.000000X1.700000*%
%ADD31RoundRect,0.250000X-1.000000X1.950000X-1.000000X-1.950000X1.000000X-1.950000X1.000000X1.950000X0*%
%ADD32C,0.800000*%
G04 APERTURE END LIST*
D10*
%TO.C,D1*%
X128460000Y-75140000D03*
X124460000Y-75140000D03*
%TD*%
D11*
%TO.C,R1*%
X143700000Y-87610000D03*
X143700000Y-89610000D03*
%TD*%
D12*
%TO.C,C1*%
X132970000Y-87602500D03*
X132970000Y-89677500D03*
%TD*%
D13*
%TO.C,U1*%
X143672500Y-80275000D03*
X143672500Y-81545000D03*
X143672500Y-82815000D03*
X143672500Y-84085000D03*
X148947500Y-84085000D03*
X148947500Y-82815000D03*
X148947500Y-81545000D03*
X148947500Y-80275000D03*
D14*
X146310000Y-82180000D03*
%TD*%
D15*
%TO.C,D3*%
X149060000Y-77110000D03*
X149060000Y-73110000D03*
%TD*%
D16*
%TO.C,C7*%
X157277500Y-82800000D03*
X155202500Y-82800000D03*
%TD*%
D17*
%TO.C,C8*%
X152010000Y-89807500D03*
X152010000Y-87732500D03*
%TD*%
D18*
%TO.C,C11*%
X162030500Y-77978000D03*
X164105500Y-77978000D03*
%TD*%
D12*
%TO.C,C4*%
X138360000Y-87582500D03*
X138360000Y-89657500D03*
%TD*%
D19*
%TO.C,C3*%
X136290000Y-82480000D03*
X136290000Y-74080000D03*
%TD*%
D20*
%TO.C,J2*%
X167910000Y-87210000D03*
D21*
X167910000Y-84710000D03*
X167910000Y-82210000D03*
%TD*%
D22*
%TO.C,FL1*%
X125260000Y-90297000D03*
D23*
X127635000Y-91097000D03*
D22*
X130010000Y-90297000D03*
D23*
X127635000Y-89497000D03*
%TD*%
D16*
%TO.C,C6*%
X145817500Y-76940000D03*
X143742500Y-76940000D03*
%TD*%
D18*
%TO.C,C10*%
X162030500Y-80264000D03*
X164105500Y-80264000D03*
%TD*%
D24*
%TO.C,L1*%
X156340000Y-79560000D03*
X156340000Y-72760000D03*
%TD*%
D25*
%TO.C,R7*%
X148340000Y-87280000D03*
X146340000Y-87280000D03*
%TD*%
D12*
%TO.C,C5*%
X141050000Y-87542500D03*
X141050000Y-89617500D03*
%TD*%
D11*
%TO.C,R3*%
X142270000Y-94090000D03*
X142270000Y-96090000D03*
%TD*%
D26*
%TO.C,D2*%
X133922500Y-94130000D03*
X133922500Y-96030000D03*
X135797500Y-95080000D03*
%TD*%
D27*
%TO.C,R2*%
X139370000Y-96130000D03*
X139370000Y-94130000D03*
%TD*%
D12*
%TO.C,C2*%
X135720000Y-87622500D03*
X135720000Y-89697500D03*
%TD*%
D28*
%TO.C,R6*%
X146360000Y-90090000D03*
X148360000Y-90090000D03*
%TD*%
D25*
%TO.C,R5*%
X148390000Y-92900000D03*
X146390000Y-92900000D03*
%TD*%
D29*
%TO.C,J1*%
X125603000Y-83693000D03*
D30*
X125603000Y-81193000D03*
%TD*%
D11*
%TO.C,R4*%
X152010000Y-82820000D03*
X152010000Y-84820000D03*
%TD*%
D31*
%TO.C,C9*%
X159450000Y-87677500D03*
X159450000Y-96077500D03*
%TD*%
D32*
X162687000Y-98298000D03*
X139446000Y-92202000D03*
X138938000Y-74803000D03*
X133223000Y-72263000D03*
X125095000Y-87122000D03*
X150876000Y-81407000D03*
X168656000Y-77851000D03*
X155575000Y-98298000D03*
X167386000Y-77851000D03*
X163830000Y-98298000D03*
X146558000Y-72390000D03*
X138938000Y-72136000D03*
X149733000Y-98425000D03*
X124714000Y-86106000D03*
X147828000Y-98425000D03*
X156845000Y-98171000D03*
X145034000Y-72390000D03*
X166243000Y-77851000D03*
X133350000Y-74676000D03*
X125984000Y-86106000D03*
M02*
