M48
; DRILL file {KiCad (6.0.2)} date Wed Oct 19 14:59:17 2022
; FORMAT={-:-/ absolute / inch / decimal}
; #@! TF.CreationDate,2022-10-19T14:59:17+05:30
; #@! TF.GenerationSoftware,Kicad,Pcbnew,(6.0.2)
; #@! TF.FileFunction,Plated,1,2,PTH
FMAT,2
INCH
; #@! TA.AperFunction,Plated,PTH,ComponentDrill
T1C0.0079
; #@! TA.AperFunction,Plated,PTH,ViaDrill
T2C0.0157
; #@! TA.AperFunction,Plated,PTH,ComponentDrill
T3C0.0374
; #@! TA.AperFunction,Plated,PTH,ComponentDrill
T4C0.0394
%
G90
G05
T1
X5.7327Y-3.1961
X5.7327Y-3.2354
X5.7327Y-3.2748
X5.7878Y-3.1961
X5.7878Y-3.2354
X5.7878Y-3.2748
T2
X4.91Y-3.39
X4.925Y-3.43
X4.96Y-3.39
X5.245Y-2.845
X5.25Y-2.94
X5.47Y-2.84
X5.47Y-2.945
X5.49Y-3.63
X5.71Y-2.85
X5.77Y-2.85
X5.82Y-3.875
X5.895Y-3.875
X5.94Y-3.205
X6.125Y-3.87
X6.175Y-3.865
X6.405Y-3.87
X6.45Y-3.87
X6.545Y-3.065
X6.59Y-3.065
X6.64Y-3.065
T3
X6.6106Y-3.2366
X6.6106Y-3.335
X6.6106Y-3.4335
T4
X4.945Y-3.1966
X4.945Y-3.295
T0
M30
