%TF.GenerationSoftware,KiCad,Pcbnew,(6.0.2)*%
%TF.CreationDate,2022-10-19T14:59:14+05:30*%
%TF.ProjectId,psu,7073752e-6b69-4636-9164-5f7063625858,rev?*%
%TF.SameCoordinates,Original*%
%TF.FileFunction,Copper,L2,Bot*%
%TF.FilePolarity,Positive*%
%FSLAX46Y46*%
G04 Gerber Fmt 4.6, Leading zero omitted, Abs format (unit mm)*
G04 Created by KiCad (PCBNEW (6.0.2)) date 2022-10-19 14:59:14*
%MOMM*%
%LPD*%
G01*
G04 APERTURE LIST*
G04 Aperture macros list*
%AMRoundRect*
0 Rectangle with rounded corners*
0 $1 Rounding radius*
0 $2 $3 $4 $5 $6 $7 $8 $9 X,Y pos of 4 corners*
0 Add a 4 corners polygon primitive as box body*
4,1,4,$2,$3,$4,$5,$6,$7,$8,$9,$2,$3,0*
0 Add four circle primitives for the rounded corners*
1,1,$1+$1,$2,$3*
1,1,$1+$1,$4,$5*
1,1,$1+$1,$6,$7*
1,1,$1+$1,$8,$9*
0 Add four rect primitives between the rounded corners*
20,1,$1+$1,$2,$3,$4,$5,0*
20,1,$1+$1,$4,$5,$6,$7,0*
20,1,$1+$1,$6,$7,$8,$9,0*
20,1,$1+$1,$8,$9,$2,$3,0*%
G04 Aperture macros list end*
%TA.AperFunction,ComponentPad*%
%ADD10C,0.500000*%
%TD*%
%TA.AperFunction,SMDPad,CuDef*%
%ADD11R,1.900000X2.500000*%
%TD*%
%TA.AperFunction,ComponentPad*%
%ADD12RoundRect,0.250000X0.725000X-0.600000X0.725000X0.600000X-0.725000X0.600000X-0.725000X-0.600000X0*%
%TD*%
%TA.AperFunction,ComponentPad*%
%ADD13O,1.950000X1.700000*%
%TD*%
%TA.AperFunction,ComponentPad*%
%ADD14RoundRect,0.250000X0.750000X-0.600000X0.750000X0.600000X-0.750000X0.600000X-0.750000X-0.600000X0*%
%TD*%
%TA.AperFunction,ComponentPad*%
%ADD15O,2.000000X1.700000*%
%TD*%
%TA.AperFunction,ViaPad*%
%ADD16C,0.800000*%
%TD*%
G04 APERTURE END LIST*
D10*
%TO.P,U1,9,GNDPAD*%
%TO.N,GND*%
X147010000Y-83180000D03*
D11*
X146310000Y-82180000D03*
D10*
X145610000Y-83180000D03*
X145610000Y-82180000D03*
X147010000Y-81180000D03*
X147010000Y-82180000D03*
X145610000Y-81180000D03*
%TD*%
D12*
%TO.P,J2,1,Pin_1*%
%TO.N,/ADC*%
X167910000Y-87210000D03*
D13*
%TO.P,J2,2,Pin_2*%
%TO.N,VDD*%
X167910000Y-84710000D03*
%TO.P,J2,3,Pin_3*%
%TO.N,GND*%
X167910000Y-82210000D03*
%TD*%
D14*
%TO.P,J1,1,Pin_1*%
%TO.N,GND*%
X125603000Y-83693000D03*
D15*
%TO.P,J1,2,Pin_2*%
%TO.N,/V_in*%
X125603000Y-81193000D03*
%TD*%
D16*
%TO.N,GND*%
X162687000Y-98298000D03*
X139446000Y-92202000D03*
X138938000Y-74803000D03*
X133223000Y-72263000D03*
X125095000Y-87122000D03*
X150876000Y-81407000D03*
X168656000Y-77851000D03*
X155575000Y-98298000D03*
X167386000Y-77851000D03*
X163830000Y-98298000D03*
X146558000Y-72390000D03*
X138938000Y-72136000D03*
X149733000Y-98425000D03*
X124714000Y-86106000D03*
X147828000Y-98425000D03*
X156845000Y-98171000D03*
X145034000Y-72390000D03*
X166243000Y-77851000D03*
X133350000Y-74676000D03*
X125984000Y-86106000D03*
%TD*%
%TA.AperFunction,Conductor*%
%TO.N,GND*%
G36*
X171062121Y-70610002D02*
G01*
X171108614Y-70663658D01*
X171120000Y-70716000D01*
X171120000Y-99294000D01*
X171099998Y-99362121D01*
X171046342Y-99408614D01*
X170994000Y-99420000D01*
X122606000Y-99420000D01*
X122537879Y-99399998D01*
X122491386Y-99346342D01*
X122480000Y-99294000D01*
X122480000Y-96430323D01*
X123161041Y-96430323D01*
X123161216Y-96434774D01*
X123163386Y-96490000D01*
X123168199Y-96612477D01*
X123171578Y-96698484D01*
X123219793Y-96962485D01*
X123304725Y-97217059D01*
X123306718Y-97221047D01*
X123385652Y-97379018D01*
X123424680Y-97457126D01*
X123577263Y-97677896D01*
X123759432Y-97874965D01*
X123762886Y-97877777D01*
X123964093Y-98041585D01*
X123964097Y-98041588D01*
X123967550Y-98044399D01*
X124197465Y-98182820D01*
X124201560Y-98184554D01*
X124201562Y-98184555D01*
X124440490Y-98285728D01*
X124440497Y-98285730D01*
X124444591Y-98287464D01*
X124539773Y-98312701D01*
X124699698Y-98355105D01*
X124699702Y-98355106D01*
X124703995Y-98356244D01*
X124708404Y-98356766D01*
X124708410Y-98356767D01*
X124856497Y-98374294D01*
X124970503Y-98387787D01*
X125238796Y-98381464D01*
X125243190Y-98380733D01*
X125243197Y-98380732D01*
X125499120Y-98338135D01*
X125499124Y-98338134D01*
X125503522Y-98337402D01*
X125670642Y-98284549D01*
X125755152Y-98257822D01*
X125755154Y-98257821D01*
X125759398Y-98256479D01*
X125763409Y-98254553D01*
X125763414Y-98254551D01*
X125997301Y-98142240D01*
X125997302Y-98142239D01*
X126001320Y-98140310D01*
X126141417Y-98046700D01*
X126220752Y-97993690D01*
X126220756Y-97993687D01*
X126224460Y-97991212D01*
X126227777Y-97988241D01*
X126227781Y-97988238D01*
X126421047Y-97815134D01*
X126421048Y-97815133D01*
X126424365Y-97812162D01*
X126597048Y-97606731D01*
X126739063Y-97379018D01*
X126847576Y-97133567D01*
X126920422Y-96875275D01*
X126941965Y-96714884D01*
X126955720Y-96612477D01*
X126955721Y-96612469D01*
X126956147Y-96609295D01*
X126959896Y-96490000D01*
X126940942Y-96222302D01*
X126884458Y-95959946D01*
X126861891Y-95898774D01*
X126793112Y-95712343D01*
X126791571Y-95708166D01*
X126664135Y-95471985D01*
X126504692Y-95256116D01*
X126501573Y-95252947D01*
X126501569Y-95252943D01*
X126411847Y-95161801D01*
X126316424Y-95064867D01*
X126269659Y-95029177D01*
X126106627Y-94904755D01*
X126106623Y-94904753D01*
X126103086Y-94902053D01*
X125868936Y-94770923D01*
X125618646Y-94674093D01*
X125614321Y-94673090D01*
X125614316Y-94673089D01*
X125470619Y-94639782D01*
X125357209Y-94613495D01*
X125089842Y-94590338D01*
X125085407Y-94590582D01*
X125085403Y-94590582D01*
X124826323Y-94604840D01*
X124826316Y-94604841D01*
X124821880Y-94605085D01*
X124558669Y-94657441D01*
X124554459Y-94658919D01*
X124554457Y-94658920D01*
X124406434Y-94710902D01*
X124305460Y-94746362D01*
X124301509Y-94748415D01*
X124301503Y-94748417D01*
X124071257Y-94868020D01*
X124067307Y-94870072D01*
X124063692Y-94872655D01*
X124063686Y-94872659D01*
X123926279Y-94970853D01*
X123848961Y-95026105D01*
X123845741Y-95029177D01*
X123671971Y-95194945D01*
X123654778Y-95211346D01*
X123488633Y-95422100D01*
X123425127Y-95531433D01*
X123356079Y-95650307D01*
X123356076Y-95650313D01*
X123353841Y-95654161D01*
X123253092Y-95902900D01*
X123252021Y-95907213D01*
X123252019Y-95907218D01*
X123217281Y-96047065D01*
X123188395Y-96163353D01*
X123161041Y-96430323D01*
X122480000Y-96430323D01*
X122480000Y-84328199D01*
X124253001Y-84328199D01*
X124253539Y-84336411D01*
X124267366Y-84441444D01*
X124271604Y-84457259D01*
X124325741Y-84587959D01*
X124333930Y-84602142D01*
X124420046Y-84714372D01*
X124431626Y-84725952D01*
X124543861Y-84812072D01*
X124558042Y-84820259D01*
X124688739Y-84874396D01*
X124704558Y-84878634D01*
X124809590Y-84892462D01*
X124817799Y-84893000D01*
X125330885Y-84893000D01*
X125346124Y-84888525D01*
X125347329Y-84887135D01*
X125349000Y-84879452D01*
X125349000Y-84874884D01*
X125857000Y-84874884D01*
X125861475Y-84890123D01*
X125862865Y-84891328D01*
X125870548Y-84892999D01*
X126388199Y-84892999D01*
X126396411Y-84892461D01*
X126501444Y-84878634D01*
X126517259Y-84874396D01*
X126647959Y-84820259D01*
X126662142Y-84812070D01*
X126774372Y-84725954D01*
X126785952Y-84714374D01*
X126872072Y-84602139D01*
X126880259Y-84587958D01*
X126934396Y-84457261D01*
X126938634Y-84441442D01*
X126952462Y-84336410D01*
X126953000Y-84328201D01*
X126953000Y-83965115D01*
X126948525Y-83949876D01*
X126947135Y-83948671D01*
X126939452Y-83947000D01*
X125875115Y-83947000D01*
X125859876Y-83951475D01*
X125858671Y-83952865D01*
X125857000Y-83960548D01*
X125857000Y-84874884D01*
X125349000Y-84874884D01*
X125349000Y-83965115D01*
X125344525Y-83949876D01*
X125343135Y-83948671D01*
X125335452Y-83947000D01*
X124271116Y-83947000D01*
X124255877Y-83951475D01*
X124254672Y-83952865D01*
X124253001Y-83960548D01*
X124253001Y-84328199D01*
X122480000Y-84328199D01*
X122480000Y-83420885D01*
X124253000Y-83420885D01*
X124257475Y-83436124D01*
X124258865Y-83437329D01*
X124266548Y-83439000D01*
X126934884Y-83439000D01*
X126950123Y-83434525D01*
X126951328Y-83433135D01*
X126952999Y-83425452D01*
X126952999Y-83188188D01*
X145005901Y-83188188D01*
X145008923Y-83211142D01*
X145010001Y-83227589D01*
X145010001Y-83458568D01*
X145010672Y-83467734D01*
X145018700Y-83522278D01*
X145024443Y-83540759D01*
X145066889Y-83627213D01*
X145078849Y-83643918D01*
X145146572Y-83711523D01*
X145163300Y-83723455D01*
X145249838Y-83765755D01*
X145268306Y-83771463D01*
X145322297Y-83779340D01*
X145331396Y-83780000D01*
X145562418Y-83780000D01*
X145578864Y-83781078D01*
X145601812Y-83784099D01*
X145618188Y-83784099D01*
X145641136Y-83781078D01*
X145657582Y-83780000D01*
X145838331Y-83780000D01*
X145849220Y-83776803D01*
X145920216Y-83776804D01*
X145928748Y-83779644D01*
X145929702Y-83780000D01*
X146037885Y-83780000D01*
X146053124Y-83775525D01*
X146054329Y-83774135D01*
X146056000Y-83766452D01*
X146056000Y-83761884D01*
X146564000Y-83761884D01*
X146568475Y-83777123D01*
X146569865Y-83778328D01*
X146577548Y-83779999D01*
X146686784Y-83779999D01*
X146697671Y-83776802D01*
X146768667Y-83776801D01*
X146777206Y-83779643D01*
X146778160Y-83779999D01*
X146962412Y-83779999D01*
X146978859Y-83781077D01*
X147001812Y-83784099D01*
X147018188Y-83784099D01*
X147041142Y-83781077D01*
X147057589Y-83779999D01*
X147288568Y-83779999D01*
X147297734Y-83779328D01*
X147352278Y-83771300D01*
X147370759Y-83765557D01*
X147457213Y-83723111D01*
X147473918Y-83711151D01*
X147541523Y-83643428D01*
X147553455Y-83626700D01*
X147595755Y-83540162D01*
X147601463Y-83521694D01*
X147609340Y-83467703D01*
X147610000Y-83458604D01*
X147610000Y-83227582D01*
X147611078Y-83211136D01*
X147614099Y-83188188D01*
X147614099Y-83171812D01*
X147611078Y-83148864D01*
X147610000Y-83132418D01*
X147610000Y-82482722D01*
X166614189Y-82482722D01*
X166619944Y-82516213D01*
X166622925Y-82527339D01*
X166695258Y-82723408D01*
X166700210Y-82733790D01*
X166807064Y-82913396D01*
X166813829Y-82922708D01*
X166951629Y-83079837D01*
X166959972Y-83087754D01*
X167124095Y-83217138D01*
X167133751Y-83223409D01*
X167318696Y-83320713D01*
X167329335Y-83325120D01*
X167459650Y-83365584D01*
X167518776Y-83404887D01*
X167547266Y-83469916D01*
X167536076Y-83540025D01*
X167488759Y-83592955D01*
X167456488Y-83607185D01*
X167370931Y-83631314D01*
X167365753Y-83633867D01*
X167365749Y-83633869D01*
X167318417Y-83657211D01*
X167181290Y-83724835D01*
X167011867Y-83851349D01*
X166868337Y-84006619D01*
X166865256Y-84011502D01*
X166853045Y-84030856D01*
X166755505Y-84185446D01*
X166677152Y-84381840D01*
X166676027Y-84387497D01*
X166676025Y-84387503D01*
X166665296Y-84441444D01*
X166635901Y-84589225D01*
X166635825Y-84595000D01*
X166635825Y-84595004D01*
X166635431Y-84625128D01*
X166633133Y-84800654D01*
X166634112Y-84806351D01*
X166634112Y-84806352D01*
X166649001Y-84892999D01*
X166668941Y-85009047D01*
X166742127Y-85207425D01*
X166850238Y-85389144D01*
X166989655Y-85548119D01*
X167155708Y-85679024D01*
X167160819Y-85681713D01*
X167160822Y-85681715D01*
X167191241Y-85697719D01*
X167342836Y-85777477D01*
X167457777Y-85813167D01*
X167516902Y-85852470D01*
X167545393Y-85917500D01*
X167534203Y-85987609D01*
X167486886Y-86040539D01*
X167420413Y-86059500D01*
X167142228Y-86059500D01*
X167052453Y-86070364D01*
X167044925Y-86073344D01*
X167044923Y-86073345D01*
X166975832Y-86100700D01*
X166912217Y-86125887D01*
X166792078Y-86217078D01*
X166700887Y-86337217D01*
X166645364Y-86477453D01*
X166634500Y-86567228D01*
X166634500Y-87852772D01*
X166645364Y-87942547D01*
X166700887Y-88082783D01*
X166792078Y-88202922D01*
X166912217Y-88294113D01*
X166975832Y-88319300D01*
X167044923Y-88346655D01*
X167044925Y-88346656D01*
X167052453Y-88349636D01*
X167142228Y-88360500D01*
X168677772Y-88360500D01*
X168767547Y-88349636D01*
X168775075Y-88346656D01*
X168775077Y-88346655D01*
X168844168Y-88319300D01*
X168907783Y-88294113D01*
X169027922Y-88202922D01*
X169119113Y-88082783D01*
X169174636Y-87942547D01*
X169185500Y-87852772D01*
X169185500Y-86567228D01*
X169174636Y-86477453D01*
X169119113Y-86337217D01*
X169027922Y-86217078D01*
X168907783Y-86125887D01*
X168844168Y-86100700D01*
X168775077Y-86073345D01*
X168775075Y-86073344D01*
X168767547Y-86070364D01*
X168677772Y-86059500D01*
X168399785Y-86059500D01*
X168331664Y-86039498D01*
X168285171Y-85985842D01*
X168275067Y-85915568D01*
X168304561Y-85850988D01*
X168365584Y-85812231D01*
X168449069Y-85788686D01*
X168454247Y-85786133D01*
X168454251Y-85786131D01*
X168633531Y-85697719D01*
X168638710Y-85695165D01*
X168808133Y-85568651D01*
X168951663Y-85413381D01*
X168964215Y-85393488D01*
X169061416Y-85239434D01*
X169061416Y-85239433D01*
X169064495Y-85234554D01*
X169142848Y-85038160D01*
X169143973Y-85032503D01*
X169143975Y-85032497D01*
X169182972Y-84836442D01*
X169182972Y-84836440D01*
X169184099Y-84830775D01*
X169184494Y-84800654D01*
X169186791Y-84625128D01*
X169186867Y-84619346D01*
X169151059Y-84410953D01*
X169077873Y-84212575D01*
X168969762Y-84030856D01*
X168830345Y-83871881D01*
X168664292Y-83740976D01*
X168659181Y-83738287D01*
X168659178Y-83738285D01*
X168505081Y-83657211D01*
X168477164Y-83642523D01*
X168359676Y-83606042D01*
X168300551Y-83566739D01*
X168272060Y-83501709D01*
X168283250Y-83431600D01*
X168330567Y-83378670D01*
X168362839Y-83364440D01*
X168461323Y-83336665D01*
X168472064Y-83332542D01*
X168659503Y-83240107D01*
X168669311Y-83234097D01*
X168836773Y-83109047D01*
X168845313Y-83101357D01*
X168987184Y-82947883D01*
X168994185Y-82938758D01*
X169105707Y-82762006D01*
X169110928Y-82751759D01*
X169188371Y-82557647D01*
X169191640Y-82546611D01*
X169204538Y-82481770D01*
X169203386Y-82468894D01*
X169188230Y-82464000D01*
X166629087Y-82464000D01*
X166616125Y-82467806D01*
X166614189Y-82482722D01*
X147610000Y-82482722D01*
X147610000Y-82452115D01*
X147605525Y-82436876D01*
X147604135Y-82435671D01*
X147596452Y-82434000D01*
X147127668Y-82434000D01*
X147102023Y-82441530D01*
X146876365Y-82667188D01*
X146868751Y-82681132D01*
X146868882Y-82682965D01*
X146873133Y-82689580D01*
X147274458Y-83090905D01*
X147308484Y-83153217D01*
X147303419Y-83224032D01*
X147274458Y-83269095D01*
X146823324Y-83720229D01*
X146761012Y-83754255D01*
X146690197Y-83749190D01*
X146645134Y-83720229D01*
X146576811Y-83651906D01*
X146566723Y-83646398D01*
X146564000Y-83653700D01*
X146564000Y-83761884D01*
X146056000Y-83761884D01*
X146056000Y-83657211D01*
X146052763Y-83646186D01*
X146045670Y-83649425D01*
X145974866Y-83720229D01*
X145912554Y-83754255D01*
X145841739Y-83749190D01*
X145796676Y-83720229D01*
X145345542Y-83269095D01*
X145311516Y-83206783D01*
X145313351Y-83181132D01*
X145968751Y-83181132D01*
X145968882Y-83182965D01*
X145973133Y-83189580D01*
X146043188Y-83259635D01*
X146053277Y-83265144D01*
X146056000Y-83257843D01*
X146056000Y-83254332D01*
X146564000Y-83254332D01*
X146567237Y-83265357D01*
X146574328Y-83262119D01*
X146643635Y-83192812D01*
X146651249Y-83178868D01*
X146651118Y-83177035D01*
X146646867Y-83170420D01*
X146576812Y-83100365D01*
X146566723Y-83094856D01*
X146564000Y-83102157D01*
X146564000Y-83254332D01*
X146056000Y-83254332D01*
X146056000Y-83105668D01*
X146052763Y-83094643D01*
X146045672Y-83097881D01*
X145976365Y-83167188D01*
X145968751Y-83181132D01*
X145313351Y-83181132D01*
X145316581Y-83135968D01*
X145345542Y-83090905D01*
X145743635Y-82692812D01*
X145750013Y-82681132D01*
X146020294Y-82681132D01*
X146020425Y-82682965D01*
X146024676Y-82689580D01*
X146043188Y-82708092D01*
X146053277Y-82713601D01*
X146056000Y-82706300D01*
X146056000Y-82702789D01*
X146564000Y-82702789D01*
X146567237Y-82713814D01*
X146574328Y-82710576D01*
X146592092Y-82692812D01*
X146599706Y-82678868D01*
X146599575Y-82677035D01*
X146595324Y-82670420D01*
X146576812Y-82651908D01*
X146566723Y-82646399D01*
X146564000Y-82653700D01*
X146564000Y-82702789D01*
X146056000Y-82702789D01*
X146056000Y-82657211D01*
X146052763Y-82646186D01*
X146045672Y-82649424D01*
X146027908Y-82667188D01*
X146020294Y-82681132D01*
X145750013Y-82681132D01*
X145751249Y-82678868D01*
X145751118Y-82677035D01*
X145746867Y-82670420D01*
X145523259Y-82446812D01*
X145499797Y-82434000D01*
X145028116Y-82434000D01*
X145012877Y-82438475D01*
X145011672Y-82439865D01*
X145010001Y-82447548D01*
X145010001Y-83132411D01*
X145008923Y-83148858D01*
X145005901Y-83171812D01*
X145005901Y-83188188D01*
X126952999Y-83188188D01*
X126952999Y-83057801D01*
X126952461Y-83049589D01*
X126938634Y-82944556D01*
X126934396Y-82928741D01*
X126880259Y-82798041D01*
X126872070Y-82783858D01*
X126785954Y-82671628D01*
X126774374Y-82660048D01*
X126662139Y-82573928D01*
X126647958Y-82565741D01*
X126517261Y-82511604D01*
X126501442Y-82507366D01*
X126396410Y-82493538D01*
X126388201Y-82493000D01*
X126258673Y-82493000D01*
X126190552Y-82472998D01*
X126144059Y-82419342D01*
X126133955Y-82349068D01*
X126163449Y-82284488D01*
X126202945Y-82253994D01*
X126351527Y-82180721D01*
X126356710Y-82178165D01*
X126526133Y-82051651D01*
X126630978Y-81938230D01*
X166615462Y-81938230D01*
X166616614Y-81951106D01*
X166631770Y-81956000D01*
X167637885Y-81956000D01*
X167653124Y-81951525D01*
X167654329Y-81950135D01*
X167656000Y-81942452D01*
X167656000Y-81937885D01*
X168164000Y-81937885D01*
X168168475Y-81953124D01*
X168169865Y-81954329D01*
X168177548Y-81956000D01*
X169190913Y-81956000D01*
X169203875Y-81952194D01*
X169205811Y-81937278D01*
X169200056Y-81903787D01*
X169197075Y-81892661D01*
X169124742Y-81696592D01*
X169119790Y-81686210D01*
X169012936Y-81506604D01*
X169006171Y-81497292D01*
X168868371Y-81340163D01*
X168860028Y-81332246D01*
X168695905Y-81202862D01*
X168686249Y-81196591D01*
X168501304Y-81099287D01*
X168490667Y-81094881D01*
X168291084Y-81032908D01*
X168279826Y-81030515D01*
X168181988Y-81018935D01*
X168167569Y-81021377D01*
X168164000Y-81034119D01*
X168164000Y-81937885D01*
X167656000Y-81937885D01*
X167656000Y-81034827D01*
X167651729Y-81020282D01*
X167639595Y-81018219D01*
X167571134Y-81024510D01*
X167559820Y-81026607D01*
X167358675Y-81083336D01*
X167347936Y-81087458D01*
X167160497Y-81179893D01*
X167150689Y-81185903D01*
X166983227Y-81310953D01*
X166974687Y-81318643D01*
X166832816Y-81472117D01*
X166825815Y-81481242D01*
X166714293Y-81657994D01*
X166709072Y-81668241D01*
X166631629Y-81862353D01*
X166628360Y-81873389D01*
X166615462Y-81938230D01*
X126630978Y-81938230D01*
X126631858Y-81937278D01*
X126665743Y-81900622D01*
X126665745Y-81900620D01*
X126669663Y-81896381D01*
X126684170Y-81873389D01*
X126779416Y-81722434D01*
X126779416Y-81722433D01*
X126782495Y-81717554D01*
X126860848Y-81521160D01*
X126861973Y-81515503D01*
X126861975Y-81515497D01*
X126900972Y-81319442D01*
X126900972Y-81319440D01*
X126902099Y-81313775D01*
X126902494Y-81283654D01*
X126903743Y-81188188D01*
X145005901Y-81188188D01*
X145008922Y-81211136D01*
X145010000Y-81227582D01*
X145010000Y-81907885D01*
X145014475Y-81923124D01*
X145015865Y-81924329D01*
X145023548Y-81926000D01*
X145492332Y-81926000D01*
X145517977Y-81918470D01*
X145743635Y-81692812D01*
X145750013Y-81681132D01*
X146020294Y-81681132D01*
X146020425Y-81682965D01*
X146024676Y-81689580D01*
X146043188Y-81708092D01*
X146053277Y-81713601D01*
X146056000Y-81706300D01*
X146056000Y-81702789D01*
X146564000Y-81702789D01*
X146567237Y-81713814D01*
X146574328Y-81710576D01*
X146592092Y-81692812D01*
X146599706Y-81678868D01*
X146599575Y-81677035D01*
X146595324Y-81670420D01*
X146576812Y-81651908D01*
X146566723Y-81646399D01*
X146564000Y-81653700D01*
X146564000Y-81702789D01*
X146056000Y-81702789D01*
X146056000Y-81657211D01*
X146052763Y-81646186D01*
X146045672Y-81649424D01*
X146027908Y-81667188D01*
X146020294Y-81681132D01*
X145750013Y-81681132D01*
X145751249Y-81678868D01*
X145751118Y-81677035D01*
X145746867Y-81670420D01*
X145345542Y-81269095D01*
X145311516Y-81206783D01*
X145313351Y-81181132D01*
X145968751Y-81181132D01*
X145968882Y-81182965D01*
X145973133Y-81189580D01*
X146043188Y-81259635D01*
X146053277Y-81265144D01*
X146056000Y-81257843D01*
X146056000Y-81254332D01*
X146564000Y-81254332D01*
X146567237Y-81265357D01*
X146574328Y-81262119D01*
X146643635Y-81192812D01*
X146651249Y-81178868D01*
X146651118Y-81177035D01*
X146646867Y-81170420D01*
X146576812Y-81100365D01*
X146566723Y-81094856D01*
X146564000Y-81102157D01*
X146564000Y-81254332D01*
X146056000Y-81254332D01*
X146056000Y-81105668D01*
X146052763Y-81094643D01*
X146045672Y-81097881D01*
X145976365Y-81167188D01*
X145968751Y-81181132D01*
X145313351Y-81181132D01*
X145316581Y-81135968D01*
X145345542Y-81090905D01*
X145796676Y-80639771D01*
X145858988Y-80605745D01*
X145929803Y-80610810D01*
X145974866Y-80639771D01*
X146043189Y-80708094D01*
X146053277Y-80713602D01*
X146056000Y-80706300D01*
X146056000Y-80702789D01*
X146564000Y-80702789D01*
X146567237Y-80713814D01*
X146574330Y-80710575D01*
X146645134Y-80639771D01*
X146707446Y-80605745D01*
X146778261Y-80610810D01*
X146823324Y-80639771D01*
X147274458Y-81090905D01*
X147308484Y-81153217D01*
X147303419Y-81224032D01*
X147274458Y-81269095D01*
X146876365Y-81667188D01*
X146868751Y-81681132D01*
X146868882Y-81682965D01*
X146873133Y-81689580D01*
X147096741Y-81913188D01*
X147120203Y-81926000D01*
X147591884Y-81926000D01*
X147607123Y-81921525D01*
X147608328Y-81920135D01*
X147609999Y-81912452D01*
X147609999Y-81227589D01*
X147611077Y-81211142D01*
X147614099Y-81188188D01*
X147614099Y-81171812D01*
X147611077Y-81148858D01*
X147609999Y-81132411D01*
X147609999Y-80901432D01*
X147609328Y-80892266D01*
X147601300Y-80837722D01*
X147595557Y-80819241D01*
X147553111Y-80732787D01*
X147541151Y-80716082D01*
X147473428Y-80648477D01*
X147456700Y-80636545D01*
X147370162Y-80594245D01*
X147351694Y-80588537D01*
X147297703Y-80580660D01*
X147288604Y-80580000D01*
X147057582Y-80580000D01*
X147041136Y-80578922D01*
X147018188Y-80575901D01*
X147001812Y-80575901D01*
X146978864Y-80578922D01*
X146962418Y-80580000D01*
X146781669Y-80580000D01*
X146770780Y-80583197D01*
X146699784Y-80583196D01*
X146691252Y-80580356D01*
X146690298Y-80580000D01*
X146582115Y-80580000D01*
X146566876Y-80584475D01*
X146565671Y-80585865D01*
X146564000Y-80593548D01*
X146564000Y-80702789D01*
X146056000Y-80702789D01*
X146056000Y-80598116D01*
X146051525Y-80582877D01*
X146050135Y-80581672D01*
X146042452Y-80580001D01*
X145933216Y-80580001D01*
X145922329Y-80583198D01*
X145851333Y-80583199D01*
X145842794Y-80580357D01*
X145841840Y-80580001D01*
X145657588Y-80580001D01*
X145641141Y-80578923D01*
X145618188Y-80575901D01*
X145601812Y-80575901D01*
X145578858Y-80578923D01*
X145562411Y-80580001D01*
X145331432Y-80580001D01*
X145322266Y-80580672D01*
X145267722Y-80588700D01*
X145249241Y-80594443D01*
X145162787Y-80636889D01*
X145146082Y-80648849D01*
X145078477Y-80716572D01*
X145066545Y-80733300D01*
X145024245Y-80819838D01*
X145018537Y-80838306D01*
X145010660Y-80892297D01*
X145010000Y-80901396D01*
X145010000Y-81132418D01*
X145008922Y-81148864D01*
X145005901Y-81171812D01*
X145005901Y-81188188D01*
X126903743Y-81188188D01*
X126903773Y-81185903D01*
X126904867Y-81102346D01*
X126869059Y-80893953D01*
X126795873Y-80695575D01*
X126729016Y-80583198D01*
X126690716Y-80518821D01*
X126690715Y-80518820D01*
X126687762Y-80513856D01*
X126548345Y-80354881D01*
X126382292Y-80223976D01*
X126377181Y-80221287D01*
X126377178Y-80221285D01*
X126282362Y-80171400D01*
X126195164Y-80125523D01*
X125993227Y-80062820D01*
X125978801Y-80061113D01*
X125825232Y-80042936D01*
X125825225Y-80042936D01*
X125821545Y-80042500D01*
X125399359Y-80042500D01*
X125242440Y-80056919D01*
X125236878Y-80058488D01*
X125236876Y-80058488D01*
X125180775Y-80074310D01*
X125038931Y-80114314D01*
X125033753Y-80116867D01*
X125033749Y-80116869D01*
X124858508Y-80203289D01*
X124849290Y-80207835D01*
X124679867Y-80334349D01*
X124536337Y-80489619D01*
X124533256Y-80494502D01*
X124436105Y-80648477D01*
X124423505Y-80668446D01*
X124345152Y-80864840D01*
X124344027Y-80870497D01*
X124344025Y-80870503D01*
X124311340Y-81034827D01*
X124303901Y-81072225D01*
X124303825Y-81078000D01*
X124303825Y-81078004D01*
X124303463Y-81105668D01*
X124301133Y-81283654D01*
X124302112Y-81289351D01*
X124302112Y-81289352D01*
X124309483Y-81332246D01*
X124336941Y-81492047D01*
X124410127Y-81690425D01*
X124413079Y-81695386D01*
X124413079Y-81695387D01*
X124422116Y-81710576D01*
X124518238Y-81872144D01*
X124657655Y-82031119D01*
X124823708Y-82162024D01*
X124828819Y-82164713D01*
X124828822Y-82164715D01*
X125001363Y-82255493D01*
X125052335Y-82304912D01*
X125068498Y-82374045D01*
X125044719Y-82440941D01*
X124988548Y-82484361D01*
X124942695Y-82493001D01*
X124817801Y-82493001D01*
X124809589Y-82493539D01*
X124704556Y-82507366D01*
X124688741Y-82511604D01*
X124558041Y-82565741D01*
X124543858Y-82573930D01*
X124431628Y-82660046D01*
X124420048Y-82671626D01*
X124333928Y-82783861D01*
X124325741Y-82798042D01*
X124271604Y-82928739D01*
X124267366Y-82944558D01*
X124253538Y-83049590D01*
X124253000Y-83057799D01*
X124253000Y-83420885D01*
X122480000Y-83420885D01*
X122480000Y-73510323D01*
X166481041Y-73510323D01*
X166481216Y-73514774D01*
X166483386Y-73570000D01*
X166488199Y-73692477D01*
X166491578Y-73778484D01*
X166539793Y-74042485D01*
X166624725Y-74297059D01*
X166626718Y-74301047D01*
X166705652Y-74459018D01*
X166744680Y-74537126D01*
X166897263Y-74757896D01*
X167079432Y-74954965D01*
X167082886Y-74957777D01*
X167284093Y-75121585D01*
X167284097Y-75121588D01*
X167287550Y-75124399D01*
X167517465Y-75262820D01*
X167521560Y-75264554D01*
X167521562Y-75264555D01*
X167760490Y-75365728D01*
X167760497Y-75365730D01*
X167764591Y-75367464D01*
X167859773Y-75392701D01*
X168019698Y-75435105D01*
X168019702Y-75435106D01*
X168023995Y-75436244D01*
X168028404Y-75436766D01*
X168028410Y-75436767D01*
X168176497Y-75454294D01*
X168290503Y-75467787D01*
X168558796Y-75461464D01*
X168563190Y-75460733D01*
X168563197Y-75460732D01*
X168819120Y-75418135D01*
X168819124Y-75418134D01*
X168823522Y-75417402D01*
X168990642Y-75364549D01*
X169075152Y-75337822D01*
X169075154Y-75337821D01*
X169079398Y-75336479D01*
X169083409Y-75334553D01*
X169083414Y-75334551D01*
X169317301Y-75222240D01*
X169317302Y-75222239D01*
X169321320Y-75220310D01*
X169461417Y-75126700D01*
X169540752Y-75073690D01*
X169540756Y-75073687D01*
X169544460Y-75071212D01*
X169547777Y-75068241D01*
X169547781Y-75068238D01*
X169741047Y-74895134D01*
X169741048Y-74895133D01*
X169744365Y-74892162D01*
X169917048Y-74686731D01*
X170059063Y-74459018D01*
X170167576Y-74213567D01*
X170240422Y-73955275D01*
X170261965Y-73794884D01*
X170275720Y-73692477D01*
X170275721Y-73692469D01*
X170276147Y-73689295D01*
X170279896Y-73570000D01*
X170260942Y-73302302D01*
X170204458Y-73039946D01*
X170181891Y-72978774D01*
X170113112Y-72792343D01*
X170111571Y-72788166D01*
X169984135Y-72551985D01*
X169824692Y-72336116D01*
X169821573Y-72332947D01*
X169821569Y-72332943D01*
X169731847Y-72241801D01*
X169636424Y-72144867D01*
X169589659Y-72109177D01*
X169426627Y-71984755D01*
X169426623Y-71984753D01*
X169423086Y-71982053D01*
X169188936Y-71850923D01*
X168938646Y-71754093D01*
X168934321Y-71753090D01*
X168934316Y-71753089D01*
X168790619Y-71719782D01*
X168677209Y-71693495D01*
X168409842Y-71670338D01*
X168405407Y-71670582D01*
X168405403Y-71670582D01*
X168146323Y-71684840D01*
X168146316Y-71684841D01*
X168141880Y-71685085D01*
X167878669Y-71737441D01*
X167874459Y-71738919D01*
X167874457Y-71738920D01*
X167726434Y-71790902D01*
X167625460Y-71826362D01*
X167621509Y-71828415D01*
X167621503Y-71828417D01*
X167391257Y-71948020D01*
X167387307Y-71950072D01*
X167383692Y-71952655D01*
X167383686Y-71952659D01*
X167246279Y-72050853D01*
X167168961Y-72106105D01*
X167165741Y-72109177D01*
X166991971Y-72274945D01*
X166974778Y-72291346D01*
X166808633Y-72502100D01*
X166745127Y-72611433D01*
X166676079Y-72730307D01*
X166676076Y-72730313D01*
X166673841Y-72734161D01*
X166573092Y-72982900D01*
X166572021Y-72987213D01*
X166572019Y-72987218D01*
X166537281Y-73127065D01*
X166508395Y-73243353D01*
X166481041Y-73510323D01*
X122480000Y-73510323D01*
X122480000Y-70716000D01*
X122500002Y-70647879D01*
X122553658Y-70601386D01*
X122606000Y-70590000D01*
X170994000Y-70590000D01*
X171062121Y-70610002D01*
G37*
%TD.AperFunction*%
%TD*%
M02*
