%TF.GenerationSoftware,KiCad,Pcbnew,(6.0.2)*%
%TF.CreationDate,2022-10-19T14:59:14+05:30*%
%TF.ProjectId,psu,7073752e-6b69-4636-9164-5f7063625858,rev?*%
%TF.SameCoordinates,Original*%
%TF.FileFunction,Legend,Top*%
%TF.FilePolarity,Positive*%
%FSLAX46Y46*%
G04 Gerber Fmt 4.6, Leading zero omitted, Abs format (unit mm)*
G04 Created by KiCad (PCBNEW (6.0.2)) date 2022-10-19 14:59:14*
%MOMM*%
%LPD*%
G01*
G04 APERTURE LIST*
%ADD10C,0.120000*%
%ADD11C,0.150000*%
%ADD12C,0.100000*%
G04 APERTURE END LIST*
D10*
X143285981Y-78740000D02*
G75*
G03*
X143285981Y-78740000I-283981J0D01*
G01*
D11*
%TO.C,D1*%
X126182380Y-72747095D02*
X125182380Y-72747095D01*
X125182380Y-72509000D01*
X125230000Y-72366142D01*
X125325238Y-72270904D01*
X125420476Y-72223285D01*
X125610952Y-72175666D01*
X125753809Y-72175666D01*
X125944285Y-72223285D01*
X126039523Y-72270904D01*
X126134761Y-72366142D01*
X126182380Y-72509000D01*
X126182380Y-72747095D01*
X126182380Y-71223285D02*
X126182380Y-71794714D01*
X126182380Y-71509000D02*
X125182380Y-71509000D01*
X125325238Y-71604238D01*
X125420476Y-71699476D01*
X125468095Y-71794714D01*
%TO.C,R1*%
X143942380Y-91916666D02*
X143466190Y-92250000D01*
X143942380Y-92488095D02*
X142942380Y-92488095D01*
X142942380Y-92107142D01*
X142990000Y-92011904D01*
X143037619Y-91964285D01*
X143132857Y-91916666D01*
X143275714Y-91916666D01*
X143370952Y-91964285D01*
X143418571Y-92011904D01*
X143466190Y-92107142D01*
X143466190Y-92488095D01*
X143942380Y-90964285D02*
X143942380Y-91535714D01*
X143942380Y-91250000D02*
X142942380Y-91250000D01*
X143085238Y-91345238D01*
X143180476Y-91440476D01*
X143228095Y-91535714D01*
%TO.C,C1*%
X133367142Y-91856666D02*
X133414761Y-91904285D01*
X133462380Y-92047142D01*
X133462380Y-92142380D01*
X133414761Y-92285238D01*
X133319523Y-92380476D01*
X133224285Y-92428095D01*
X133033809Y-92475714D01*
X132890952Y-92475714D01*
X132700476Y-92428095D01*
X132605238Y-92380476D01*
X132510000Y-92285238D01*
X132462380Y-92142380D01*
X132462380Y-92047142D01*
X132510000Y-91904285D01*
X132557619Y-91856666D01*
X133462380Y-90904285D02*
X133462380Y-91475714D01*
X133462380Y-91190000D02*
X132462380Y-91190000D01*
X132605238Y-91285238D01*
X132700476Y-91380476D01*
X132748095Y-91475714D01*
%TO.C,U1*%
X141102380Y-85331904D02*
X141911904Y-85331904D01*
X142007142Y-85284285D01*
X142054761Y-85236666D01*
X142102380Y-85141428D01*
X142102380Y-84950952D01*
X142054761Y-84855714D01*
X142007142Y-84808095D01*
X141911904Y-84760476D01*
X141102380Y-84760476D01*
X142102380Y-83760476D02*
X142102380Y-84331904D01*
X142102380Y-84046190D02*
X141102380Y-84046190D01*
X141245238Y-84141428D01*
X141340476Y-84236666D01*
X141388095Y-84331904D01*
%TO.C,D3*%
X146772380Y-74958095D02*
X145772380Y-74958095D01*
X145772380Y-74720000D01*
X145820000Y-74577142D01*
X145915238Y-74481904D01*
X146010476Y-74434285D01*
X146200952Y-74386666D01*
X146343809Y-74386666D01*
X146534285Y-74434285D01*
X146629523Y-74481904D01*
X146724761Y-74577142D01*
X146772380Y-74720000D01*
X146772380Y-74958095D01*
X145772380Y-74053333D02*
X145772380Y-73434285D01*
X146153333Y-73767619D01*
X146153333Y-73624761D01*
X146200952Y-73529523D01*
X146248571Y-73481904D01*
X146343809Y-73434285D01*
X146581904Y-73434285D01*
X146677142Y-73481904D01*
X146724761Y-73529523D01*
X146772380Y-73624761D01*
X146772380Y-73910476D01*
X146724761Y-74005714D01*
X146677142Y-74053333D01*
%TO.C,C7*%
X159797142Y-82936666D02*
X159844761Y-82984285D01*
X159892380Y-83127142D01*
X159892380Y-83222380D01*
X159844761Y-83365238D01*
X159749523Y-83460476D01*
X159654285Y-83508095D01*
X159463809Y-83555714D01*
X159320952Y-83555714D01*
X159130476Y-83508095D01*
X159035238Y-83460476D01*
X158940000Y-83365238D01*
X158892380Y-83222380D01*
X158892380Y-83127142D01*
X158940000Y-82984285D01*
X158987619Y-82936666D01*
X158892380Y-82603333D02*
X158892380Y-81936666D01*
X159892380Y-82365238D01*
%TO.C,C8*%
X152457142Y-92146666D02*
X152504761Y-92194285D01*
X152552380Y-92337142D01*
X152552380Y-92432380D01*
X152504761Y-92575238D01*
X152409523Y-92670476D01*
X152314285Y-92718095D01*
X152123809Y-92765714D01*
X151980952Y-92765714D01*
X151790476Y-92718095D01*
X151695238Y-92670476D01*
X151600000Y-92575238D01*
X151552380Y-92432380D01*
X151552380Y-92337142D01*
X151600000Y-92194285D01*
X151647619Y-92146666D01*
X151980952Y-91575238D02*
X151933333Y-91670476D01*
X151885714Y-91718095D01*
X151790476Y-91765714D01*
X151742857Y-91765714D01*
X151647619Y-91718095D01*
X151600000Y-91670476D01*
X151552380Y-91575238D01*
X151552380Y-91384761D01*
X151600000Y-91289523D01*
X151647619Y-91241904D01*
X151742857Y-91194285D01*
X151790476Y-91194285D01*
X151885714Y-91241904D01*
X151933333Y-91289523D01*
X151980952Y-91384761D01*
X151980952Y-91575238D01*
X152028571Y-91670476D01*
X152076190Y-91718095D01*
X152171428Y-91765714D01*
X152361904Y-91765714D01*
X152457142Y-91718095D01*
X152504761Y-91670476D01*
X152552380Y-91575238D01*
X152552380Y-91384761D01*
X152504761Y-91289523D01*
X152457142Y-91241904D01*
X152361904Y-91194285D01*
X152171428Y-91194285D01*
X152076190Y-91241904D01*
X152028571Y-91289523D01*
X151980952Y-91384761D01*
%TO.C,C11*%
X163806142Y-75826857D02*
X163853761Y-75874476D01*
X163901380Y-76017333D01*
X163901380Y-76112571D01*
X163853761Y-76255428D01*
X163758523Y-76350666D01*
X163663285Y-76398285D01*
X163472809Y-76445904D01*
X163329952Y-76445904D01*
X163139476Y-76398285D01*
X163044238Y-76350666D01*
X162949000Y-76255428D01*
X162901380Y-76112571D01*
X162901380Y-76017333D01*
X162949000Y-75874476D01*
X162996619Y-75826857D01*
X163901380Y-74874476D02*
X163901380Y-75445904D01*
X163901380Y-75160190D02*
X162901380Y-75160190D01*
X163044238Y-75255428D01*
X163139476Y-75350666D01*
X163187095Y-75445904D01*
X163901380Y-73922095D02*
X163901380Y-74493523D01*
X163901380Y-74207809D02*
X162901380Y-74207809D01*
X163044238Y-74303047D01*
X163139476Y-74398285D01*
X163187095Y-74493523D01*
%TO.C,C4*%
X138627142Y-91976666D02*
X138674761Y-92024285D01*
X138722380Y-92167142D01*
X138722380Y-92262380D01*
X138674761Y-92405238D01*
X138579523Y-92500476D01*
X138484285Y-92548095D01*
X138293809Y-92595714D01*
X138150952Y-92595714D01*
X137960476Y-92548095D01*
X137865238Y-92500476D01*
X137770000Y-92405238D01*
X137722380Y-92262380D01*
X137722380Y-92167142D01*
X137770000Y-92024285D01*
X137817619Y-91976666D01*
X138055714Y-91119523D02*
X138722380Y-91119523D01*
X137674761Y-91357619D02*
X138389047Y-91595714D01*
X138389047Y-90976666D01*
%TO.C,C3*%
X131357142Y-84766666D02*
X131404761Y-84814285D01*
X131452380Y-84957142D01*
X131452380Y-85052380D01*
X131404761Y-85195238D01*
X131309523Y-85290476D01*
X131214285Y-85338095D01*
X131023809Y-85385714D01*
X130880952Y-85385714D01*
X130690476Y-85338095D01*
X130595238Y-85290476D01*
X130500000Y-85195238D01*
X130452380Y-85052380D01*
X130452380Y-84957142D01*
X130500000Y-84814285D01*
X130547619Y-84766666D01*
X130452380Y-84433333D02*
X130452380Y-83814285D01*
X130833333Y-84147619D01*
X130833333Y-84004761D01*
X130880952Y-83909523D01*
X130928571Y-83861904D01*
X131023809Y-83814285D01*
X131261904Y-83814285D01*
X131357142Y-83861904D01*
X131404761Y-83909523D01*
X131452380Y-84004761D01*
X131452380Y-84290476D01*
X131404761Y-84385714D01*
X131357142Y-84433333D01*
%TO.C,J2*%
X167442380Y-91993333D02*
X168156666Y-91993333D01*
X168299523Y-92040952D01*
X168394761Y-92136190D01*
X168442380Y-92279047D01*
X168442380Y-92374285D01*
X167537619Y-91564761D02*
X167490000Y-91517142D01*
X167442380Y-91421904D01*
X167442380Y-91183809D01*
X167490000Y-91088571D01*
X167537619Y-91040952D01*
X167632857Y-90993333D01*
X167728095Y-90993333D01*
X167870952Y-91040952D01*
X168442380Y-91612380D01*
X168442380Y-90993333D01*
%TO.C,FL1*%
X123259857Y-91141476D02*
X123259857Y-91408142D01*
X123678904Y-91408142D02*
X122878904Y-91408142D01*
X122878904Y-91027190D01*
X123678904Y-90341476D02*
X123678904Y-90722428D01*
X122878904Y-90722428D01*
X123678904Y-89655761D02*
X123678904Y-90112904D01*
X123678904Y-89884333D02*
X122878904Y-89884333D01*
X122993190Y-89960523D01*
X123069380Y-90036714D01*
X123107476Y-90112904D01*
%TO.C,C6*%
X144297142Y-74886666D02*
X144344761Y-74934285D01*
X144392380Y-75077142D01*
X144392380Y-75172380D01*
X144344761Y-75315238D01*
X144249523Y-75410476D01*
X144154285Y-75458095D01*
X143963809Y-75505714D01*
X143820952Y-75505714D01*
X143630476Y-75458095D01*
X143535238Y-75410476D01*
X143440000Y-75315238D01*
X143392380Y-75172380D01*
X143392380Y-75077142D01*
X143440000Y-74934285D01*
X143487619Y-74886666D01*
X143392380Y-74029523D02*
X143392380Y-74220000D01*
X143440000Y-74315238D01*
X143487619Y-74362857D01*
X143630476Y-74458095D01*
X143820952Y-74505714D01*
X144201904Y-74505714D01*
X144297142Y-74458095D01*
X144344761Y-74410476D01*
X144392380Y-74315238D01*
X144392380Y-74124761D01*
X144344761Y-74029523D01*
X144297142Y-73981904D01*
X144201904Y-73934285D01*
X143963809Y-73934285D01*
X143868571Y-73981904D01*
X143820952Y-74029523D01*
X143773333Y-74124761D01*
X143773333Y-74315238D01*
X143820952Y-74410476D01*
X143868571Y-74458095D01*
X143963809Y-74505714D01*
%TO.C,C10*%
X163552142Y-83446857D02*
X163599761Y-83494476D01*
X163647380Y-83637333D01*
X163647380Y-83732571D01*
X163599761Y-83875428D01*
X163504523Y-83970666D01*
X163409285Y-84018285D01*
X163218809Y-84065904D01*
X163075952Y-84065904D01*
X162885476Y-84018285D01*
X162790238Y-83970666D01*
X162695000Y-83875428D01*
X162647380Y-83732571D01*
X162647380Y-83637333D01*
X162695000Y-83494476D01*
X162742619Y-83446857D01*
X163647380Y-82494476D02*
X163647380Y-83065904D01*
X163647380Y-82780190D02*
X162647380Y-82780190D01*
X162790238Y-82875428D01*
X162885476Y-82970666D01*
X162933095Y-83065904D01*
X162647380Y-81875428D02*
X162647380Y-81780190D01*
X162695000Y-81684952D01*
X162742619Y-81637333D01*
X162837857Y-81589714D01*
X163028333Y-81542095D01*
X163266428Y-81542095D01*
X163456904Y-81589714D01*
X163552142Y-81637333D01*
X163599761Y-81684952D01*
X163647380Y-81780190D01*
X163647380Y-81875428D01*
X163599761Y-81970666D01*
X163552142Y-82018285D01*
X163456904Y-82065904D01*
X163266428Y-82113523D01*
X163028333Y-82113523D01*
X162837857Y-82065904D01*
X162742619Y-82018285D01*
X162695000Y-81970666D01*
X162647380Y-81875428D01*
%TO.C,L1*%
X151402380Y-80356666D02*
X151402380Y-80832857D01*
X150402380Y-80832857D01*
X151402380Y-79499523D02*
X151402380Y-80070952D01*
X151402380Y-79785238D02*
X150402380Y-79785238D01*
X150545238Y-79880476D01*
X150640476Y-79975714D01*
X150688095Y-80070952D01*
%TO.C,R7*%
X150692380Y-87476666D02*
X150216190Y-87810000D01*
X150692380Y-88048095D02*
X149692380Y-88048095D01*
X149692380Y-87667142D01*
X149740000Y-87571904D01*
X149787619Y-87524285D01*
X149882857Y-87476666D01*
X150025714Y-87476666D01*
X150120952Y-87524285D01*
X150168571Y-87571904D01*
X150216190Y-87667142D01*
X150216190Y-88048095D01*
X149692380Y-87143333D02*
X149692380Y-86476666D01*
X150692380Y-86905238D01*
%TO.C,C5*%
X141327142Y-91926666D02*
X141374761Y-91974285D01*
X141422380Y-92117142D01*
X141422380Y-92212380D01*
X141374761Y-92355238D01*
X141279523Y-92450476D01*
X141184285Y-92498095D01*
X140993809Y-92545714D01*
X140850952Y-92545714D01*
X140660476Y-92498095D01*
X140565238Y-92450476D01*
X140470000Y-92355238D01*
X140422380Y-92212380D01*
X140422380Y-92117142D01*
X140470000Y-91974285D01*
X140517619Y-91926666D01*
X140422380Y-91021904D02*
X140422380Y-91498095D01*
X140898571Y-91545714D01*
X140850952Y-91498095D01*
X140803333Y-91402857D01*
X140803333Y-91164761D01*
X140850952Y-91069523D01*
X140898571Y-91021904D01*
X140993809Y-90974285D01*
X141231904Y-90974285D01*
X141327142Y-91021904D01*
X141374761Y-91069523D01*
X141422380Y-91164761D01*
X141422380Y-91402857D01*
X141374761Y-91498095D01*
X141327142Y-91545714D01*
%TO.C,R3*%
X142692380Y-98337666D02*
X142216190Y-98671000D01*
X142692380Y-98909095D02*
X141692380Y-98909095D01*
X141692380Y-98528142D01*
X141740000Y-98432904D01*
X141787619Y-98385285D01*
X141882857Y-98337666D01*
X142025714Y-98337666D01*
X142120952Y-98385285D01*
X142168571Y-98432904D01*
X142216190Y-98528142D01*
X142216190Y-98909095D01*
X141692380Y-98004333D02*
X141692380Y-97385285D01*
X142073333Y-97718619D01*
X142073333Y-97575761D01*
X142120952Y-97480523D01*
X142168571Y-97432904D01*
X142263809Y-97385285D01*
X142501904Y-97385285D01*
X142597142Y-97432904D01*
X142644761Y-97480523D01*
X142692380Y-97575761D01*
X142692380Y-97861476D01*
X142644761Y-97956714D01*
X142597142Y-98004333D01*
%TO.C,D2*%
X135199380Y-98782095D02*
X134199380Y-98782095D01*
X134199380Y-98544000D01*
X134247000Y-98401142D01*
X134342238Y-98305904D01*
X134437476Y-98258285D01*
X134627952Y-98210666D01*
X134770809Y-98210666D01*
X134961285Y-98258285D01*
X135056523Y-98305904D01*
X135151761Y-98401142D01*
X135199380Y-98544000D01*
X135199380Y-98782095D01*
X134294619Y-97829714D02*
X134247000Y-97782095D01*
X134199380Y-97686857D01*
X134199380Y-97448761D01*
X134247000Y-97353523D01*
X134294619Y-97305904D01*
X134389857Y-97258285D01*
X134485095Y-97258285D01*
X134627952Y-97305904D01*
X135199380Y-97877333D01*
X135199380Y-97258285D01*
%TO.C,R2*%
X139898380Y-98464666D02*
X139422190Y-98798000D01*
X139898380Y-99036095D02*
X138898380Y-99036095D01*
X138898380Y-98655142D01*
X138946000Y-98559904D01*
X138993619Y-98512285D01*
X139088857Y-98464666D01*
X139231714Y-98464666D01*
X139326952Y-98512285D01*
X139374571Y-98559904D01*
X139422190Y-98655142D01*
X139422190Y-99036095D01*
X138993619Y-98083714D02*
X138946000Y-98036095D01*
X138898380Y-97940857D01*
X138898380Y-97702761D01*
X138946000Y-97607523D01*
X138993619Y-97559904D01*
X139088857Y-97512285D01*
X139184095Y-97512285D01*
X139326952Y-97559904D01*
X139898380Y-98131333D01*
X139898380Y-97512285D01*
%TO.C,C2*%
X136147142Y-91996666D02*
X136194761Y-92044285D01*
X136242380Y-92187142D01*
X136242380Y-92282380D01*
X136194761Y-92425238D01*
X136099523Y-92520476D01*
X136004285Y-92568095D01*
X135813809Y-92615714D01*
X135670952Y-92615714D01*
X135480476Y-92568095D01*
X135385238Y-92520476D01*
X135290000Y-92425238D01*
X135242380Y-92282380D01*
X135242380Y-92187142D01*
X135290000Y-92044285D01*
X135337619Y-91996666D01*
X135337619Y-91615714D02*
X135290000Y-91568095D01*
X135242380Y-91472857D01*
X135242380Y-91234761D01*
X135290000Y-91139523D01*
X135337619Y-91091904D01*
X135432857Y-91044285D01*
X135528095Y-91044285D01*
X135670952Y-91091904D01*
X136242380Y-91663333D01*
X136242380Y-91044285D01*
%TO.C,R6*%
X150822380Y-90336666D02*
X150346190Y-90670000D01*
X150822380Y-90908095D02*
X149822380Y-90908095D01*
X149822380Y-90527142D01*
X149870000Y-90431904D01*
X149917619Y-90384285D01*
X150012857Y-90336666D01*
X150155714Y-90336666D01*
X150250952Y-90384285D01*
X150298571Y-90431904D01*
X150346190Y-90527142D01*
X150346190Y-90908095D01*
X149822380Y-89479523D02*
X149822380Y-89670000D01*
X149870000Y-89765238D01*
X149917619Y-89812857D01*
X150060476Y-89908095D01*
X150250952Y-89955714D01*
X150631904Y-89955714D01*
X150727142Y-89908095D01*
X150774761Y-89860476D01*
X150822380Y-89765238D01*
X150822380Y-89574761D01*
X150774761Y-89479523D01*
X150727142Y-89431904D01*
X150631904Y-89384285D01*
X150393809Y-89384285D01*
X150298571Y-89431904D01*
X150250952Y-89479523D01*
X150203333Y-89574761D01*
X150203333Y-89765238D01*
X150250952Y-89860476D01*
X150298571Y-89908095D01*
X150393809Y-89955714D01*
%TO.C,R5*%
X150872380Y-93086666D02*
X150396190Y-93420000D01*
X150872380Y-93658095D02*
X149872380Y-93658095D01*
X149872380Y-93277142D01*
X149920000Y-93181904D01*
X149967619Y-93134285D01*
X150062857Y-93086666D01*
X150205714Y-93086666D01*
X150300952Y-93134285D01*
X150348571Y-93181904D01*
X150396190Y-93277142D01*
X150396190Y-93658095D01*
X149872380Y-92181904D02*
X149872380Y-92658095D01*
X150348571Y-92705714D01*
X150300952Y-92658095D01*
X150253333Y-92562857D01*
X150253333Y-92324761D01*
X150300952Y-92229523D01*
X150348571Y-92181904D01*
X150443809Y-92134285D01*
X150681904Y-92134285D01*
X150777142Y-92181904D01*
X150824761Y-92229523D01*
X150872380Y-92324761D01*
X150872380Y-92562857D01*
X150824761Y-92658095D01*
X150777142Y-92705714D01*
%TO.C,J1*%
X122769380Y-87709333D02*
X123483666Y-87709333D01*
X123626523Y-87756952D01*
X123721761Y-87852190D01*
X123769380Y-87995047D01*
X123769380Y-88090285D01*
X123769380Y-86709333D02*
X123769380Y-87280761D01*
X123769380Y-86995047D02*
X122769380Y-86995047D01*
X122912238Y-87090285D01*
X123007476Y-87185523D01*
X123055095Y-87280761D01*
%TO.C,R4*%
X154542380Y-85366666D02*
X154066190Y-85700000D01*
X154542380Y-85938095D02*
X153542380Y-85938095D01*
X153542380Y-85557142D01*
X153590000Y-85461904D01*
X153637619Y-85414285D01*
X153732857Y-85366666D01*
X153875714Y-85366666D01*
X153970952Y-85414285D01*
X154018571Y-85461904D01*
X154066190Y-85557142D01*
X154066190Y-85938095D01*
X153875714Y-84509523D02*
X154542380Y-84509523D01*
X153494761Y-84747619D02*
X154209047Y-84985714D01*
X154209047Y-84366666D01*
%TO.C,C9*%
X166387142Y-93976666D02*
X166434761Y-94024285D01*
X166482380Y-94167142D01*
X166482380Y-94262380D01*
X166434761Y-94405238D01*
X166339523Y-94500476D01*
X166244285Y-94548095D01*
X166053809Y-94595714D01*
X165910952Y-94595714D01*
X165720476Y-94548095D01*
X165625238Y-94500476D01*
X165530000Y-94405238D01*
X165482380Y-94262380D01*
X165482380Y-94167142D01*
X165530000Y-94024285D01*
X165577619Y-93976666D01*
X166482380Y-93500476D02*
X166482380Y-93310000D01*
X166434761Y-93214761D01*
X166387142Y-93167142D01*
X166244285Y-93071904D01*
X166053809Y-93024285D01*
X165672857Y-93024285D01*
X165577619Y-93071904D01*
X165530000Y-93119523D01*
X165482380Y-93214761D01*
X165482380Y-93405238D01*
X165530000Y-93500476D01*
X165577619Y-93548095D01*
X165672857Y-93595714D01*
X165910952Y-93595714D01*
X166006190Y-93548095D01*
X166053809Y-93500476D01*
X166101428Y-93405238D01*
X166101428Y-93214761D01*
X166053809Y-93119523D01*
X166006190Y-93071904D01*
X165910952Y-93024285D01*
D10*
%TO.C,D1*%
X129860000Y-73490000D02*
X124460000Y-73490000D01*
X129860000Y-76790000D02*
X129860000Y-73490000D01*
X129860000Y-76790000D02*
X124460000Y-76790000D01*
%TO.C,R1*%
X142965000Y-88382936D02*
X142965000Y-88837064D01*
X144435000Y-88382936D02*
X144435000Y-88837064D01*
%TO.C,C1*%
X132235000Y-88378748D02*
X132235000Y-88901252D01*
X133705000Y-88378748D02*
X133705000Y-88901252D01*
%TO.C,U1*%
X146310000Y-84740000D02*
X148260000Y-84740000D01*
X146310000Y-84740000D02*
X144360000Y-84740000D01*
X146310000Y-79620000D02*
X142860000Y-79620000D01*
X146310000Y-79620000D02*
X148260000Y-79620000D01*
%TO.C,D3*%
X150710000Y-78510000D02*
X150710000Y-73110000D01*
X147410000Y-78510000D02*
X147410000Y-73110000D01*
X147410000Y-78510000D02*
X150710000Y-78510000D01*
%TO.C,C7*%
X156501252Y-82065000D02*
X155978748Y-82065000D01*
X156501252Y-83535000D02*
X155978748Y-83535000D01*
%TO.C,C8*%
X152745000Y-89031252D02*
X152745000Y-88508748D01*
X151275000Y-89031252D02*
X151275000Y-88508748D01*
%TO.C,C11*%
X162806748Y-77243000D02*
X163329252Y-77243000D01*
X162806748Y-78713000D02*
X163329252Y-78713000D01*
%TO.C,C4*%
X137625000Y-88358748D02*
X137625000Y-88881252D01*
X139095000Y-88358748D02*
X139095000Y-88881252D01*
%TO.C,C3*%
X130930000Y-82575563D02*
X130930000Y-72920000D01*
X140585563Y-83640000D02*
X141650000Y-82575563D01*
X132905000Y-84505000D02*
X134155000Y-84505000D01*
X131994437Y-83640000D02*
X130930000Y-82575563D01*
X130930000Y-72920000D02*
X134780000Y-72920000D01*
X141650000Y-72920000D02*
X137800000Y-72920000D01*
X131994437Y-83640000D02*
X134780000Y-83640000D01*
X133530000Y-85130000D02*
X133530000Y-83880000D01*
X140585563Y-83640000D02*
X137800000Y-83640000D01*
X141650000Y-82575563D02*
X141650000Y-72920000D01*
%TO.C,J2*%
X167910000Y-80100000D02*
X167910000Y-79600000D01*
X167910000Y-89320000D02*
X166700000Y-89320000D01*
X168720000Y-79600000D02*
X168720000Y-80600000D01*
X167910000Y-89820000D02*
X167910000Y-89320000D01*
X168720000Y-88820000D02*
X170220000Y-88820000D01*
X168720000Y-80600000D02*
X170220000Y-80600000D01*
X166700000Y-80100000D02*
X167910000Y-80100000D01*
X168020000Y-90120000D02*
X170520000Y-90120000D01*
X166700000Y-89320000D02*
X166700000Y-80100000D01*
X170220000Y-79600000D02*
X166200000Y-79600000D01*
X166200000Y-79600000D02*
X166200000Y-89820000D01*
X166200000Y-89820000D02*
X170220000Y-89820000D01*
X170220000Y-89820000D02*
X170220000Y-79600000D01*
X168720000Y-89820000D02*
X168720000Y-88820000D01*
X170520000Y-90120000D02*
X170520000Y-87620000D01*
D12*
%TO.C,FL1*%
X124035000Y-92197000D02*
X124035000Y-88397000D01*
X124035000Y-88397000D02*
X131235000Y-88397000D01*
X124435000Y-90297000D02*
X124435000Y-90297000D01*
X131235000Y-88397000D02*
X131235000Y-92197000D01*
X131235000Y-92197000D02*
X124035000Y-92197000D01*
X124335000Y-90297000D02*
X124335000Y-90297000D01*
X124335000Y-90297000D02*
G75*
G03*
X124435000Y-90297000I50000J0D01*
G01*
X124435000Y-90297000D02*
G75*
G03*
X124335000Y-90297000I-50000J0D01*
G01*
D10*
%TO.C,C6*%
X145041252Y-76205000D02*
X144518748Y-76205000D01*
X145041252Y-77675000D02*
X144518748Y-77675000D01*
%TO.C,C10*%
X162806748Y-79529000D02*
X163329252Y-79529000D01*
X162806748Y-80999000D02*
X163329252Y-80999000D01*
%TO.C,L1*%
X158940000Y-79360000D02*
X160540000Y-79360000D01*
X152140000Y-72960000D02*
X152140000Y-79360000D01*
X152140000Y-79360000D02*
X153740000Y-79360000D01*
X153740000Y-72960000D02*
X152140000Y-72960000D01*
X160540000Y-72960000D02*
X158940000Y-72960000D01*
X160540000Y-79360000D02*
X160540000Y-72960000D01*
%TO.C,R7*%
X147567064Y-86545000D02*
X147112936Y-86545000D01*
X147567064Y-88015000D02*
X147112936Y-88015000D01*
%TO.C,C5*%
X141785000Y-88318748D02*
X141785000Y-88841252D01*
X140315000Y-88318748D02*
X140315000Y-88841252D01*
%TO.C,R3*%
X143005000Y-94862936D02*
X143005000Y-95317064D01*
X141535000Y-94862936D02*
X141535000Y-95317064D01*
%TO.C,D2*%
X134860000Y-96640000D02*
X135510000Y-96640000D01*
X134860000Y-93520000D02*
X135510000Y-93520000D01*
X134860000Y-96640000D02*
X134210000Y-96640000D01*
X134860000Y-93520000D02*
X133185000Y-93520000D01*
%TO.C,R2*%
X140105000Y-95357064D02*
X140105000Y-94902936D01*
X138635000Y-95357064D02*
X138635000Y-94902936D01*
%TO.C,C2*%
X136455000Y-88398748D02*
X136455000Y-88921252D01*
X134985000Y-88398748D02*
X134985000Y-88921252D01*
%TO.C,R6*%
X147132936Y-90825000D02*
X147587064Y-90825000D01*
X147132936Y-89355000D02*
X147587064Y-89355000D01*
%TO.C,R5*%
X147617064Y-92165000D02*
X147162936Y-92165000D01*
X147617064Y-93635000D02*
X147162936Y-93635000D01*
%TO.C,J1*%
X129113000Y-86253000D02*
X129113000Y-78633000D01*
X123143000Y-86253000D02*
X129113000Y-86253000D01*
X123143000Y-78633000D02*
X123143000Y-86253000D01*
X123903000Y-80443000D02*
X123903000Y-78643000D01*
X123903000Y-86243000D02*
X123903000Y-84443000D01*
X129113000Y-78633000D02*
X123143000Y-78633000D01*
X123153000Y-80443000D02*
X123903000Y-80443000D01*
X123903000Y-82943000D02*
X123903000Y-81943000D01*
X125403000Y-86243000D02*
X125403000Y-85493000D01*
X128353000Y-79393000D02*
X128353000Y-82443000D01*
X123153000Y-86243000D02*
X123903000Y-86243000D01*
X125403000Y-85493000D02*
X128353000Y-85493000D01*
X123153000Y-84443000D02*
X123153000Y-86243000D01*
X123903000Y-81943000D02*
X123153000Y-81943000D01*
X123153000Y-78643000D02*
X123153000Y-80443000D01*
X128353000Y-85493000D02*
X128353000Y-82443000D01*
X123153000Y-82943000D02*
X123903000Y-82943000D01*
X123903000Y-78643000D02*
X123153000Y-78643000D01*
X123153000Y-81943000D02*
X123153000Y-82943000D01*
X125403000Y-78643000D02*
X125403000Y-79393000D01*
X125403000Y-79393000D02*
X128353000Y-79393000D01*
X122853000Y-86543000D02*
X124103000Y-86543000D01*
X123903000Y-84443000D02*
X123153000Y-84443000D01*
X122853000Y-85293000D02*
X122853000Y-86543000D01*
%TO.C,R4*%
X152745000Y-83592936D02*
X152745000Y-84047064D01*
X151275000Y-83592936D02*
X151275000Y-84047064D01*
%TO.C,C9*%
X163745563Y-86517500D02*
X160960000Y-86517500D01*
X162835000Y-85652500D02*
X161585000Y-85652500D01*
X163745563Y-86517500D02*
X164810000Y-87581937D01*
X162210000Y-85027500D02*
X162210000Y-86277500D01*
X154090000Y-87581937D02*
X154090000Y-97237500D01*
X155154437Y-86517500D02*
X154090000Y-87581937D01*
X154090000Y-97237500D02*
X157940000Y-97237500D01*
X164810000Y-97237500D02*
X160960000Y-97237500D01*
X164810000Y-87581937D02*
X164810000Y-97237500D01*
X155154437Y-86517500D02*
X157940000Y-86517500D01*
%TD*%
M02*
