%TF.GenerationSoftware,KiCad,Pcbnew,(6.0.2)*%
%TF.CreationDate,2022-10-19T14:59:14+05:30*%
%TF.ProjectId,psu,7073752e-6b69-4636-9164-5f7063625858,rev?*%
%TF.SameCoordinates,Original*%
%TF.FileFunction,Legend,Bot*%
%TF.FilePolarity,Positive*%
%FSLAX46Y46*%
G04 Gerber Fmt 4.6, Leading zero omitted, Abs format (unit mm)*
G04 Created by KiCad (PCBNEW (6.0.2)) date 2022-10-19 14:59:14*
%MOMM*%
%LPD*%
G01*
G04 APERTURE LIST*
%ADD10C,0.120000*%
%ADD11C,0.150000*%
G04 APERTURE END LIST*
D10*
X150241000Y-86741000D02*
X148590000Y-88138000D01*
X148590000Y-88138000D02*
X148590000Y-87122000D01*
X148590000Y-87122000D02*
X141732000Y-87122000D01*
X141732000Y-87122000D02*
X141732000Y-86360000D01*
X141732000Y-86360000D02*
X148590000Y-86360000D01*
X148590000Y-86360000D02*
X148590000Y-85217000D01*
X148590000Y-85217000D02*
X150241000Y-86741000D01*
G36*
X150241000Y-86741000D02*
G01*
X148590000Y-88138000D01*
X148590000Y-87122000D01*
X141732000Y-87122000D01*
X141732000Y-86360000D01*
X148590000Y-86360000D01*
X148590000Y-85217000D01*
X150241000Y-86741000D01*
G37*
X150241000Y-86741000D02*
X148590000Y-88138000D01*
X148590000Y-87122000D01*
X141732000Y-87122000D01*
X141732000Y-86360000D01*
X148590000Y-86360000D01*
X148590000Y-85217000D01*
X150241000Y-86741000D01*
D11*
X165718904Y-84288380D02*
X165385571Y-85288380D01*
X165052238Y-84288380D01*
X164528428Y-84288380D02*
X164337952Y-84288380D01*
X164242714Y-84336000D01*
X164147476Y-84431238D01*
X164099857Y-84621714D01*
X164099857Y-84955047D01*
X164147476Y-85145523D01*
X164242714Y-85240761D01*
X164337952Y-85288380D01*
X164528428Y-85288380D01*
X164623666Y-85240761D01*
X164718904Y-85145523D01*
X164766523Y-84955047D01*
X164766523Y-84621714D01*
X164718904Y-84431238D01*
X164623666Y-84336000D01*
X164528428Y-84288380D01*
X163671285Y-84288380D02*
X163671285Y-85097904D01*
X163623666Y-85193142D01*
X163576047Y-85240761D01*
X163480809Y-85288380D01*
X163290333Y-85288380D01*
X163195095Y-85240761D01*
X163147476Y-85193142D01*
X163099857Y-85097904D01*
X163099857Y-84288380D01*
X162766523Y-84288380D02*
X162195095Y-84288380D01*
X162480809Y-85288380D02*
X162480809Y-84288380D01*
X165099904Y-81923000D02*
X165195142Y-81875380D01*
X165338000Y-81875380D01*
X165480857Y-81923000D01*
X165576095Y-82018238D01*
X165623714Y-82113476D01*
X165671333Y-82303952D01*
X165671333Y-82446809D01*
X165623714Y-82637285D01*
X165576095Y-82732523D01*
X165480857Y-82827761D01*
X165338000Y-82875380D01*
X165242761Y-82875380D01*
X165099904Y-82827761D01*
X165052285Y-82780142D01*
X165052285Y-82446809D01*
X165242761Y-82446809D01*
X164623714Y-82875380D02*
X164623714Y-81875380D01*
X164052285Y-82875380D01*
X164052285Y-81875380D01*
X163576095Y-82875380D02*
X163576095Y-81875380D01*
X163338000Y-81875380D01*
X163195142Y-81923000D01*
X163099904Y-82018238D01*
X163052285Y-82113476D01*
X163004666Y-82303952D01*
X163004666Y-82446809D01*
X163052285Y-82637285D01*
X163099904Y-82732523D01*
X163195142Y-82827761D01*
X163338000Y-82875380D01*
X163576095Y-82875380D01*
X130000238Y-80605380D02*
X129666904Y-81605380D01*
X129333571Y-80605380D01*
X129000238Y-81605380D02*
X129000238Y-80605380D01*
X128524047Y-81605380D02*
X128524047Y-80605380D01*
X127952619Y-81605380D01*
X127952619Y-80605380D01*
X165718904Y-86828380D02*
X165385571Y-87828380D01*
X165052238Y-86828380D01*
X164766523Y-87542666D02*
X164290333Y-87542666D01*
X164861761Y-87828380D02*
X164528428Y-86828380D01*
X164195095Y-87828380D01*
X163861761Y-87828380D02*
X163861761Y-86828380D01*
X163623666Y-86828380D01*
X163480809Y-86876000D01*
X163385571Y-86971238D01*
X163337952Y-87066476D01*
X163290333Y-87256952D01*
X163290333Y-87399809D01*
X163337952Y-87590285D01*
X163385571Y-87685523D01*
X163480809Y-87780761D01*
X163623666Y-87828380D01*
X163861761Y-87828380D01*
X162290333Y-87733142D02*
X162337952Y-87780761D01*
X162480809Y-87828380D01*
X162576047Y-87828380D01*
X162718904Y-87780761D01*
X162814142Y-87685523D01*
X162861761Y-87590285D01*
X162909380Y-87399809D01*
X162909380Y-87256952D01*
X162861761Y-87066476D01*
X162814142Y-86971238D01*
X162718904Y-86876000D01*
X162576047Y-86828380D01*
X162480809Y-86828380D01*
X162337952Y-86876000D01*
X162290333Y-86923619D01*
X129412904Y-83320000D02*
X129508142Y-83272380D01*
X129651000Y-83272380D01*
X129793857Y-83320000D01*
X129889095Y-83415238D01*
X129936714Y-83510476D01*
X129984333Y-83700952D01*
X129984333Y-83843809D01*
X129936714Y-84034285D01*
X129889095Y-84129523D01*
X129793857Y-84224761D01*
X129651000Y-84272380D01*
X129555761Y-84272380D01*
X129412904Y-84224761D01*
X129365285Y-84177142D01*
X129365285Y-83843809D01*
X129555761Y-83843809D01*
X128936714Y-84272380D02*
X128936714Y-83272380D01*
X128365285Y-84272380D01*
X128365285Y-83272380D01*
X127889095Y-84272380D02*
X127889095Y-83272380D01*
X127651000Y-83272380D01*
X127508142Y-83320000D01*
X127412904Y-83415238D01*
X127365285Y-83510476D01*
X127317666Y-83700952D01*
X127317666Y-83843809D01*
X127365285Y-84034285D01*
X127412904Y-84129523D01*
X127508142Y-84224761D01*
X127651000Y-84272380D01*
X127889095Y-84272380D01*
M02*
