%TF.GenerationSoftware,KiCad,Pcbnew,(6.0.2)*%
%TF.CreationDate,2022-10-19T14:59:14+05:30*%
%TF.ProjectId,psu,7073752e-6b69-4636-9164-5f7063625858,rev?*%
%TF.SameCoordinates,Original*%
%TF.FileFunction,Copper,L1,Top*%
%TF.FilePolarity,Positive*%
%FSLAX46Y46*%
G04 Gerber Fmt 4.6, Leading zero omitted, Abs format (unit mm)*
G04 Created by KiCad (PCBNEW (6.0.2)) date 2022-10-19 14:59:14*
%MOMM*%
%LPD*%
G01*
G04 APERTURE LIST*
G04 Aperture macros list*
%AMRoundRect*
0 Rectangle with rounded corners*
0 $1 Rounding radius*
0 $2 $3 $4 $5 $6 $7 $8 $9 X,Y pos of 4 corners*
0 Add a 4 corners polygon primitive as box body*
4,1,4,$2,$3,$4,$5,$6,$7,$8,$9,$2,$3,0*
0 Add four circle primitives for the rounded corners*
1,1,$1+$1,$2,$3*
1,1,$1+$1,$4,$5*
1,1,$1+$1,$6,$7*
1,1,$1+$1,$8,$9*
0 Add four rect primitives between the rounded corners*
20,1,$1+$1,$2,$3,$4,$5,0*
20,1,$1+$1,$4,$5,$6,$7,0*
20,1,$1+$1,$6,$7,$8,$9,0*
20,1,$1+$1,$8,$9,$2,$3,0*%
G04 Aperture macros list end*
%TA.AperFunction,SMDPad,CuDef*%
%ADD10R,2.500000X1.800000*%
%TD*%
%TA.AperFunction,SMDPad,CuDef*%
%ADD11RoundRect,0.250000X-0.450000X0.350000X-0.450000X-0.350000X0.450000X-0.350000X0.450000X0.350000X0*%
%TD*%
%TA.AperFunction,SMDPad,CuDef*%
%ADD12RoundRect,0.250000X-0.475000X0.337500X-0.475000X-0.337500X0.475000X-0.337500X0.475000X0.337500X0*%
%TD*%
%TA.AperFunction,SMDPad,CuDef*%
%ADD13RoundRect,0.150000X-0.662500X-0.150000X0.662500X-0.150000X0.662500X0.150000X-0.662500X0.150000X0*%
%TD*%
%TA.AperFunction,ComponentPad*%
%ADD14C,0.500000*%
%TD*%
%TA.AperFunction,SMDPad,CuDef*%
%ADD15R,2.514000X3.200000*%
%TD*%
%TA.AperFunction,SMDPad,CuDef*%
%ADD16R,1.800000X2.500000*%
%TD*%
%TA.AperFunction,SMDPad,CuDef*%
%ADD17RoundRect,0.250000X0.337500X0.475000X-0.337500X0.475000X-0.337500X-0.475000X0.337500X-0.475000X0*%
%TD*%
%TA.AperFunction,SMDPad,CuDef*%
%ADD18RoundRect,0.250000X0.475000X-0.337500X0.475000X0.337500X-0.475000X0.337500X-0.475000X-0.337500X0*%
%TD*%
%TA.AperFunction,SMDPad,CuDef*%
%ADD19RoundRect,0.250000X-0.337500X-0.475000X0.337500X-0.475000X0.337500X0.475000X-0.337500X0.475000X0*%
%TD*%
%TA.AperFunction,SMDPad,CuDef*%
%ADD20RoundRect,0.250000X1.000000X-1.950000X1.000000X1.950000X-1.000000X1.950000X-1.000000X-1.950000X0*%
%TD*%
%TA.AperFunction,ComponentPad*%
%ADD21RoundRect,0.250000X0.725000X-0.600000X0.725000X0.600000X-0.725000X0.600000X-0.725000X-0.600000X0*%
%TD*%
%TA.AperFunction,ComponentPad*%
%ADD22O,1.950000X1.700000*%
%TD*%
%TA.AperFunction,SMDPad,CuDef*%
%ADD23R,1.250000X1.200000*%
%TD*%
%TA.AperFunction,SMDPad,CuDef*%
%ADD24R,1.500000X1.000000*%
%TD*%
%TA.AperFunction,SMDPad,CuDef*%
%ADD25R,4.500000X2.250000*%
%TD*%
%TA.AperFunction,SMDPad,CuDef*%
%ADD26RoundRect,0.250000X0.350000X0.450000X-0.350000X0.450000X-0.350000X-0.450000X0.350000X-0.450000X0*%
%TD*%
%TA.AperFunction,SMDPad,CuDef*%
%ADD27RoundRect,0.150000X-0.587500X-0.150000X0.587500X-0.150000X0.587500X0.150000X-0.587500X0.150000X0*%
%TD*%
%TA.AperFunction,SMDPad,CuDef*%
%ADD28RoundRect,0.250000X0.450000X-0.350000X0.450000X0.350000X-0.450000X0.350000X-0.450000X-0.350000X0*%
%TD*%
%TA.AperFunction,SMDPad,CuDef*%
%ADD29RoundRect,0.250000X-0.350000X-0.450000X0.350000X-0.450000X0.350000X0.450000X-0.350000X0.450000X0*%
%TD*%
%TA.AperFunction,ComponentPad*%
%ADD30RoundRect,0.250000X0.750000X-0.600000X0.750000X0.600000X-0.750000X0.600000X-0.750000X-0.600000X0*%
%TD*%
%TA.AperFunction,ComponentPad*%
%ADD31O,2.000000X1.700000*%
%TD*%
%TA.AperFunction,SMDPad,CuDef*%
%ADD32RoundRect,0.250000X-1.000000X1.950000X-1.000000X-1.950000X1.000000X-1.950000X1.000000X1.950000X0*%
%TD*%
%TA.AperFunction,ViaPad*%
%ADD33C,0.800000*%
%TD*%
%TA.AperFunction,Conductor*%
%ADD34C,0.800000*%
%TD*%
%TA.AperFunction,Conductor*%
%ADD35C,0.400000*%
%TD*%
G04 APERTURE END LIST*
D10*
%TO.P,D1,1,K*%
%TO.N,Net-(D1-Pad1)*%
X128460000Y-75140000D03*
%TO.P,D1,2,A*%
%TO.N,/V_in*%
X124460000Y-75140000D03*
%TD*%
D11*
%TO.P,R1,1*%
%TO.N,Net-(R1-Pad1)*%
X143700000Y-87610000D03*
%TO.P,R1,2*%
%TO.N,GND*%
X143700000Y-89610000D03*
%TD*%
D12*
%TO.P,C1,1*%
%TO.N,Net-(C1-Pad1)*%
X132970000Y-87602500D03*
%TO.P,C1,2*%
%TO.N,GND*%
X132970000Y-89677500D03*
%TD*%
D13*
%TO.P,U1,1,BOOT*%
%TO.N,Net-(C6-Pad2)*%
X143672500Y-80275000D03*
%TO.P,U1,2,VIN*%
%TO.N,Net-(C1-Pad1)*%
X143672500Y-81545000D03*
%TO.P,U1,3,EN*%
%TO.N,unconnected-(U1-Pad3)*%
X143672500Y-82815000D03*
%TO.P,U1,4,RT/CLK*%
%TO.N,Net-(R1-Pad1)*%
X143672500Y-84085000D03*
%TO.P,U1,5,FB*%
%TO.N,Net-(R6-Pad2)*%
X148947500Y-84085000D03*
%TO.P,U1,6,COMP*%
%TO.N,Net-(C7-Pad2)*%
X148947500Y-82815000D03*
%TO.P,U1,7,GND*%
%TO.N,GND*%
X148947500Y-81545000D03*
%TO.P,U1,8,SW*%
%TO.N,Net-(C6-Pad1)*%
X148947500Y-80275000D03*
D14*
%TO.P,U1,9,GNDPAD*%
%TO.N,GND*%
X147010000Y-83180000D03*
X145610000Y-83180000D03*
D15*
X146310000Y-82180000D03*
D14*
X145610000Y-82180000D03*
X147010000Y-81180000D03*
X147010000Y-82180000D03*
X145610000Y-81180000D03*
%TD*%
D16*
%TO.P,D3,1,K*%
%TO.N,Net-(C6-Pad1)*%
X149060000Y-77110000D03*
%TO.P,D3,2,A*%
%TO.N,GND*%
X149060000Y-73110000D03*
%TD*%
D17*
%TO.P,C7,1*%
%TO.N,GND*%
X157277500Y-82800000D03*
%TO.P,C7,2*%
%TO.N,Net-(C7-Pad2)*%
X155202500Y-82800000D03*
%TD*%
D18*
%TO.P,C8,1*%
%TO.N,GND*%
X152010000Y-89807500D03*
%TO.P,C8,2*%
%TO.N,Net-(C8-Pad2)*%
X152010000Y-87732500D03*
%TD*%
D19*
%TO.P,C11,1*%
%TO.N,VDD*%
X162030500Y-77978000D03*
%TO.P,C11,2*%
%TO.N,GND*%
X164105500Y-77978000D03*
%TD*%
D12*
%TO.P,C4,1*%
%TO.N,Net-(C1-Pad1)*%
X138360000Y-87582500D03*
%TO.P,C4,2*%
%TO.N,GND*%
X138360000Y-89657500D03*
%TD*%
D20*
%TO.P,C3,1*%
%TO.N,Net-(C1-Pad1)*%
X136290000Y-82480000D03*
%TO.P,C3,2*%
%TO.N,GND*%
X136290000Y-74080000D03*
%TD*%
D21*
%TO.P,J2,1,Pin_1*%
%TO.N,/ADC*%
X167910000Y-87210000D03*
D22*
%TO.P,J2,2,Pin_2*%
%TO.N,VDD*%
X167910000Y-84710000D03*
%TO.P,J2,3,Pin_3*%
%TO.N,GND*%
X167910000Y-82210000D03*
%TD*%
D23*
%TO.P,FL1,1,1*%
%TO.N,Net-(D1-Pad1)*%
X125260000Y-90297000D03*
D24*
%TO.P,FL1,2,2*%
%TO.N,GND*%
X127635000Y-91097000D03*
D23*
%TO.P,FL1,3,3*%
%TO.N,Net-(C1-Pad1)*%
X130010000Y-90297000D03*
D24*
%TO.P,FL1,4,GND*%
%TO.N,GND*%
X127635000Y-89497000D03*
%TD*%
D17*
%TO.P,C6,1*%
%TO.N,Net-(C6-Pad1)*%
X145817500Y-76940000D03*
%TO.P,C6,2*%
%TO.N,Net-(C6-Pad2)*%
X143742500Y-76940000D03*
%TD*%
D19*
%TO.P,C10,1*%
%TO.N,VDD*%
X162030500Y-80264000D03*
%TO.P,C10,2*%
%TO.N,GND*%
X164105500Y-80264000D03*
%TD*%
D25*
%TO.P,L1,1,1*%
%TO.N,Net-(C6-Pad1)*%
X156340000Y-79560000D03*
%TO.P,L1,2,2*%
%TO.N,VDD*%
X156340000Y-72760000D03*
%TD*%
D26*
%TO.P,R7,1*%
%TO.N,Net-(R6-Pad2)*%
X148340000Y-87280000D03*
%TO.P,R7,2*%
%TO.N,GND*%
X146340000Y-87280000D03*
%TD*%
D12*
%TO.P,C5,1*%
%TO.N,Net-(C1-Pad1)*%
X141050000Y-87542500D03*
%TO.P,C5,2*%
%TO.N,GND*%
X141050000Y-89617500D03*
%TD*%
D11*
%TO.P,R3,1*%
%TO.N,/ADC*%
X142270000Y-94090000D03*
%TO.P,R3,2*%
%TO.N,GND*%
X142270000Y-96090000D03*
%TD*%
D27*
%TO.P,D2,1*%
%TO.N,unconnected-(D2-Pad1)*%
X133922500Y-94130000D03*
%TO.P,D2,2*%
%TO.N,/V_in*%
X133922500Y-96030000D03*
%TO.P,D2,3*%
%TO.N,GND*%
X135797500Y-95080000D03*
%TD*%
D28*
%TO.P,R2,1*%
%TO.N,/V_in*%
X139370000Y-96130000D03*
%TO.P,R2,2*%
%TO.N,/ADC*%
X139370000Y-94130000D03*
%TD*%
D12*
%TO.P,C2,1*%
%TO.N,Net-(C1-Pad1)*%
X135720000Y-87622500D03*
%TO.P,C2,2*%
%TO.N,GND*%
X135720000Y-89697500D03*
%TD*%
D29*
%TO.P,R6,1*%
%TO.N,Net-(R5-Pad2)*%
X146360000Y-90090000D03*
%TO.P,R6,2*%
%TO.N,Net-(R6-Pad2)*%
X148360000Y-90090000D03*
%TD*%
D26*
%TO.P,R5,1*%
%TO.N,VDD*%
X148390000Y-92900000D03*
%TO.P,R5,2*%
%TO.N,Net-(R5-Pad2)*%
X146390000Y-92900000D03*
%TD*%
D30*
%TO.P,J1,1,Pin_1*%
%TO.N,GND*%
X125603000Y-83693000D03*
D31*
%TO.P,J1,2,Pin_2*%
%TO.N,/V_in*%
X125603000Y-81193000D03*
%TD*%
D11*
%TO.P,R4,1*%
%TO.N,Net-(C7-Pad2)*%
X152010000Y-82820000D03*
%TO.P,R4,2*%
%TO.N,Net-(C8-Pad2)*%
X152010000Y-84820000D03*
%TD*%
D32*
%TO.P,C9,1*%
%TO.N,VDD*%
X159450000Y-87677500D03*
%TO.P,C9,2*%
%TO.N,GND*%
X159450000Y-96077500D03*
%TD*%
D33*
%TO.N,GND*%
X162687000Y-98298000D03*
X139446000Y-92202000D03*
X138938000Y-74803000D03*
X133223000Y-72263000D03*
X125095000Y-87122000D03*
X150876000Y-81407000D03*
X168656000Y-77851000D03*
X155575000Y-98298000D03*
X167386000Y-77851000D03*
X163830000Y-98298000D03*
X146558000Y-72390000D03*
X138938000Y-72136000D03*
X149733000Y-98425000D03*
X124714000Y-86106000D03*
X147828000Y-98425000D03*
X156845000Y-98171000D03*
X145034000Y-72390000D03*
X166243000Y-77851000D03*
X133350000Y-74676000D03*
X125984000Y-86106000D03*
%TD*%
D34*
%TO.N,Net-(C1-Pad1)*%
X136290000Y-82480000D02*
X136290000Y-87052500D01*
X130010000Y-90297000D02*
X130010000Y-89065000D01*
X141097000Y-82931000D02*
X141097000Y-87495500D01*
X141097000Y-87495500D02*
X141050000Y-87542500D01*
X131532500Y-87542500D02*
X141050000Y-87542500D01*
X142483000Y-81545000D02*
X141097000Y-82931000D01*
X130010000Y-89065000D02*
X131532500Y-87542500D01*
X136290000Y-87052500D02*
X135720000Y-87622500D01*
X143672500Y-81545000D02*
X142483000Y-81545000D01*
%TO.N,Net-(C6-Pad1)*%
X148947500Y-80275000D02*
X148947500Y-77222500D01*
D35*
X145817500Y-76940000D02*
X148890000Y-76940000D01*
D34*
X148947500Y-77222500D02*
X149060000Y-77110000D01*
D35*
X148890000Y-76940000D02*
X149060000Y-77110000D01*
D34*
X153890000Y-77110000D02*
X156340000Y-79560000D01*
X149060000Y-77110000D02*
X153890000Y-77110000D01*
D35*
%TO.N,Net-(C6-Pad2)*%
X143672500Y-80275000D02*
X143672500Y-77010000D01*
X143672500Y-77010000D02*
X143742500Y-76940000D01*
%TO.N,Net-(C7-Pad2)*%
X148947500Y-82815000D02*
X155187500Y-82815000D01*
X155187500Y-82815000D02*
X155202500Y-82800000D01*
%TO.N,Net-(C8-Pad2)*%
X152010000Y-87732500D02*
X152010000Y-84820000D01*
D34*
%TO.N,VDD*%
X162030500Y-80264000D02*
X160909000Y-80264000D01*
X162030500Y-77978000D02*
X160528000Y-77978000D01*
X160528000Y-86599500D02*
X159450000Y-87677500D01*
D35*
X154227500Y-92900000D02*
X159450000Y-87677500D01*
D34*
X158104000Y-72760000D02*
X160528000Y-75184000D01*
X160909000Y-80264000D02*
X160528000Y-79883000D01*
X160528000Y-79883000D02*
X160528000Y-86599500D01*
D35*
X148390000Y-92900000D02*
X154227500Y-92900000D01*
D34*
X160528000Y-77978000D02*
X160528000Y-79883000D01*
X160528000Y-75184000D02*
X160528000Y-77978000D01*
X156340000Y-72760000D02*
X158104000Y-72760000D01*
X159450000Y-87677500D02*
X162417500Y-84710000D01*
X162417500Y-84710000D02*
X167910000Y-84710000D01*
%TO.N,Net-(D1-Pad1)*%
X125260000Y-90297000D02*
X125260000Y-88735000D01*
X125260000Y-88735000D02*
X128460000Y-85535000D01*
X128460000Y-85535000D02*
X128460000Y-75140000D01*
D35*
%TO.N,/ADC*%
X167910000Y-87487000D02*
X167910000Y-87210000D01*
X144653000Y-94996000D02*
X154559000Y-94996000D01*
X142270000Y-94090000D02*
X143747000Y-94090000D01*
X139370000Y-94130000D02*
X142230000Y-94130000D01*
X158115000Y-91440000D02*
X163957000Y-91440000D01*
X163957000Y-91440000D02*
X167910000Y-87487000D01*
X143747000Y-94090000D02*
X144653000Y-94996000D01*
X142230000Y-94130000D02*
X142270000Y-94090000D01*
X154559000Y-94996000D02*
X158115000Y-91440000D01*
%TO.N,Net-(R1-Pad1)*%
X143700000Y-84112500D02*
X143672500Y-84085000D01*
X143700000Y-87610000D02*
X143700000Y-84112500D01*
%TO.N,Net-(R5-Pad2)*%
X146390000Y-92900000D02*
X146390000Y-90120000D01*
X146390000Y-90120000D02*
X146360000Y-90090000D01*
%TO.N,Net-(R6-Pad2)*%
X148360000Y-84672500D02*
X148947500Y-84085000D01*
X148360000Y-90090000D02*
X148360000Y-84672500D01*
%TO.N,/V_in*%
X124293000Y-81193000D02*
X125603000Y-81193000D01*
X133922500Y-96030000D02*
X130955000Y-96030000D01*
X130955000Y-96030000D02*
X128270000Y-93345000D01*
D34*
X125603000Y-76283000D02*
X124460000Y-75140000D01*
D35*
X124079000Y-93345000D02*
X123317000Y-92583000D01*
X123317000Y-92583000D02*
X123317000Y-82169000D01*
X128270000Y-93345000D02*
X124079000Y-93345000D01*
X139270000Y-96030000D02*
X139370000Y-96130000D01*
D34*
X125603000Y-81193000D02*
X125603000Y-76283000D01*
D35*
X123317000Y-82169000D02*
X124293000Y-81193000D01*
X133922500Y-96030000D02*
X139270000Y-96030000D01*
%TD*%
%TA.AperFunction,Conductor*%
%TO.N,GND*%
G36*
X171062121Y-70610002D02*
G01*
X171108614Y-70663658D01*
X171120000Y-70716000D01*
X171120000Y-99294000D01*
X171099998Y-99362121D01*
X171046342Y-99408614D01*
X170994000Y-99420000D01*
X122606000Y-99420000D01*
X122537879Y-99399998D01*
X122491386Y-99346342D01*
X122480000Y-99294000D01*
X122480000Y-96430323D01*
X123161041Y-96430323D01*
X123162862Y-96476676D01*
X123163386Y-96490000D01*
X123168790Y-96627519D01*
X123171578Y-96698484D01*
X123219793Y-96962485D01*
X123304725Y-97217059D01*
X123306718Y-97221047D01*
X123385652Y-97379018D01*
X123424680Y-97457126D01*
X123577263Y-97677896D01*
X123759432Y-97874965D01*
X123762886Y-97877777D01*
X123964093Y-98041585D01*
X123964097Y-98041588D01*
X123967550Y-98044399D01*
X124197465Y-98182820D01*
X124201560Y-98184554D01*
X124201562Y-98184555D01*
X124440490Y-98285728D01*
X124440497Y-98285730D01*
X124444591Y-98287464D01*
X124539773Y-98312701D01*
X124699698Y-98355105D01*
X124699702Y-98355106D01*
X124703995Y-98356244D01*
X124708404Y-98356766D01*
X124708410Y-98356767D01*
X124856497Y-98374294D01*
X124970503Y-98387787D01*
X125238796Y-98381464D01*
X125243190Y-98380733D01*
X125243197Y-98380732D01*
X125499120Y-98338135D01*
X125499124Y-98338134D01*
X125503522Y-98337402D01*
X125670642Y-98284549D01*
X125755152Y-98257822D01*
X125755154Y-98257821D01*
X125759398Y-98256479D01*
X125763409Y-98254553D01*
X125763414Y-98254551D01*
X125997301Y-98142240D01*
X125997302Y-98142239D01*
X126001320Y-98140310D01*
X126117473Y-98062699D01*
X157850001Y-98062699D01*
X157850539Y-98070911D01*
X157864366Y-98175944D01*
X157868604Y-98191759D01*
X157922741Y-98322459D01*
X157930930Y-98336642D01*
X158017046Y-98448872D01*
X158028626Y-98460452D01*
X158140861Y-98546572D01*
X158155042Y-98554759D01*
X158285739Y-98608896D01*
X158301558Y-98613134D01*
X158406590Y-98626962D01*
X158414799Y-98627500D01*
X159177885Y-98627500D01*
X159193124Y-98623025D01*
X159194329Y-98621635D01*
X159196000Y-98613952D01*
X159196000Y-98609384D01*
X159704000Y-98609384D01*
X159708475Y-98624623D01*
X159709865Y-98625828D01*
X159717548Y-98627499D01*
X160485199Y-98627499D01*
X160493411Y-98626961D01*
X160598444Y-98613134D01*
X160614259Y-98608896D01*
X160744959Y-98554759D01*
X160759142Y-98546570D01*
X160871372Y-98460454D01*
X160882952Y-98448874D01*
X160969072Y-98336639D01*
X160977259Y-98322458D01*
X161031396Y-98191761D01*
X161035634Y-98175942D01*
X161049462Y-98070910D01*
X161050000Y-98062701D01*
X161050000Y-96349615D01*
X161045525Y-96334376D01*
X161044135Y-96333171D01*
X161036452Y-96331500D01*
X159722115Y-96331500D01*
X159706876Y-96335975D01*
X159705671Y-96337365D01*
X159704000Y-96345048D01*
X159704000Y-98609384D01*
X159196000Y-98609384D01*
X159196000Y-96349615D01*
X159191525Y-96334376D01*
X159190135Y-96333171D01*
X159182452Y-96331500D01*
X157868116Y-96331500D01*
X157852877Y-96335975D01*
X157851672Y-96337365D01*
X157850001Y-96345048D01*
X157850001Y-98062699D01*
X126117473Y-98062699D01*
X126141417Y-98046700D01*
X126220752Y-97993690D01*
X126220756Y-97993687D01*
X126224460Y-97991212D01*
X126227777Y-97988241D01*
X126227781Y-97988238D01*
X126421047Y-97815134D01*
X126421048Y-97815133D01*
X126424365Y-97812162D01*
X126597048Y-97606731D01*
X126739063Y-97379018D01*
X126847576Y-97133567D01*
X126920422Y-96875275D01*
X126935956Y-96759623D01*
X126955720Y-96612477D01*
X126955721Y-96612469D01*
X126956147Y-96609295D01*
X126956305Y-96604259D01*
X126959795Y-96493222D01*
X126959795Y-96493217D01*
X126959896Y-96490000D01*
X126959430Y-96483411D01*
X126941257Y-96226751D01*
X126940942Y-96222302D01*
X126884458Y-95959946D01*
X126861891Y-95898774D01*
X126793112Y-95712343D01*
X126791571Y-95708166D01*
X126720119Y-95575741D01*
X126666248Y-95475901D01*
X126664135Y-95471985D01*
X126565523Y-95338475D01*
X126507341Y-95259702D01*
X126507338Y-95259699D01*
X126504692Y-95256116D01*
X126501573Y-95252947D01*
X126501569Y-95252943D01*
X126385637Y-95135176D01*
X126316424Y-95064867D01*
X126312884Y-95062165D01*
X126106627Y-94904755D01*
X126106623Y-94904753D01*
X126103086Y-94902053D01*
X125868936Y-94770923D01*
X125618646Y-94674093D01*
X125614321Y-94673090D01*
X125614316Y-94673089D01*
X125430573Y-94630500D01*
X125357209Y-94613495D01*
X125089842Y-94590338D01*
X125085407Y-94590582D01*
X125085403Y-94590582D01*
X124826323Y-94604840D01*
X124826316Y-94604841D01*
X124821880Y-94605085D01*
X124558669Y-94657441D01*
X124554459Y-94658919D01*
X124554457Y-94658920D01*
X124408673Y-94710116D01*
X124305460Y-94746362D01*
X124301509Y-94748415D01*
X124301503Y-94748417D01*
X124074978Y-94866087D01*
X124067307Y-94870072D01*
X124063692Y-94872655D01*
X124063686Y-94872659D01*
X123960827Y-94946164D01*
X123848961Y-95026105D01*
X123811160Y-95062165D01*
X123671971Y-95194945D01*
X123654778Y-95211346D01*
X123536538Y-95361333D01*
X123496058Y-95412682D01*
X123488633Y-95422100D01*
X123444548Y-95497998D01*
X123356079Y-95650307D01*
X123356076Y-95650313D01*
X123353841Y-95654161D01*
X123352167Y-95658294D01*
X123285677Y-95822452D01*
X123253092Y-95902900D01*
X123252021Y-95907213D01*
X123252019Y-95907218D01*
X123217281Y-96047065D01*
X123188395Y-96163353D01*
X123161041Y-96430323D01*
X122480000Y-96430323D01*
X122480000Y-82203392D01*
X122812524Y-82203392D01*
X122814397Y-82212168D01*
X122815008Y-82221125D01*
X122815002Y-82221125D01*
X122816500Y-82235318D01*
X122816500Y-92512819D01*
X122815172Y-92524704D01*
X122815682Y-92524745D01*
X122814962Y-92533691D01*
X122812981Y-92542447D01*
X122813537Y-92551407D01*
X122816258Y-92595264D01*
X122816500Y-92603067D01*
X122816500Y-92618940D01*
X122817135Y-92623374D01*
X122817948Y-92629050D01*
X122818978Y-92639106D01*
X122821859Y-92685538D01*
X122824907Y-92693982D01*
X122825676Y-92697694D01*
X122829343Y-92712399D01*
X122830404Y-92716027D01*
X122831677Y-92724918D01*
X122850939Y-92767282D01*
X122854746Y-92776637D01*
X122867491Y-92811943D01*
X122867493Y-92811947D01*
X122870540Y-92820387D01*
X122875835Y-92827635D01*
X122877611Y-92830975D01*
X122885274Y-92844089D01*
X122887303Y-92847261D01*
X122891016Y-92855428D01*
X122896871Y-92862223D01*
X122896873Y-92862226D01*
X122921387Y-92890675D01*
X122927675Y-92898595D01*
X122935522Y-92909336D01*
X122946265Y-92920079D01*
X122952623Y-92926925D01*
X122984600Y-92964037D01*
X122992134Y-92968920D01*
X122998896Y-92974819D01*
X122998892Y-92974824D01*
X123009986Y-92983800D01*
X123675466Y-93649280D01*
X123682932Y-93658624D01*
X123683322Y-93658292D01*
X123689140Y-93665128D01*
X123693930Y-93672720D01*
X123700658Y-93678662D01*
X123700659Y-93678663D01*
X123733600Y-93707755D01*
X123739288Y-93713102D01*
X123750507Y-93724321D01*
X123754095Y-93727010D01*
X123754096Y-93727011D01*
X123758684Y-93730450D01*
X123766523Y-93736832D01*
X123766972Y-93737228D01*
X123801388Y-93767623D01*
X123809506Y-93771434D01*
X123812659Y-93773506D01*
X123825680Y-93781329D01*
X123828989Y-93783141D01*
X123836176Y-93788527D01*
X123844581Y-93791678D01*
X123844583Y-93791679D01*
X123879737Y-93804857D01*
X123889057Y-93808784D01*
X123931163Y-93828553D01*
X123940035Y-93829934D01*
X123943658Y-93831042D01*
X123958317Y-93834888D01*
X123962014Y-93835701D01*
X123970420Y-93838852D01*
X124016843Y-93842302D01*
X124026856Y-93843452D01*
X124040009Y-93845500D01*
X124055204Y-93845500D01*
X124064542Y-93845846D01*
X124113392Y-93849476D01*
X124122168Y-93847603D01*
X124131125Y-93846992D01*
X124131125Y-93846998D01*
X124145318Y-93845500D01*
X128010496Y-93845500D01*
X128078617Y-93865502D01*
X128099591Y-93882405D01*
X130551466Y-96334280D01*
X130558932Y-96343624D01*
X130559322Y-96343292D01*
X130565140Y-96350128D01*
X130569930Y-96357720D01*
X130576658Y-96363662D01*
X130576659Y-96363663D01*
X130609600Y-96392755D01*
X130615288Y-96398102D01*
X130626506Y-96409320D01*
X130630094Y-96412009D01*
X130630095Y-96412010D01*
X130634684Y-96415450D01*
X130642523Y-96421832D01*
X130670661Y-96446682D01*
X130677388Y-96452623D01*
X130685511Y-96456437D01*
X130688664Y-96458508D01*
X130701676Y-96466327D01*
X130704994Y-96468143D01*
X130712176Y-96473526D01*
X130755741Y-96489858D01*
X130765050Y-96493780D01*
X130807163Y-96513553D01*
X130816036Y-96514935D01*
X130819658Y-96516042D01*
X130834328Y-96519891D01*
X130838017Y-96520702D01*
X130846419Y-96523852D01*
X130855364Y-96524517D01*
X130855374Y-96524519D01*
X130892828Y-96527302D01*
X130902855Y-96528452D01*
X130916009Y-96530500D01*
X130931203Y-96530500D01*
X130940541Y-96530846D01*
X130989391Y-96534476D01*
X130998167Y-96532603D01*
X131007124Y-96531992D01*
X131007124Y-96531998D01*
X131021317Y-96530500D01*
X133009745Y-96530500D01*
X133077866Y-96550502D01*
X133084605Y-96555149D01*
X133114243Y-96577041D01*
X133114246Y-96577042D01*
X133121816Y-96582634D01*
X133249631Y-96627519D01*
X133257277Y-96628242D01*
X133257278Y-96628242D01*
X133263248Y-96628806D01*
X133281166Y-96630500D01*
X134563834Y-96630500D01*
X134581752Y-96628806D01*
X134587722Y-96628242D01*
X134587723Y-96628242D01*
X134595369Y-96627519D01*
X134723184Y-96582634D01*
X134730754Y-96577042D01*
X134730757Y-96577041D01*
X134760395Y-96555149D01*
X134827073Y-96530766D01*
X134835255Y-96530500D01*
X138262595Y-96530500D01*
X138330716Y-96550502D01*
X138377209Y-96604158D01*
X138380187Y-96612617D01*
X138380364Y-96612547D01*
X138435887Y-96752783D01*
X138527078Y-96872922D01*
X138647217Y-96964113D01*
X138710832Y-96989300D01*
X138779923Y-97016655D01*
X138779925Y-97016656D01*
X138787453Y-97019636D01*
X138877228Y-97030500D01*
X139862772Y-97030500D01*
X139952547Y-97019636D01*
X139960075Y-97016656D01*
X139960077Y-97016655D01*
X140029168Y-96989300D01*
X140092783Y-96964113D01*
X140212922Y-96872922D01*
X140304113Y-96752783D01*
X140352528Y-96630500D01*
X140356655Y-96620077D01*
X140356656Y-96620075D01*
X140359636Y-96612547D01*
X140370500Y-96522772D01*
X140370500Y-96475199D01*
X141220001Y-96475199D01*
X141220539Y-96483411D01*
X141234366Y-96588444D01*
X141238604Y-96604259D01*
X141292741Y-96734959D01*
X141300930Y-96749142D01*
X141387046Y-96861372D01*
X141398626Y-96872952D01*
X141510861Y-96959072D01*
X141525042Y-96967259D01*
X141655739Y-97021396D01*
X141671558Y-97025634D01*
X141776590Y-97039462D01*
X141784799Y-97040000D01*
X141997885Y-97040000D01*
X142013124Y-97035525D01*
X142014329Y-97034135D01*
X142016000Y-97026452D01*
X142016000Y-97021884D01*
X142524000Y-97021884D01*
X142528475Y-97037123D01*
X142529865Y-97038328D01*
X142537548Y-97039999D01*
X142755199Y-97039999D01*
X142763411Y-97039461D01*
X142868444Y-97025634D01*
X142884259Y-97021396D01*
X143014959Y-96967259D01*
X143029142Y-96959070D01*
X143141372Y-96872954D01*
X143152952Y-96861374D01*
X143239072Y-96749139D01*
X143247259Y-96734958D01*
X143301396Y-96604261D01*
X143305634Y-96588442D01*
X143319462Y-96483410D01*
X143320000Y-96475201D01*
X143320000Y-96362115D01*
X143315525Y-96346876D01*
X143314135Y-96345671D01*
X143306452Y-96344000D01*
X142542115Y-96344000D01*
X142526876Y-96348475D01*
X142525671Y-96349865D01*
X142524000Y-96357548D01*
X142524000Y-97021884D01*
X142016000Y-97021884D01*
X142016000Y-96362115D01*
X142011525Y-96346876D01*
X142010135Y-96345671D01*
X142002452Y-96344000D01*
X141238116Y-96344000D01*
X141222877Y-96348475D01*
X141221672Y-96349865D01*
X141220001Y-96357548D01*
X141220001Y-96475199D01*
X140370500Y-96475199D01*
X140370500Y-95737228D01*
X140359636Y-95647453D01*
X140304113Y-95507217D01*
X140212922Y-95387078D01*
X140092783Y-95295887D01*
X139969690Y-95247151D01*
X139913718Y-95203478D01*
X139890241Y-95136475D01*
X139906717Y-95067416D01*
X139957912Y-95018227D01*
X139969687Y-95012850D01*
X140092783Y-94964113D01*
X140212922Y-94872922D01*
X140304113Y-94752783D01*
X140321006Y-94710116D01*
X140364681Y-94654142D01*
X140438158Y-94630500D01*
X141217679Y-94630500D01*
X141285800Y-94650502D01*
X141325634Y-94698933D01*
X141328508Y-94697314D01*
X141332727Y-94704801D01*
X141335887Y-94712783D01*
X141427078Y-94832922D01*
X141547217Y-94924113D01*
X141602914Y-94946165D01*
X141658887Y-94989838D01*
X141682363Y-95056840D01*
X141665889Y-95125899D01*
X141614694Y-95175088D01*
X141604748Y-95179725D01*
X141525041Y-95212741D01*
X141510858Y-95220930D01*
X141398628Y-95307046D01*
X141387048Y-95318626D01*
X141300928Y-95430861D01*
X141292741Y-95445042D01*
X141238604Y-95575739D01*
X141234366Y-95591558D01*
X141220538Y-95696590D01*
X141220000Y-95704799D01*
X141220000Y-95817885D01*
X141224475Y-95833124D01*
X141225865Y-95834329D01*
X141233548Y-95836000D01*
X143301884Y-95836000D01*
X143317123Y-95831525D01*
X143318328Y-95830135D01*
X143319999Y-95822452D01*
X143319999Y-95805385D01*
X157850000Y-95805385D01*
X157854475Y-95820624D01*
X157855865Y-95821829D01*
X157863548Y-95823500D01*
X159177885Y-95823500D01*
X159193124Y-95819025D01*
X159194329Y-95817635D01*
X159196000Y-95809952D01*
X159196000Y-95805385D01*
X159704000Y-95805385D01*
X159708475Y-95820624D01*
X159709865Y-95821829D01*
X159717548Y-95823500D01*
X161031884Y-95823500D01*
X161047123Y-95819025D01*
X161048328Y-95817635D01*
X161049999Y-95809952D01*
X161049999Y-94092301D01*
X161049461Y-94084089D01*
X161035634Y-93979056D01*
X161031396Y-93963241D01*
X160977259Y-93832541D01*
X160969070Y-93818358D01*
X160882954Y-93706128D01*
X160871374Y-93694548D01*
X160759139Y-93608428D01*
X160744958Y-93600241D01*
X160614261Y-93546104D01*
X160598442Y-93541866D01*
X160493410Y-93528038D01*
X160485201Y-93527500D01*
X159722115Y-93527500D01*
X159706876Y-93531975D01*
X159705671Y-93533365D01*
X159704000Y-93541048D01*
X159704000Y-95805385D01*
X159196000Y-95805385D01*
X159196000Y-93545616D01*
X159191525Y-93530377D01*
X159190135Y-93529172D01*
X159182452Y-93527501D01*
X158414801Y-93527501D01*
X158406589Y-93528039D01*
X158301556Y-93541866D01*
X158285741Y-93546104D01*
X158155041Y-93600241D01*
X158140858Y-93608430D01*
X158028628Y-93694546D01*
X158017048Y-93706126D01*
X157930928Y-93818361D01*
X157922741Y-93832542D01*
X157868604Y-93963239D01*
X157864366Y-93979058D01*
X157850538Y-94084090D01*
X157850000Y-94092299D01*
X157850000Y-95805385D01*
X143319999Y-95805385D01*
X143319999Y-95704801D01*
X143319461Y-95696589D01*
X143305634Y-95591556D01*
X143301396Y-95575741D01*
X143247259Y-95445041D01*
X143239070Y-95430858D01*
X143152954Y-95318628D01*
X143141374Y-95307048D01*
X143029139Y-95220928D01*
X143014958Y-95212741D01*
X142935252Y-95179725D01*
X142879971Y-95135176D01*
X142857550Y-95067813D01*
X142875108Y-94999022D01*
X142927071Y-94950643D01*
X142937078Y-94946168D01*
X142992783Y-94924113D01*
X143112922Y-94832922D01*
X143204113Y-94712783D01*
X143221006Y-94670116D01*
X143264681Y-94614142D01*
X143338158Y-94590500D01*
X143487496Y-94590500D01*
X143555617Y-94610502D01*
X143576591Y-94627405D01*
X144249466Y-95300280D01*
X144256932Y-95309624D01*
X144257322Y-95309292D01*
X144263140Y-95316128D01*
X144267930Y-95323720D01*
X144274658Y-95329662D01*
X144274659Y-95329663D01*
X144307600Y-95358755D01*
X144313288Y-95364102D01*
X144324506Y-95375320D01*
X144328094Y-95378009D01*
X144328095Y-95378010D01*
X144332684Y-95381450D01*
X144340523Y-95387832D01*
X144347409Y-95393913D01*
X144375388Y-95418623D01*
X144383511Y-95422437D01*
X144386664Y-95424508D01*
X144399676Y-95432327D01*
X144402994Y-95434143D01*
X144410176Y-95439526D01*
X144453741Y-95455858D01*
X144463050Y-95459780D01*
X144505163Y-95479553D01*
X144514036Y-95480935D01*
X144517658Y-95482042D01*
X144532328Y-95485891D01*
X144536017Y-95486702D01*
X144544419Y-95489852D01*
X144553364Y-95490517D01*
X144553374Y-95490519D01*
X144590828Y-95493302D01*
X144600855Y-95494452D01*
X144614009Y-95496500D01*
X144629203Y-95496500D01*
X144638541Y-95496846D01*
X144687391Y-95500476D01*
X144696167Y-95498603D01*
X144705124Y-95497992D01*
X144705124Y-95497998D01*
X144719317Y-95496500D01*
X154488819Y-95496500D01*
X154500704Y-95497828D01*
X154500745Y-95497318D01*
X154509691Y-95498038D01*
X154518447Y-95500019D01*
X154561980Y-95497318D01*
X154571264Y-95496742D01*
X154579067Y-95496500D01*
X154594940Y-95496500D01*
X154605052Y-95495052D01*
X154615106Y-95494022D01*
X154643097Y-95492285D01*
X154661538Y-95491141D01*
X154669982Y-95488093D01*
X154673694Y-95487324D01*
X154688399Y-95483657D01*
X154692027Y-95482596D01*
X154700918Y-95481323D01*
X154743282Y-95462061D01*
X154752637Y-95458254D01*
X154787943Y-95445509D01*
X154787947Y-95445507D01*
X154796387Y-95442460D01*
X154803635Y-95437165D01*
X154806975Y-95435389D01*
X154820089Y-95427726D01*
X154823261Y-95425697D01*
X154831428Y-95421984D01*
X154838223Y-95416129D01*
X154838226Y-95416127D01*
X154866675Y-95391613D01*
X154874596Y-95385324D01*
X154881402Y-95380352D01*
X154885336Y-95377478D01*
X154896079Y-95366735D01*
X154902926Y-95360377D01*
X154933237Y-95334259D01*
X154940037Y-95328400D01*
X154944920Y-95320866D01*
X154950819Y-95314104D01*
X154950824Y-95314108D01*
X154959800Y-95303014D01*
X158285409Y-91977405D01*
X158347721Y-91943379D01*
X158374504Y-91940500D01*
X163886819Y-91940500D01*
X163898704Y-91941828D01*
X163898745Y-91941318D01*
X163907691Y-91942038D01*
X163916447Y-91944019D01*
X163959980Y-91941318D01*
X163969264Y-91940742D01*
X163977067Y-91940500D01*
X163992940Y-91940500D01*
X164003052Y-91939052D01*
X164013106Y-91938022D01*
X164041097Y-91936285D01*
X164059538Y-91935141D01*
X164067982Y-91932093D01*
X164071694Y-91931324D01*
X164086399Y-91927657D01*
X164090027Y-91926596D01*
X164098918Y-91925323D01*
X164141282Y-91906061D01*
X164150637Y-91902254D01*
X164185943Y-91889509D01*
X164185947Y-91889507D01*
X164194387Y-91886460D01*
X164201635Y-91881165D01*
X164204975Y-91879389D01*
X164218089Y-91871726D01*
X164221261Y-91869697D01*
X164229428Y-91865984D01*
X164236223Y-91860129D01*
X164236226Y-91860127D01*
X164264675Y-91835613D01*
X164272596Y-91829324D01*
X164279402Y-91824352D01*
X164283336Y-91821478D01*
X164294079Y-91810735D01*
X164300926Y-91804377D01*
X164331237Y-91778259D01*
X164338037Y-91772400D01*
X164342920Y-91764866D01*
X164348819Y-91758104D01*
X164348824Y-91758108D01*
X164357800Y-91747014D01*
X167707409Y-88397405D01*
X167769721Y-88363379D01*
X167796504Y-88360500D01*
X168677772Y-88360500D01*
X168767547Y-88349636D01*
X168775075Y-88346656D01*
X168775077Y-88346655D01*
X168856384Y-88314463D01*
X168907783Y-88294113D01*
X169027922Y-88202922D01*
X169119113Y-88082783D01*
X169174636Y-87942547D01*
X169185500Y-87852772D01*
X169185500Y-86567228D01*
X169174636Y-86477453D01*
X169156597Y-86431890D01*
X169124601Y-86351079D01*
X169119113Y-86337217D01*
X169027922Y-86217078D01*
X168907783Y-86125887D01*
X168844168Y-86100700D01*
X168775077Y-86073345D01*
X168775075Y-86073344D01*
X168767547Y-86070364D01*
X168677772Y-86059500D01*
X168399785Y-86059500D01*
X168331664Y-86039498D01*
X168285171Y-85985842D01*
X168275067Y-85915568D01*
X168304561Y-85850988D01*
X168365584Y-85812231D01*
X168374782Y-85809637D01*
X168449069Y-85788686D01*
X168454247Y-85786133D01*
X168454251Y-85786131D01*
X168633531Y-85697719D01*
X168638710Y-85695165D01*
X168808133Y-85568651D01*
X168906069Y-85462704D01*
X168947743Y-85417622D01*
X168947745Y-85417620D01*
X168951663Y-85413381D01*
X169064495Y-85234554D01*
X169142848Y-85038160D01*
X169143973Y-85032503D01*
X169143975Y-85032497D01*
X169182972Y-84836442D01*
X169182972Y-84836440D01*
X169184099Y-84830775D01*
X169184292Y-84816087D01*
X169186001Y-84685500D01*
X169186867Y-84619346D01*
X169151059Y-84410953D01*
X169077873Y-84212575D01*
X169028354Y-84129340D01*
X168972716Y-84035821D01*
X168972715Y-84035820D01*
X168969762Y-84030856D01*
X168830345Y-83871881D01*
X168664292Y-83740976D01*
X168659181Y-83738287D01*
X168659178Y-83738285D01*
X168505081Y-83657211D01*
X168477164Y-83642523D01*
X168359676Y-83606042D01*
X168300551Y-83566739D01*
X168272060Y-83501709D01*
X168283250Y-83431600D01*
X168330567Y-83378670D01*
X168362839Y-83364440D01*
X168461323Y-83336665D01*
X168472064Y-83332542D01*
X168659503Y-83240107D01*
X168669311Y-83234097D01*
X168836773Y-83109047D01*
X168845313Y-83101357D01*
X168987184Y-82947883D01*
X168994185Y-82938758D01*
X169105707Y-82762006D01*
X169110928Y-82751759D01*
X169188371Y-82557647D01*
X169191640Y-82546611D01*
X169204538Y-82481770D01*
X169203386Y-82468894D01*
X169188230Y-82464000D01*
X166629087Y-82464000D01*
X166616125Y-82467806D01*
X166614189Y-82482722D01*
X166619944Y-82516213D01*
X166622925Y-82527339D01*
X166695258Y-82723408D01*
X166700210Y-82733790D01*
X166807064Y-82913396D01*
X166813829Y-82922708D01*
X166951629Y-83079837D01*
X166959972Y-83087754D01*
X167124095Y-83217138D01*
X167133751Y-83223409D01*
X167318696Y-83320713D01*
X167329335Y-83325120D01*
X167459650Y-83365584D01*
X167518776Y-83404887D01*
X167547266Y-83469916D01*
X167536076Y-83540025D01*
X167488759Y-83592955D01*
X167456488Y-83607185D01*
X167370931Y-83631314D01*
X167365753Y-83633867D01*
X167365749Y-83633869D01*
X167212110Y-83709636D01*
X167181290Y-83724835D01*
X167176662Y-83728291D01*
X167023873Y-83842384D01*
X167011867Y-83851349D01*
X167007953Y-83855583D01*
X167007951Y-83855585D01*
X166903085Y-83969029D01*
X166842156Y-84005474D01*
X166810560Y-84009500D01*
X162446141Y-84009500D01*
X162437571Y-84009208D01*
X162436711Y-84009149D01*
X162380570Y-84005322D01*
X162373093Y-84006627D01*
X162373090Y-84006627D01*
X162318370Y-84016177D01*
X162311846Y-84017140D01*
X162256721Y-84023811D01*
X162256718Y-84023812D01*
X162249180Y-84024724D01*
X162242078Y-84027408D01*
X162238742Y-84028227D01*
X162224285Y-84032183D01*
X162221028Y-84033166D01*
X162213547Y-84034472D01*
X162206595Y-84037524D01*
X162206594Y-84037524D01*
X162155733Y-84059849D01*
X162149628Y-84062340D01*
X162097689Y-84081967D01*
X162097685Y-84081969D01*
X162090577Y-84084655D01*
X162084313Y-84088960D01*
X162081274Y-84090549D01*
X162068201Y-84097824D01*
X162065250Y-84099569D01*
X162058298Y-84102621D01*
X162052270Y-84107246D01*
X162052269Y-84107247D01*
X162008227Y-84141042D01*
X162002891Y-84144919D01*
X161957114Y-84176381D01*
X161957108Y-84176386D01*
X161950849Y-84180688D01*
X161936122Y-84197217D01*
X161909892Y-84226657D01*
X161904911Y-84231933D01*
X161443595Y-84693249D01*
X161381283Y-84727275D01*
X161310468Y-84722210D01*
X161253632Y-84679663D01*
X161228821Y-84613143D01*
X161228500Y-84604154D01*
X161228500Y-81938230D01*
X166615462Y-81938230D01*
X166616614Y-81951106D01*
X166631770Y-81956000D01*
X167637885Y-81956000D01*
X167653124Y-81951525D01*
X167654329Y-81950135D01*
X167656000Y-81942452D01*
X167656000Y-81937885D01*
X168164000Y-81937885D01*
X168168475Y-81953124D01*
X168169865Y-81954329D01*
X168177548Y-81956000D01*
X169190913Y-81956000D01*
X169203875Y-81952194D01*
X169205811Y-81937278D01*
X169200056Y-81903787D01*
X169197075Y-81892661D01*
X169124742Y-81696592D01*
X169119790Y-81686210D01*
X169012936Y-81506604D01*
X169006171Y-81497292D01*
X168868371Y-81340163D01*
X168860028Y-81332246D01*
X168695905Y-81202862D01*
X168686249Y-81196591D01*
X168501304Y-81099287D01*
X168490667Y-81094881D01*
X168291084Y-81032908D01*
X168279826Y-81030515D01*
X168181988Y-81018935D01*
X168167569Y-81021377D01*
X168164000Y-81034119D01*
X168164000Y-81937885D01*
X167656000Y-81937885D01*
X167656000Y-81034827D01*
X167651729Y-81020282D01*
X167639595Y-81018219D01*
X167571134Y-81024510D01*
X167559820Y-81026607D01*
X167358675Y-81083336D01*
X167347936Y-81087458D01*
X167160497Y-81179893D01*
X167150689Y-81185903D01*
X166983227Y-81310953D01*
X166974687Y-81318643D01*
X166832816Y-81472117D01*
X166825815Y-81481242D01*
X166714293Y-81657994D01*
X166709072Y-81668241D01*
X166631629Y-81862353D01*
X166628360Y-81873389D01*
X166615462Y-81938230D01*
X161228500Y-81938230D01*
X161228500Y-81329371D01*
X161248502Y-81261250D01*
X161302158Y-81214757D01*
X161372432Y-81204653D01*
X161414963Y-81219125D01*
X161420217Y-81223113D01*
X161499068Y-81254332D01*
X161552923Y-81275655D01*
X161552925Y-81275656D01*
X161560453Y-81278636D01*
X161650228Y-81289500D01*
X162410772Y-81289500D01*
X162500547Y-81278636D01*
X162508075Y-81275656D01*
X162508077Y-81275655D01*
X162577168Y-81248300D01*
X162640783Y-81223113D01*
X162760922Y-81131922D01*
X162852113Y-81011783D01*
X162882998Y-80933776D01*
X162904655Y-80879077D01*
X162904656Y-80879075D01*
X162907636Y-80871547D01*
X162915248Y-80808648D01*
X162918392Y-80782666D01*
X162946433Y-80717442D01*
X163005286Y-80677732D01*
X163076264Y-80676144D01*
X163136834Y-80713182D01*
X163168401Y-80781359D01*
X163182366Y-80887444D01*
X163186604Y-80903259D01*
X163240741Y-81033959D01*
X163248930Y-81048142D01*
X163335046Y-81160372D01*
X163346626Y-81171952D01*
X163458861Y-81258072D01*
X163473042Y-81266259D01*
X163603739Y-81320396D01*
X163619558Y-81324634D01*
X163724590Y-81338462D01*
X163732799Y-81339000D01*
X163833385Y-81339000D01*
X163848624Y-81334525D01*
X163849829Y-81333135D01*
X163851500Y-81325452D01*
X163851500Y-81320884D01*
X164359500Y-81320884D01*
X164363975Y-81336123D01*
X164365365Y-81337328D01*
X164373048Y-81338999D01*
X164478199Y-81338999D01*
X164486411Y-81338461D01*
X164591444Y-81324634D01*
X164607259Y-81320396D01*
X164737959Y-81266259D01*
X164752142Y-81258070D01*
X164864372Y-81171954D01*
X164875952Y-81160374D01*
X164962072Y-81048139D01*
X164970259Y-81033958D01*
X165024396Y-80903261D01*
X165028634Y-80887442D01*
X165042462Y-80782410D01*
X165043000Y-80774201D01*
X165043000Y-80536115D01*
X165038525Y-80520876D01*
X165037135Y-80519671D01*
X165029452Y-80518000D01*
X164377615Y-80518000D01*
X164362376Y-80522475D01*
X164361171Y-80523865D01*
X164359500Y-80531548D01*
X164359500Y-81320884D01*
X163851500Y-81320884D01*
X163851500Y-80136000D01*
X163871502Y-80067879D01*
X163925158Y-80021386D01*
X163977500Y-80010000D01*
X165024884Y-80010000D01*
X165040123Y-80005525D01*
X165041328Y-80004135D01*
X165042999Y-79996452D01*
X165042999Y-79753801D01*
X165042461Y-79745589D01*
X165028634Y-79640556D01*
X165024396Y-79624741D01*
X164970259Y-79494041D01*
X164962070Y-79479858D01*
X164875954Y-79367628D01*
X164864374Y-79356048D01*
X164752139Y-79269928D01*
X164737958Y-79261741D01*
X164679216Y-79237409D01*
X164623935Y-79192861D01*
X164601514Y-79125498D01*
X164619072Y-79056706D01*
X164671034Y-79008328D01*
X164679217Y-79004591D01*
X164737957Y-78980261D01*
X164752142Y-78972070D01*
X164864372Y-78885954D01*
X164875952Y-78874374D01*
X164962072Y-78762139D01*
X164970259Y-78747958D01*
X165024396Y-78617261D01*
X165028634Y-78601442D01*
X165042462Y-78496410D01*
X165043000Y-78488201D01*
X165043000Y-78250115D01*
X165038525Y-78234876D01*
X165037135Y-78233671D01*
X165029452Y-78232000D01*
X163977500Y-78232000D01*
X163909379Y-78211998D01*
X163862886Y-78158342D01*
X163851500Y-78106000D01*
X163851500Y-77705885D01*
X164359500Y-77705885D01*
X164363975Y-77721124D01*
X164365365Y-77722329D01*
X164373048Y-77724000D01*
X165024884Y-77724000D01*
X165040123Y-77719525D01*
X165041328Y-77718135D01*
X165042999Y-77710452D01*
X165042999Y-77467801D01*
X165042461Y-77459589D01*
X165028634Y-77354556D01*
X165024396Y-77338741D01*
X164970259Y-77208041D01*
X164962070Y-77193858D01*
X164875954Y-77081628D01*
X164864374Y-77070048D01*
X164752139Y-76983928D01*
X164737958Y-76975741D01*
X164607261Y-76921604D01*
X164591442Y-76917366D01*
X164486410Y-76903538D01*
X164478201Y-76903000D01*
X164377615Y-76903000D01*
X164362376Y-76907475D01*
X164361171Y-76908865D01*
X164359500Y-76916548D01*
X164359500Y-77705885D01*
X163851500Y-77705885D01*
X163851500Y-76921116D01*
X163847025Y-76905877D01*
X163845635Y-76904672D01*
X163837952Y-76903001D01*
X163732801Y-76903001D01*
X163724589Y-76903539D01*
X163619556Y-76917366D01*
X163603741Y-76921604D01*
X163473041Y-76975741D01*
X163458858Y-76983930D01*
X163346628Y-77070046D01*
X163335048Y-77081626D01*
X163248928Y-77193861D01*
X163240741Y-77208042D01*
X163186604Y-77338739D01*
X163182366Y-77354557D01*
X163168400Y-77460639D01*
X163139677Y-77525566D01*
X163080412Y-77564657D01*
X163009421Y-77565502D01*
X162949242Y-77527832D01*
X162918391Y-77459329D01*
X162916113Y-77440500D01*
X162907636Y-77370453D01*
X162901343Y-77354557D01*
X162855275Y-77238204D01*
X162852113Y-77230217D01*
X162760922Y-77110078D01*
X162640783Y-77018887D01*
X162531808Y-76975741D01*
X162508077Y-76966345D01*
X162508075Y-76966344D01*
X162500547Y-76963364D01*
X162410772Y-76952500D01*
X161650228Y-76952500D01*
X161560453Y-76963364D01*
X161552925Y-76966344D01*
X161552923Y-76966345D01*
X161529192Y-76975741D01*
X161420217Y-77018887D01*
X161415250Y-77022657D01*
X161347186Y-77038417D01*
X161280341Y-77014494D01*
X161237041Y-76958230D01*
X161228500Y-76912629D01*
X161228500Y-75212641D01*
X161228792Y-75204071D01*
X161228851Y-75203211D01*
X161232678Y-75147070D01*
X161228722Y-75124399D01*
X161221823Y-75084870D01*
X161220860Y-75078346D01*
X161214189Y-75023221D01*
X161214188Y-75023218D01*
X161213276Y-75015680D01*
X161210592Y-75008578D01*
X161209773Y-75005242D01*
X161205817Y-74990785D01*
X161204834Y-74987528D01*
X161203528Y-74980047D01*
X161200476Y-74973094D01*
X161178151Y-74922233D01*
X161175660Y-74916128D01*
X161156033Y-74864189D01*
X161156031Y-74864185D01*
X161153345Y-74857077D01*
X161149040Y-74850813D01*
X161147451Y-74847774D01*
X161140176Y-74834701D01*
X161138431Y-74831750D01*
X161135379Y-74824798D01*
X161096958Y-74774727D01*
X161093081Y-74769391D01*
X161061619Y-74723614D01*
X161061614Y-74723608D01*
X161057312Y-74717349D01*
X161011342Y-74676391D01*
X161006067Y-74671411D01*
X159844980Y-73510323D01*
X166481041Y-73510323D01*
X166481216Y-73514774D01*
X166483386Y-73570000D01*
X166488199Y-73692477D01*
X166491578Y-73778484D01*
X166539793Y-74042485D01*
X166624725Y-74297059D01*
X166646114Y-74339865D01*
X166705652Y-74459018D01*
X166744680Y-74537126D01*
X166897263Y-74757896D01*
X167079432Y-74954965D01*
X167082886Y-74957777D01*
X167284093Y-75121585D01*
X167284097Y-75121588D01*
X167287550Y-75124399D01*
X167291372Y-75126700D01*
X167434119Y-75212641D01*
X167517465Y-75262820D01*
X167521560Y-75264554D01*
X167521562Y-75264555D01*
X167760490Y-75365728D01*
X167760497Y-75365730D01*
X167764591Y-75367464D01*
X167859773Y-75392701D01*
X168019698Y-75435105D01*
X168019702Y-75435106D01*
X168023995Y-75436244D01*
X168028404Y-75436766D01*
X168028410Y-75436767D01*
X168176497Y-75454294D01*
X168290503Y-75467787D01*
X168558796Y-75461464D01*
X168563190Y-75460733D01*
X168563197Y-75460732D01*
X168819120Y-75418135D01*
X168819124Y-75418134D01*
X168823522Y-75417402D01*
X168990642Y-75364549D01*
X169075152Y-75337822D01*
X169075154Y-75337821D01*
X169079398Y-75336479D01*
X169083409Y-75334553D01*
X169083414Y-75334551D01*
X169317301Y-75222240D01*
X169317302Y-75222239D01*
X169321320Y-75220310D01*
X169461417Y-75126700D01*
X169540752Y-75073690D01*
X169540756Y-75073687D01*
X169544460Y-75071212D01*
X169547777Y-75068241D01*
X169547781Y-75068238D01*
X169741047Y-74895134D01*
X169741048Y-74895133D01*
X169744365Y-74892162D01*
X169917048Y-74686731D01*
X170059063Y-74459018D01*
X170167576Y-74213567D01*
X170173740Y-74191713D01*
X170211153Y-74059055D01*
X170240422Y-73955275D01*
X170261965Y-73794884D01*
X170275720Y-73692477D01*
X170275721Y-73692469D01*
X170276147Y-73689295D01*
X170279896Y-73570000D01*
X170260942Y-73302302D01*
X170204458Y-73039946D01*
X170181891Y-72978774D01*
X170113112Y-72792343D01*
X170111571Y-72788166D01*
X170080352Y-72730307D01*
X169986248Y-72555901D01*
X169984135Y-72551985D01*
X169824692Y-72336116D01*
X169821573Y-72332947D01*
X169821569Y-72332943D01*
X169731847Y-72241801D01*
X169636424Y-72144867D01*
X169589659Y-72109177D01*
X169426627Y-71984755D01*
X169426623Y-71984753D01*
X169423086Y-71982053D01*
X169188936Y-71850923D01*
X168938646Y-71754093D01*
X168934321Y-71753090D01*
X168934316Y-71753089D01*
X168742488Y-71708626D01*
X168677209Y-71693495D01*
X168409842Y-71670338D01*
X168405407Y-71670582D01*
X168405403Y-71670582D01*
X168146323Y-71684840D01*
X168146316Y-71684841D01*
X168141880Y-71685085D01*
X167878669Y-71737441D01*
X167874459Y-71738919D01*
X167874457Y-71738920D01*
X167726434Y-71790902D01*
X167625460Y-71826362D01*
X167621509Y-71828415D01*
X167621503Y-71828417D01*
X167391257Y-71948020D01*
X167387307Y-71950072D01*
X167383692Y-71952655D01*
X167383686Y-71952659D01*
X167246279Y-72050853D01*
X167168961Y-72106105D01*
X167165741Y-72109177D01*
X166991971Y-72274945D01*
X166974778Y-72291346D01*
X166808633Y-72502100D01*
X166755980Y-72592748D01*
X166676079Y-72730307D01*
X166676076Y-72730313D01*
X166673841Y-72734161D01*
X166573092Y-72982900D01*
X166572021Y-72987213D01*
X166572019Y-72987218D01*
X166537281Y-73127065D01*
X166508395Y-73243353D01*
X166481041Y-73510323D01*
X159844980Y-73510323D01*
X158927405Y-72592748D01*
X158893379Y-72530436D01*
X158890500Y-72503653D01*
X158890500Y-71590354D01*
X158887382Y-71564154D01*
X158872451Y-71530538D01*
X158846663Y-71472482D01*
X158841939Y-71461847D01*
X158762713Y-71382759D01*
X158752076Y-71378056D01*
X158752074Y-71378055D01*
X158692538Y-71351735D01*
X158660327Y-71337494D01*
X158634646Y-71334500D01*
X154045354Y-71334500D01*
X154041650Y-71334941D01*
X154041647Y-71334941D01*
X154034254Y-71335821D01*
X154019154Y-71337618D01*
X153916847Y-71383061D01*
X153837759Y-71462287D01*
X153833056Y-71472924D01*
X153833055Y-71472926D01*
X153814072Y-71515865D01*
X153792494Y-71564673D01*
X153789500Y-71590354D01*
X153789500Y-73929646D01*
X153792618Y-73955846D01*
X153796456Y-73964486D01*
X153796456Y-73964487D01*
X153832977Y-74046708D01*
X153838061Y-74058153D01*
X153846294Y-74066372D01*
X153846295Y-74066373D01*
X153877835Y-74097858D01*
X153917287Y-74137241D01*
X153927924Y-74141944D01*
X153927926Y-74141945D01*
X153971046Y-74161008D01*
X154019673Y-74182506D01*
X154045354Y-74185500D01*
X158486654Y-74185500D01*
X158554775Y-74205502D01*
X158575749Y-74222405D01*
X159790595Y-75437252D01*
X159824621Y-75499564D01*
X159827500Y-75526347D01*
X159827500Y-77969281D01*
X159827498Y-77969941D01*
X159827031Y-78059105D01*
X159827392Y-78060609D01*
X159827500Y-78062481D01*
X159827500Y-79854359D01*
X159827208Y-79862929D01*
X159823322Y-79919930D01*
X159824627Y-79927407D01*
X159825624Y-79933119D01*
X159827500Y-79954783D01*
X159827500Y-85051000D01*
X159807498Y-85119121D01*
X159753842Y-85165614D01*
X159701500Y-85177000D01*
X158407228Y-85177000D01*
X158317453Y-85187864D01*
X158309925Y-85190844D01*
X158309923Y-85190845D01*
X158305357Y-85192653D01*
X158177217Y-85243387D01*
X158057078Y-85334578D01*
X157965887Y-85454717D01*
X157962725Y-85462704D01*
X157919411Y-85572104D01*
X157910364Y-85594953D01*
X157899500Y-85684728D01*
X157899500Y-88467996D01*
X157879498Y-88536117D01*
X157862595Y-88557091D01*
X154057091Y-92362595D01*
X153994779Y-92396621D01*
X153967996Y-92399500D01*
X149397405Y-92399500D01*
X149329284Y-92379498D01*
X149282791Y-92325842D01*
X149279813Y-92317383D01*
X149279636Y-92317453D01*
X149227275Y-92185204D01*
X149224113Y-92177217D01*
X149132922Y-92057078D01*
X149012783Y-91965887D01*
X148929101Y-91932755D01*
X148880077Y-91913345D01*
X148880075Y-91913344D01*
X148872547Y-91910364D01*
X148782772Y-91899500D01*
X147997228Y-91899500D01*
X147907453Y-91910364D01*
X147899925Y-91913344D01*
X147899923Y-91913345D01*
X147850899Y-91932755D01*
X147767217Y-91965887D01*
X147647078Y-92057078D01*
X147555887Y-92177217D01*
X147552726Y-92185201D01*
X147507152Y-92300309D01*
X147463478Y-92356282D01*
X147396475Y-92379759D01*
X147327416Y-92363283D01*
X147278227Y-92312088D01*
X147272848Y-92300309D01*
X147227274Y-92185201D01*
X147224113Y-92177217D01*
X147132922Y-92057078D01*
X147012783Y-91965887D01*
X146970116Y-91948994D01*
X146914142Y-91905319D01*
X146890500Y-91831842D01*
X146890500Y-91146280D01*
X146910502Y-91078159D01*
X146970115Y-91029129D01*
X146974794Y-91027276D01*
X146982783Y-91024113D01*
X147102922Y-90932922D01*
X147194113Y-90812783D01*
X147242849Y-90689690D01*
X147286522Y-90633718D01*
X147353525Y-90610241D01*
X147422584Y-90626717D01*
X147471773Y-90677912D01*
X147477150Y-90689687D01*
X147525887Y-90812783D01*
X147617078Y-90932922D01*
X147737217Y-91024113D01*
X147788431Y-91044390D01*
X147869923Y-91076655D01*
X147869925Y-91076656D01*
X147877453Y-91079636D01*
X147967228Y-91090500D01*
X148752772Y-91090500D01*
X148842547Y-91079636D01*
X148850075Y-91076656D01*
X148850077Y-91076655D01*
X148931569Y-91044390D01*
X148982783Y-91024113D01*
X149102922Y-90932922D01*
X149194113Y-90812783D01*
X149228316Y-90726396D01*
X149246655Y-90680077D01*
X149246656Y-90680075D01*
X149249636Y-90672547D01*
X149260500Y-90582772D01*
X149260500Y-90180199D01*
X150935001Y-90180199D01*
X150935539Y-90188411D01*
X150949366Y-90293444D01*
X150953604Y-90309259D01*
X151007741Y-90439959D01*
X151015930Y-90454142D01*
X151102046Y-90566372D01*
X151113626Y-90577952D01*
X151225861Y-90664072D01*
X151240042Y-90672259D01*
X151370739Y-90726396D01*
X151386558Y-90730634D01*
X151491590Y-90744462D01*
X151499799Y-90745000D01*
X151737885Y-90745000D01*
X151753124Y-90740525D01*
X151754329Y-90739135D01*
X151756000Y-90731452D01*
X151756000Y-90726884D01*
X152264000Y-90726884D01*
X152268475Y-90742123D01*
X152269865Y-90743328D01*
X152277548Y-90744999D01*
X152520199Y-90744999D01*
X152528411Y-90744461D01*
X152633444Y-90730634D01*
X152649259Y-90726396D01*
X152779959Y-90672259D01*
X152794142Y-90664070D01*
X152906372Y-90577954D01*
X152917952Y-90566374D01*
X153004072Y-90454139D01*
X153012259Y-90439958D01*
X153066396Y-90309261D01*
X153070634Y-90293442D01*
X153084462Y-90188410D01*
X153085000Y-90180201D01*
X153085000Y-90079615D01*
X153080525Y-90064376D01*
X153079135Y-90063171D01*
X153071452Y-90061500D01*
X152282115Y-90061500D01*
X152266876Y-90065975D01*
X152265671Y-90067365D01*
X152264000Y-90075048D01*
X152264000Y-90726884D01*
X151756000Y-90726884D01*
X151756000Y-90079615D01*
X151751525Y-90064376D01*
X151750135Y-90063171D01*
X151742452Y-90061500D01*
X150953116Y-90061500D01*
X150937877Y-90065975D01*
X150936672Y-90067365D01*
X150935001Y-90075048D01*
X150935001Y-90180199D01*
X149260500Y-90180199D01*
X149260500Y-89597228D01*
X149249636Y-89507453D01*
X149242849Y-89490309D01*
X149207340Y-89400624D01*
X149194113Y-89367217D01*
X149102922Y-89247078D01*
X148982783Y-89155887D01*
X148940116Y-89138994D01*
X148884142Y-89095319D01*
X148860500Y-89021842D01*
X148860500Y-88340239D01*
X148880502Y-88272118D01*
X148940117Y-88223087D01*
X148949384Y-88219418D01*
X148962783Y-88214113D01*
X149082922Y-88122922D01*
X149174113Y-88002783D01*
X149207292Y-87918983D01*
X149226655Y-87870077D01*
X149226656Y-87870075D01*
X149229636Y-87862547D01*
X149240500Y-87772772D01*
X149240500Y-86787228D01*
X149229636Y-86697453D01*
X149226119Y-86688568D01*
X149192079Y-86602595D01*
X149174113Y-86557217D01*
X149082922Y-86437078D01*
X148962783Y-86345887D01*
X148940117Y-86336913D01*
X148884143Y-86293239D01*
X148860500Y-86219761D01*
X148860500Y-84932004D01*
X148880502Y-84863883D01*
X148897405Y-84842909D01*
X149017909Y-84722405D01*
X149080221Y-84688379D01*
X149107004Y-84685500D01*
X149663834Y-84685500D01*
X149681752Y-84683806D01*
X149687722Y-84683242D01*
X149687723Y-84683242D01*
X149695369Y-84682519D01*
X149823184Y-84637634D01*
X149830754Y-84632042D01*
X149830757Y-84632041D01*
X149924579Y-84562742D01*
X149932150Y-84557150D01*
X149946929Y-84537141D01*
X150007041Y-84455757D01*
X150007042Y-84455754D01*
X150012634Y-84448184D01*
X150057519Y-84320369D01*
X150060500Y-84288834D01*
X150060500Y-83881166D01*
X150057519Y-83849631D01*
X150012634Y-83721816D01*
X150007042Y-83714246D01*
X150007041Y-83714243D01*
X149937742Y-83620421D01*
X149932150Y-83612850D01*
X149924579Y-83607258D01*
X149924576Y-83607255D01*
X149848888Y-83551351D01*
X149805977Y-83494790D01*
X149800457Y-83424008D01*
X149834081Y-83361479D01*
X149848887Y-83348649D01*
X149860395Y-83340149D01*
X149927074Y-83315766D01*
X149935255Y-83315500D01*
X150939862Y-83315500D01*
X151007983Y-83335502D01*
X151057014Y-83395116D01*
X151063905Y-83412519D01*
X151075887Y-83442783D01*
X151167078Y-83562922D01*
X151287217Y-83654113D01*
X151410310Y-83702849D01*
X151466282Y-83746522D01*
X151489759Y-83813525D01*
X151473283Y-83882584D01*
X151422088Y-83931773D01*
X151410313Y-83937150D01*
X151287217Y-83985887D01*
X151167078Y-84077078D01*
X151075887Y-84197217D01*
X151067662Y-84217991D01*
X151024259Y-84327616D01*
X151020364Y-84337453D01*
X151009500Y-84427228D01*
X151009500Y-85212772D01*
X151020364Y-85302547D01*
X151075887Y-85442783D01*
X151167078Y-85562922D01*
X151287217Y-85654113D01*
X151355033Y-85680963D01*
X151427453Y-85709636D01*
X151426394Y-85712312D01*
X151475612Y-85741432D01*
X151507470Y-85804879D01*
X151509500Y-85827405D01*
X151509500Y-86731246D01*
X151489498Y-86799367D01*
X151435842Y-86845860D01*
X151414514Y-86853369D01*
X151410486Y-86854392D01*
X151402453Y-86855364D01*
X151394932Y-86858342D01*
X151394931Y-86858342D01*
X151365416Y-86870028D01*
X151262217Y-86910887D01*
X151142078Y-87002078D01*
X151050887Y-87122217D01*
X151030294Y-87174230D01*
X151011770Y-87221017D01*
X150995364Y-87262453D01*
X150984500Y-87352228D01*
X150984500Y-88112772D01*
X150995364Y-88202547D01*
X150998344Y-88210075D01*
X150998345Y-88210077D01*
X151010043Y-88239623D01*
X151050887Y-88342783D01*
X151142078Y-88462922D01*
X151262217Y-88554113D01*
X151294875Y-88567043D01*
X151394923Y-88606655D01*
X151394925Y-88606656D01*
X151402453Y-88609636D01*
X151432746Y-88613302D01*
X151491334Y-88620392D01*
X151556558Y-88648433D01*
X151596268Y-88707286D01*
X151597856Y-88778264D01*
X151560818Y-88838834D01*
X151492641Y-88870401D01*
X151386556Y-88884366D01*
X151370741Y-88888604D01*
X151240041Y-88942741D01*
X151225858Y-88950930D01*
X151113628Y-89037046D01*
X151102048Y-89048626D01*
X151015928Y-89160861D01*
X151007741Y-89175042D01*
X150953604Y-89305739D01*
X150949366Y-89321558D01*
X150935538Y-89426590D01*
X150935000Y-89434799D01*
X150935000Y-89535385D01*
X150939475Y-89550624D01*
X150940865Y-89551829D01*
X150948548Y-89553500D01*
X153066884Y-89553500D01*
X153082123Y-89549025D01*
X153083328Y-89547635D01*
X153084999Y-89539952D01*
X153084999Y-89434801D01*
X153084461Y-89426589D01*
X153070634Y-89321556D01*
X153066396Y-89305741D01*
X153012259Y-89175041D01*
X153004070Y-89160858D01*
X152917954Y-89048628D01*
X152906374Y-89037048D01*
X152794139Y-88950928D01*
X152779958Y-88942741D01*
X152649261Y-88888604D01*
X152633443Y-88884366D01*
X152527361Y-88870400D01*
X152462434Y-88841677D01*
X152423343Y-88782412D01*
X152422498Y-88711421D01*
X152460168Y-88651242D01*
X152528670Y-88620391D01*
X152617547Y-88609636D01*
X152625075Y-88606656D01*
X152625077Y-88606655D01*
X152725125Y-88567043D01*
X152757783Y-88554113D01*
X152877922Y-88462922D01*
X152969113Y-88342783D01*
X153009957Y-88239623D01*
X153021655Y-88210077D01*
X153021656Y-88210075D01*
X153024636Y-88202547D01*
X153035500Y-88112772D01*
X153035500Y-87352228D01*
X153024636Y-87262453D01*
X153008231Y-87221017D01*
X152989706Y-87174230D01*
X152969113Y-87122217D01*
X152877922Y-87002078D01*
X152757783Y-86910887D01*
X152654584Y-86870028D01*
X152625069Y-86858342D01*
X152625068Y-86858342D01*
X152617547Y-86855364D01*
X152609514Y-86854392D01*
X152605486Y-86853369D01*
X152544385Y-86817215D01*
X152512529Y-86753767D01*
X152510500Y-86731246D01*
X152510500Y-85827405D01*
X152530502Y-85759284D01*
X152584158Y-85712791D01*
X152592617Y-85709813D01*
X152592547Y-85709636D01*
X152664967Y-85680963D01*
X152732783Y-85654113D01*
X152852922Y-85562922D01*
X152944113Y-85442783D01*
X152999636Y-85302547D01*
X153010500Y-85212772D01*
X153010500Y-84427228D01*
X152999636Y-84337453D01*
X152995742Y-84327616D01*
X152952338Y-84217991D01*
X152944113Y-84197217D01*
X152852922Y-84077078D01*
X152732783Y-83985887D01*
X152609690Y-83937151D01*
X152553718Y-83893478D01*
X152530241Y-83826475D01*
X152546717Y-83757416D01*
X152597912Y-83708227D01*
X152609687Y-83702850D01*
X152732783Y-83654113D01*
X152852922Y-83562922D01*
X152944113Y-83442783D01*
X152956095Y-83412519D01*
X152962986Y-83395116D01*
X153006661Y-83339142D01*
X153080138Y-83315500D01*
X154205055Y-83315500D01*
X154273176Y-83335502D01*
X154319669Y-83389158D01*
X154324955Y-83404171D01*
X154325364Y-83407547D01*
X154380887Y-83547783D01*
X154472078Y-83667922D01*
X154592217Y-83759113D01*
X154655832Y-83784300D01*
X154724923Y-83811655D01*
X154724925Y-83811656D01*
X154732453Y-83814636D01*
X154822228Y-83825500D01*
X155582772Y-83825500D01*
X155672547Y-83814636D01*
X155680075Y-83811656D01*
X155680077Y-83811655D01*
X155749168Y-83784300D01*
X155812783Y-83759113D01*
X155932922Y-83667922D01*
X156024113Y-83547783D01*
X156067080Y-83439261D01*
X156076655Y-83415077D01*
X156076656Y-83415073D01*
X156079636Y-83407547D01*
X156085211Y-83361479D01*
X156090392Y-83318666D01*
X156118433Y-83253442D01*
X156177286Y-83213732D01*
X156248264Y-83212144D01*
X156308834Y-83249182D01*
X156340401Y-83317359D01*
X156354366Y-83423444D01*
X156358604Y-83439259D01*
X156412741Y-83569959D01*
X156420930Y-83584142D01*
X156507046Y-83696372D01*
X156518626Y-83707952D01*
X156630861Y-83794072D01*
X156645042Y-83802259D01*
X156775739Y-83856396D01*
X156791558Y-83860634D01*
X156896590Y-83874462D01*
X156904799Y-83875000D01*
X157005385Y-83875000D01*
X157020624Y-83870525D01*
X157021829Y-83869135D01*
X157023500Y-83861452D01*
X157023500Y-83856884D01*
X157531500Y-83856884D01*
X157535975Y-83872123D01*
X157537365Y-83873328D01*
X157545048Y-83874999D01*
X157650199Y-83874999D01*
X157658411Y-83874461D01*
X157763444Y-83860634D01*
X157779259Y-83856396D01*
X157909959Y-83802259D01*
X157924142Y-83794070D01*
X158036372Y-83707954D01*
X158047952Y-83696374D01*
X158134072Y-83584139D01*
X158142259Y-83569958D01*
X158196396Y-83439261D01*
X158200634Y-83423442D01*
X158214462Y-83318410D01*
X158215000Y-83310201D01*
X158215000Y-83072115D01*
X158210525Y-83056876D01*
X158209135Y-83055671D01*
X158201452Y-83054000D01*
X157549615Y-83054000D01*
X157534376Y-83058475D01*
X157533171Y-83059865D01*
X157531500Y-83067548D01*
X157531500Y-83856884D01*
X157023500Y-83856884D01*
X157023500Y-82527885D01*
X157531500Y-82527885D01*
X157535975Y-82543124D01*
X157537365Y-82544329D01*
X157545048Y-82546000D01*
X158196884Y-82546000D01*
X158212123Y-82541525D01*
X158213328Y-82540135D01*
X158214999Y-82532452D01*
X158214999Y-82289801D01*
X158214461Y-82281589D01*
X158200634Y-82176556D01*
X158196396Y-82160741D01*
X158142259Y-82030041D01*
X158134070Y-82015858D01*
X158047954Y-81903628D01*
X158036374Y-81892048D01*
X157924139Y-81805928D01*
X157909958Y-81797741D01*
X157779261Y-81743604D01*
X157763442Y-81739366D01*
X157658410Y-81725538D01*
X157650201Y-81725000D01*
X157549615Y-81725000D01*
X157534376Y-81729475D01*
X157533171Y-81730865D01*
X157531500Y-81738548D01*
X157531500Y-82527885D01*
X157023500Y-82527885D01*
X157023500Y-81743116D01*
X157019025Y-81727877D01*
X157017635Y-81726672D01*
X157009952Y-81725001D01*
X156904801Y-81725001D01*
X156896589Y-81725539D01*
X156791556Y-81739366D01*
X156775741Y-81743604D01*
X156645041Y-81797741D01*
X156630858Y-81805930D01*
X156518628Y-81892046D01*
X156507048Y-81903626D01*
X156420928Y-82015861D01*
X156412741Y-82030042D01*
X156358604Y-82160739D01*
X156354366Y-82176557D01*
X156340400Y-82282639D01*
X156311677Y-82347566D01*
X156252412Y-82386657D01*
X156181421Y-82387502D01*
X156121242Y-82349832D01*
X156090391Y-82281329D01*
X156088433Y-82265144D01*
X156079636Y-82192453D01*
X156075880Y-82182965D01*
X156047728Y-82111862D01*
X156024113Y-82052217D01*
X155932922Y-81932078D01*
X155812783Y-81840887D01*
X155736963Y-81810868D01*
X155680077Y-81788345D01*
X155680075Y-81788344D01*
X155672547Y-81785364D01*
X155582772Y-81774500D01*
X154822228Y-81774500D01*
X154732453Y-81785364D01*
X154724925Y-81788344D01*
X154724923Y-81788345D01*
X154668037Y-81810868D01*
X154592217Y-81840887D01*
X154472078Y-81932078D01*
X154380887Y-82052217D01*
X154357272Y-82111862D01*
X154329121Y-82182965D01*
X154325364Y-82192453D01*
X154324011Y-82203636D01*
X154322990Y-82206010D01*
X154322401Y-82208330D01*
X154322033Y-82208237D01*
X154295973Y-82268858D01*
X154237122Y-82308570D01*
X154198924Y-82314500D01*
X153076178Y-82314500D01*
X153008057Y-82294498D01*
X152959026Y-82234884D01*
X152947274Y-82205201D01*
X152944113Y-82197217D01*
X152852922Y-82077078D01*
X152732783Y-81985887D01*
X152628915Y-81944763D01*
X152600077Y-81933345D01*
X152600075Y-81933344D01*
X152592547Y-81930364D01*
X152502772Y-81919500D01*
X151517228Y-81919500D01*
X151427453Y-81930364D01*
X151419925Y-81933344D01*
X151419923Y-81933345D01*
X151391085Y-81944763D01*
X151287217Y-81985887D01*
X151167078Y-82077078D01*
X151075887Y-82197217D01*
X151072726Y-82205201D01*
X151060974Y-82234884D01*
X151017300Y-82290857D01*
X150943822Y-82314500D01*
X149995407Y-82314500D01*
X149927286Y-82294498D01*
X149880793Y-82240842D01*
X149870689Y-82170568D01*
X149900183Y-82105988D01*
X149919841Y-82087674D01*
X149960011Y-82057568D01*
X149972570Y-82045009D01*
X150047701Y-81944763D01*
X150056233Y-81929177D01*
X150100585Y-81810868D01*
X150100699Y-81810389D01*
X150099271Y-81802418D01*
X150086839Y-81799000D01*
X148819500Y-81799000D01*
X148751379Y-81778998D01*
X148704886Y-81725342D01*
X148693500Y-81673000D01*
X148693500Y-81417000D01*
X148713502Y-81348879D01*
X148767158Y-81302386D01*
X148819500Y-81291000D01*
X150085729Y-81291000D01*
X150099951Y-81286824D01*
X150100947Y-81280654D01*
X150100585Y-81279132D01*
X150056233Y-81160823D01*
X150047701Y-81145237D01*
X149972570Y-81044991D01*
X149960009Y-81032430D01*
X149889985Y-80979950D01*
X149847470Y-80923091D01*
X149842444Y-80852273D01*
X149876504Y-80789979D01*
X149890690Y-80777773D01*
X149924579Y-80752742D01*
X149932150Y-80747150D01*
X149954093Y-80717442D01*
X150007041Y-80645757D01*
X150007042Y-80645754D01*
X150012634Y-80638184D01*
X150057519Y-80510369D01*
X150060500Y-80478834D01*
X150060500Y-80071166D01*
X150057519Y-80039631D01*
X150012634Y-79911816D01*
X150007042Y-79904246D01*
X150007041Y-79904243D01*
X149937742Y-79810421D01*
X149932150Y-79802850D01*
X149915206Y-79790335D01*
X149830757Y-79727959D01*
X149830754Y-79727958D01*
X149823184Y-79722366D01*
X149732251Y-79690433D01*
X149674606Y-79648989D01*
X149648518Y-79582960D01*
X149648000Y-79571550D01*
X149648000Y-78786500D01*
X149668002Y-78718379D01*
X149721658Y-78671886D01*
X149774000Y-78660500D01*
X150004646Y-78660500D01*
X150008350Y-78660059D01*
X150008353Y-78660059D01*
X150015746Y-78659179D01*
X150030846Y-78657382D01*
X150121172Y-78617261D01*
X150122518Y-78616663D01*
X150133153Y-78611939D01*
X150212241Y-78532713D01*
X150228178Y-78496666D01*
X150253675Y-78438992D01*
X150257506Y-78430327D01*
X150260500Y-78404646D01*
X150260500Y-77936500D01*
X150280502Y-77868379D01*
X150334158Y-77821886D01*
X150386500Y-77810500D01*
X153547654Y-77810500D01*
X153615775Y-77830502D01*
X153636749Y-77847405D01*
X153855584Y-78066240D01*
X153889610Y-78128552D01*
X153884545Y-78199367D01*
X153855661Y-78244353D01*
X153845979Y-78254052D01*
X153845978Y-78254054D01*
X153837759Y-78262287D01*
X153792494Y-78364673D01*
X153789500Y-78390354D01*
X153789500Y-80729646D01*
X153792618Y-80755846D01*
X153796456Y-80764486D01*
X153796456Y-80764487D01*
X153833140Y-80847074D01*
X153838061Y-80858153D01*
X153846294Y-80866372D01*
X153846295Y-80866373D01*
X153867401Y-80887442D01*
X153917287Y-80937241D01*
X153927924Y-80941944D01*
X153927926Y-80941945D01*
X153987462Y-80968265D01*
X154019673Y-80982506D01*
X154045354Y-80985500D01*
X158634646Y-80985500D01*
X158638350Y-80985059D01*
X158638353Y-80985059D01*
X158645746Y-80984179D01*
X158660846Y-80982382D01*
X158675120Y-80976042D01*
X158752518Y-80941663D01*
X158763153Y-80936939D01*
X158842241Y-80857713D01*
X158848083Y-80844500D01*
X158883675Y-80763992D01*
X158887506Y-80755327D01*
X158890500Y-80729646D01*
X158890500Y-78390354D01*
X158887382Y-78364154D01*
X158841939Y-78261847D01*
X158824415Y-78244353D01*
X158770945Y-78190977D01*
X158762713Y-78182759D01*
X158752076Y-78178056D01*
X158752074Y-78178055D01*
X158668992Y-78141325D01*
X158668993Y-78141325D01*
X158660327Y-78137494D01*
X158634646Y-78134500D01*
X155957347Y-78134500D01*
X155889226Y-78114498D01*
X155868252Y-78097595D01*
X154405582Y-76634925D01*
X154399728Y-76628659D01*
X154395782Y-76624135D01*
X154362169Y-76585604D01*
X154310527Y-76549310D01*
X154305242Y-76545384D01*
X154261524Y-76511105D01*
X154261520Y-76511103D01*
X154255543Y-76506416D01*
X154248620Y-76503290D01*
X154245672Y-76501505D01*
X154232712Y-76494113D01*
X154229666Y-76492480D01*
X154223453Y-76488113D01*
X154164633Y-76465180D01*
X154158554Y-76462624D01*
X154101016Y-76436645D01*
X154093545Y-76435260D01*
X154090277Y-76434236D01*
X154075836Y-76430123D01*
X154072563Y-76429283D01*
X154065487Y-76426524D01*
X154012115Y-76419498D01*
X154002894Y-76418284D01*
X153996377Y-76417252D01*
X153941775Y-76407132D01*
X153934308Y-76405748D01*
X153926728Y-76406185D01*
X153926727Y-76406185D01*
X153872856Y-76409291D01*
X153865604Y-76409500D01*
X150386500Y-76409500D01*
X150318379Y-76389498D01*
X150271886Y-76335842D01*
X150260500Y-76283500D01*
X150260500Y-75815354D01*
X150257382Y-75789154D01*
X150211939Y-75686847D01*
X150199508Y-75674437D01*
X150140945Y-75615977D01*
X150132713Y-75607759D01*
X150122076Y-75603056D01*
X150122074Y-75603055D01*
X150062538Y-75576735D01*
X150030327Y-75562494D01*
X150004646Y-75559500D01*
X148115354Y-75559500D01*
X148111650Y-75559941D01*
X148111647Y-75559941D01*
X148104254Y-75560821D01*
X148089154Y-75562618D01*
X147986847Y-75608061D01*
X147907759Y-75687287D01*
X147903056Y-75697924D01*
X147903055Y-75697926D01*
X147885892Y-75736749D01*
X147862494Y-75789673D01*
X147859500Y-75815354D01*
X147859500Y-76313500D01*
X147839498Y-76381621D01*
X147785842Y-76428114D01*
X147733500Y-76439500D01*
X146818754Y-76439500D01*
X146750633Y-76419498D01*
X146704140Y-76365842D01*
X146696631Y-76344514D01*
X146695608Y-76340486D01*
X146694636Y-76332453D01*
X146680578Y-76296945D01*
X146657474Y-76238591D01*
X146639113Y-76192217D01*
X146547922Y-76072078D01*
X146427783Y-75980887D01*
X146341671Y-75946793D01*
X146295077Y-75928345D01*
X146295075Y-75928344D01*
X146287547Y-75925364D01*
X146197772Y-75914500D01*
X145437228Y-75914500D01*
X145347453Y-75925364D01*
X145339925Y-75928344D01*
X145339923Y-75928345D01*
X145293329Y-75946793D01*
X145207217Y-75980887D01*
X145087078Y-76072078D01*
X144995887Y-76192217D01*
X144977526Y-76238591D01*
X144954423Y-76296945D01*
X144940364Y-76332453D01*
X144929500Y-76422228D01*
X144929500Y-77457772D01*
X144940364Y-77547547D01*
X144995887Y-77687783D01*
X145087078Y-77807922D01*
X145207217Y-77899113D01*
X145247000Y-77914864D01*
X145339923Y-77951655D01*
X145339925Y-77951656D01*
X145347453Y-77954636D01*
X145437228Y-77965500D01*
X146197772Y-77965500D01*
X146287547Y-77954636D01*
X146295075Y-77951656D01*
X146295077Y-77951655D01*
X146388000Y-77914864D01*
X146427783Y-77899113D01*
X146547922Y-77807922D01*
X146639113Y-77687783D01*
X146694636Y-77547547D01*
X146695608Y-77539514D01*
X146696631Y-77535486D01*
X146732785Y-77474385D01*
X146796233Y-77442529D01*
X146818754Y-77440500D01*
X147733500Y-77440500D01*
X147801621Y-77460502D01*
X147848114Y-77514158D01*
X147859500Y-77566500D01*
X147859500Y-78404646D01*
X147862618Y-78430846D01*
X147866456Y-78439486D01*
X147866456Y-78439487D01*
X147891457Y-78495772D01*
X147908061Y-78533153D01*
X147987287Y-78612241D01*
X147997924Y-78616944D01*
X147997926Y-78616945D01*
X148057462Y-78643265D01*
X148089673Y-78657506D01*
X148115354Y-78660500D01*
X148121000Y-78660500D01*
X148121489Y-78660644D01*
X148122665Y-78660712D01*
X148122649Y-78660984D01*
X148189121Y-78680502D01*
X148235614Y-78734158D01*
X148247000Y-78786500D01*
X148247000Y-79571550D01*
X148226998Y-79639671D01*
X148173342Y-79686164D01*
X148162751Y-79690432D01*
X148071816Y-79722366D01*
X148064246Y-79727958D01*
X148064243Y-79727959D01*
X147979794Y-79790335D01*
X147962850Y-79802850D01*
X147957258Y-79810421D01*
X147887959Y-79904243D01*
X147887958Y-79904246D01*
X147882366Y-79911816D01*
X147837481Y-80039631D01*
X147834500Y-80071166D01*
X147834500Y-80122049D01*
X147814498Y-80190170D01*
X147760842Y-80236663D01*
X147690568Y-80246767D01*
X147671294Y-80242431D01*
X147658694Y-80238537D01*
X147604703Y-80230660D01*
X147595604Y-80230000D01*
X146582115Y-80230000D01*
X146566876Y-80234475D01*
X146565671Y-80235865D01*
X146564000Y-80243548D01*
X146564000Y-80702789D01*
X146567237Y-80713814D01*
X146574330Y-80710575D01*
X146645134Y-80639771D01*
X146707446Y-80605745D01*
X146778261Y-80610810D01*
X146823324Y-80639771D01*
X147274458Y-81090905D01*
X147308484Y-81153217D01*
X147303419Y-81224032D01*
X147274458Y-81269095D01*
X146876365Y-81667188D01*
X146868751Y-81681132D01*
X146868882Y-81682965D01*
X146873133Y-81689580D01*
X147274458Y-82090905D01*
X147308484Y-82153217D01*
X147303419Y-82224032D01*
X147274458Y-82269095D01*
X146876365Y-82667188D01*
X146868751Y-82681132D01*
X146868882Y-82682965D01*
X146873133Y-82689580D01*
X147274458Y-83090905D01*
X147308484Y-83153217D01*
X147303419Y-83224032D01*
X147274458Y-83269095D01*
X146823324Y-83720229D01*
X146761012Y-83754255D01*
X146690197Y-83749190D01*
X146645134Y-83720229D01*
X146576811Y-83651906D01*
X146566723Y-83646398D01*
X146564000Y-83653700D01*
X146564000Y-84111884D01*
X146568475Y-84127123D01*
X146569865Y-84128328D01*
X146577548Y-84129999D01*
X147595568Y-84129999D01*
X147604734Y-84129328D01*
X147659275Y-84121300D01*
X147671110Y-84117623D01*
X147742098Y-84116510D01*
X147802419Y-84153953D01*
X147832921Y-84218063D01*
X147834500Y-84237948D01*
X147834500Y-84288834D01*
X147837481Y-84320369D01*
X147843480Y-84337453D01*
X147878707Y-84437765D01*
X147882405Y-84508665D01*
X147880319Y-84516349D01*
X147880260Y-84516541D01*
X147876447Y-84524663D01*
X147875066Y-84533532D01*
X147873963Y-84537141D01*
X147870115Y-84551807D01*
X147869301Y-84555510D01*
X147866148Y-84563920D01*
X147862698Y-84610343D01*
X147861548Y-84620356D01*
X147859500Y-84633509D01*
X147859500Y-84648704D01*
X147859154Y-84658041D01*
X147855524Y-84706892D01*
X147857397Y-84715668D01*
X147858008Y-84724625D01*
X147858002Y-84724625D01*
X147859500Y-84738818D01*
X147859500Y-86203924D01*
X147839498Y-86272045D01*
X147779883Y-86321076D01*
X147717217Y-86345887D01*
X147597078Y-86437078D01*
X147505887Y-86557217D01*
X147489769Y-86597928D01*
X147483836Y-86612913D01*
X147440162Y-86668887D01*
X147373160Y-86692363D01*
X147304101Y-86675889D01*
X147254912Y-86624694D01*
X147250275Y-86614748D01*
X147217259Y-86535041D01*
X147209070Y-86520858D01*
X147122954Y-86408628D01*
X147111374Y-86397048D01*
X146999139Y-86310928D01*
X146984958Y-86302741D01*
X146854261Y-86248604D01*
X146838442Y-86244366D01*
X146733410Y-86230538D01*
X146725201Y-86230000D01*
X146612115Y-86230000D01*
X146596876Y-86234475D01*
X146595671Y-86235865D01*
X146594000Y-86243548D01*
X146594000Y-88311884D01*
X146598475Y-88327123D01*
X146599865Y-88328328D01*
X146607548Y-88329999D01*
X146725199Y-88329999D01*
X146733411Y-88329461D01*
X146838444Y-88315634D01*
X146854259Y-88311396D01*
X146984959Y-88257259D01*
X146999142Y-88249070D01*
X147111372Y-88162954D01*
X147122952Y-88151374D01*
X147209072Y-88039139D01*
X147217259Y-88024958D01*
X147250275Y-87945252D01*
X147294824Y-87889971D01*
X147362187Y-87867550D01*
X147430978Y-87885108D01*
X147479357Y-87937071D01*
X147483832Y-87947078D01*
X147505887Y-88002783D01*
X147597078Y-88122922D01*
X147717217Y-88214113D01*
X147779883Y-88238924D01*
X147835857Y-88282598D01*
X147859500Y-88356076D01*
X147859500Y-89021842D01*
X147839498Y-89089963D01*
X147779884Y-89138994D01*
X147737217Y-89155887D01*
X147617078Y-89247078D01*
X147525887Y-89367217D01*
X147491933Y-89452977D01*
X147477152Y-89490309D01*
X147433478Y-89546282D01*
X147366475Y-89569759D01*
X147297416Y-89553283D01*
X147248227Y-89502088D01*
X147242848Y-89490309D01*
X147228068Y-89452977D01*
X147194113Y-89367217D01*
X147102922Y-89247078D01*
X146982783Y-89155887D01*
X146919168Y-89130700D01*
X146850077Y-89103345D01*
X146850075Y-89103344D01*
X146842547Y-89100364D01*
X146752772Y-89089500D01*
X145967228Y-89089500D01*
X145877453Y-89100364D01*
X145869925Y-89103344D01*
X145869923Y-89103345D01*
X145800832Y-89130700D01*
X145737217Y-89155887D01*
X145617078Y-89247078D01*
X145525887Y-89367217D01*
X145512660Y-89400624D01*
X145477152Y-89490309D01*
X145470364Y-89507453D01*
X145459500Y-89597228D01*
X145459500Y-90582772D01*
X145470364Y-90672547D01*
X145473344Y-90680075D01*
X145473345Y-90680077D01*
X145491684Y-90726396D01*
X145525887Y-90812783D01*
X145617078Y-90932922D01*
X145737217Y-91024113D01*
X145809884Y-91052884D01*
X145865857Y-91096557D01*
X145889500Y-91170035D01*
X145889500Y-91831842D01*
X145869498Y-91899963D01*
X145809884Y-91948994D01*
X145767217Y-91965887D01*
X145647078Y-92057078D01*
X145555887Y-92177217D01*
X145552725Y-92185204D01*
X145507152Y-92300309D01*
X145500364Y-92317453D01*
X145489500Y-92407228D01*
X145489500Y-93392772D01*
X145500364Y-93482547D01*
X145503344Y-93490075D01*
X145503345Y-93490077D01*
X145507423Y-93500377D01*
X145555887Y-93622783D01*
X145647078Y-93742922D01*
X145767217Y-93834113D01*
X145799746Y-93846992D01*
X145899923Y-93886655D01*
X145899925Y-93886656D01*
X145907453Y-93889636D01*
X145997228Y-93900500D01*
X146782772Y-93900500D01*
X146872547Y-93889636D01*
X146880075Y-93886656D01*
X146880077Y-93886655D01*
X146980254Y-93846992D01*
X147012783Y-93834113D01*
X147132922Y-93742922D01*
X147224113Y-93622783D01*
X147272849Y-93499690D01*
X147316522Y-93443718D01*
X147383525Y-93420241D01*
X147452584Y-93436717D01*
X147501773Y-93487912D01*
X147507150Y-93499687D01*
X147555887Y-93622783D01*
X147647078Y-93742922D01*
X147767217Y-93834113D01*
X147799746Y-93846992D01*
X147899923Y-93886655D01*
X147899925Y-93886656D01*
X147907453Y-93889636D01*
X147997228Y-93900500D01*
X148782772Y-93900500D01*
X148872547Y-93889636D01*
X148880075Y-93886656D01*
X148880077Y-93886655D01*
X148980254Y-93846992D01*
X149012783Y-93834113D01*
X149132922Y-93742922D01*
X149224113Y-93622783D01*
X149279636Y-93482547D01*
X149282312Y-93483606D01*
X149311432Y-93434388D01*
X149374879Y-93402530D01*
X149397405Y-93400500D01*
X154157319Y-93400500D01*
X154169204Y-93401828D01*
X154169245Y-93401318D01*
X154178191Y-93402038D01*
X154186947Y-93404019D01*
X154239763Y-93400742D01*
X154247567Y-93400500D01*
X154263440Y-93400500D01*
X154273552Y-93399052D01*
X154283606Y-93398022D01*
X154311597Y-93396285D01*
X154330038Y-93395141D01*
X154338482Y-93392093D01*
X154342194Y-93391324D01*
X154356899Y-93387657D01*
X154360527Y-93386596D01*
X154369418Y-93385323D01*
X154411782Y-93366061D01*
X154421137Y-93362254D01*
X154456443Y-93349509D01*
X154456447Y-93349507D01*
X154464887Y-93346460D01*
X154472135Y-93341165D01*
X154475475Y-93339389D01*
X154488589Y-93331726D01*
X154491761Y-93329697D01*
X154499928Y-93325984D01*
X154506723Y-93320129D01*
X154506726Y-93320127D01*
X154535175Y-93295613D01*
X154543096Y-93289324D01*
X154549902Y-93284352D01*
X154553836Y-93281478D01*
X154564579Y-93270735D01*
X154571426Y-93264377D01*
X154608537Y-93232400D01*
X154613420Y-93224866D01*
X154619319Y-93218104D01*
X154619324Y-93218108D01*
X154628300Y-93207014D01*
X157850440Y-89984874D01*
X157912752Y-89950848D01*
X157983567Y-89955913D01*
X158039896Y-89997788D01*
X158051884Y-90013581D01*
X158051890Y-90013587D01*
X158057078Y-90020422D01*
X158177217Y-90111613D01*
X158240832Y-90136800D01*
X158309923Y-90164155D01*
X158309925Y-90164156D01*
X158317453Y-90167136D01*
X158407228Y-90178000D01*
X160492772Y-90178000D01*
X160582547Y-90167136D01*
X160590075Y-90164156D01*
X160590077Y-90164155D01*
X160659168Y-90136800D01*
X160722783Y-90111613D01*
X160842922Y-90020422D01*
X160934113Y-89900283D01*
X160989636Y-89760047D01*
X161000500Y-89670272D01*
X161000500Y-87174230D01*
X161020502Y-87106109D01*
X161043672Y-87079280D01*
X161046671Y-87076664D01*
X161046674Y-87076661D01*
X161052396Y-87071669D01*
X161056762Y-87065456D01*
X161056767Y-87065451D01*
X161060099Y-87060710D01*
X161074091Y-87044065D01*
X162670752Y-85447405D01*
X162733064Y-85413379D01*
X162759847Y-85410500D01*
X166811877Y-85410500D01*
X166879998Y-85430502D01*
X166906609Y-85453423D01*
X166989655Y-85548119D01*
X167155708Y-85679024D01*
X167160819Y-85681713D01*
X167160822Y-85681715D01*
X167235274Y-85720886D01*
X167342836Y-85777477D01*
X167457777Y-85813167D01*
X167516902Y-85852470D01*
X167545393Y-85917500D01*
X167534203Y-85987609D01*
X167486886Y-86040539D01*
X167420413Y-86059500D01*
X167142228Y-86059500D01*
X167052453Y-86070364D01*
X167044925Y-86073344D01*
X167044923Y-86073345D01*
X166975832Y-86100700D01*
X166912217Y-86125887D01*
X166792078Y-86217078D01*
X166700887Y-86337217D01*
X166695399Y-86351079D01*
X166663404Y-86431890D01*
X166645364Y-86477453D01*
X166634500Y-86567228D01*
X166634500Y-87852772D01*
X166636594Y-87870077D01*
X166643427Y-87926537D01*
X166645364Y-87942547D01*
X166648343Y-87950070D01*
X166649091Y-87953017D01*
X166646471Y-88023965D01*
X166616062Y-88073124D01*
X163786591Y-90902595D01*
X163724279Y-90936621D01*
X163697496Y-90939500D01*
X158185176Y-90939500D01*
X158173296Y-90938172D01*
X158173255Y-90938683D01*
X158164307Y-90937963D01*
X158155552Y-90935982D01*
X158112014Y-90938683D01*
X158102745Y-90939258D01*
X158094943Y-90939500D01*
X158079060Y-90939500D01*
X158074612Y-90940137D01*
X158074610Y-90940137D01*
X158068942Y-90940948D01*
X158058891Y-90941978D01*
X158021420Y-90944303D01*
X158021419Y-90944303D01*
X158012461Y-90944859D01*
X158004017Y-90947907D01*
X158000324Y-90948672D01*
X157985584Y-90952347D01*
X157981968Y-90953404D01*
X157973082Y-90954677D01*
X157944119Y-90967846D01*
X157930734Y-90973932D01*
X157921367Y-90977745D01*
X157877613Y-90993540D01*
X157870361Y-90998838D01*
X157867015Y-91000617D01*
X157853911Y-91008274D01*
X157850739Y-91010303D01*
X157842572Y-91014016D01*
X157835776Y-91019871D01*
X157835774Y-91019873D01*
X157807321Y-91044390D01*
X157799405Y-91050675D01*
X157792598Y-91055648D01*
X157792591Y-91055654D01*
X157788664Y-91058523D01*
X157777928Y-91069259D01*
X157771082Y-91075616D01*
X157733963Y-91107600D01*
X157729079Y-91115134D01*
X157723181Y-91121896D01*
X157723176Y-91121892D01*
X157714198Y-91132989D01*
X154388591Y-94458595D01*
X154326279Y-94492621D01*
X154299496Y-94495500D01*
X144912504Y-94495500D01*
X144844383Y-94475498D01*
X144823408Y-94458595D01*
X144150531Y-93785717D01*
X144143068Y-93776376D01*
X144142678Y-93776708D01*
X144136860Y-93769872D01*
X144132070Y-93762280D01*
X144116026Y-93748110D01*
X144092399Y-93727244D01*
X144086711Y-93721897D01*
X144075494Y-93710680D01*
X144071905Y-93707990D01*
X144067316Y-93704550D01*
X144059477Y-93698168D01*
X144031339Y-93673318D01*
X144024612Y-93667377D01*
X144016489Y-93663563D01*
X144013336Y-93661492D01*
X144000324Y-93653673D01*
X143997005Y-93651856D01*
X143989824Y-93646474D01*
X143972350Y-93639923D01*
X143946264Y-93630144D01*
X143936947Y-93626217D01*
X143902966Y-93610263D01*
X143902963Y-93610262D01*
X143894837Y-93606447D01*
X143885963Y-93605065D01*
X143882350Y-93603961D01*
X143867693Y-93600115D01*
X143863990Y-93599301D01*
X143855580Y-93596148D01*
X143809157Y-93592698D01*
X143799144Y-93591548D01*
X143785991Y-93589500D01*
X143770796Y-93589500D01*
X143761459Y-93589154D01*
X143746036Y-93588008D01*
X143712608Y-93585524D01*
X143703832Y-93587397D01*
X143694875Y-93588008D01*
X143694875Y-93588002D01*
X143680682Y-93589500D01*
X143338158Y-93589500D01*
X143270037Y-93569498D01*
X143221006Y-93509884D01*
X143213164Y-93490077D01*
X143204113Y-93467217D01*
X143112922Y-93347078D01*
X142992783Y-93255887D01*
X142897364Y-93218108D01*
X142860077Y-93203345D01*
X142860075Y-93203344D01*
X142852547Y-93200364D01*
X142762772Y-93189500D01*
X141777228Y-93189500D01*
X141687453Y-93200364D01*
X141679925Y-93203344D01*
X141679923Y-93203345D01*
X141642636Y-93218108D01*
X141547217Y-93255887D01*
X141427078Y-93347078D01*
X141335887Y-93467217D01*
X141311228Y-93529500D01*
X141303157Y-93549884D01*
X141259482Y-93605858D01*
X141186005Y-93629500D01*
X140438158Y-93629500D01*
X140370037Y-93609498D01*
X140321006Y-93549884D01*
X140317831Y-93541866D01*
X140304113Y-93507217D01*
X140212922Y-93387078D01*
X140092783Y-93295887D01*
X140013197Y-93264377D01*
X139960077Y-93243345D01*
X139960075Y-93243344D01*
X139952547Y-93240364D01*
X139862772Y-93229500D01*
X138877228Y-93229500D01*
X138787453Y-93240364D01*
X138779925Y-93243344D01*
X138779923Y-93243345D01*
X138726803Y-93264377D01*
X138647217Y-93295887D01*
X138527078Y-93387078D01*
X138435887Y-93507217D01*
X138422169Y-93541866D01*
X138393293Y-93614799D01*
X138380364Y-93647453D01*
X138369500Y-93737228D01*
X138369500Y-94522772D01*
X138380364Y-94612547D01*
X138383344Y-94620075D01*
X138383345Y-94620077D01*
X138397794Y-94656571D01*
X138435887Y-94752783D01*
X138527078Y-94872922D01*
X138647217Y-94964113D01*
X138770310Y-95012849D01*
X138826282Y-95056522D01*
X138849759Y-95123525D01*
X138833283Y-95192584D01*
X138782088Y-95241773D01*
X138770313Y-95247150D01*
X138647217Y-95295887D01*
X138527078Y-95387078D01*
X138483082Y-95445041D01*
X138456789Y-95479680D01*
X138399671Y-95521847D01*
X138356426Y-95529500D01*
X136988543Y-95529500D01*
X136920422Y-95509498D01*
X136873929Y-95455842D01*
X136863825Y-95385568D01*
X136870561Y-95359272D01*
X136875585Y-95345871D01*
X136875699Y-95345389D01*
X136874271Y-95337418D01*
X136861839Y-95334000D01*
X134734271Y-95334000D01*
X134719032Y-95338475D01*
X134712546Y-95345960D01*
X134691376Y-95390274D01*
X134630996Y-95427620D01*
X134585734Y-95431570D01*
X134573651Y-95430428D01*
X134563834Y-95429500D01*
X133281166Y-95429500D01*
X133263248Y-95431194D01*
X133257278Y-95431758D01*
X133257277Y-95431758D01*
X133249631Y-95432481D01*
X133121816Y-95477366D01*
X133114246Y-95482958D01*
X133114243Y-95482959D01*
X133084605Y-95504851D01*
X133017927Y-95529234D01*
X133009745Y-95529500D01*
X131214503Y-95529500D01*
X131146382Y-95509498D01*
X131125408Y-95492595D01*
X129966647Y-94333834D01*
X132884500Y-94333834D01*
X132887481Y-94365369D01*
X132932366Y-94493184D01*
X132937958Y-94500754D01*
X132937959Y-94500757D01*
X132954220Y-94522772D01*
X133012850Y-94602150D01*
X133020421Y-94607742D01*
X133114243Y-94677041D01*
X133114246Y-94677042D01*
X133121816Y-94682634D01*
X133249631Y-94727519D01*
X133257277Y-94728242D01*
X133257278Y-94728242D01*
X133263248Y-94728806D01*
X133281166Y-94730500D01*
X134563834Y-94730500D01*
X134586459Y-94728361D01*
X134656159Y-94741863D01*
X134707495Y-94790904D01*
X134718483Y-94821006D01*
X134719679Y-94822293D01*
X134733161Y-94826000D01*
X135525385Y-94826000D01*
X135540624Y-94821525D01*
X135541829Y-94820135D01*
X135543500Y-94812452D01*
X135543500Y-94807885D01*
X136051500Y-94807885D01*
X136055975Y-94823124D01*
X136057365Y-94824329D01*
X136065048Y-94826000D01*
X136860729Y-94826000D01*
X136874951Y-94821824D01*
X136875947Y-94815654D01*
X136875585Y-94814132D01*
X136831233Y-94695823D01*
X136822701Y-94680237D01*
X136747570Y-94579991D01*
X136735009Y-94567430D01*
X136634763Y-94492299D01*
X136619177Y-94483767D01*
X136500867Y-94439414D01*
X136485621Y-94435789D01*
X136435729Y-94430369D01*
X136428915Y-94430000D01*
X136069615Y-94430000D01*
X136054376Y-94434475D01*
X136053171Y-94435865D01*
X136051500Y-94443548D01*
X136051500Y-94807885D01*
X135543500Y-94807885D01*
X135543500Y-94448115D01*
X135539025Y-94432876D01*
X135537635Y-94431671D01*
X135529952Y-94430000D01*
X135166085Y-94430000D01*
X135159271Y-94430369D01*
X135101528Y-94436642D01*
X135101191Y-94433539D01*
X135044775Y-94430608D01*
X134987122Y-94389176D01*
X134961020Y-94323152D01*
X134960500Y-94311717D01*
X134960500Y-93926166D01*
X134957519Y-93894631D01*
X134912634Y-93766816D01*
X134907042Y-93759246D01*
X134907041Y-93759243D01*
X134837742Y-93665421D01*
X134832150Y-93657850D01*
X134815206Y-93645335D01*
X134730757Y-93582959D01*
X134730754Y-93582958D01*
X134723184Y-93577366D01*
X134595369Y-93532481D01*
X134587723Y-93531758D01*
X134587722Y-93531758D01*
X134581752Y-93531194D01*
X134563834Y-93529500D01*
X133281166Y-93529500D01*
X133263248Y-93531194D01*
X133257278Y-93531758D01*
X133257277Y-93531758D01*
X133249631Y-93532481D01*
X133121816Y-93577366D01*
X133114246Y-93582958D01*
X133114243Y-93582959D01*
X133029794Y-93645335D01*
X133012850Y-93657850D01*
X133007258Y-93665421D01*
X132937959Y-93759243D01*
X132937958Y-93759246D01*
X132932366Y-93766816D01*
X132887481Y-93894631D01*
X132884500Y-93926166D01*
X132884500Y-94333834D01*
X129966647Y-94333834D01*
X128673534Y-93040720D01*
X128666068Y-93031376D01*
X128665678Y-93031708D01*
X128659860Y-93024872D01*
X128655070Y-93017280D01*
X128615398Y-92982243D01*
X128609711Y-92976897D01*
X128598494Y-92965680D01*
X128594905Y-92962990D01*
X128590316Y-92959550D01*
X128582477Y-92953168D01*
X128554339Y-92928318D01*
X128547612Y-92922377D01*
X128539489Y-92918563D01*
X128536336Y-92916492D01*
X128523324Y-92908673D01*
X128520005Y-92906856D01*
X128512824Y-92901474D01*
X128469261Y-92885143D01*
X128459947Y-92881217D01*
X128425966Y-92865263D01*
X128425963Y-92865262D01*
X128417837Y-92861447D01*
X128408963Y-92860065D01*
X128405350Y-92858961D01*
X128390693Y-92855115D01*
X128386990Y-92854301D01*
X128378580Y-92851148D01*
X128332157Y-92847698D01*
X128322144Y-92846548D01*
X128308991Y-92844500D01*
X128293796Y-92844500D01*
X128284459Y-92844154D01*
X128269036Y-92843008D01*
X128235608Y-92840524D01*
X128226832Y-92842397D01*
X128217875Y-92843008D01*
X128217875Y-92843002D01*
X128203682Y-92844500D01*
X124338504Y-92844500D01*
X124270383Y-92824498D01*
X124249409Y-92807595D01*
X123854405Y-92412591D01*
X123820379Y-92350279D01*
X123817500Y-92323496D01*
X123817500Y-91625568D01*
X126535001Y-91625568D01*
X126535672Y-91634734D01*
X126543700Y-91689278D01*
X126549443Y-91707759D01*
X126591889Y-91794213D01*
X126603849Y-91810918D01*
X126671572Y-91878523D01*
X126688300Y-91890455D01*
X126774838Y-91932755D01*
X126793306Y-91938463D01*
X126847297Y-91946340D01*
X126856396Y-91947000D01*
X127362885Y-91947000D01*
X127378124Y-91942525D01*
X127379329Y-91941135D01*
X127381000Y-91933452D01*
X127381000Y-91928884D01*
X127889000Y-91928884D01*
X127893475Y-91944123D01*
X127894865Y-91945328D01*
X127902548Y-91946999D01*
X128413568Y-91946999D01*
X128422734Y-91946328D01*
X128477278Y-91938300D01*
X128495759Y-91932557D01*
X128582213Y-91890111D01*
X128598918Y-91878151D01*
X128666523Y-91810428D01*
X128678455Y-91793700D01*
X128720755Y-91707162D01*
X128726463Y-91688694D01*
X128734340Y-91634703D01*
X128735000Y-91625604D01*
X128735000Y-91369115D01*
X128730525Y-91353876D01*
X128729135Y-91352671D01*
X128721452Y-91351000D01*
X127907115Y-91351000D01*
X127891876Y-91355475D01*
X127890671Y-91356865D01*
X127889000Y-91364548D01*
X127889000Y-91928884D01*
X127381000Y-91928884D01*
X127381000Y-91369115D01*
X127376525Y-91353876D01*
X127375135Y-91352671D01*
X127367452Y-91351000D01*
X126553116Y-91351000D01*
X126537877Y-91355475D01*
X126536672Y-91356865D01*
X126535001Y-91364548D01*
X126535001Y-91625568D01*
X123817500Y-91625568D01*
X123817500Y-90941646D01*
X124334500Y-90941646D01*
X124334941Y-90945350D01*
X124334941Y-90945353D01*
X124335821Y-90952746D01*
X124337618Y-90967846D01*
X124341456Y-90976486D01*
X124341456Y-90976487D01*
X124373085Y-91047693D01*
X124383061Y-91070153D01*
X124391294Y-91078372D01*
X124391295Y-91078373D01*
X124409511Y-91096557D01*
X124462287Y-91149241D01*
X124472924Y-91153944D01*
X124472926Y-91153945D01*
X124509321Y-91170035D01*
X124564673Y-91194506D01*
X124590354Y-91197500D01*
X125929646Y-91197500D01*
X125933350Y-91197059D01*
X125933353Y-91197059D01*
X125940746Y-91196179D01*
X125955846Y-91194382D01*
X126058153Y-91148939D01*
X126137241Y-91069713D01*
X126142189Y-91058523D01*
X126178675Y-90975992D01*
X126182506Y-90967327D01*
X126185500Y-90941646D01*
X129084500Y-90941646D01*
X129084941Y-90945350D01*
X129084941Y-90945353D01*
X129085821Y-90952746D01*
X129087618Y-90967846D01*
X129091456Y-90976486D01*
X129091456Y-90976487D01*
X129123085Y-91047693D01*
X129133061Y-91070153D01*
X129141294Y-91078372D01*
X129141295Y-91078373D01*
X129159511Y-91096557D01*
X129212287Y-91149241D01*
X129222924Y-91153944D01*
X129222926Y-91153945D01*
X129259321Y-91170035D01*
X129314673Y-91194506D01*
X129340354Y-91197500D01*
X130679646Y-91197500D01*
X130683350Y-91197059D01*
X130683353Y-91197059D01*
X130690746Y-91196179D01*
X130705846Y-91194382D01*
X130808153Y-91148939D01*
X130887241Y-91069713D01*
X130892189Y-91058523D01*
X130928675Y-90975992D01*
X130932506Y-90967327D01*
X130935500Y-90941646D01*
X130935500Y-90050199D01*
X131895001Y-90050199D01*
X131895539Y-90058411D01*
X131909366Y-90163444D01*
X131913604Y-90179259D01*
X131967741Y-90309959D01*
X131975930Y-90324142D01*
X132062046Y-90436372D01*
X132073626Y-90447952D01*
X132185861Y-90534072D01*
X132200042Y-90542259D01*
X132330739Y-90596396D01*
X132346558Y-90600634D01*
X132451590Y-90614462D01*
X132459799Y-90615000D01*
X132697885Y-90615000D01*
X132713124Y-90610525D01*
X132714329Y-90609135D01*
X132716000Y-90601452D01*
X132716000Y-90596884D01*
X133224000Y-90596884D01*
X133228475Y-90612123D01*
X133229865Y-90613328D01*
X133237548Y-90614999D01*
X133480199Y-90614999D01*
X133488411Y-90614461D01*
X133593444Y-90600634D01*
X133609259Y-90596396D01*
X133739959Y-90542259D01*
X133754142Y-90534070D01*
X133866372Y-90447954D01*
X133877952Y-90436374D01*
X133964072Y-90324139D01*
X133972259Y-90309958D01*
X134026396Y-90179261D01*
X134030634Y-90163442D01*
X134042910Y-90070199D01*
X134645001Y-90070199D01*
X134645539Y-90078411D01*
X134659366Y-90183444D01*
X134663604Y-90199259D01*
X134717741Y-90329959D01*
X134725930Y-90344142D01*
X134812046Y-90456372D01*
X134823626Y-90467952D01*
X134935861Y-90554072D01*
X134950042Y-90562259D01*
X135080739Y-90616396D01*
X135096558Y-90620634D01*
X135201590Y-90634462D01*
X135209799Y-90635000D01*
X135447885Y-90635000D01*
X135463124Y-90630525D01*
X135464329Y-90629135D01*
X135466000Y-90621452D01*
X135466000Y-90616884D01*
X135974000Y-90616884D01*
X135978475Y-90632123D01*
X135979865Y-90633328D01*
X135987548Y-90634999D01*
X136230199Y-90634999D01*
X136238411Y-90634461D01*
X136343444Y-90620634D01*
X136359259Y-90616396D01*
X136489959Y-90562259D01*
X136504142Y-90554070D01*
X136616372Y-90467954D01*
X136627952Y-90456374D01*
X136714072Y-90344139D01*
X136722259Y-90329958D01*
X136776396Y-90199261D01*
X136780634Y-90183442D01*
X136794462Y-90078410D01*
X136795000Y-90070201D01*
X136795000Y-90030199D01*
X137285001Y-90030199D01*
X137285539Y-90038411D01*
X137299366Y-90143444D01*
X137303604Y-90159259D01*
X137357741Y-90289959D01*
X137365930Y-90304142D01*
X137452046Y-90416372D01*
X137463626Y-90427952D01*
X137575861Y-90514072D01*
X137590042Y-90522259D01*
X137720739Y-90576396D01*
X137736558Y-90580634D01*
X137841590Y-90594462D01*
X137849799Y-90595000D01*
X138087885Y-90595000D01*
X138103124Y-90590525D01*
X138104329Y-90589135D01*
X138106000Y-90581452D01*
X138106000Y-90576884D01*
X138614000Y-90576884D01*
X138618475Y-90592123D01*
X138619865Y-90593328D01*
X138627548Y-90594999D01*
X138870199Y-90594999D01*
X138878411Y-90594461D01*
X138983444Y-90580634D01*
X138999259Y-90576396D01*
X139129959Y-90522259D01*
X139144142Y-90514070D01*
X139256372Y-90427954D01*
X139267952Y-90416374D01*
X139354072Y-90304139D01*
X139362259Y-90289958D01*
X139416396Y-90159261D01*
X139420634Y-90143442D01*
X139434462Y-90038410D01*
X139435000Y-90030201D01*
X139435000Y-89990199D01*
X139975001Y-89990199D01*
X139975539Y-89998411D01*
X139989366Y-90103444D01*
X139993604Y-90119259D01*
X140047741Y-90249959D01*
X140055930Y-90264142D01*
X140142046Y-90376372D01*
X140153626Y-90387952D01*
X140265861Y-90474072D01*
X140280042Y-90482259D01*
X140410739Y-90536396D01*
X140426558Y-90540634D01*
X140531590Y-90554462D01*
X140539799Y-90555000D01*
X140777885Y-90555000D01*
X140793124Y-90550525D01*
X140794329Y-90549135D01*
X140796000Y-90541452D01*
X140796000Y-90536884D01*
X141304000Y-90536884D01*
X141308475Y-90552123D01*
X141309865Y-90553328D01*
X141317548Y-90554999D01*
X141560199Y-90554999D01*
X141568411Y-90554461D01*
X141673444Y-90540634D01*
X141689259Y-90536396D01*
X141819959Y-90482259D01*
X141834142Y-90474070D01*
X141946372Y-90387954D01*
X141957952Y-90376374D01*
X142044072Y-90264139D01*
X142052259Y-90249958D01*
X142106396Y-90119261D01*
X142110634Y-90103442D01*
X142124462Y-89998410D01*
X142124672Y-89995199D01*
X142650001Y-89995199D01*
X142650539Y-90003411D01*
X142664366Y-90108444D01*
X142668604Y-90124259D01*
X142722741Y-90254959D01*
X142730930Y-90269142D01*
X142817046Y-90381372D01*
X142828626Y-90392952D01*
X142940861Y-90479072D01*
X142955042Y-90487259D01*
X143085739Y-90541396D01*
X143101558Y-90545634D01*
X143206590Y-90559462D01*
X143214799Y-90560000D01*
X143427885Y-90560000D01*
X143443124Y-90555525D01*
X143444329Y-90554135D01*
X143446000Y-90546452D01*
X143446000Y-90541884D01*
X143954000Y-90541884D01*
X143958475Y-90557123D01*
X143959865Y-90558328D01*
X143967548Y-90559999D01*
X144185199Y-90559999D01*
X144193411Y-90559461D01*
X144298444Y-90545634D01*
X144314259Y-90541396D01*
X144444959Y-90487259D01*
X144459142Y-90479070D01*
X144571372Y-90392954D01*
X144582952Y-90381374D01*
X144669072Y-90269139D01*
X144677259Y-90254958D01*
X144731396Y-90124261D01*
X144735634Y-90108442D01*
X144749462Y-90003410D01*
X144750000Y-89995201D01*
X144750000Y-89882115D01*
X144745525Y-89866876D01*
X144744135Y-89865671D01*
X144736452Y-89864000D01*
X143972115Y-89864000D01*
X143956876Y-89868475D01*
X143955671Y-89869865D01*
X143954000Y-89877548D01*
X143954000Y-90541884D01*
X143446000Y-90541884D01*
X143446000Y-89882115D01*
X143441525Y-89866876D01*
X143440135Y-89865671D01*
X143432452Y-89864000D01*
X142668116Y-89864000D01*
X142652877Y-89868475D01*
X142651672Y-89869865D01*
X142650001Y-89877548D01*
X142650001Y-89995199D01*
X142124672Y-89995199D01*
X142125000Y-89990201D01*
X142125000Y-89889615D01*
X142120525Y-89874376D01*
X142119135Y-89873171D01*
X142111452Y-89871500D01*
X141322115Y-89871500D01*
X141306876Y-89875975D01*
X141305671Y-89877365D01*
X141304000Y-89885048D01*
X141304000Y-90536884D01*
X140796000Y-90536884D01*
X140796000Y-89889615D01*
X140791525Y-89874376D01*
X140790135Y-89873171D01*
X140782452Y-89871500D01*
X139993116Y-89871500D01*
X139977877Y-89875975D01*
X139976672Y-89877365D01*
X139975001Y-89885048D01*
X139975001Y-89990199D01*
X139435000Y-89990199D01*
X139435000Y-89929615D01*
X139430525Y-89914376D01*
X139429135Y-89913171D01*
X139421452Y-89911500D01*
X138632115Y-89911500D01*
X138616876Y-89915975D01*
X138615671Y-89917365D01*
X138614000Y-89925048D01*
X138614000Y-90576884D01*
X138106000Y-90576884D01*
X138106000Y-89929615D01*
X138101525Y-89914376D01*
X138100135Y-89913171D01*
X138092452Y-89911500D01*
X137303116Y-89911500D01*
X137287877Y-89915975D01*
X137286672Y-89917365D01*
X137285001Y-89925048D01*
X137285001Y-90030199D01*
X136795000Y-90030199D01*
X136795000Y-89969615D01*
X136790525Y-89954376D01*
X136789135Y-89953171D01*
X136781452Y-89951500D01*
X135992115Y-89951500D01*
X135976876Y-89955975D01*
X135975671Y-89957365D01*
X135974000Y-89965048D01*
X135974000Y-90616884D01*
X135466000Y-90616884D01*
X135466000Y-89969615D01*
X135461525Y-89954376D01*
X135460135Y-89953171D01*
X135452452Y-89951500D01*
X134663116Y-89951500D01*
X134647877Y-89955975D01*
X134646672Y-89957365D01*
X134645001Y-89965048D01*
X134645001Y-90070199D01*
X134042910Y-90070199D01*
X134044462Y-90058410D01*
X134045000Y-90050201D01*
X134045000Y-89949615D01*
X134040525Y-89934376D01*
X134039135Y-89933171D01*
X134031452Y-89931500D01*
X133242115Y-89931500D01*
X133226876Y-89935975D01*
X133225671Y-89937365D01*
X133224000Y-89945048D01*
X133224000Y-90596884D01*
X132716000Y-90596884D01*
X132716000Y-89949615D01*
X132711525Y-89934376D01*
X132710135Y-89933171D01*
X132702452Y-89931500D01*
X131913116Y-89931500D01*
X131897877Y-89935975D01*
X131896672Y-89937365D01*
X131895001Y-89945048D01*
X131895001Y-90050199D01*
X130935500Y-90050199D01*
X130935500Y-89652354D01*
X130932382Y-89626154D01*
X130886939Y-89523847D01*
X130878572Y-89515494D01*
X130807713Y-89444759D01*
X130809658Y-89442811D01*
X130775609Y-89401113D01*
X130767563Y-89330574D01*
X130802608Y-89263048D01*
X131269211Y-88796446D01*
X131785752Y-88279905D01*
X131848064Y-88245879D01*
X131874847Y-88243000D01*
X131971276Y-88243000D01*
X132039397Y-88263002D01*
X132071639Y-88292821D01*
X132096887Y-88326084D01*
X132096890Y-88326087D01*
X132102078Y-88332922D01*
X132222217Y-88424113D01*
X132238349Y-88430500D01*
X132354923Y-88476655D01*
X132354925Y-88476656D01*
X132362453Y-88479636D01*
X132392746Y-88483302D01*
X132451334Y-88490392D01*
X132516558Y-88518433D01*
X132556268Y-88577286D01*
X132557856Y-88648264D01*
X132520818Y-88708834D01*
X132452641Y-88740401D01*
X132346556Y-88754366D01*
X132330741Y-88758604D01*
X132200041Y-88812741D01*
X132185858Y-88820930D01*
X132073628Y-88907046D01*
X132062048Y-88918626D01*
X131975928Y-89030861D01*
X131967741Y-89045042D01*
X131913604Y-89175739D01*
X131909366Y-89191558D01*
X131895538Y-89296590D01*
X131895000Y-89304799D01*
X131895000Y-89405385D01*
X131899475Y-89420624D01*
X131900865Y-89421829D01*
X131908548Y-89423500D01*
X134026884Y-89423500D01*
X134042123Y-89419025D01*
X134043328Y-89417635D01*
X134044999Y-89409952D01*
X134044999Y-89304801D01*
X134044461Y-89296589D01*
X134030634Y-89191556D01*
X134026396Y-89175741D01*
X133972259Y-89045041D01*
X133964070Y-89030858D01*
X133877954Y-88918628D01*
X133866374Y-88907048D01*
X133754139Y-88820928D01*
X133739958Y-88812741D01*
X133609261Y-88758604D01*
X133593443Y-88754366D01*
X133487361Y-88740400D01*
X133422434Y-88711677D01*
X133383343Y-88652412D01*
X133382498Y-88581421D01*
X133420168Y-88521242D01*
X133488670Y-88490391D01*
X133577547Y-88479636D01*
X133585075Y-88476656D01*
X133585077Y-88476655D01*
X133701651Y-88430500D01*
X133717783Y-88424113D01*
X133837922Y-88332922D01*
X133843110Y-88326087D01*
X133843113Y-88326084D01*
X133868361Y-88292821D01*
X133925479Y-88250654D01*
X133968724Y-88243000D01*
X134706096Y-88243000D01*
X134774217Y-88263002D01*
X134806455Y-88292816D01*
X134852078Y-88352922D01*
X134972217Y-88444113D01*
X135021022Y-88463436D01*
X135104923Y-88496655D01*
X135104925Y-88496656D01*
X135112453Y-88499636D01*
X135142746Y-88503302D01*
X135201334Y-88510392D01*
X135266558Y-88538433D01*
X135306268Y-88597286D01*
X135307856Y-88668264D01*
X135270818Y-88728834D01*
X135202641Y-88760401D01*
X135096556Y-88774366D01*
X135080741Y-88778604D01*
X134950041Y-88832741D01*
X134935858Y-88840930D01*
X134823628Y-88927046D01*
X134812048Y-88938626D01*
X134725928Y-89050861D01*
X134717741Y-89065042D01*
X134663604Y-89195739D01*
X134659366Y-89211558D01*
X134645538Y-89316590D01*
X134645000Y-89324799D01*
X134645000Y-89425385D01*
X134649475Y-89440624D01*
X134650865Y-89441829D01*
X134658548Y-89443500D01*
X136776884Y-89443500D01*
X136792123Y-89439025D01*
X136793328Y-89437635D01*
X136794999Y-89429952D01*
X136794999Y-89324801D01*
X136794461Y-89316589D01*
X136780634Y-89211556D01*
X136776396Y-89195741D01*
X136722259Y-89065041D01*
X136714070Y-89050858D01*
X136627954Y-88938628D01*
X136616374Y-88927048D01*
X136504139Y-88840928D01*
X136489958Y-88832741D01*
X136359261Y-88778604D01*
X136343443Y-88774366D01*
X136237361Y-88760400D01*
X136172434Y-88731677D01*
X136133343Y-88672412D01*
X136132498Y-88601421D01*
X136170168Y-88541242D01*
X136238670Y-88510391D01*
X136327547Y-88499636D01*
X136335075Y-88496656D01*
X136335077Y-88496655D01*
X136418978Y-88463436D01*
X136467783Y-88444113D01*
X136587922Y-88352922D01*
X136633544Y-88292818D01*
X136690659Y-88250653D01*
X136733904Y-88243000D01*
X137376457Y-88243000D01*
X137444578Y-88263002D01*
X137476820Y-88292821D01*
X137486887Y-88306084D01*
X137486890Y-88306087D01*
X137492078Y-88312922D01*
X137612217Y-88404113D01*
X137662732Y-88424113D01*
X137744923Y-88456655D01*
X137744925Y-88456656D01*
X137752453Y-88459636D01*
X137779607Y-88462922D01*
X137841334Y-88470392D01*
X137906558Y-88498433D01*
X137946268Y-88557286D01*
X137947856Y-88628264D01*
X137910818Y-88688834D01*
X137842641Y-88720401D01*
X137736556Y-88734366D01*
X137720741Y-88738604D01*
X137590041Y-88792741D01*
X137575858Y-88800930D01*
X137463628Y-88887046D01*
X137452048Y-88898626D01*
X137365928Y-89010861D01*
X137357741Y-89025042D01*
X137303604Y-89155739D01*
X137299366Y-89171558D01*
X137285538Y-89276590D01*
X137285000Y-89284799D01*
X137285000Y-89385385D01*
X137289475Y-89400624D01*
X137290865Y-89401829D01*
X137298548Y-89403500D01*
X139416884Y-89403500D01*
X139432123Y-89399025D01*
X139433328Y-89397635D01*
X139434999Y-89389952D01*
X139434999Y-89284801D01*
X139434461Y-89276589D01*
X139420634Y-89171556D01*
X139416396Y-89155741D01*
X139362259Y-89025041D01*
X139354070Y-89010858D01*
X139267954Y-88898628D01*
X139256374Y-88887048D01*
X139144139Y-88800928D01*
X139129958Y-88792741D01*
X138999261Y-88738604D01*
X138983443Y-88734366D01*
X138877361Y-88720400D01*
X138812434Y-88691677D01*
X138773343Y-88632412D01*
X138772498Y-88561421D01*
X138810168Y-88501242D01*
X138878670Y-88470391D01*
X138967547Y-88459636D01*
X138975075Y-88456656D01*
X138975077Y-88456655D01*
X139057268Y-88424113D01*
X139107783Y-88404113D01*
X139227922Y-88312922D01*
X139233110Y-88306087D01*
X139233113Y-88306084D01*
X139243180Y-88292821D01*
X139300297Y-88250654D01*
X139343543Y-88243000D01*
X140101613Y-88243000D01*
X140169734Y-88263002D01*
X140182065Y-88272939D01*
X140182078Y-88272922D01*
X140302217Y-88364113D01*
X140340646Y-88379328D01*
X140434923Y-88416655D01*
X140434925Y-88416656D01*
X140442453Y-88419636D01*
X140472746Y-88423302D01*
X140531334Y-88430392D01*
X140596558Y-88458433D01*
X140636268Y-88517286D01*
X140637856Y-88588264D01*
X140600818Y-88648834D01*
X140532641Y-88680401D01*
X140426556Y-88694366D01*
X140410741Y-88698604D01*
X140280041Y-88752741D01*
X140265858Y-88760930D01*
X140153628Y-88847046D01*
X140142048Y-88858626D01*
X140055928Y-88970861D01*
X140047741Y-88985042D01*
X139993604Y-89115739D01*
X139989366Y-89131558D01*
X139975538Y-89236590D01*
X139975000Y-89244799D01*
X139975000Y-89345385D01*
X139979475Y-89360624D01*
X139980865Y-89361829D01*
X139988548Y-89363500D01*
X142106884Y-89363500D01*
X142122123Y-89359025D01*
X142123328Y-89357635D01*
X142124999Y-89349952D01*
X142124999Y-89244801D01*
X142124461Y-89236589D01*
X142110634Y-89131556D01*
X142106396Y-89115741D01*
X142052259Y-88985041D01*
X142044070Y-88970858D01*
X141957954Y-88858628D01*
X141946374Y-88847048D01*
X141834139Y-88760928D01*
X141819958Y-88752741D01*
X141689261Y-88698604D01*
X141673443Y-88694366D01*
X141567361Y-88680400D01*
X141502434Y-88651677D01*
X141463343Y-88592412D01*
X141462498Y-88521421D01*
X141500168Y-88461242D01*
X141568670Y-88430391D01*
X141657547Y-88419636D01*
X141665075Y-88416656D01*
X141665077Y-88416655D01*
X141759354Y-88379328D01*
X141797783Y-88364113D01*
X141917922Y-88272922D01*
X142009113Y-88152783D01*
X142040652Y-88073124D01*
X142061655Y-88020077D01*
X142061656Y-88020075D01*
X142064636Y-88012547D01*
X142075500Y-87922772D01*
X142075500Y-87162228D01*
X142064636Y-87072453D01*
X142053397Y-87044065D01*
X142012275Y-86940204D01*
X142009113Y-86932217D01*
X141917922Y-86812078D01*
X141847320Y-86758488D01*
X141805153Y-86701370D01*
X141797500Y-86658125D01*
X141797500Y-83273347D01*
X141817502Y-83205226D01*
X141834405Y-83184251D01*
X142344405Y-82674252D01*
X142406717Y-82640227D01*
X142477533Y-82645292D01*
X142534368Y-82687839D01*
X142559179Y-82754359D01*
X142559500Y-82763348D01*
X142559500Y-83018834D01*
X142562481Y-83050369D01*
X142607366Y-83178184D01*
X142612958Y-83185754D01*
X142612959Y-83185757D01*
X142640770Y-83223409D01*
X142687850Y-83287150D01*
X142695421Y-83292742D01*
X142695424Y-83292745D01*
X142771112Y-83348649D01*
X142814023Y-83405210D01*
X142819543Y-83475992D01*
X142785919Y-83538521D01*
X142771112Y-83551351D01*
X142695424Y-83607255D01*
X142695421Y-83607258D01*
X142687850Y-83612850D01*
X142682258Y-83620421D01*
X142612959Y-83714243D01*
X142612958Y-83714246D01*
X142607366Y-83721816D01*
X142562481Y-83849631D01*
X142559500Y-83881166D01*
X142559500Y-84288834D01*
X142562481Y-84320369D01*
X142607366Y-84448184D01*
X142612958Y-84455754D01*
X142612959Y-84455757D01*
X142673071Y-84537141D01*
X142687850Y-84557150D01*
X142695421Y-84562742D01*
X142789243Y-84632041D01*
X142789246Y-84632042D01*
X142796816Y-84637634D01*
X142924631Y-84682519D01*
X142932277Y-84683242D01*
X142932278Y-84683242D01*
X142938248Y-84683806D01*
X142956166Y-84685500D01*
X143073500Y-84685500D01*
X143141621Y-84705502D01*
X143188114Y-84759158D01*
X143199500Y-84811500D01*
X143199500Y-86602595D01*
X143179498Y-86670716D01*
X143125842Y-86717209D01*
X143117383Y-86720187D01*
X143117453Y-86720364D01*
X142977217Y-86775887D01*
X142857078Y-86867078D01*
X142765887Y-86987217D01*
X142750532Y-87026000D01*
X142718815Y-87106109D01*
X142710364Y-87127453D01*
X142699500Y-87217228D01*
X142699500Y-88002772D01*
X142710364Y-88092547D01*
X142713344Y-88100075D01*
X142713345Y-88100077D01*
X142719684Y-88116087D01*
X142765887Y-88232783D01*
X142857078Y-88352922D01*
X142977217Y-88444113D01*
X143032914Y-88466165D01*
X143088887Y-88509838D01*
X143112363Y-88576840D01*
X143095889Y-88645899D01*
X143044694Y-88695088D01*
X143034748Y-88699725D01*
X142955041Y-88732741D01*
X142940858Y-88740930D01*
X142828628Y-88827046D01*
X142817048Y-88838626D01*
X142730928Y-88950861D01*
X142722741Y-88965042D01*
X142668604Y-89095739D01*
X142664366Y-89111558D01*
X142650538Y-89216590D01*
X142650000Y-89224799D01*
X142650000Y-89337885D01*
X142654475Y-89353124D01*
X142655865Y-89354329D01*
X142663548Y-89356000D01*
X144731884Y-89356000D01*
X144747123Y-89351525D01*
X144748328Y-89350135D01*
X144749999Y-89342452D01*
X144749999Y-89224801D01*
X144749461Y-89216589D01*
X144735634Y-89111556D01*
X144731396Y-89095741D01*
X144677259Y-88965041D01*
X144669070Y-88950858D01*
X144582954Y-88838628D01*
X144571374Y-88827048D01*
X144459139Y-88740928D01*
X144444958Y-88732741D01*
X144365252Y-88699725D01*
X144309971Y-88655176D01*
X144287550Y-88587813D01*
X144305108Y-88519022D01*
X144357071Y-88470643D01*
X144367078Y-88466168D01*
X144422783Y-88444113D01*
X144542922Y-88352922D01*
X144634113Y-88232783D01*
X144680316Y-88116087D01*
X144686655Y-88100077D01*
X144686656Y-88100075D01*
X144689636Y-88092547D01*
X144700500Y-88002772D01*
X144700500Y-87765199D01*
X145390001Y-87765199D01*
X145390539Y-87773411D01*
X145404366Y-87878444D01*
X145408604Y-87894259D01*
X145462741Y-88024959D01*
X145470930Y-88039142D01*
X145557046Y-88151372D01*
X145568626Y-88162952D01*
X145680861Y-88249072D01*
X145695042Y-88257259D01*
X145825739Y-88311396D01*
X145841558Y-88315634D01*
X145946590Y-88329462D01*
X145954799Y-88330000D01*
X146067885Y-88330000D01*
X146083124Y-88325525D01*
X146084329Y-88324135D01*
X146086000Y-88316452D01*
X146086000Y-87552115D01*
X146081525Y-87536876D01*
X146080135Y-87535671D01*
X146072452Y-87534000D01*
X145408116Y-87534000D01*
X145392877Y-87538475D01*
X145391672Y-87539865D01*
X145390001Y-87547548D01*
X145390001Y-87765199D01*
X144700500Y-87765199D01*
X144700500Y-87217228D01*
X144689636Y-87127453D01*
X144681186Y-87106109D01*
X144649468Y-87026000D01*
X144642296Y-87007885D01*
X145390000Y-87007885D01*
X145394475Y-87023124D01*
X145395865Y-87024329D01*
X145403548Y-87026000D01*
X146067885Y-87026000D01*
X146083124Y-87021525D01*
X146084329Y-87020135D01*
X146086000Y-87012452D01*
X146086000Y-86248116D01*
X146081525Y-86232877D01*
X146080135Y-86231672D01*
X146072452Y-86230001D01*
X145954801Y-86230001D01*
X145946589Y-86230539D01*
X145841556Y-86244366D01*
X145825741Y-86248604D01*
X145695041Y-86302741D01*
X145680858Y-86310930D01*
X145568628Y-86397046D01*
X145557048Y-86408626D01*
X145470928Y-86520861D01*
X145462741Y-86535042D01*
X145408604Y-86665739D01*
X145404366Y-86681558D01*
X145390538Y-86786590D01*
X145390000Y-86794799D01*
X145390000Y-87007885D01*
X144642296Y-87007885D01*
X144634113Y-86987217D01*
X144542922Y-86867078D01*
X144422783Y-86775887D01*
X144282547Y-86720364D01*
X144283606Y-86717688D01*
X144234388Y-86688568D01*
X144202530Y-86625121D01*
X144200500Y-86602595D01*
X144200500Y-84811500D01*
X144220502Y-84743379D01*
X144274158Y-84696886D01*
X144326500Y-84685500D01*
X144388834Y-84685500D01*
X144406752Y-84683806D01*
X144412722Y-84683242D01*
X144412723Y-84683242D01*
X144420369Y-84682519D01*
X144548184Y-84637634D01*
X144555754Y-84632042D01*
X144555757Y-84632041D01*
X144649579Y-84562742D01*
X144657150Y-84557150D01*
X144671929Y-84537141D01*
X144732041Y-84455757D01*
X144732042Y-84455754D01*
X144737634Y-84448184D01*
X144782519Y-84320369D01*
X144785500Y-84288834D01*
X144785500Y-84237951D01*
X144805502Y-84169830D01*
X144859158Y-84123337D01*
X144929432Y-84113233D01*
X144948706Y-84117569D01*
X144961306Y-84121463D01*
X145015297Y-84129340D01*
X145024396Y-84130000D01*
X146037885Y-84130000D01*
X146053124Y-84125525D01*
X146054329Y-84124135D01*
X146056000Y-84116452D01*
X146056000Y-83657211D01*
X146052763Y-83646186D01*
X146045670Y-83649425D01*
X145974866Y-83720229D01*
X145912554Y-83754255D01*
X145841739Y-83749190D01*
X145796676Y-83720229D01*
X145345542Y-83269095D01*
X145311516Y-83206783D01*
X145313351Y-83181132D01*
X145968751Y-83181132D01*
X145968882Y-83182965D01*
X145973133Y-83189580D01*
X146043188Y-83259635D01*
X146053277Y-83265144D01*
X146056000Y-83257843D01*
X146056000Y-83254332D01*
X146564000Y-83254332D01*
X146567237Y-83265357D01*
X146574328Y-83262119D01*
X146643635Y-83192812D01*
X146651249Y-83178868D01*
X146651118Y-83177035D01*
X146646867Y-83170420D01*
X146576812Y-83100365D01*
X146566723Y-83094856D01*
X146564000Y-83102157D01*
X146564000Y-83254332D01*
X146056000Y-83254332D01*
X146056000Y-83105668D01*
X146052763Y-83094643D01*
X146045672Y-83097881D01*
X145976365Y-83167188D01*
X145968751Y-83181132D01*
X145313351Y-83181132D01*
X145316581Y-83135968D01*
X145345542Y-83090905D01*
X145743635Y-82692812D01*
X145750013Y-82681132D01*
X146020294Y-82681132D01*
X146020425Y-82682965D01*
X146024676Y-82689580D01*
X146043188Y-82708092D01*
X146053277Y-82713601D01*
X146056000Y-82706300D01*
X146056000Y-82702789D01*
X146564000Y-82702789D01*
X146567237Y-82713814D01*
X146574328Y-82710576D01*
X146592092Y-82692812D01*
X146599706Y-82678868D01*
X146599575Y-82677035D01*
X146595324Y-82670420D01*
X146576812Y-82651908D01*
X146566723Y-82646399D01*
X146564000Y-82653700D01*
X146564000Y-82702789D01*
X146056000Y-82702789D01*
X146056000Y-82657211D01*
X146052763Y-82646186D01*
X146045672Y-82649424D01*
X146027908Y-82667188D01*
X146020294Y-82681132D01*
X145750013Y-82681132D01*
X145751249Y-82678868D01*
X145751118Y-82677035D01*
X145746867Y-82670420D01*
X145345542Y-82269095D01*
X145311516Y-82206783D01*
X145313351Y-82181132D01*
X145968751Y-82181132D01*
X145968882Y-82182965D01*
X145973133Y-82189580D01*
X146043188Y-82259635D01*
X146053277Y-82265144D01*
X146056000Y-82257843D01*
X146056000Y-82254332D01*
X146564000Y-82254332D01*
X146567237Y-82265357D01*
X146574328Y-82262119D01*
X146643635Y-82192812D01*
X146651249Y-82178868D01*
X146651118Y-82177035D01*
X146646867Y-82170420D01*
X146576812Y-82100365D01*
X146566723Y-82094856D01*
X146564000Y-82102157D01*
X146564000Y-82254332D01*
X146056000Y-82254332D01*
X146056000Y-82105668D01*
X146052763Y-82094643D01*
X146045672Y-82097881D01*
X145976365Y-82167188D01*
X145968751Y-82181132D01*
X145313351Y-82181132D01*
X145316581Y-82135968D01*
X145345542Y-82090905D01*
X145743635Y-81692812D01*
X145750013Y-81681132D01*
X146020294Y-81681132D01*
X146020425Y-81682965D01*
X146024676Y-81689580D01*
X146043188Y-81708092D01*
X146053277Y-81713601D01*
X146056000Y-81706300D01*
X146056000Y-81702789D01*
X146564000Y-81702789D01*
X146567237Y-81713814D01*
X146574328Y-81710576D01*
X146592092Y-81692812D01*
X146599706Y-81678868D01*
X146599575Y-81677035D01*
X146595324Y-81670420D01*
X146576812Y-81651908D01*
X146566723Y-81646399D01*
X146564000Y-81653700D01*
X146564000Y-81702789D01*
X146056000Y-81702789D01*
X146056000Y-81657211D01*
X146052763Y-81646186D01*
X146045672Y-81649424D01*
X146027908Y-81667188D01*
X146020294Y-81681132D01*
X145750013Y-81681132D01*
X145751249Y-81678868D01*
X145751118Y-81677035D01*
X145746867Y-81670420D01*
X145345542Y-81269095D01*
X145311516Y-81206783D01*
X145313351Y-81181132D01*
X145968751Y-81181132D01*
X145968882Y-81182965D01*
X145973133Y-81189580D01*
X146043188Y-81259635D01*
X146053277Y-81265144D01*
X146056000Y-81257843D01*
X146056000Y-81254332D01*
X146564000Y-81254332D01*
X146567237Y-81265357D01*
X146574328Y-81262119D01*
X146643635Y-81192812D01*
X146651249Y-81178868D01*
X146651118Y-81177035D01*
X146646867Y-81170420D01*
X146576812Y-81100365D01*
X146566723Y-81094856D01*
X146564000Y-81102157D01*
X146564000Y-81254332D01*
X146056000Y-81254332D01*
X146056000Y-81105668D01*
X146052763Y-81094643D01*
X146045672Y-81097881D01*
X145976365Y-81167188D01*
X145968751Y-81181132D01*
X145313351Y-81181132D01*
X145316581Y-81135968D01*
X145345542Y-81090905D01*
X145796676Y-80639771D01*
X145858988Y-80605745D01*
X145929803Y-80610810D01*
X145974866Y-80639771D01*
X146043189Y-80708094D01*
X146053277Y-80713602D01*
X146056000Y-80706300D01*
X146056000Y-80248116D01*
X146051525Y-80232877D01*
X146050135Y-80231672D01*
X146042452Y-80230001D01*
X145024432Y-80230001D01*
X145015266Y-80230672D01*
X144960725Y-80238700D01*
X144948890Y-80242377D01*
X144877902Y-80243490D01*
X144817581Y-80206047D01*
X144787079Y-80141937D01*
X144785500Y-80122052D01*
X144785500Y-80071166D01*
X144782519Y-80039631D01*
X144737634Y-79911816D01*
X144732042Y-79904246D01*
X144732041Y-79904243D01*
X144662742Y-79810421D01*
X144657150Y-79802850D01*
X144640206Y-79790335D01*
X144555757Y-79727959D01*
X144555754Y-79727958D01*
X144548184Y-79722366D01*
X144420369Y-79677481D01*
X144412723Y-79676758D01*
X144412722Y-79676758D01*
X144406752Y-79676194D01*
X144388834Y-79674500D01*
X144299000Y-79674500D01*
X144230879Y-79654498D01*
X144184386Y-79600842D01*
X144173000Y-79548500D01*
X144173000Y-78055923D01*
X144193002Y-77987802D01*
X144252616Y-77938772D01*
X144352783Y-77899113D01*
X144472922Y-77807922D01*
X144564113Y-77687783D01*
X144619636Y-77547547D01*
X144630500Y-77457772D01*
X144630500Y-76422228D01*
X144619636Y-76332453D01*
X144605578Y-76296945D01*
X144582474Y-76238591D01*
X144564113Y-76192217D01*
X144472922Y-76072078D01*
X144352783Y-75980887D01*
X144266671Y-75946793D01*
X144220077Y-75928345D01*
X144220075Y-75928344D01*
X144212547Y-75925364D01*
X144122772Y-75914500D01*
X143362228Y-75914500D01*
X143272453Y-75925364D01*
X143264925Y-75928344D01*
X143264923Y-75928345D01*
X143218329Y-75946793D01*
X143132217Y-75980887D01*
X143012078Y-76072078D01*
X142920887Y-76192217D01*
X142902526Y-76238591D01*
X142879423Y-76296945D01*
X142865364Y-76332453D01*
X142854500Y-76422228D01*
X142854500Y-77457772D01*
X142865364Y-77547547D01*
X142920887Y-77687783D01*
X143012078Y-77807922D01*
X143122181Y-77891495D01*
X143164346Y-77948612D01*
X143172000Y-77991857D01*
X143172000Y-79548500D01*
X143151998Y-79616621D01*
X143098342Y-79663114D01*
X143046000Y-79674500D01*
X142956166Y-79674500D01*
X142938248Y-79676194D01*
X142932278Y-79676758D01*
X142932277Y-79676758D01*
X142924631Y-79677481D01*
X142796816Y-79722366D01*
X142789246Y-79727958D01*
X142789243Y-79727959D01*
X142704794Y-79790335D01*
X142687850Y-79802850D01*
X142682258Y-79810421D01*
X142612959Y-79904243D01*
X142612958Y-79904246D01*
X142607366Y-79911816D01*
X142562481Y-80039631D01*
X142559500Y-80071166D01*
X142559500Y-80478834D01*
X142562481Y-80510369D01*
X142607366Y-80638184D01*
X142612960Y-80645757D01*
X142617369Y-80654085D01*
X142615529Y-80655059D01*
X142635694Y-80710203D01*
X142620158Y-80779479D01*
X142569635Y-80829358D01*
X142501391Y-80844093D01*
X142453647Y-80840838D01*
X142453642Y-80840838D01*
X142446070Y-80840322D01*
X142438594Y-80841627D01*
X142438591Y-80841627D01*
X142383868Y-80851178D01*
X142377342Y-80852141D01*
X142336904Y-80857035D01*
X142314680Y-80859724D01*
X142307573Y-80862409D01*
X142304280Y-80863218D01*
X142289809Y-80867177D01*
X142286533Y-80868166D01*
X142279046Y-80869473D01*
X142272087Y-80872528D01*
X142272086Y-80872528D01*
X142221240Y-80894847D01*
X142215134Y-80897339D01*
X142163182Y-80916970D01*
X142163180Y-80916971D01*
X142156077Y-80919655D01*
X142149822Y-80923954D01*
X142146797Y-80925535D01*
X142133701Y-80932825D01*
X142130757Y-80934566D01*
X142123798Y-80937621D01*
X142117770Y-80942246D01*
X142117769Y-80942247D01*
X142073727Y-80976042D01*
X142068391Y-80979919D01*
X142022614Y-81011381D01*
X142022608Y-81011386D01*
X142016349Y-81015688D01*
X141975392Y-81061657D01*
X141970411Y-81066933D01*
X140621926Y-82415417D01*
X140615661Y-82421270D01*
X140572604Y-82458831D01*
X140536317Y-82510463D01*
X140532384Y-82515758D01*
X140498105Y-82559476D01*
X140498103Y-82559480D01*
X140493416Y-82565457D01*
X140490290Y-82572380D01*
X140488505Y-82575328D01*
X140481113Y-82588288D01*
X140479480Y-82591334D01*
X140475113Y-82597547D01*
X140456498Y-82645292D01*
X140452180Y-82656366D01*
X140449625Y-82662445D01*
X140423645Y-82719984D01*
X140422260Y-82727455D01*
X140421236Y-82730723D01*
X140417123Y-82745164D01*
X140416283Y-82748437D01*
X140413524Y-82755513D01*
X140412533Y-82763043D01*
X140405284Y-82818106D01*
X140404252Y-82824623D01*
X140392748Y-82886692D01*
X140393185Y-82894272D01*
X140393185Y-82894273D01*
X140396291Y-82948144D01*
X140396500Y-82955396D01*
X140396500Y-86597928D01*
X140376498Y-86666049D01*
X140316886Y-86715079D01*
X140302217Y-86720887D01*
X140182078Y-86812078D01*
X140180860Y-86810473D01*
X140128396Y-86839121D01*
X140101613Y-86842000D01*
X139257050Y-86842000D01*
X139188929Y-86821998D01*
X139180871Y-86816363D01*
X139114627Y-86766081D01*
X139114622Y-86766078D01*
X139107783Y-86760887D01*
X139025591Y-86728345D01*
X138975077Y-86708345D01*
X138975075Y-86708344D01*
X138967547Y-86705364D01*
X138877772Y-86694500D01*
X137842228Y-86694500D01*
X137752453Y-86705364D01*
X137744925Y-86708344D01*
X137744923Y-86708345D01*
X137694409Y-86728345D01*
X137612217Y-86760887D01*
X137605378Y-86766078D01*
X137605373Y-86766081D01*
X137539129Y-86816363D01*
X137472776Y-86841616D01*
X137462950Y-86842000D01*
X137116500Y-86842000D01*
X137048379Y-86821998D01*
X137001886Y-86768342D01*
X136990500Y-86716000D01*
X136990500Y-85106500D01*
X137010502Y-85038379D01*
X137064158Y-84991886D01*
X137116500Y-84980500D01*
X137332772Y-84980500D01*
X137422547Y-84969636D01*
X137430075Y-84966656D01*
X137430077Y-84966655D01*
X137517595Y-84932004D01*
X137562783Y-84914113D01*
X137682922Y-84822922D01*
X137774113Y-84702783D01*
X137813163Y-84604154D01*
X137826655Y-84570077D01*
X137826656Y-84570075D01*
X137829636Y-84562547D01*
X137840500Y-84472772D01*
X137840500Y-80487228D01*
X137829636Y-80397453D01*
X137774113Y-80257217D01*
X137682922Y-80137078D01*
X137562783Y-80045887D01*
X137499168Y-80020700D01*
X137430077Y-79993345D01*
X137430075Y-79993344D01*
X137422547Y-79990364D01*
X137332772Y-79979500D01*
X135247228Y-79979500D01*
X135157453Y-79990364D01*
X135149925Y-79993344D01*
X135149923Y-79993345D01*
X135080832Y-80020700D01*
X135017217Y-80045887D01*
X134897078Y-80137078D01*
X134805887Y-80257217D01*
X134750364Y-80397453D01*
X134739500Y-80487228D01*
X134739500Y-84472772D01*
X134750364Y-84562547D01*
X134753344Y-84570075D01*
X134753345Y-84570077D01*
X134766837Y-84604154D01*
X134805887Y-84702783D01*
X134897078Y-84822922D01*
X135017217Y-84914113D01*
X135062405Y-84932004D01*
X135149923Y-84966655D01*
X135149925Y-84966656D01*
X135157453Y-84969636D01*
X135247228Y-84980500D01*
X135463500Y-84980500D01*
X135531621Y-85000502D01*
X135578114Y-85054158D01*
X135589500Y-85106500D01*
X135589500Y-86608500D01*
X135569498Y-86676621D01*
X135515842Y-86723114D01*
X135463500Y-86734500D01*
X135202228Y-86734500D01*
X135112453Y-86745364D01*
X135104925Y-86748344D01*
X135104923Y-86748345D01*
X135035832Y-86775700D01*
X134972217Y-86800887D01*
X134965378Y-86806078D01*
X134965373Y-86806081D01*
X134951827Y-86816363D01*
X134885474Y-86841616D01*
X134875648Y-86842000D01*
X133840701Y-86842000D01*
X133772580Y-86821998D01*
X133764522Y-86816363D01*
X133724627Y-86786081D01*
X133724622Y-86786078D01*
X133717783Y-86780887D01*
X133601774Y-86734956D01*
X133585077Y-86728345D01*
X133585075Y-86728344D01*
X133577547Y-86725364D01*
X133487772Y-86714500D01*
X132452228Y-86714500D01*
X132362453Y-86725364D01*
X132354925Y-86728344D01*
X132354923Y-86728345D01*
X132338226Y-86734956D01*
X132222217Y-86780887D01*
X132215378Y-86786078D01*
X132215373Y-86786081D01*
X132175478Y-86816363D01*
X132109125Y-86841616D01*
X132099299Y-86842000D01*
X131561141Y-86842000D01*
X131552571Y-86841708D01*
X131503146Y-86838338D01*
X131503142Y-86838338D01*
X131495570Y-86837822D01*
X131488094Y-86839127D01*
X131488091Y-86839127D01*
X131433368Y-86848678D01*
X131426842Y-86849641D01*
X131396037Y-86853369D01*
X131364180Y-86857224D01*
X131357073Y-86859909D01*
X131353780Y-86860718D01*
X131339309Y-86864677D01*
X131336033Y-86865666D01*
X131328546Y-86866973D01*
X131321588Y-86870028D01*
X131321586Y-86870028D01*
X131270742Y-86892346D01*
X131264637Y-86894838D01*
X131253626Y-86898999D01*
X131205577Y-86917155D01*
X131199324Y-86921453D01*
X131196293Y-86923037D01*
X131183206Y-86930322D01*
X131180252Y-86932069D01*
X131173297Y-86935122D01*
X131167270Y-86939747D01*
X131167268Y-86939748D01*
X131123211Y-86973554D01*
X131117874Y-86977432D01*
X131073565Y-87007885D01*
X131065849Y-87013188D01*
X131060797Y-87018858D01*
X131060796Y-87018859D01*
X131024892Y-87059157D01*
X131019911Y-87064433D01*
X129534926Y-88549417D01*
X129528661Y-88555270D01*
X129485604Y-88592831D01*
X129449317Y-88644463D01*
X129445384Y-88649758D01*
X129411105Y-88693476D01*
X129411103Y-88693480D01*
X129406416Y-88699457D01*
X129403290Y-88706380D01*
X129401505Y-88709328D01*
X129394113Y-88722288D01*
X129392480Y-88725334D01*
X129388113Y-88731547D01*
X129369766Y-88778604D01*
X129365180Y-88790366D01*
X129362625Y-88796445D01*
X129336645Y-88853984D01*
X129335260Y-88861455D01*
X129334236Y-88864723D01*
X129330123Y-88879164D01*
X129329283Y-88882437D01*
X129326524Y-88889513D01*
X129325324Y-88898628D01*
X129318284Y-88952106D01*
X129317252Y-88958623D01*
X129311761Y-88988251D01*
X129305748Y-89020692D01*
X129306185Y-89028272D01*
X129306185Y-89028273D01*
X129309291Y-89082144D01*
X129309500Y-89089396D01*
X129309500Y-89319782D01*
X129289498Y-89387903D01*
X129234648Y-89434933D01*
X129228565Y-89437635D01*
X129222477Y-89440339D01*
X129222476Y-89440340D01*
X129211847Y-89445061D01*
X129132759Y-89524287D01*
X129128056Y-89534924D01*
X129128055Y-89534926D01*
X129119844Y-89553500D01*
X129087494Y-89626673D01*
X129084500Y-89652354D01*
X129084500Y-90941646D01*
X126185500Y-90941646D01*
X126185500Y-90824885D01*
X126535000Y-90824885D01*
X126539475Y-90840124D01*
X126540865Y-90841329D01*
X126548548Y-90843000D01*
X127362885Y-90843000D01*
X127378124Y-90838525D01*
X127379329Y-90837135D01*
X127381000Y-90829452D01*
X127381000Y-90824885D01*
X127889000Y-90824885D01*
X127893475Y-90840124D01*
X127894865Y-90841329D01*
X127902548Y-90843000D01*
X128716884Y-90843000D01*
X128732123Y-90838525D01*
X128733328Y-90837135D01*
X128734999Y-90829452D01*
X128734999Y-90568432D01*
X128734328Y-90559266D01*
X128726300Y-90504722D01*
X128720557Y-90486241D01*
X128678111Y-90399787D01*
X128660088Y-90374613D01*
X128662104Y-90373170D01*
X128635105Y-90323833D01*
X128640105Y-90253012D01*
X128661508Y-90219644D01*
X128660475Y-90218907D01*
X128678455Y-90193700D01*
X128720755Y-90107162D01*
X128726463Y-90088694D01*
X128734340Y-90034703D01*
X128735000Y-90025604D01*
X128735000Y-89769115D01*
X128730525Y-89753876D01*
X128729135Y-89752671D01*
X128721452Y-89751000D01*
X127907115Y-89751000D01*
X127891876Y-89755475D01*
X127890671Y-89756865D01*
X127889000Y-89764548D01*
X127889000Y-90824885D01*
X127381000Y-90824885D01*
X127381000Y-89769115D01*
X127376525Y-89753876D01*
X127375135Y-89752671D01*
X127367452Y-89751000D01*
X126553116Y-89751000D01*
X126537877Y-89755475D01*
X126536672Y-89756865D01*
X126535001Y-89764548D01*
X126535001Y-90025568D01*
X126535672Y-90034734D01*
X126543700Y-90089278D01*
X126549443Y-90107759D01*
X126591889Y-90194213D01*
X126609912Y-90219387D01*
X126607896Y-90220830D01*
X126634895Y-90270167D01*
X126629895Y-90340988D01*
X126608492Y-90374356D01*
X126609525Y-90375093D01*
X126591545Y-90400300D01*
X126549245Y-90486838D01*
X126543537Y-90505306D01*
X126535660Y-90559297D01*
X126535000Y-90568396D01*
X126535000Y-90824885D01*
X126185500Y-90824885D01*
X126185500Y-89652354D01*
X126182382Y-89626154D01*
X126136939Y-89523847D01*
X126128572Y-89515494D01*
X126065945Y-89452977D01*
X126057713Y-89444759D01*
X126035553Y-89434962D01*
X125981337Y-89389125D01*
X125960500Y-89319722D01*
X125960500Y-89224885D01*
X126535000Y-89224885D01*
X126539475Y-89240124D01*
X126540865Y-89241329D01*
X126548548Y-89243000D01*
X127362885Y-89243000D01*
X127378124Y-89238525D01*
X127379329Y-89237135D01*
X127381000Y-89229452D01*
X127381000Y-89224885D01*
X127889000Y-89224885D01*
X127893475Y-89240124D01*
X127894865Y-89241329D01*
X127902548Y-89243000D01*
X128716884Y-89243000D01*
X128732123Y-89238525D01*
X128733328Y-89237135D01*
X128734999Y-89229452D01*
X128734999Y-88968432D01*
X128734328Y-88959266D01*
X128726300Y-88904722D01*
X128720557Y-88886241D01*
X128678111Y-88799787D01*
X128666151Y-88783082D01*
X128598428Y-88715477D01*
X128581700Y-88703545D01*
X128495162Y-88661245D01*
X128476694Y-88655537D01*
X128422703Y-88647660D01*
X128413604Y-88647000D01*
X127907115Y-88647000D01*
X127891876Y-88651475D01*
X127890671Y-88652865D01*
X127889000Y-88660548D01*
X127889000Y-89224885D01*
X127381000Y-89224885D01*
X127381000Y-88665116D01*
X127376525Y-88649877D01*
X127375135Y-88648672D01*
X127367452Y-88647001D01*
X126856432Y-88647001D01*
X126847266Y-88647672D01*
X126792722Y-88655700D01*
X126774241Y-88661443D01*
X126687787Y-88703889D01*
X126671082Y-88715849D01*
X126603477Y-88783572D01*
X126591545Y-88800300D01*
X126549245Y-88886838D01*
X126543537Y-88905306D01*
X126535660Y-88959297D01*
X126535000Y-88968396D01*
X126535000Y-89224885D01*
X125960500Y-89224885D01*
X125960500Y-89077346D01*
X125980502Y-89009225D01*
X125997405Y-88988251D01*
X128935067Y-86050589D01*
X128941333Y-86044735D01*
X128978671Y-86012163D01*
X128984396Y-86007169D01*
X128988761Y-86000958D01*
X128988764Y-86000955D01*
X129020705Y-85955507D01*
X129024638Y-85950212D01*
X129058896Y-85906521D01*
X129058897Y-85906519D01*
X129063583Y-85900543D01*
X129066708Y-85893621D01*
X129068481Y-85890694D01*
X129075906Y-85877675D01*
X129077517Y-85874671D01*
X129081887Y-85868453D01*
X129104820Y-85809633D01*
X129107375Y-85803555D01*
X129130228Y-85752943D01*
X129130229Y-85752941D01*
X129133355Y-85746017D01*
X129134740Y-85738545D01*
X129135767Y-85735267D01*
X129139863Y-85720886D01*
X129140715Y-85717570D01*
X129143476Y-85710487D01*
X129151717Y-85647889D01*
X129152748Y-85641377D01*
X129162868Y-85586775D01*
X129164252Y-85579308D01*
X129162204Y-85543780D01*
X129160709Y-85517862D01*
X129160500Y-85510609D01*
X129160500Y-76466500D01*
X129180502Y-76398379D01*
X129234158Y-76351886D01*
X129286500Y-76340500D01*
X129754646Y-76340500D01*
X129758350Y-76340059D01*
X129758353Y-76340059D01*
X129766082Y-76339139D01*
X129780846Y-76337382D01*
X129808815Y-76324959D01*
X129872518Y-76296663D01*
X129883153Y-76291939D01*
X129891578Y-76283500D01*
X129954023Y-76220945D01*
X129962241Y-76212713D01*
X129967772Y-76200204D01*
X130003675Y-76118992D01*
X130007506Y-76110327D01*
X130010500Y-76084646D01*
X130010500Y-76065199D01*
X134690001Y-76065199D01*
X134690539Y-76073411D01*
X134704366Y-76178444D01*
X134708604Y-76194259D01*
X134762741Y-76324959D01*
X134770930Y-76339142D01*
X134857046Y-76451372D01*
X134868626Y-76462952D01*
X134980861Y-76549072D01*
X134995042Y-76557259D01*
X135125739Y-76611396D01*
X135141558Y-76615634D01*
X135246590Y-76629462D01*
X135254799Y-76630000D01*
X136017885Y-76630000D01*
X136033124Y-76625525D01*
X136034329Y-76624135D01*
X136036000Y-76616452D01*
X136036000Y-76611884D01*
X136544000Y-76611884D01*
X136548475Y-76627123D01*
X136549865Y-76628328D01*
X136557548Y-76629999D01*
X137325199Y-76629999D01*
X137333411Y-76629461D01*
X137438444Y-76615634D01*
X137454259Y-76611396D01*
X137584959Y-76557259D01*
X137599142Y-76549070D01*
X137711372Y-76462954D01*
X137722952Y-76451374D01*
X137809072Y-76339139D01*
X137817259Y-76324958D01*
X137871396Y-76194261D01*
X137875634Y-76178442D01*
X137889462Y-76073410D01*
X137890000Y-76065201D01*
X137890000Y-74388568D01*
X147810001Y-74388568D01*
X147810672Y-74397734D01*
X147818700Y-74452278D01*
X147824443Y-74470759D01*
X147866889Y-74557213D01*
X147878849Y-74573918D01*
X147946572Y-74641523D01*
X147963300Y-74653455D01*
X148049838Y-74695755D01*
X148068306Y-74701463D01*
X148122297Y-74709340D01*
X148131396Y-74710000D01*
X148787885Y-74710000D01*
X148803124Y-74705525D01*
X148804329Y-74704135D01*
X148806000Y-74696452D01*
X148806000Y-74691884D01*
X149314000Y-74691884D01*
X149318475Y-74707123D01*
X149319865Y-74708328D01*
X149327548Y-74709999D01*
X149988568Y-74709999D01*
X149997734Y-74709328D01*
X150052278Y-74701300D01*
X150070759Y-74695557D01*
X150157213Y-74653111D01*
X150173918Y-74641151D01*
X150241523Y-74573428D01*
X150253455Y-74556700D01*
X150295755Y-74470162D01*
X150301463Y-74451694D01*
X150309340Y-74397703D01*
X150310000Y-74388604D01*
X150310000Y-73382115D01*
X150305525Y-73366876D01*
X150304135Y-73365671D01*
X150296452Y-73364000D01*
X149332115Y-73364000D01*
X149316876Y-73368475D01*
X149315671Y-73369865D01*
X149314000Y-73377548D01*
X149314000Y-74691884D01*
X148806000Y-74691884D01*
X148806000Y-73382115D01*
X148801525Y-73366876D01*
X148800135Y-73365671D01*
X148792452Y-73364000D01*
X147828116Y-73364000D01*
X147812877Y-73368475D01*
X147811672Y-73369865D01*
X147810001Y-73377548D01*
X147810001Y-74388568D01*
X137890000Y-74388568D01*
X137890000Y-74352115D01*
X137885525Y-74336876D01*
X137884135Y-74335671D01*
X137876452Y-74334000D01*
X136562115Y-74334000D01*
X136546876Y-74338475D01*
X136545671Y-74339865D01*
X136544000Y-74347548D01*
X136544000Y-76611884D01*
X136036000Y-76611884D01*
X136036000Y-74352115D01*
X136031525Y-74336876D01*
X136030135Y-74335671D01*
X136022452Y-74334000D01*
X134708116Y-74334000D01*
X134692877Y-74338475D01*
X134691672Y-74339865D01*
X134690001Y-74347548D01*
X134690001Y-76065199D01*
X130010500Y-76065199D01*
X130010500Y-74195354D01*
X130007382Y-74169154D01*
X129961939Y-74066847D01*
X129937535Y-74042485D01*
X129890945Y-73995977D01*
X129882713Y-73987759D01*
X129872076Y-73983056D01*
X129872074Y-73983055D01*
X129799266Y-73950867D01*
X129780327Y-73942494D01*
X129754646Y-73939500D01*
X127165354Y-73939500D01*
X127161650Y-73939941D01*
X127161647Y-73939941D01*
X127154254Y-73940821D01*
X127139154Y-73942618D01*
X127130514Y-73946456D01*
X127130513Y-73946456D01*
X127048117Y-73983055D01*
X127036847Y-73988061D01*
X126957759Y-74067287D01*
X126912494Y-74169673D01*
X126909500Y-74195354D01*
X126909500Y-76084646D01*
X126912618Y-76110846D01*
X126916456Y-76119486D01*
X126916456Y-76119487D01*
X126952309Y-76200204D01*
X126958061Y-76213153D01*
X127037287Y-76292241D01*
X127047924Y-76296944D01*
X127047926Y-76296945D01*
X127071471Y-76307354D01*
X127139673Y-76337506D01*
X127165354Y-76340500D01*
X127633500Y-76340500D01*
X127701621Y-76360502D01*
X127748114Y-76414158D01*
X127759500Y-76466500D01*
X127759500Y-85192653D01*
X127739498Y-85260774D01*
X127722595Y-85281748D01*
X124784925Y-88219418D01*
X124778660Y-88225271D01*
X124735604Y-88262831D01*
X124700400Y-88312922D01*
X124699317Y-88314463D01*
X124695384Y-88319758D01*
X124661105Y-88363476D01*
X124661103Y-88363480D01*
X124656416Y-88369457D01*
X124653290Y-88376380D01*
X124651505Y-88379328D01*
X124644113Y-88392288D01*
X124642480Y-88395334D01*
X124638113Y-88401547D01*
X124623541Y-88438921D01*
X124615180Y-88460366D01*
X124612625Y-88466445D01*
X124586645Y-88523984D01*
X124585260Y-88531455D01*
X124584236Y-88534723D01*
X124580123Y-88549164D01*
X124579283Y-88552437D01*
X124576524Y-88559513D01*
X124571320Y-88599046D01*
X124568284Y-88622106D01*
X124567252Y-88628623D01*
X124555748Y-88690692D01*
X124556185Y-88698272D01*
X124556185Y-88698273D01*
X124559291Y-88752144D01*
X124559500Y-88759396D01*
X124559500Y-89319782D01*
X124539498Y-89387903D01*
X124484648Y-89434933D01*
X124478565Y-89437635D01*
X124472477Y-89440339D01*
X124472476Y-89440340D01*
X124461847Y-89445061D01*
X124382759Y-89524287D01*
X124378056Y-89534924D01*
X124378055Y-89534926D01*
X124369844Y-89553500D01*
X124337494Y-89626673D01*
X124334500Y-89652354D01*
X124334500Y-90941646D01*
X123817500Y-90941646D01*
X123817500Y-84328199D01*
X124253001Y-84328199D01*
X124253539Y-84336411D01*
X124267366Y-84441444D01*
X124271604Y-84457259D01*
X124325741Y-84587959D01*
X124333930Y-84602142D01*
X124420046Y-84714372D01*
X124431626Y-84725952D01*
X124543861Y-84812072D01*
X124558042Y-84820259D01*
X124688739Y-84874396D01*
X124704558Y-84878634D01*
X124809590Y-84892462D01*
X124817799Y-84893000D01*
X125330885Y-84893000D01*
X125346124Y-84888525D01*
X125347329Y-84887135D01*
X125349000Y-84879452D01*
X125349000Y-84874884D01*
X125857000Y-84874884D01*
X125861475Y-84890123D01*
X125862865Y-84891328D01*
X125870548Y-84892999D01*
X126388199Y-84892999D01*
X126396411Y-84892461D01*
X126501444Y-84878634D01*
X126517259Y-84874396D01*
X126647959Y-84820259D01*
X126662142Y-84812070D01*
X126774372Y-84725954D01*
X126785952Y-84714374D01*
X126872072Y-84602139D01*
X126880259Y-84587958D01*
X126934396Y-84457261D01*
X126938634Y-84441442D01*
X126952462Y-84336410D01*
X126953000Y-84328201D01*
X126953000Y-83965115D01*
X126948525Y-83949876D01*
X126947135Y-83948671D01*
X126939452Y-83947000D01*
X125875115Y-83947000D01*
X125859876Y-83951475D01*
X125858671Y-83952865D01*
X125857000Y-83960548D01*
X125857000Y-84874884D01*
X125349000Y-84874884D01*
X125349000Y-83965115D01*
X125344525Y-83949876D01*
X125343135Y-83948671D01*
X125335452Y-83947000D01*
X124271116Y-83947000D01*
X124255877Y-83951475D01*
X124254672Y-83952865D01*
X124253001Y-83960548D01*
X124253001Y-84328199D01*
X123817500Y-84328199D01*
X123817500Y-82428504D01*
X123837502Y-82360383D01*
X123854405Y-82339409D01*
X124331582Y-81862232D01*
X124393894Y-81828206D01*
X124464709Y-81833271D01*
X124517139Y-81873108D01*
X124518238Y-81872144D01*
X124657655Y-82031119D01*
X124823708Y-82162024D01*
X124828819Y-82164713D01*
X124828822Y-82164715D01*
X125001363Y-82255493D01*
X125052335Y-82304912D01*
X125068498Y-82374045D01*
X125044719Y-82440941D01*
X124988548Y-82484361D01*
X124942695Y-82493001D01*
X124817801Y-82493001D01*
X124809589Y-82493539D01*
X124704556Y-82507366D01*
X124688741Y-82511604D01*
X124558041Y-82565741D01*
X124543858Y-82573930D01*
X124431628Y-82660046D01*
X124420048Y-82671626D01*
X124333928Y-82783861D01*
X124325741Y-82798042D01*
X124271604Y-82928739D01*
X124267366Y-82944558D01*
X124253538Y-83049590D01*
X124253000Y-83057799D01*
X124253000Y-83420885D01*
X124257475Y-83436124D01*
X124258865Y-83437329D01*
X124266548Y-83439000D01*
X126934884Y-83439000D01*
X126950123Y-83434525D01*
X126951328Y-83433135D01*
X126952999Y-83425452D01*
X126952999Y-83057801D01*
X126952461Y-83049589D01*
X126938634Y-82944556D01*
X126934396Y-82928741D01*
X126880259Y-82798041D01*
X126872070Y-82783858D01*
X126785954Y-82671628D01*
X126774374Y-82660048D01*
X126662139Y-82573928D01*
X126647958Y-82565741D01*
X126517261Y-82511604D01*
X126501442Y-82507366D01*
X126396410Y-82493538D01*
X126388201Y-82493000D01*
X126258673Y-82493000D01*
X126190552Y-82472998D01*
X126144059Y-82419342D01*
X126133955Y-82349068D01*
X126163449Y-82284488D01*
X126202945Y-82253994D01*
X126351527Y-82180721D01*
X126356710Y-82178165D01*
X126468560Y-82094643D01*
X126521509Y-82055104D01*
X126521510Y-82055103D01*
X126526133Y-82051651D01*
X126636665Y-81932078D01*
X126665743Y-81900622D01*
X126665745Y-81900620D01*
X126669663Y-81896381D01*
X126684347Y-81873108D01*
X126779416Y-81722434D01*
X126779416Y-81722433D01*
X126782495Y-81717554D01*
X126860848Y-81521160D01*
X126861973Y-81515503D01*
X126861975Y-81515497D01*
X126900972Y-81319442D01*
X126900972Y-81319440D01*
X126902099Y-81313775D01*
X126902547Y-81279609D01*
X126903773Y-81185903D01*
X126904867Y-81102346D01*
X126898340Y-81064363D01*
X126870038Y-80899650D01*
X126870038Y-80899649D01*
X126869059Y-80893953D01*
X126795873Y-80695575D01*
X126692890Y-80522475D01*
X126690716Y-80518821D01*
X126690715Y-80518820D01*
X126687762Y-80513856D01*
X126548345Y-80354881D01*
X126382292Y-80223976D01*
X126370835Y-80217948D01*
X126319861Y-80168531D01*
X126303500Y-80106439D01*
X126303500Y-76311641D01*
X126303792Y-76303071D01*
X126307162Y-76253646D01*
X126307162Y-76253642D01*
X126307678Y-76246070D01*
X126306373Y-76238591D01*
X126296822Y-76183868D01*
X126295859Y-76177342D01*
X126289189Y-76122226D01*
X126288276Y-76114680D01*
X126285591Y-76107573D01*
X126284782Y-76104280D01*
X126280823Y-76089809D01*
X126279834Y-76086533D01*
X126278527Y-76079046D01*
X126273191Y-76066890D01*
X126253154Y-76021242D01*
X126250662Y-76015137D01*
X126246501Y-76004126D01*
X126228345Y-75956077D01*
X126224047Y-75949824D01*
X126222463Y-75946793D01*
X126215178Y-75933706D01*
X126213431Y-75930752D01*
X126210378Y-75923797D01*
X126203244Y-75914500D01*
X126171946Y-75873711D01*
X126168068Y-75868374D01*
X126136614Y-75822608D01*
X126136613Y-75822606D01*
X126132312Y-75816349D01*
X126086342Y-75775391D01*
X126081067Y-75770411D01*
X126047405Y-75736749D01*
X126013379Y-75674437D01*
X126010500Y-75647654D01*
X126010500Y-74195354D01*
X126007382Y-74169154D01*
X125961939Y-74066847D01*
X125937535Y-74042485D01*
X125890945Y-73995977D01*
X125882713Y-73987759D01*
X125872076Y-73983056D01*
X125872074Y-73983055D01*
X125799266Y-73950867D01*
X125780327Y-73942494D01*
X125754646Y-73939500D01*
X123165354Y-73939500D01*
X123161650Y-73939941D01*
X123161647Y-73939941D01*
X123154254Y-73940821D01*
X123139154Y-73942618D01*
X123130514Y-73946456D01*
X123130513Y-73946456D01*
X123048117Y-73983055D01*
X123036847Y-73988061D01*
X122957759Y-74067287D01*
X122912494Y-74169673D01*
X122909500Y-74195354D01*
X122909500Y-76084646D01*
X122912618Y-76110846D01*
X122916456Y-76119486D01*
X122916456Y-76119487D01*
X122952309Y-76200204D01*
X122958061Y-76213153D01*
X123037287Y-76292241D01*
X123047924Y-76296944D01*
X123047926Y-76296945D01*
X123071471Y-76307354D01*
X123139673Y-76337506D01*
X123165354Y-76340500D01*
X124617653Y-76340500D01*
X124685774Y-76360502D01*
X124706748Y-76377405D01*
X124865595Y-76536252D01*
X124899621Y-76598564D01*
X124902500Y-76625347D01*
X124902500Y-80105284D01*
X124882498Y-80173405D01*
X124848461Y-80206724D01*
X124849290Y-80207835D01*
X124818708Y-80230672D01*
X124679867Y-80334349D01*
X124579633Y-80442782D01*
X124542028Y-80483463D01*
X124536337Y-80489619D01*
X124533256Y-80494502D01*
X124446740Y-80631621D01*
X124393473Y-80678559D01*
X124334463Y-80689188D01*
X124333552Y-80688982D01*
X124280745Y-80692258D01*
X124272943Y-80692500D01*
X124257060Y-80692500D01*
X124252612Y-80693137D01*
X124252610Y-80693137D01*
X124246942Y-80693948D01*
X124236891Y-80694978D01*
X124199420Y-80697303D01*
X124199419Y-80697303D01*
X124190461Y-80697859D01*
X124182017Y-80700907D01*
X124178324Y-80701672D01*
X124163584Y-80705347D01*
X124159968Y-80706404D01*
X124151082Y-80707677D01*
X124110973Y-80725914D01*
X124108734Y-80726932D01*
X124099367Y-80730745D01*
X124055613Y-80746540D01*
X124048361Y-80751838D01*
X124045015Y-80753617D01*
X124031911Y-80761274D01*
X124028739Y-80763303D01*
X124020572Y-80767016D01*
X124013776Y-80772871D01*
X124013774Y-80772873D01*
X123985321Y-80797390D01*
X123977405Y-80803675D01*
X123970598Y-80808648D01*
X123970591Y-80808654D01*
X123966664Y-80811523D01*
X123955928Y-80822259D01*
X123949082Y-80828616D01*
X123911963Y-80860600D01*
X123907079Y-80868134D01*
X123901181Y-80874896D01*
X123901176Y-80874892D01*
X123892200Y-80885987D01*
X123012717Y-81765469D01*
X123003376Y-81772932D01*
X123003708Y-81773322D01*
X122996872Y-81779140D01*
X122989280Y-81783930D01*
X122983338Y-81790658D01*
X122983337Y-81790659D01*
X122954244Y-81823601D01*
X122948897Y-81829289D01*
X122937680Y-81840506D01*
X122934991Y-81844094D01*
X122934990Y-81844095D01*
X122931550Y-81848684D01*
X122925168Y-81856523D01*
X122910521Y-81873108D01*
X122894377Y-81891388D01*
X122890563Y-81899511D01*
X122888492Y-81902664D01*
X122880673Y-81915676D01*
X122878856Y-81918995D01*
X122873474Y-81926176D01*
X122870325Y-81934577D01*
X122870324Y-81934578D01*
X122857144Y-81969736D01*
X122853217Y-81979053D01*
X122837263Y-82013034D01*
X122837262Y-82013037D01*
X122833447Y-82021163D01*
X122832065Y-82030037D01*
X122830961Y-82033650D01*
X122827115Y-82048307D01*
X122826301Y-82052010D01*
X122823148Y-82060420D01*
X122819698Y-82106843D01*
X122818548Y-82116856D01*
X122816500Y-82130009D01*
X122816500Y-82145204D01*
X122816154Y-82154541D01*
X122812524Y-82203392D01*
X122480000Y-82203392D01*
X122480000Y-73807885D01*
X134690000Y-73807885D01*
X134694475Y-73823124D01*
X134695865Y-73824329D01*
X134703548Y-73826000D01*
X136017885Y-73826000D01*
X136033124Y-73821525D01*
X136034329Y-73820135D01*
X136036000Y-73812452D01*
X136036000Y-73807885D01*
X136544000Y-73807885D01*
X136548475Y-73823124D01*
X136549865Y-73824329D01*
X136557548Y-73826000D01*
X137871884Y-73826000D01*
X137887123Y-73821525D01*
X137888328Y-73820135D01*
X137889999Y-73812452D01*
X137889999Y-72837885D01*
X147810000Y-72837885D01*
X147814475Y-72853124D01*
X147815865Y-72854329D01*
X147823548Y-72856000D01*
X148787885Y-72856000D01*
X148803124Y-72851525D01*
X148804329Y-72850135D01*
X148806000Y-72842452D01*
X148806000Y-72837885D01*
X149314000Y-72837885D01*
X149318475Y-72853124D01*
X149319865Y-72854329D01*
X149327548Y-72856000D01*
X150291884Y-72856000D01*
X150307123Y-72851525D01*
X150308328Y-72850135D01*
X150309999Y-72842452D01*
X150309999Y-71831432D01*
X150309328Y-71822266D01*
X150301300Y-71767722D01*
X150295557Y-71749241D01*
X150253111Y-71662787D01*
X150241151Y-71646082D01*
X150173428Y-71578477D01*
X150156700Y-71566545D01*
X150070162Y-71524245D01*
X150051694Y-71518537D01*
X149997703Y-71510660D01*
X149988604Y-71510000D01*
X149332115Y-71510000D01*
X149316876Y-71514475D01*
X149315671Y-71515865D01*
X149314000Y-71523548D01*
X149314000Y-72837885D01*
X148806000Y-72837885D01*
X148806000Y-71528116D01*
X148801525Y-71512877D01*
X148800135Y-71511672D01*
X148792452Y-71510001D01*
X148131432Y-71510001D01*
X148122266Y-71510672D01*
X148067722Y-71518700D01*
X148049241Y-71524443D01*
X147962787Y-71566889D01*
X147946082Y-71578849D01*
X147878477Y-71646572D01*
X147866545Y-71663300D01*
X147824245Y-71749838D01*
X147818537Y-71768306D01*
X147810660Y-71822297D01*
X147810000Y-71831396D01*
X147810000Y-72837885D01*
X137889999Y-72837885D01*
X137889999Y-72094801D01*
X137889461Y-72086589D01*
X137875634Y-71981556D01*
X137871396Y-71965741D01*
X137817259Y-71835041D01*
X137809070Y-71820858D01*
X137722954Y-71708628D01*
X137711374Y-71697048D01*
X137599139Y-71610928D01*
X137584958Y-71602741D01*
X137454261Y-71548604D01*
X137438442Y-71544366D01*
X137333410Y-71530538D01*
X137325201Y-71530000D01*
X136562115Y-71530000D01*
X136546876Y-71534475D01*
X136545671Y-71535865D01*
X136544000Y-71543548D01*
X136544000Y-73807885D01*
X136036000Y-73807885D01*
X136036000Y-71548116D01*
X136031525Y-71532877D01*
X136030135Y-71531672D01*
X136022452Y-71530001D01*
X135254801Y-71530001D01*
X135246589Y-71530539D01*
X135141556Y-71544366D01*
X135125741Y-71548604D01*
X134995041Y-71602741D01*
X134980858Y-71610930D01*
X134868628Y-71697046D01*
X134857048Y-71708626D01*
X134770928Y-71820861D01*
X134762741Y-71835042D01*
X134708604Y-71965739D01*
X134704366Y-71981558D01*
X134690538Y-72086590D01*
X134690000Y-72094799D01*
X134690000Y-73807885D01*
X122480000Y-73807885D01*
X122480000Y-70716000D01*
X122500002Y-70647879D01*
X122553658Y-70601386D01*
X122606000Y-70590000D01*
X170994000Y-70590000D01*
X171062121Y-70610002D01*
G37*
%TD.AperFunction*%
%TD*%
M02*
