%TF.GenerationSoftware,KiCad,Pcbnew,(6.0.2)*%
%TF.CreationDate,2022-10-19T14:56:23+05:30*%
%TF.ProjectId,imu,696d752e-6b69-4636-9164-5f7063625858,rev?*%
%TF.SameCoordinates,Original*%
%TF.FileFunction,Legend,Top*%
%TF.FilePolarity,Positive*%
%FSLAX46Y46*%
G04 Gerber Fmt 4.6, Leading zero omitted, Abs format (unit mm)*
G04 Created by KiCad (PCBNEW (6.0.2)) date 2022-10-19 14:56:23*
%MOMM*%
%LPD*%
G01*
G04 APERTURE LIST*
%ADD10C,0.150000*%
%ADD11C,0.120000*%
G04 APERTURE END LIST*
D10*
%TO.C,U1*%
X151942857Y-103303428D02*
X151942857Y-103789142D01*
X151971428Y-103846285D01*
X152000000Y-103874857D01*
X152057142Y-103903428D01*
X152171428Y-103903428D01*
X152228571Y-103874857D01*
X152257142Y-103846285D01*
X152285714Y-103789142D01*
X152285714Y-103303428D01*
X152885714Y-103903428D02*
X152542857Y-103903428D01*
X152714285Y-103903428D02*
X152714285Y-103303428D01*
X152657142Y-103389142D01*
X152600000Y-103446285D01*
X152542857Y-103474857D01*
%TO.C,C1*%
X154586000Y-100925285D02*
X154557428Y-100953857D01*
X154471714Y-100982428D01*
X154414571Y-100982428D01*
X154328857Y-100953857D01*
X154271714Y-100896714D01*
X154243142Y-100839571D01*
X154214571Y-100725285D01*
X154214571Y-100639571D01*
X154243142Y-100525285D01*
X154271714Y-100468142D01*
X154328857Y-100411000D01*
X154414571Y-100382428D01*
X154471714Y-100382428D01*
X154557428Y-100411000D01*
X154586000Y-100439571D01*
X155157428Y-100982428D02*
X154814571Y-100982428D01*
X154986000Y-100982428D02*
X154986000Y-100382428D01*
X154928857Y-100468142D01*
X154871714Y-100525285D01*
X154814571Y-100553857D01*
%TO.C,C2*%
X155983000Y-106767285D02*
X155954428Y-106795857D01*
X155868714Y-106824428D01*
X155811571Y-106824428D01*
X155725857Y-106795857D01*
X155668714Y-106738714D01*
X155640142Y-106681571D01*
X155611571Y-106567285D01*
X155611571Y-106481571D01*
X155640142Y-106367285D01*
X155668714Y-106310142D01*
X155725857Y-106253000D01*
X155811571Y-106224428D01*
X155868714Y-106224428D01*
X155954428Y-106253000D01*
X155983000Y-106281571D01*
X156211571Y-106281571D02*
X156240142Y-106253000D01*
X156297285Y-106224428D01*
X156440142Y-106224428D01*
X156497285Y-106253000D01*
X156525857Y-106281571D01*
X156554428Y-106338714D01*
X156554428Y-106395857D01*
X156525857Y-106481571D01*
X156183000Y-106824428D01*
X156554428Y-106824428D01*
%TO.C,U1*%
X156794000Y-102413000D02*
X156394000Y-102413000D01*
X156794000Y-105613000D02*
X156394000Y-105613000D01*
X156794000Y-102413000D02*
X156794000Y-102813000D01*
X153594000Y-105613000D02*
X153994000Y-105613000D01*
X156794000Y-105613000D02*
X156794000Y-105213000D01*
X153594000Y-105613000D02*
X153594000Y-105213000D01*
X153594000Y-102413000D02*
X153994000Y-102413000D01*
D11*
%TO.C,C1*%
X156985580Y-101602000D02*
X156704420Y-101602000D01*
X156985580Y-100582000D02*
X156704420Y-100582000D01*
%TO.C,C2*%
X156704420Y-106932000D02*
X156985580Y-106932000D01*
X156704420Y-107952000D02*
X156985580Y-107952000D01*
%TD*%
M02*
