%TF.GenerationSoftware,KiCad,Pcbnew,(6.0.2)*%
%TF.CreationDate,2022-10-19T14:56:23+05:30*%
%TF.ProjectId,imu,696d752e-6b69-4636-9164-5f7063625858,rev?*%
%TF.SameCoordinates,Original*%
%TF.FileFunction,Copper,L2,Bot*%
%TF.FilePolarity,Positive*%
%FSLAX46Y46*%
G04 Gerber Fmt 4.6, Leading zero omitted, Abs format (unit mm)*
G04 Created by KiCad (PCBNEW (6.0.2)) date 2022-10-19 14:56:23*
%MOMM*%
%LPD*%
G01*
G04 APERTURE LIST*
%ADD10C,0.300000*%
%TA.AperFunction,NonConductor*%
%ADD11C,0.300000*%
%TD*%
%TA.AperFunction,NonConductor*%
%ADD12C,0.200000*%
%TD*%
%TA.AperFunction,SMDPad,CuDef*%
%ADD13R,1.600000X0.300000*%
%TD*%
%TA.AperFunction,ViaPad*%
%ADD14C,0.800000*%
%TD*%
%TA.AperFunction,Conductor*%
%ADD15C,0.200000*%
%TD*%
%TA.AperFunction,Conductor*%
%ADD16C,0.250000*%
%TD*%
G04 APERTURE END LIST*
D10*
D11*
X148321428Y-113210428D02*
X148178571Y-113139000D01*
X148107142Y-113067571D01*
X148035714Y-112924714D01*
X148035714Y-112853285D01*
X148107142Y-112710428D01*
X148178571Y-112639000D01*
X148321428Y-112567571D01*
X148607142Y-112567571D01*
X148750000Y-112639000D01*
X148821428Y-112710428D01*
X148892857Y-112853285D01*
X148892857Y-112924714D01*
X148821428Y-113067571D01*
X148750000Y-113139000D01*
X148607142Y-113210428D01*
X148321428Y-113210428D01*
X148178571Y-113281857D01*
X148107142Y-113353285D01*
X148035714Y-113496142D01*
X148035714Y-113781857D01*
X148107142Y-113924714D01*
X148178571Y-113996142D01*
X148321428Y-114067571D01*
X148607142Y-114067571D01*
X148750000Y-113996142D01*
X148821428Y-113924714D01*
X148892857Y-113781857D01*
X148892857Y-113496142D01*
X148821428Y-113353285D01*
X148750000Y-113281857D01*
X148607142Y-113210428D01*
X149535714Y-113924714D02*
X149607142Y-113996142D01*
X149535714Y-114067571D01*
X149464285Y-113996142D01*
X149535714Y-113924714D01*
X149535714Y-114067571D01*
X150964285Y-112567571D02*
X150250000Y-112567571D01*
X150178571Y-113281857D01*
X150250000Y-113210428D01*
X150392857Y-113139000D01*
X150750000Y-113139000D01*
X150892857Y-113210428D01*
X150964285Y-113281857D01*
X151035714Y-113424714D01*
X151035714Y-113781857D01*
X150964285Y-113924714D01*
X150892857Y-113996142D01*
X150750000Y-114067571D01*
X150392857Y-114067571D01*
X150250000Y-113996142D01*
X150178571Y-113924714D01*
X151964285Y-112567571D02*
X152107142Y-112567571D01*
X152250000Y-112639000D01*
X152321428Y-112710428D01*
X152392857Y-112853285D01*
X152464285Y-113139000D01*
X152464285Y-113496142D01*
X152392857Y-113781857D01*
X152321428Y-113924714D01*
X152250000Y-113996142D01*
X152107142Y-114067571D01*
X151964285Y-114067571D01*
X151821428Y-113996142D01*
X151750000Y-113924714D01*
X151678571Y-113781857D01*
X151607142Y-113496142D01*
X151607142Y-113139000D01*
X151678571Y-112853285D01*
X151750000Y-112710428D01*
X151821428Y-112639000D01*
X151964285Y-112567571D01*
X153392857Y-112567571D02*
X153535714Y-112567571D01*
X153678571Y-112639000D01*
X153750000Y-112710428D01*
X153821428Y-112853285D01*
X153892857Y-113139000D01*
X153892857Y-113496142D01*
X153821428Y-113781857D01*
X153750000Y-113924714D01*
X153678571Y-113996142D01*
X153535714Y-114067571D01*
X153392857Y-114067571D01*
X153250000Y-113996142D01*
X153178571Y-113924714D01*
X153107142Y-113781857D01*
X153035714Y-113496142D01*
X153035714Y-113139000D01*
X153107142Y-112853285D01*
X153178571Y-112710428D01*
X153250000Y-112639000D01*
X153392857Y-112567571D01*
X154821428Y-112567571D02*
X154964285Y-112567571D01*
X155107142Y-112639000D01*
X155178571Y-112710428D01*
X155250000Y-112853285D01*
X155321428Y-113139000D01*
X155321428Y-113496142D01*
X155250000Y-113781857D01*
X155178571Y-113924714D01*
X155107142Y-113996142D01*
X154964285Y-114067571D01*
X154821428Y-114067571D01*
X154678571Y-113996142D01*
X154607142Y-113924714D01*
X154535714Y-113781857D01*
X154464285Y-113496142D01*
X154464285Y-113139000D01*
X154535714Y-112853285D01*
X154607142Y-112710428D01*
X154678571Y-112639000D01*
X154821428Y-112567571D01*
X157107142Y-114067571D02*
X157107142Y-113067571D01*
X157107142Y-113210428D02*
X157178571Y-113139000D01*
X157321428Y-113067571D01*
X157535714Y-113067571D01*
X157678571Y-113139000D01*
X157750000Y-113281857D01*
X157750000Y-114067571D01*
X157750000Y-113281857D02*
X157821428Y-113139000D01*
X157964285Y-113067571D01*
X158178571Y-113067571D01*
X158321428Y-113139000D01*
X158392857Y-113281857D01*
X158392857Y-114067571D01*
X159107142Y-114067571D02*
X159107142Y-113067571D01*
X159107142Y-113210428D02*
X159178571Y-113139000D01*
X159321428Y-113067571D01*
X159535714Y-113067571D01*
X159678571Y-113139000D01*
X159750000Y-113281857D01*
X159750000Y-114067571D01*
X159750000Y-113281857D02*
X159821428Y-113139000D01*
X159964285Y-113067571D01*
X160178571Y-113067571D01*
X160321428Y-113139000D01*
X160392857Y-113281857D01*
X160392857Y-114067571D01*
D12*
X150000000Y-109000000D02*
X150000000Y-115775420D01*
X158500000Y-109000000D02*
X158500000Y-115775420D01*
X150000000Y-115189000D02*
X158500000Y-115189000D01*
X150000000Y-115189000D02*
X158500000Y-115189000D01*
X150000000Y-115189000D02*
X151126504Y-115775421D01*
X150000000Y-115189000D02*
X151126504Y-114602579D01*
X158500000Y-115189000D02*
X157373496Y-114602579D01*
X158500000Y-115189000D02*
X157373496Y-115775421D01*
D10*
D11*
X162105428Y-110178571D02*
X162034000Y-110321428D01*
X161962571Y-110392857D01*
X161819714Y-110464285D01*
X161748285Y-110464285D01*
X161605428Y-110392857D01*
X161534000Y-110321428D01*
X161462571Y-110178571D01*
X161462571Y-109892857D01*
X161534000Y-109750000D01*
X161605428Y-109678571D01*
X161748285Y-109607142D01*
X161819714Y-109607142D01*
X161962571Y-109678571D01*
X162034000Y-109750000D01*
X162105428Y-109892857D01*
X162105428Y-110178571D01*
X162176857Y-110321428D01*
X162248285Y-110392857D01*
X162391142Y-110464285D01*
X162676857Y-110464285D01*
X162819714Y-110392857D01*
X162891142Y-110321428D01*
X162962571Y-110178571D01*
X162962571Y-109892857D01*
X162891142Y-109750000D01*
X162819714Y-109678571D01*
X162676857Y-109607142D01*
X162391142Y-109607142D01*
X162248285Y-109678571D01*
X162176857Y-109750000D01*
X162105428Y-109892857D01*
X162819714Y-108964285D02*
X162891142Y-108892857D01*
X162962571Y-108964285D01*
X162891142Y-109035714D01*
X162819714Y-108964285D01*
X162962571Y-108964285D01*
X161462571Y-107535714D02*
X161462571Y-108250000D01*
X162176857Y-108321428D01*
X162105428Y-108250000D01*
X162034000Y-108107142D01*
X162034000Y-107750000D01*
X162105428Y-107607142D01*
X162176857Y-107535714D01*
X162319714Y-107464285D01*
X162676857Y-107464285D01*
X162819714Y-107535714D01*
X162891142Y-107607142D01*
X162962571Y-107750000D01*
X162962571Y-108107142D01*
X162891142Y-108250000D01*
X162819714Y-108321428D01*
X161462571Y-106535714D02*
X161462571Y-106392857D01*
X161534000Y-106250000D01*
X161605428Y-106178571D01*
X161748285Y-106107142D01*
X162034000Y-106035714D01*
X162391142Y-106035714D01*
X162676857Y-106107142D01*
X162819714Y-106178571D01*
X162891142Y-106250000D01*
X162962571Y-106392857D01*
X162962571Y-106535714D01*
X162891142Y-106678571D01*
X162819714Y-106750000D01*
X162676857Y-106821428D01*
X162391142Y-106892857D01*
X162034000Y-106892857D01*
X161748285Y-106821428D01*
X161605428Y-106750000D01*
X161534000Y-106678571D01*
X161462571Y-106535714D01*
X161462571Y-105107142D02*
X161462571Y-104964285D01*
X161534000Y-104821428D01*
X161605428Y-104750000D01*
X161748285Y-104678571D01*
X162034000Y-104607142D01*
X162391142Y-104607142D01*
X162676857Y-104678571D01*
X162819714Y-104750000D01*
X162891142Y-104821428D01*
X162962571Y-104964285D01*
X162962571Y-105107142D01*
X162891142Y-105250000D01*
X162819714Y-105321428D01*
X162676857Y-105392857D01*
X162391142Y-105464285D01*
X162034000Y-105464285D01*
X161748285Y-105392857D01*
X161605428Y-105321428D01*
X161534000Y-105250000D01*
X161462571Y-105107142D01*
X161462571Y-103678571D02*
X161462571Y-103535714D01*
X161534000Y-103392857D01*
X161605428Y-103321428D01*
X161748285Y-103250000D01*
X162034000Y-103178571D01*
X162391142Y-103178571D01*
X162676857Y-103250000D01*
X162819714Y-103321428D01*
X162891142Y-103392857D01*
X162962571Y-103535714D01*
X162962571Y-103678571D01*
X162891142Y-103821428D01*
X162819714Y-103892857D01*
X162676857Y-103964285D01*
X162391142Y-104035714D01*
X162034000Y-104035714D01*
X161748285Y-103964285D01*
X161605428Y-103892857D01*
X161534000Y-103821428D01*
X161462571Y-103678571D01*
X162962571Y-101392857D02*
X161962571Y-101392857D01*
X162105428Y-101392857D02*
X162034000Y-101321428D01*
X161962571Y-101178571D01*
X161962571Y-100964285D01*
X162034000Y-100821428D01*
X162176857Y-100750000D01*
X162962571Y-100750000D01*
X162176857Y-100750000D02*
X162034000Y-100678571D01*
X161962571Y-100535714D01*
X161962571Y-100321428D01*
X162034000Y-100178571D01*
X162176857Y-100107142D01*
X162962571Y-100107142D01*
X162962571Y-99392857D02*
X161962571Y-99392857D01*
X162105428Y-99392857D02*
X162034000Y-99321428D01*
X161962571Y-99178571D01*
X161962571Y-98964285D01*
X162034000Y-98821428D01*
X162176857Y-98750000D01*
X162962571Y-98750000D01*
X162176857Y-98750000D02*
X162034000Y-98678571D01*
X161962571Y-98535714D01*
X161962571Y-98321428D01*
X162034000Y-98178571D01*
X162176857Y-98107142D01*
X162962571Y-98107142D01*
D12*
X159000000Y-100000000D02*
X164670420Y-100000000D01*
X159000000Y-108500000D02*
X164670420Y-108500000D01*
X164084000Y-100000000D02*
X164084000Y-108500000D01*
X164084000Y-100000000D02*
X164084000Y-108500000D01*
X164084000Y-100000000D02*
X163497579Y-101126504D01*
X164084000Y-100000000D02*
X164670421Y-101126504D01*
X164084000Y-108500000D02*
X164670421Y-107373496D01*
X164084000Y-108500000D02*
X163497579Y-107373496D01*
D13*
%TO.P,J1,1,Pin_1*%
%TO.N,+1V8*%
X151520000Y-105890000D03*
%TO.P,J1,2,Pin_2*%
%TO.N,/SDO*%
X151520000Y-105390000D03*
%TO.P,J1,3,Pin_3*%
%TO.N,/SDI*%
X151520000Y-104890000D03*
%TO.P,J1,4,Pin_4*%
%TO.N,/SCL*%
X151520000Y-104390000D03*
%TO.P,J1,5,Pin_5*%
%TO.N,/CS*%
X151520000Y-103890000D03*
%TO.P,J1,6,Pin_6*%
%TO.N,GND*%
X151520000Y-103390000D03*
%TO.P,J1,7*%
%TO.N,N/C*%
X151520000Y-102890000D03*
%TO.P,J1,8*%
X151520000Y-102390000D03*
%TD*%
D14*
%TO.N,+1V8*%
X157861000Y-101854000D03*
X157861000Y-105664000D03*
X152273000Y-107569000D03*
%TO.N,GND*%
X157226000Y-106807000D03*
X152908000Y-106426000D03*
X151384000Y-101346000D03*
X155956000Y-100711000D03*
%TO.N,/SDO*%
X154559000Y-106934000D03*
%TO.N,/SDI*%
X154071980Y-101477866D03*
%TO.N,/SCL*%
X153121202Y-101169604D03*
%TO.N,/CS*%
X152146000Y-100584000D03*
%TD*%
D15*
%TO.N,+1V8*%
X157099000Y-108077000D02*
X158115000Y-107061000D01*
D16*
X152273000Y-107569000D02*
X151820000Y-107116000D01*
X151820000Y-107116000D02*
X151820000Y-105890000D01*
D15*
X158115000Y-105918000D02*
X157861000Y-105664000D01*
X152273000Y-107569000D02*
X152781000Y-108077000D01*
X158115000Y-107061000D02*
X158115000Y-105918000D01*
X152781000Y-108077000D02*
X157099000Y-108077000D01*
%TO.N,/SDO*%
X151520000Y-105390000D02*
X153015000Y-105390000D01*
X153015000Y-105390000D02*
X154559000Y-106934000D01*
D16*
%TO.N,/SDI*%
X153301000Y-104890000D02*
X151820000Y-104890000D01*
X153680040Y-104510960D02*
X153301000Y-104890000D01*
X153680040Y-101869806D02*
X153680040Y-104510960D01*
X154071980Y-101477866D02*
X153680040Y-101869806D01*
%TO.N,/SCL*%
X153039000Y-104390000D02*
X151820000Y-104390000D01*
X153230520Y-101278922D02*
X153230520Y-104198480D01*
X153230520Y-104198480D02*
X153039000Y-104390000D01*
X153121202Y-101169604D02*
X153230520Y-101278922D01*
%TO.N,/CS*%
X152781000Y-103728022D02*
X152619022Y-103890000D01*
X152146000Y-101219000D02*
X152781000Y-101854000D01*
X152146000Y-100584000D02*
X152146000Y-101219000D01*
X152619022Y-103890000D02*
X151820000Y-103890000D01*
X152781000Y-101854000D02*
X152781000Y-103728022D01*
%TD*%
%TA.AperFunction,Conductor*%
%TO.N,GND*%
G36*
X151565108Y-100218907D02*
G01*
X151601072Y-100268407D01*
X151601072Y-100329593D01*
X151598381Y-100336886D01*
X151560956Y-100427238D01*
X151540318Y-100584000D01*
X151560956Y-100740762D01*
X151621464Y-100886841D01*
X151717718Y-101012282D01*
X151760045Y-101044760D01*
X151781767Y-101061428D01*
X151816423Y-101111852D01*
X151820500Y-101139970D01*
X151820500Y-101200466D01*
X151820123Y-101209095D01*
X151816736Y-101247807D01*
X151818978Y-101256174D01*
X151826796Y-101285349D01*
X151828666Y-101293784D01*
X151832426Y-101315107D01*
X151835412Y-101332045D01*
X151839742Y-101339544D01*
X151841738Y-101345029D01*
X151844204Y-101350316D01*
X151846446Y-101358684D01*
X151867013Y-101388056D01*
X151868732Y-101390511D01*
X151873371Y-101397792D01*
X151892806Y-101431455D01*
X151922571Y-101456431D01*
X151928939Y-101462265D01*
X152337170Y-101870496D01*
X152364947Y-101925013D01*
X152355376Y-101985445D01*
X152312111Y-102028710D01*
X152267166Y-102039500D01*
X150700252Y-102039500D01*
X150674005Y-102044721D01*
X150651334Y-102049230D01*
X150651332Y-102049231D01*
X150641769Y-102051133D01*
X150575448Y-102095448D01*
X150531133Y-102161769D01*
X150519500Y-102220252D01*
X150519500Y-102559748D01*
X150520448Y-102564512D01*
X150531133Y-102618231D01*
X150527836Y-102618887D01*
X150531203Y-102661664D01*
X150531133Y-102661769D01*
X150519500Y-102720252D01*
X150519500Y-103059748D01*
X150531133Y-103118231D01*
X150575448Y-103184552D01*
X150641769Y-103228867D01*
X150651332Y-103230769D01*
X150651334Y-103230770D01*
X150674005Y-103235279D01*
X150700252Y-103240500D01*
X152339748Y-103240500D01*
X152344516Y-103239552D01*
X152346796Y-103239327D01*
X152406560Y-103252439D01*
X152447202Y-103298175D01*
X152455500Y-103337850D01*
X152455500Y-103442150D01*
X152436593Y-103500341D01*
X152387093Y-103536305D01*
X152346796Y-103540673D01*
X152344516Y-103540448D01*
X152339748Y-103539500D01*
X150700252Y-103539500D01*
X150674005Y-103544721D01*
X150651334Y-103549230D01*
X150651332Y-103549231D01*
X150641769Y-103551133D01*
X150575448Y-103595448D01*
X150531133Y-103661769D01*
X150519500Y-103720252D01*
X150519500Y-104059748D01*
X150520448Y-104064512D01*
X150531133Y-104118231D01*
X150527836Y-104118887D01*
X150531203Y-104161664D01*
X150531133Y-104161769D01*
X150519500Y-104220252D01*
X150519500Y-104559748D01*
X150520448Y-104564512D01*
X150531133Y-104618231D01*
X150527836Y-104618887D01*
X150531203Y-104661664D01*
X150531133Y-104661769D01*
X150519500Y-104720252D01*
X150519500Y-105059748D01*
X150523321Y-105078956D01*
X150531133Y-105118231D01*
X150527836Y-105118887D01*
X150531203Y-105161664D01*
X150531133Y-105161769D01*
X150519500Y-105220252D01*
X150519500Y-105559748D01*
X150520448Y-105564512D01*
X150531133Y-105618231D01*
X150527836Y-105618887D01*
X150531203Y-105661664D01*
X150531133Y-105661769D01*
X150519500Y-105720252D01*
X150519500Y-106059748D01*
X150531133Y-106118231D01*
X150575448Y-106184552D01*
X150641769Y-106228867D01*
X150651332Y-106230769D01*
X150651334Y-106230770D01*
X150674005Y-106235279D01*
X150700252Y-106240500D01*
X151395500Y-106240500D01*
X151453691Y-106259407D01*
X151489655Y-106308907D01*
X151494500Y-106339500D01*
X151494500Y-107097466D01*
X151494123Y-107106095D01*
X151490736Y-107144807D01*
X151492978Y-107153174D01*
X151500796Y-107182349D01*
X151502666Y-107190783D01*
X151509412Y-107229045D01*
X151513742Y-107236544D01*
X151515738Y-107242029D01*
X151518204Y-107247316D01*
X151520446Y-107255684D01*
X151531979Y-107272154D01*
X151542732Y-107287511D01*
X151547371Y-107294792D01*
X151566806Y-107328455D01*
X151596571Y-107353431D01*
X151602939Y-107359265D01*
X151649707Y-107406033D01*
X151677484Y-107460550D01*
X151677856Y-107488955D01*
X151667318Y-107569000D01*
X151687956Y-107725762D01*
X151748464Y-107871841D01*
X151844718Y-107997282D01*
X151970159Y-108093536D01*
X151995505Y-108104035D01*
X152008786Y-108109536D01*
X152055312Y-108149273D01*
X152069595Y-108208768D01*
X152046180Y-108265296D01*
X151994011Y-108297265D01*
X151970900Y-108300000D01*
X150299000Y-108300000D01*
X150240809Y-108281093D01*
X150204845Y-108231593D01*
X150200000Y-108201000D01*
X150200000Y-100299000D01*
X150218907Y-100240809D01*
X150268407Y-100204845D01*
X150299000Y-100200000D01*
X151506917Y-100200000D01*
X151565108Y-100218907D01*
G37*
%TD.AperFunction*%
%TA.AperFunction,Conductor*%
G36*
X158259191Y-100218907D02*
G01*
X158295155Y-100268407D01*
X158300000Y-100299000D01*
X158300000Y-101237699D01*
X158281093Y-101295890D01*
X158231593Y-101331854D01*
X158170407Y-101331854D01*
X158163114Y-101329163D01*
X158157847Y-101326981D01*
X158017762Y-101268956D01*
X157861000Y-101248318D01*
X157704238Y-101268956D01*
X157558159Y-101329464D01*
X157432718Y-101425718D01*
X157336464Y-101551159D01*
X157275956Y-101697238D01*
X157255318Y-101854000D01*
X157275956Y-102010762D01*
X157336464Y-102156841D01*
X157432718Y-102282282D01*
X157558159Y-102378536D01*
X157704238Y-102439044D01*
X157861000Y-102459682D01*
X158017762Y-102439044D01*
X158163114Y-102378837D01*
X158224111Y-102374036D01*
X158276280Y-102406006D01*
X158299695Y-102462533D01*
X158300000Y-102470301D01*
X158300000Y-105047699D01*
X158281093Y-105105890D01*
X158231593Y-105141854D01*
X158170407Y-105141854D01*
X158163114Y-105139163D01*
X158157847Y-105136981D01*
X158017762Y-105078956D01*
X157861000Y-105058318D01*
X157704238Y-105078956D01*
X157558159Y-105139464D01*
X157432718Y-105235718D01*
X157336464Y-105361159D01*
X157275956Y-105507238D01*
X157255318Y-105664000D01*
X157275956Y-105820762D01*
X157336464Y-105966841D01*
X157432718Y-106092282D01*
X157558159Y-106188536D01*
X157704238Y-106249044D01*
X157724805Y-106251752D01*
X157728423Y-106252228D01*
X157783647Y-106278569D01*
X157812842Y-106332340D01*
X157814500Y-106350381D01*
X157814500Y-106895521D01*
X157795593Y-106953712D01*
X157785504Y-106965525D01*
X157003525Y-107747504D01*
X156949008Y-107775281D01*
X156933521Y-107776500D01*
X152964252Y-107776500D01*
X152906061Y-107757593D01*
X152870097Y-107708093D01*
X152866099Y-107664578D01*
X152877835Y-107575434D01*
X152878682Y-107569000D01*
X152858044Y-107412238D01*
X152797536Y-107266159D01*
X152701282Y-107140718D01*
X152575841Y-107044464D01*
X152429762Y-106983956D01*
X152273000Y-106963318D01*
X152257422Y-106965369D01*
X152197262Y-106954219D01*
X152155144Y-106909837D01*
X152145500Y-106867216D01*
X152145500Y-106339500D01*
X152164407Y-106281309D01*
X152213907Y-106245345D01*
X152244500Y-106240500D01*
X152339748Y-106240500D01*
X152365995Y-106235279D01*
X152388666Y-106230770D01*
X152388668Y-106230769D01*
X152398231Y-106228867D01*
X152464552Y-106184552D01*
X152508867Y-106118231D01*
X152520500Y-106059748D01*
X152520500Y-105789500D01*
X152539407Y-105731309D01*
X152588907Y-105695345D01*
X152619500Y-105690500D01*
X152849521Y-105690500D01*
X152907712Y-105709407D01*
X152919525Y-105719496D01*
X153939820Y-106739791D01*
X153967597Y-106794308D01*
X153967969Y-106822714D01*
X153953318Y-106934000D01*
X153973956Y-107090762D01*
X154034464Y-107236841D01*
X154130718Y-107362282D01*
X154256159Y-107458536D01*
X154402238Y-107519044D01*
X154559000Y-107539682D01*
X154715762Y-107519044D01*
X154861841Y-107458536D01*
X154987282Y-107362282D01*
X155083536Y-107236841D01*
X155144044Y-107090762D01*
X155164682Y-106934000D01*
X155144044Y-106777238D01*
X155083536Y-106631159D01*
X154987282Y-106505718D01*
X154861841Y-106409464D01*
X154715762Y-106348956D01*
X154559000Y-106328318D01*
X154447716Y-106342969D01*
X154387557Y-106331819D01*
X154364791Y-106314820D01*
X153402340Y-105352369D01*
X153374563Y-105297852D01*
X153384134Y-105237420D01*
X153430505Y-105192641D01*
X153432318Y-105191796D01*
X153440684Y-105189554D01*
X153447776Y-105184588D01*
X153447778Y-105184587D01*
X153472511Y-105167268D01*
X153479795Y-105162627D01*
X153481281Y-105161769D01*
X153513455Y-105143194D01*
X153538431Y-105113429D01*
X153544265Y-105107061D01*
X153897097Y-104754229D01*
X153903465Y-104748394D01*
X153933234Y-104723415D01*
X153952669Y-104689752D01*
X153957308Y-104682471D01*
X153970866Y-104663108D01*
X153979594Y-104650644D01*
X153981836Y-104642277D01*
X153984299Y-104636996D01*
X153986297Y-104631506D01*
X153990628Y-104624005D01*
X153997376Y-104585738D01*
X153999245Y-104577309D01*
X154007063Y-104548130D01*
X154009304Y-104539766D01*
X154005917Y-104501050D01*
X154005540Y-104492422D01*
X154005540Y-102179116D01*
X154024447Y-102120925D01*
X154073947Y-102084961D01*
X154091618Y-102080963D01*
X154163325Y-102071522D01*
X154228742Y-102062910D01*
X154374821Y-102002402D01*
X154500262Y-101906148D01*
X154596516Y-101780707D01*
X154657024Y-101634628D01*
X154677662Y-101477866D01*
X154657024Y-101321104D01*
X154596516Y-101175025D01*
X154500262Y-101049584D01*
X154374821Y-100953330D01*
X154228742Y-100892822D01*
X154071980Y-100872184D01*
X153915218Y-100892822D01*
X153785879Y-100946396D01*
X153724883Y-100951197D01*
X153672714Y-100919228D01*
X153656530Y-100892817D01*
X153648222Y-100872760D01*
X153645738Y-100866763D01*
X153549484Y-100741322D01*
X153424043Y-100645068D01*
X153277964Y-100584560D01*
X153121202Y-100563922D01*
X152964440Y-100584560D01*
X152958442Y-100587044D01*
X152958440Y-100587045D01*
X152881952Y-100618727D01*
X152820956Y-100623528D01*
X152768787Y-100591558D01*
X152745914Y-100540185D01*
X152731891Y-100433674D01*
X152731044Y-100427238D01*
X152693619Y-100336886D01*
X152688818Y-100275889D01*
X152720788Y-100223720D01*
X152777316Y-100200305D01*
X152785083Y-100200000D01*
X158201000Y-100200000D01*
X158259191Y-100218907D01*
G37*
%TD.AperFunction*%
%TD*%
M02*
