%TF.GenerationSoftware,KiCad,Pcbnew,(6.0.2)*%
%TF.CreationDate,2022-10-19T14:49:45+05:30*%
%TF.ProjectId,header1,68656164-6572-4312-9e6b-696361645f70,rev?*%
%TF.SameCoordinates,Original*%
%TF.FileFunction,Legend,Top*%
%TF.FilePolarity,Positive*%
%FSLAX46Y46*%
G04 Gerber Fmt 4.6, Leading zero omitted, Abs format (unit mm)*
G04 Created by KiCad (PCBNEW (6.0.2)) date 2022-10-19 14:49:45*
%MOMM*%
%LPD*%
G01*
G04 APERTURE LIST*
%ADD10C,0.150000*%
%ADD11C,0.120000*%
G04 APERTURE END LIST*
D10*
X107394523Y-73461571D02*
X107727857Y-73461571D01*
X107870714Y-73985380D02*
X107394523Y-73985380D01*
X107394523Y-72985380D01*
X107870714Y-72985380D01*
X108251666Y-73937761D02*
X108394523Y-73985380D01*
X108632619Y-73985380D01*
X108727857Y-73937761D01*
X108775476Y-73890142D01*
X108823095Y-73794904D01*
X108823095Y-73699666D01*
X108775476Y-73604428D01*
X108727857Y-73556809D01*
X108632619Y-73509190D01*
X108442142Y-73461571D01*
X108346904Y-73413952D01*
X108299285Y-73366333D01*
X108251666Y-73271095D01*
X108251666Y-73175857D01*
X108299285Y-73080619D01*
X108346904Y-73033000D01*
X108442142Y-72985380D01*
X108680238Y-72985380D01*
X108823095Y-73033000D01*
X109823095Y-73890142D02*
X109775476Y-73937761D01*
X109632619Y-73985380D01*
X109537380Y-73985380D01*
X109394523Y-73937761D01*
X109299285Y-73842523D01*
X109251666Y-73747285D01*
X109204047Y-73556809D01*
X109204047Y-73413952D01*
X109251666Y-73223476D01*
X109299285Y-73128238D01*
X109394523Y-73033000D01*
X109537380Y-72985380D01*
X109632619Y-72985380D01*
X109775476Y-73033000D01*
X109823095Y-73080619D01*
X107473904Y-57840571D02*
X107807238Y-57840571D01*
X107950095Y-58364380D02*
X107473904Y-58364380D01*
X107473904Y-57364380D01*
X107950095Y-57364380D01*
X108950095Y-58269142D02*
X108902476Y-58316761D01*
X108759619Y-58364380D01*
X108664380Y-58364380D01*
X108521523Y-58316761D01*
X108426285Y-58221523D01*
X108378666Y-58126285D01*
X108331047Y-57935809D01*
X108331047Y-57792952D01*
X108378666Y-57602476D01*
X108426285Y-57507238D01*
X108521523Y-57412000D01*
X108664380Y-57364380D01*
X108759619Y-57364380D01*
X108902476Y-57412000D01*
X108950095Y-57459619D01*
X109569142Y-57364380D02*
X109759619Y-57364380D01*
X109854857Y-57412000D01*
X109950095Y-57507238D01*
X109997714Y-57697714D01*
X109997714Y-58031047D01*
X109950095Y-58221523D01*
X109854857Y-58316761D01*
X109759619Y-58364380D01*
X109569142Y-58364380D01*
X109473904Y-58316761D01*
X109378666Y-58221523D01*
X109331047Y-58031047D01*
X109331047Y-57697714D01*
X109378666Y-57507238D01*
X109473904Y-57412000D01*
X109569142Y-57364380D01*
X132397523Y-96861380D02*
X131921333Y-96861380D01*
X131873714Y-97337571D01*
X131921333Y-97289952D01*
X132016571Y-97242333D01*
X132254666Y-97242333D01*
X132349904Y-97289952D01*
X132397523Y-97337571D01*
X132445142Y-97432809D01*
X132445142Y-97670904D01*
X132397523Y-97766142D01*
X132349904Y-97813761D01*
X132254666Y-97861380D01*
X132016571Y-97861380D01*
X131921333Y-97813761D01*
X131873714Y-97766142D01*
X132730857Y-96861380D02*
X133064190Y-97861380D01*
X133397523Y-96861380D01*
X130683095Y-52078000D02*
X130587857Y-52030380D01*
X130445000Y-52030380D01*
X130302142Y-52078000D01*
X130206904Y-52173238D01*
X130159285Y-52268476D01*
X130111666Y-52458952D01*
X130111666Y-52601809D01*
X130159285Y-52792285D01*
X130206904Y-52887523D01*
X130302142Y-52982761D01*
X130445000Y-53030380D01*
X130540238Y-53030380D01*
X130683095Y-52982761D01*
X130730714Y-52935142D01*
X130730714Y-52601809D01*
X130540238Y-52601809D01*
X131159285Y-53030380D02*
X131159285Y-52030380D01*
X131730714Y-53030380D01*
X131730714Y-52030380D01*
X132206904Y-53030380D02*
X132206904Y-52030380D01*
X132445000Y-52030380D01*
X132587857Y-52078000D01*
X132683095Y-52173238D01*
X132730714Y-52268476D01*
X132778333Y-52458952D01*
X132778333Y-52601809D01*
X132730714Y-52792285D01*
X132683095Y-52887523D01*
X132587857Y-52982761D01*
X132445000Y-53030380D01*
X132206904Y-53030380D01*
X127952523Y-52030380D02*
X127476333Y-52030380D01*
X127428714Y-52506571D01*
X127476333Y-52458952D01*
X127571571Y-52411333D01*
X127809666Y-52411333D01*
X127904904Y-52458952D01*
X127952523Y-52506571D01*
X128000142Y-52601809D01*
X128000142Y-52839904D01*
X127952523Y-52935142D01*
X127904904Y-52982761D01*
X127809666Y-53030380D01*
X127571571Y-53030380D01*
X127476333Y-52982761D01*
X127428714Y-52935142D01*
X128285857Y-52030380D02*
X128619190Y-53030380D01*
X128952523Y-52030380D01*
X110942428Y-71175571D02*
X111085285Y-71223190D01*
X111132904Y-71270809D01*
X111180523Y-71366047D01*
X111180523Y-71508904D01*
X111132904Y-71604142D01*
X111085285Y-71651761D01*
X110990047Y-71699380D01*
X110609095Y-71699380D01*
X110609095Y-70699380D01*
X110942428Y-70699380D01*
X111037666Y-70747000D01*
X111085285Y-70794619D01*
X111132904Y-70889857D01*
X111132904Y-70985095D01*
X111085285Y-71080333D01*
X111037666Y-71127952D01*
X110942428Y-71175571D01*
X110609095Y-71175571D01*
X106807333Y-52363666D02*
X107283523Y-52363666D01*
X106712095Y-52649380D02*
X107045428Y-51649380D01*
X107378761Y-52649380D01*
X107712095Y-52649380D02*
X107712095Y-51649380D01*
X108093047Y-51649380D01*
X108188285Y-51697000D01*
X108235904Y-51744619D01*
X108283523Y-51839857D01*
X108283523Y-51982714D01*
X108235904Y-52077952D01*
X108188285Y-52125571D01*
X108093047Y-52173190D01*
X107712095Y-52173190D01*
X108902571Y-51649380D02*
X109093047Y-51649380D01*
X109188285Y-51697000D01*
X109283523Y-51792238D01*
X109331142Y-51982714D01*
X109331142Y-52316047D01*
X109283523Y-52506523D01*
X109188285Y-52601761D01*
X109093047Y-52649380D01*
X108902571Y-52649380D01*
X108807333Y-52601761D01*
X108712095Y-52506523D01*
X108664476Y-52316047D01*
X108664476Y-51982714D01*
X108712095Y-51792238D01*
X108807333Y-51697000D01*
X108902571Y-51649380D01*
X110283523Y-51697000D02*
X110188285Y-51649380D01*
X110045428Y-51649380D01*
X109902571Y-51697000D01*
X109807333Y-51792238D01*
X109759714Y-51887476D01*
X109712095Y-52077952D01*
X109712095Y-52220809D01*
X109759714Y-52411285D01*
X109807333Y-52506523D01*
X109902571Y-52601761D01*
X110045428Y-52649380D01*
X110140666Y-52649380D01*
X110283523Y-52601761D01*
X110331142Y-52554142D01*
X110331142Y-52220809D01*
X110140666Y-52220809D01*
X110759714Y-52125571D02*
X111093047Y-52125571D01*
X111235904Y-52649380D02*
X110759714Y-52649380D01*
X110759714Y-51649380D01*
X111235904Y-51649380D01*
X111664476Y-52125571D02*
X111997809Y-52125571D01*
X112140666Y-52649380D02*
X111664476Y-52649380D01*
X111664476Y-51649380D01*
X112140666Y-51649380D01*
X102044523Y-64349380D02*
X101568333Y-64349380D01*
X101520714Y-64825571D01*
X101568333Y-64777952D01*
X101663571Y-64730333D01*
X101901666Y-64730333D01*
X101996904Y-64777952D01*
X102044523Y-64825571D01*
X102092142Y-64920809D01*
X102092142Y-65158904D01*
X102044523Y-65254142D01*
X101996904Y-65301761D01*
X101901666Y-65349380D01*
X101663571Y-65349380D01*
X101568333Y-65301761D01*
X101520714Y-65254142D01*
X102377857Y-64349380D02*
X102711190Y-65349380D01*
X103044523Y-64349380D01*
X123571095Y-96655000D02*
X123475857Y-96607380D01*
X123333000Y-96607380D01*
X123190142Y-96655000D01*
X123094904Y-96750238D01*
X123047285Y-96845476D01*
X122999666Y-97035952D01*
X122999666Y-97178809D01*
X123047285Y-97369285D01*
X123094904Y-97464523D01*
X123190142Y-97559761D01*
X123333000Y-97607380D01*
X123428238Y-97607380D01*
X123571095Y-97559761D01*
X123618714Y-97512142D01*
X123618714Y-97178809D01*
X123428238Y-97178809D01*
X124047285Y-97607380D02*
X124047285Y-96607380D01*
X124618714Y-97607380D01*
X124618714Y-96607380D01*
X125094904Y-97607380D02*
X125094904Y-96607380D01*
X125333000Y-96607380D01*
X125475857Y-96655000D01*
X125571095Y-96750238D01*
X125618714Y-96845476D01*
X125666333Y-97035952D01*
X125666333Y-97178809D01*
X125618714Y-97369285D01*
X125571095Y-97464523D01*
X125475857Y-97559761D01*
X125333000Y-97607380D01*
X125094904Y-97607380D01*
X105846523Y-71699380D02*
X105513190Y-71223190D01*
X105275095Y-71699380D02*
X105275095Y-70699380D01*
X105656047Y-70699380D01*
X105751285Y-70747000D01*
X105798904Y-70794619D01*
X105846523Y-70889857D01*
X105846523Y-71032714D01*
X105798904Y-71127952D01*
X105751285Y-71175571D01*
X105656047Y-71223190D01*
X105275095Y-71223190D01*
X111125095Y-57412000D02*
X111029857Y-57364380D01*
X110887000Y-57364380D01*
X110744142Y-57412000D01*
X110648904Y-57507238D01*
X110601285Y-57602476D01*
X110553666Y-57792952D01*
X110553666Y-57935809D01*
X110601285Y-58126285D01*
X110648904Y-58221523D01*
X110744142Y-58316761D01*
X110887000Y-58364380D01*
X110982238Y-58364380D01*
X111125095Y-58316761D01*
X111172714Y-58269142D01*
X111172714Y-57935809D01*
X110982238Y-57935809D01*
X111601285Y-58364380D02*
X111601285Y-57364380D01*
X112172714Y-58364380D01*
X112172714Y-57364380D01*
X112648904Y-58364380D02*
X112648904Y-57364380D01*
X112887000Y-57364380D01*
X113029857Y-57412000D01*
X113125095Y-57507238D01*
X113172714Y-57602476D01*
X113220333Y-57792952D01*
X113220333Y-57935809D01*
X113172714Y-58126285D01*
X113125095Y-58221523D01*
X113029857Y-58316761D01*
X112887000Y-58364380D01*
X112648904Y-58364380D01*
X127881142Y-99163142D02*
X127833523Y-99210761D01*
X127690666Y-99258380D01*
X127595428Y-99258380D01*
X127452571Y-99210761D01*
X127357333Y-99115523D01*
X127309714Y-99020285D01*
X127262095Y-98829809D01*
X127262095Y-98686952D01*
X127309714Y-98496476D01*
X127357333Y-98401238D01*
X127452571Y-98306000D01*
X127595428Y-98258380D01*
X127690666Y-98258380D01*
X127833523Y-98306000D01*
X127881142Y-98353619D01*
X128262095Y-98972666D02*
X128738285Y-98972666D01*
X128166857Y-99258380D02*
X128500190Y-98258380D01*
X128833523Y-99258380D01*
X129166857Y-99258380D02*
X129166857Y-98258380D01*
X129738285Y-99258380D01*
X129738285Y-98258380D01*
X103886190Y-57364380D02*
X104457619Y-57364380D01*
X104171904Y-58364380D02*
X104171904Y-57364380D01*
X105362380Y-58364380D02*
X105029047Y-57888190D01*
X104790952Y-58364380D02*
X104790952Y-57364380D01*
X105171904Y-57364380D01*
X105267142Y-57412000D01*
X105314761Y-57459619D01*
X105362380Y-57554857D01*
X105362380Y-57697714D01*
X105314761Y-57792952D01*
X105267142Y-57840571D01*
X105171904Y-57888190D01*
X104790952Y-57888190D01*
X105790952Y-58364380D02*
X105790952Y-57364380D01*
X106790952Y-57412000D02*
X106695714Y-57364380D01*
X106552857Y-57364380D01*
X106410000Y-57412000D01*
X106314761Y-57507238D01*
X106267142Y-57602476D01*
X106219523Y-57792952D01*
X106219523Y-57935809D01*
X106267142Y-58126285D01*
X106314761Y-58221523D01*
X106410000Y-58316761D01*
X106552857Y-58364380D01*
X106648095Y-58364380D01*
X106790952Y-58316761D01*
X106838571Y-58269142D01*
X106838571Y-57935809D01*
X106648095Y-57935809D01*
X104521095Y-64397000D02*
X104425857Y-64349380D01*
X104283000Y-64349380D01*
X104140142Y-64397000D01*
X104044904Y-64492238D01*
X103997285Y-64587476D01*
X103949666Y-64777952D01*
X103949666Y-64920809D01*
X103997285Y-65111285D01*
X104044904Y-65206523D01*
X104140142Y-65301761D01*
X104283000Y-65349380D01*
X104378238Y-65349380D01*
X104521095Y-65301761D01*
X104568714Y-65254142D01*
X104568714Y-64920809D01*
X104378238Y-64920809D01*
X104997285Y-65349380D02*
X104997285Y-64349380D01*
X105568714Y-65349380D01*
X105568714Y-64349380D01*
X106044904Y-65349380D02*
X106044904Y-64349380D01*
X106283000Y-64349380D01*
X106425857Y-64397000D01*
X106521095Y-64492238D01*
X106568714Y-64587476D01*
X106616333Y-64777952D01*
X106616333Y-64920809D01*
X106568714Y-65111285D01*
X106521095Y-65206523D01*
X106425857Y-65301761D01*
X106283000Y-65349380D01*
X106044904Y-65349380D01*
X126246047Y-66746380D02*
X126246047Y-65746380D01*
X126484142Y-65746380D01*
X126627000Y-65794000D01*
X126722238Y-65889238D01*
X126769857Y-65984476D01*
X126817476Y-66174952D01*
X126817476Y-66317809D01*
X126769857Y-66508285D01*
X126722238Y-66603523D01*
X126627000Y-66698761D01*
X126484142Y-66746380D01*
X126246047Y-66746380D01*
X127246047Y-66365428D02*
X128007952Y-66365428D01*
X127627000Y-66746380D02*
X127627000Y-65984476D01*
X101727095Y-73033000D02*
X101631857Y-72985380D01*
X101489000Y-72985380D01*
X101346142Y-73033000D01*
X101250904Y-73128238D01*
X101203285Y-73223476D01*
X101155666Y-73413952D01*
X101155666Y-73556809D01*
X101203285Y-73747285D01*
X101250904Y-73842523D01*
X101346142Y-73937761D01*
X101489000Y-73985380D01*
X101584238Y-73985380D01*
X101727095Y-73937761D01*
X101774714Y-73890142D01*
X101774714Y-73556809D01*
X101584238Y-73556809D01*
X102203285Y-73985380D02*
X102203285Y-72985380D01*
X102774714Y-73985380D01*
X102774714Y-72985380D01*
X103250904Y-73985380D02*
X103250904Y-72985380D01*
X103489000Y-72985380D01*
X103631857Y-73033000D01*
X103727095Y-73128238D01*
X103774714Y-73223476D01*
X103822333Y-73413952D01*
X103822333Y-73556809D01*
X103774714Y-73747285D01*
X103727095Y-73842523D01*
X103631857Y-73937761D01*
X103489000Y-73985380D01*
X103250904Y-73985380D01*
X110291714Y-65301761D02*
X110434571Y-65349380D01*
X110672666Y-65349380D01*
X110767904Y-65301761D01*
X110815523Y-65254142D01*
X110863142Y-65158904D01*
X110863142Y-65063666D01*
X110815523Y-64968428D01*
X110767904Y-64920809D01*
X110672666Y-64873190D01*
X110482190Y-64825571D01*
X110386952Y-64777952D01*
X110339333Y-64730333D01*
X110291714Y-64635095D01*
X110291714Y-64539857D01*
X110339333Y-64444619D01*
X110386952Y-64397000D01*
X110482190Y-64349380D01*
X110720285Y-64349380D01*
X110863142Y-64397000D01*
X111291714Y-65349380D02*
X111291714Y-64349380D01*
X111529809Y-64349380D01*
X111672666Y-64397000D01*
X111767904Y-64492238D01*
X111815523Y-64587476D01*
X111863142Y-64777952D01*
X111863142Y-64920809D01*
X111815523Y-65111285D01*
X111767904Y-65206523D01*
X111672666Y-65301761D01*
X111529809Y-65349380D01*
X111291714Y-65349380D01*
X112244095Y-65063666D02*
X112720285Y-65063666D01*
X112148857Y-65349380D02*
X112482190Y-64349380D01*
X112815523Y-65349380D01*
X132016523Y-65746380D02*
X131540333Y-65746380D01*
X131492714Y-66222571D01*
X131540333Y-66174952D01*
X131635571Y-66127333D01*
X131873666Y-66127333D01*
X131968904Y-66174952D01*
X132016523Y-66222571D01*
X132064142Y-66317809D01*
X132064142Y-66555904D01*
X132016523Y-66651142D01*
X131968904Y-66698761D01*
X131873666Y-66746380D01*
X131635571Y-66746380D01*
X131540333Y-66698761D01*
X131492714Y-66651142D01*
X132349857Y-65746380D02*
X132683190Y-66746380D01*
X133016523Y-65746380D01*
X129754333Y-97607380D02*
X129421000Y-97131190D01*
X129182904Y-97607380D02*
X129182904Y-96607380D01*
X129563857Y-96607380D01*
X129659095Y-96655000D01*
X129706714Y-96702619D01*
X129754333Y-96797857D01*
X129754333Y-96940714D01*
X129706714Y-97035952D01*
X129659095Y-97083571D01*
X129563857Y-97131190D01*
X129182904Y-97131190D01*
X130087666Y-96607380D02*
X130754333Y-97607380D01*
X130754333Y-96607380D02*
X130087666Y-97607380D01*
X124864904Y-52506571D02*
X125007761Y-52554190D01*
X125055380Y-52601809D01*
X125103000Y-52697047D01*
X125103000Y-52839904D01*
X125055380Y-52935142D01*
X125007761Y-52982761D01*
X124912523Y-53030380D01*
X124531571Y-53030380D01*
X124531571Y-52030380D01*
X124864904Y-52030380D01*
X124960142Y-52078000D01*
X125007761Y-52125619D01*
X125055380Y-52220857D01*
X125055380Y-52316095D01*
X125007761Y-52411333D01*
X124960142Y-52458952D01*
X124864904Y-52506571D01*
X124531571Y-52506571D01*
X125483952Y-52744666D02*
X125960142Y-52744666D01*
X125388714Y-53030380D02*
X125722047Y-52030380D01*
X126055380Y-53030380D01*
X126245857Y-52030380D02*
X126817285Y-52030380D01*
X126531571Y-53030380D02*
X126531571Y-52030380D01*
X108338904Y-70747000D02*
X108243666Y-70699380D01*
X108100809Y-70699380D01*
X107957952Y-70747000D01*
X107862714Y-70842238D01*
X107815095Y-70937476D01*
X107767476Y-71127952D01*
X107767476Y-71270809D01*
X107815095Y-71461285D01*
X107862714Y-71556523D01*
X107957952Y-71651761D01*
X108100809Y-71699380D01*
X108196047Y-71699380D01*
X108338904Y-71651761D01*
X108386523Y-71604142D01*
X108386523Y-71270809D01*
X108196047Y-71270809D01*
X126619095Y-96607380D02*
X127190523Y-96607380D01*
X126904809Y-97607380D02*
X126904809Y-96607380D01*
X127428619Y-96607380D02*
X128095285Y-97607380D01*
X128095285Y-96607380D02*
X127428619Y-97607380D01*
X102806523Y-70826380D02*
X102330333Y-70826380D01*
X102282714Y-71302571D01*
X102330333Y-71254952D01*
X102425571Y-71207333D01*
X102663666Y-71207333D01*
X102758904Y-71254952D01*
X102806523Y-71302571D01*
X102854142Y-71397809D01*
X102854142Y-71635904D01*
X102806523Y-71731142D01*
X102758904Y-71778761D01*
X102663666Y-71826380D01*
X102425571Y-71826380D01*
X102330333Y-71778761D01*
X102282714Y-71731142D01*
X103139857Y-70826380D02*
X103473190Y-71826380D01*
X103806523Y-70826380D01*
X119380333Y-99226666D02*
X119856523Y-99226666D01*
X119285095Y-99512380D02*
X119618428Y-98512380D01*
X119951761Y-99512380D01*
X120285095Y-99512380D02*
X120285095Y-98512380D01*
X120666047Y-98512380D01*
X120761285Y-98560000D01*
X120808904Y-98607619D01*
X120856523Y-98702857D01*
X120856523Y-98845714D01*
X120808904Y-98940952D01*
X120761285Y-98988571D01*
X120666047Y-99036190D01*
X120285095Y-99036190D01*
X121475571Y-98512380D02*
X121666047Y-98512380D01*
X121761285Y-98560000D01*
X121856523Y-98655238D01*
X121904142Y-98845714D01*
X121904142Y-99179047D01*
X121856523Y-99369523D01*
X121761285Y-99464761D01*
X121666047Y-99512380D01*
X121475571Y-99512380D01*
X121380333Y-99464761D01*
X121285095Y-99369523D01*
X121237476Y-99179047D01*
X121237476Y-98845714D01*
X121285095Y-98655238D01*
X121380333Y-98560000D01*
X121475571Y-98512380D01*
X122856523Y-98560000D02*
X122761285Y-98512380D01*
X122618428Y-98512380D01*
X122475571Y-98560000D01*
X122380333Y-98655238D01*
X122332714Y-98750476D01*
X122285095Y-98940952D01*
X122285095Y-99083809D01*
X122332714Y-99274285D01*
X122380333Y-99369523D01*
X122475571Y-99464761D01*
X122618428Y-99512380D01*
X122713666Y-99512380D01*
X122856523Y-99464761D01*
X122904142Y-99417142D01*
X122904142Y-99083809D01*
X122713666Y-99083809D01*
X123332714Y-98988571D02*
X123666047Y-98988571D01*
X123808904Y-99512380D02*
X123332714Y-99512380D01*
X123332714Y-98512380D01*
X123808904Y-98512380D01*
X124237476Y-98988571D02*
X124570809Y-98988571D01*
X124713666Y-99512380D02*
X124237476Y-99512380D01*
X124237476Y-98512380D01*
X124713666Y-98512380D01*
X105330666Y-72985380D02*
X105997333Y-73985380D01*
X105997333Y-72985380D02*
X105330666Y-73985380D01*
X107267523Y-65301761D02*
X107410380Y-65349380D01*
X107648476Y-65349380D01*
X107743714Y-65301761D01*
X107791333Y-65254142D01*
X107838952Y-65158904D01*
X107838952Y-65063666D01*
X107791333Y-64968428D01*
X107743714Y-64920809D01*
X107648476Y-64873190D01*
X107458000Y-64825571D01*
X107362761Y-64777952D01*
X107315142Y-64730333D01*
X107267523Y-64635095D01*
X107267523Y-64539857D01*
X107315142Y-64444619D01*
X107362761Y-64397000D01*
X107458000Y-64349380D01*
X107696095Y-64349380D01*
X107838952Y-64397000D01*
X108838952Y-65254142D02*
X108791333Y-65301761D01*
X108648476Y-65349380D01*
X108553238Y-65349380D01*
X108410380Y-65301761D01*
X108315142Y-65206523D01*
X108267523Y-65111285D01*
X108219904Y-64920809D01*
X108219904Y-64777952D01*
X108267523Y-64587476D01*
X108315142Y-64492238D01*
X108410380Y-64397000D01*
X108553238Y-64349380D01*
X108648476Y-64349380D01*
X108791333Y-64397000D01*
X108838952Y-64444619D01*
X109743714Y-65349380D02*
X109267523Y-65349380D01*
X109267523Y-64349380D01*
X129040047Y-66746380D02*
X129040047Y-65746380D01*
X129278142Y-65746380D01*
X129421000Y-65794000D01*
X129516238Y-65889238D01*
X129563857Y-65984476D01*
X129611476Y-66174952D01*
X129611476Y-66317809D01*
X129563857Y-66508285D01*
X129516238Y-66603523D01*
X129421000Y-66698761D01*
X129278142Y-66746380D01*
X129040047Y-66746380D01*
X130040047Y-66365428D02*
X130801952Y-66365428D01*
X101917523Y-57364380D02*
X101441333Y-57364380D01*
X101393714Y-57840571D01*
X101441333Y-57792952D01*
X101536571Y-57745333D01*
X101774666Y-57745333D01*
X101869904Y-57792952D01*
X101917523Y-57840571D01*
X101965142Y-57935809D01*
X101965142Y-58173904D01*
X101917523Y-58269142D01*
X101869904Y-58316761D01*
X101774666Y-58364380D01*
X101536571Y-58364380D01*
X101441333Y-58316761D01*
X101393714Y-58269142D01*
X102250857Y-57364380D02*
X102584190Y-58364380D01*
X102917523Y-57364380D01*
X123444095Y-65794000D02*
X123348857Y-65746380D01*
X123206000Y-65746380D01*
X123063142Y-65794000D01*
X122967904Y-65889238D01*
X122920285Y-65984476D01*
X122872666Y-66174952D01*
X122872666Y-66317809D01*
X122920285Y-66508285D01*
X122967904Y-66603523D01*
X123063142Y-66698761D01*
X123206000Y-66746380D01*
X123301238Y-66746380D01*
X123444095Y-66698761D01*
X123491714Y-66651142D01*
X123491714Y-66317809D01*
X123301238Y-66317809D01*
X123920285Y-66746380D02*
X123920285Y-65746380D01*
X124491714Y-66746380D01*
X124491714Y-65746380D01*
X124967904Y-66746380D02*
X124967904Y-65746380D01*
X125206000Y-65746380D01*
X125348857Y-65794000D01*
X125444095Y-65889238D01*
X125491714Y-65984476D01*
X125539333Y-66174952D01*
X125539333Y-66317809D01*
X125491714Y-66508285D01*
X125444095Y-66603523D01*
X125348857Y-66698761D01*
X125206000Y-66746380D01*
X124967904Y-66746380D01*
%TO.C,J13*%
X131270476Y-91654380D02*
X131270476Y-92368666D01*
X131222857Y-92511523D01*
X131127619Y-92606761D01*
X130984761Y-92654380D01*
X130889523Y-92654380D01*
X132270476Y-92654380D02*
X131699047Y-92654380D01*
X131984761Y-92654380D02*
X131984761Y-91654380D01*
X131889523Y-91797238D01*
X131794285Y-91892476D01*
X131699047Y-91940095D01*
X132603809Y-91654380D02*
X133222857Y-91654380D01*
X132889523Y-92035333D01*
X133032380Y-92035333D01*
X133127619Y-92082952D01*
X133175238Y-92130571D01*
X133222857Y-92225809D01*
X133222857Y-92463904D01*
X133175238Y-92559142D01*
X133127619Y-92606761D01*
X133032380Y-92654380D01*
X132746666Y-92654380D01*
X132651428Y-92606761D01*
X132603809Y-92559142D01*
%TO.C,J7*%
X101774666Y-66254380D02*
X101774666Y-66968666D01*
X101727047Y-67111523D01*
X101631809Y-67206761D01*
X101488952Y-67254380D01*
X101393714Y-67254380D01*
X102155619Y-66254380D02*
X102822285Y-66254380D01*
X102393714Y-67254380D01*
%TO.C,J11*%
X128984476Y-68159380D02*
X128984476Y-68873666D01*
X128936857Y-69016523D01*
X128841619Y-69111761D01*
X128698761Y-69159380D01*
X128603523Y-69159380D01*
X129984476Y-69159380D02*
X129413047Y-69159380D01*
X129698761Y-69159380D02*
X129698761Y-68159380D01*
X129603523Y-68302238D01*
X129508285Y-68397476D01*
X129413047Y-68445095D01*
X130936857Y-69159380D02*
X130365428Y-69159380D01*
X130651142Y-69159380D02*
X130651142Y-68159380D01*
X130555904Y-68302238D01*
X130460666Y-68397476D01*
X130365428Y-68445095D01*
%TO.C,J12*%
X131397476Y-60793380D02*
X131397476Y-61507666D01*
X131349857Y-61650523D01*
X131254619Y-61745761D01*
X131111761Y-61793380D01*
X131016523Y-61793380D01*
X132397476Y-61793380D02*
X131826047Y-61793380D01*
X132111761Y-61793380D02*
X132111761Y-60793380D01*
X132016523Y-60936238D01*
X131921285Y-61031476D01*
X131826047Y-61079095D01*
X132778428Y-60888619D02*
X132826047Y-60841000D01*
X132921285Y-60793380D01*
X133159380Y-60793380D01*
X133254619Y-60841000D01*
X133302238Y-60888619D01*
X133349857Y-60983857D01*
X133349857Y-61079095D01*
X133302238Y-61221952D01*
X132730809Y-61793380D01*
X133349857Y-61793380D01*
%TO.C,J3*%
X101774666Y-52284380D02*
X101774666Y-52998666D01*
X101727047Y-53141523D01*
X101631809Y-53236761D01*
X101488952Y-53284380D01*
X101393714Y-53284380D01*
X102155619Y-52284380D02*
X102774666Y-52284380D01*
X102441333Y-52665333D01*
X102584190Y-52665333D01*
X102679428Y-52712952D01*
X102727047Y-52760571D01*
X102774666Y-52855809D01*
X102774666Y-53093904D01*
X102727047Y-53189142D01*
X102679428Y-53236761D01*
X102584190Y-53284380D01*
X102298476Y-53284380D01*
X102203238Y-53236761D01*
X102155619Y-53189142D01*
%TO.C,J10*%
X131524476Y-59015380D02*
X131524476Y-59729666D01*
X131476857Y-59872523D01*
X131381619Y-59967761D01*
X131238761Y-60015380D01*
X131143523Y-60015380D01*
X132524476Y-60015380D02*
X131953047Y-60015380D01*
X132238761Y-60015380D02*
X132238761Y-59015380D01*
X132143523Y-59158238D01*
X132048285Y-59253476D01*
X131953047Y-59301095D01*
X133143523Y-59015380D02*
X133238761Y-59015380D01*
X133334000Y-59063000D01*
X133381619Y-59110619D01*
X133429238Y-59205857D01*
X133476857Y-59396333D01*
X133476857Y-59634428D01*
X133429238Y-59824904D01*
X133381619Y-59920142D01*
X133334000Y-59967761D01*
X133238761Y-60015380D01*
X133143523Y-60015380D01*
X133048285Y-59967761D01*
X133000666Y-59920142D01*
X132953047Y-59824904D01*
X132905428Y-59634428D01*
X132905428Y-59396333D01*
X132953047Y-59205857D01*
X133000666Y-59110619D01*
X133048285Y-59063000D01*
X133143523Y-59015380D01*
%TO.C,J2*%
X107870666Y-95845380D02*
X107870666Y-96559666D01*
X107823047Y-96702523D01*
X107727809Y-96797761D01*
X107584952Y-96845380D01*
X107489714Y-96845380D01*
X108299238Y-95940619D02*
X108346857Y-95893000D01*
X108442095Y-95845380D01*
X108680190Y-95845380D01*
X108775428Y-95893000D01*
X108823047Y-95940619D01*
X108870666Y-96035857D01*
X108870666Y-96131095D01*
X108823047Y-96273952D01*
X108251619Y-96845380D01*
X108870666Y-96845380D01*
%TO.C,J6*%
X102536666Y-95845380D02*
X102536666Y-96559666D01*
X102489047Y-96702523D01*
X102393809Y-96797761D01*
X102250952Y-96845380D01*
X102155714Y-96845380D01*
X103441428Y-95845380D02*
X103250952Y-95845380D01*
X103155714Y-95893000D01*
X103108095Y-95940619D01*
X103012857Y-96083476D01*
X102965238Y-96273952D01*
X102965238Y-96654904D01*
X103012857Y-96750142D01*
X103060476Y-96797761D01*
X103155714Y-96845380D01*
X103346190Y-96845380D01*
X103441428Y-96797761D01*
X103489047Y-96750142D01*
X103536666Y-96654904D01*
X103536666Y-96416809D01*
X103489047Y-96321571D01*
X103441428Y-96273952D01*
X103346190Y-96226333D01*
X103155714Y-96226333D01*
X103060476Y-96273952D01*
X103012857Y-96321571D01*
X102965238Y-96416809D01*
%TO.C,J14*%
X125428476Y-68159380D02*
X125428476Y-68873666D01*
X125380857Y-69016523D01*
X125285619Y-69111761D01*
X125142761Y-69159380D01*
X125047523Y-69159380D01*
X126428476Y-69159380D02*
X125857047Y-69159380D01*
X126142761Y-69159380D02*
X126142761Y-68159380D01*
X126047523Y-68302238D01*
X125952285Y-68397476D01*
X125857047Y-68445095D01*
X127285619Y-68492714D02*
X127285619Y-69159380D01*
X127047523Y-68111761D02*
X126809428Y-68826047D01*
X127428476Y-68826047D01*
%TO.C,J4*%
X102282666Y-59142380D02*
X102282666Y-59856666D01*
X102235047Y-59999523D01*
X102139809Y-60094761D01*
X101996952Y-60142380D01*
X101901714Y-60142380D01*
X103187428Y-59475714D02*
X103187428Y-60142380D01*
X102949333Y-59094761D02*
X102711238Y-59809047D01*
X103330285Y-59809047D01*
%TO.C,J5*%
X105203666Y-95845380D02*
X105203666Y-96559666D01*
X105156047Y-96702523D01*
X105060809Y-96797761D01*
X104917952Y-96845380D01*
X104822714Y-96845380D01*
X106156047Y-95845380D02*
X105679857Y-95845380D01*
X105632238Y-96321571D01*
X105679857Y-96273952D01*
X105775095Y-96226333D01*
X106013190Y-96226333D01*
X106108428Y-96273952D01*
X106156047Y-96321571D01*
X106203666Y-96416809D01*
X106203666Y-96654904D01*
X106156047Y-96750142D01*
X106108428Y-96797761D01*
X106013190Y-96845380D01*
X105775095Y-96845380D01*
X105679857Y-96797761D01*
X105632238Y-96750142D01*
%TO.C,J9*%
X132254666Y-68286380D02*
X132254666Y-69000666D01*
X132207047Y-69143523D01*
X132111809Y-69238761D01*
X131968952Y-69286380D01*
X131873714Y-69286380D01*
X132778476Y-69286380D02*
X132968952Y-69286380D01*
X133064190Y-69238761D01*
X133111809Y-69191142D01*
X133207047Y-69048285D01*
X133254666Y-68857809D01*
X133254666Y-68476857D01*
X133207047Y-68381619D01*
X133159428Y-68334000D01*
X133064190Y-68286380D01*
X132873714Y-68286380D01*
X132778476Y-68334000D01*
X132730857Y-68381619D01*
X132683238Y-68476857D01*
X132683238Y-68714952D01*
X132730857Y-68810190D01*
X132778476Y-68857809D01*
X132873714Y-68905428D01*
X133064190Y-68905428D01*
X133159428Y-68857809D01*
X133207047Y-68810190D01*
X133254666Y-68714952D01*
D11*
%TO.C,J13*%
X133654000Y-93412000D02*
X133654000Y-94742000D01*
X132324000Y-93412000D02*
X133654000Y-93412000D01*
X123374000Y-93412000D02*
X123374000Y-96072000D01*
X131054000Y-93412000D02*
X131054000Y-96072000D01*
X131054000Y-93412000D02*
X123374000Y-93412000D01*
X131054000Y-96072000D02*
X123374000Y-96072000D01*
%TO.C,J7*%
X104270000Y-70037000D02*
X104270000Y-67377000D01*
X101670000Y-70037000D02*
X101670000Y-68707000D01*
X104270000Y-70037000D02*
X111950000Y-70037000D01*
X111950000Y-70037000D02*
X111950000Y-67377000D01*
X103000000Y-70037000D02*
X101670000Y-70037000D01*
X104270000Y-67377000D02*
X111950000Y-67377000D01*
%TO.C,J11*%
X130997000Y-72644000D02*
X130997000Y-90484000D01*
X128337000Y-72644000D02*
X130997000Y-72644000D01*
X128337000Y-90484000D02*
X130997000Y-90484000D01*
X128337000Y-71374000D02*
X128337000Y-70044000D01*
X128337000Y-72644000D02*
X128337000Y-90484000D01*
X128337000Y-70044000D02*
X129667000Y-70044000D01*
%TO.C,J12*%
X131054000Y-62424000D02*
X131054000Y-65084000D01*
X132324000Y-62424000D02*
X133654000Y-62424000D01*
X131054000Y-62424000D02*
X123374000Y-62424000D01*
X133654000Y-62424000D02*
X133654000Y-63754000D01*
X131054000Y-65084000D02*
X123374000Y-65084000D01*
X123374000Y-62424000D02*
X123374000Y-65084000D01*
%TO.C,J3*%
X103000000Y-56575000D02*
X101670000Y-56575000D01*
X104270000Y-53915000D02*
X111950000Y-53915000D01*
X104270000Y-56575000D02*
X111950000Y-56575000D01*
X111950000Y-56575000D02*
X111950000Y-53915000D01*
X101670000Y-56575000D02*
X101670000Y-55245000D01*
X104270000Y-56575000D02*
X104270000Y-53915000D01*
%TO.C,J10*%
X123787000Y-54751000D02*
X133007000Y-54751000D01*
X122987000Y-58571000D02*
X125487000Y-58571000D01*
X124287000Y-56771000D02*
X124287000Y-58271000D01*
X123287000Y-56771000D02*
X124287000Y-56771000D01*
X133007000Y-54751000D02*
X133007000Y-55961000D01*
X133007000Y-55961000D02*
X133507000Y-55961000D01*
X133507000Y-56771000D02*
X132507000Y-56771000D01*
X123287000Y-58271000D02*
X133507000Y-58271000D01*
X122987000Y-56071000D02*
X122987000Y-58571000D01*
X123287000Y-55961000D02*
X123787000Y-55961000D01*
X132507000Y-56771000D02*
X132507000Y-58271000D01*
X133507000Y-58271000D02*
X133507000Y-54251000D01*
X123287000Y-54251000D02*
X123287000Y-58271000D01*
X123787000Y-55961000D02*
X123787000Y-54751000D01*
X133507000Y-54251000D02*
X123287000Y-54251000D01*
%TO.C,J2*%
X106750000Y-92730000D02*
X106750000Y-74890000D01*
X109410000Y-94000000D02*
X109410000Y-95330000D01*
X109410000Y-92730000D02*
X106750000Y-92730000D01*
X109410000Y-95330000D02*
X108080000Y-95330000D01*
X109410000Y-92730000D02*
X109410000Y-74890000D01*
X109410000Y-74890000D02*
X106750000Y-74890000D01*
%TO.C,J6*%
X104330000Y-92730000D02*
X104330000Y-74890000D01*
X101670000Y-92730000D02*
X101670000Y-74890000D01*
X104330000Y-95330000D02*
X103000000Y-95330000D01*
X104330000Y-74890000D02*
X101670000Y-74890000D01*
X104330000Y-92730000D02*
X101670000Y-92730000D01*
X104330000Y-94000000D02*
X104330000Y-95330000D01*
%TO.C,J14*%
X125797000Y-72644000D02*
X128457000Y-72644000D01*
X125797000Y-71374000D02*
X125797000Y-70044000D01*
X125797000Y-72644000D02*
X125797000Y-90484000D01*
X128457000Y-72644000D02*
X128457000Y-90484000D01*
X125797000Y-90484000D02*
X128457000Y-90484000D01*
X125797000Y-70044000D02*
X127127000Y-70044000D01*
%TO.C,J4*%
X103000000Y-63433000D02*
X101670000Y-63433000D01*
X104270000Y-60773000D02*
X111950000Y-60773000D01*
X104270000Y-63433000D02*
X104270000Y-60773000D01*
X101670000Y-63433000D02*
X101670000Y-62103000D01*
X104270000Y-63433000D02*
X111950000Y-63433000D01*
X111950000Y-63433000D02*
X111950000Y-60773000D01*
%TO.C,J5*%
X106870000Y-95330000D02*
X105540000Y-95330000D01*
X106870000Y-74890000D02*
X104210000Y-74890000D01*
X106870000Y-94000000D02*
X106870000Y-95330000D01*
X106870000Y-92730000D02*
X106870000Y-74890000D01*
X106870000Y-92730000D02*
X104210000Y-92730000D01*
X104210000Y-92730000D02*
X104210000Y-74890000D01*
%TO.C,J9*%
X133537000Y-72644000D02*
X133537000Y-90484000D01*
X130877000Y-72644000D02*
X133537000Y-72644000D01*
X130877000Y-71374000D02*
X130877000Y-70044000D01*
X130877000Y-70044000D02*
X132207000Y-70044000D01*
X130877000Y-72644000D02*
X130877000Y-90484000D01*
X130877000Y-90484000D02*
X133537000Y-90484000D01*
%TD*%
M02*
