%TF.GenerationSoftware,KiCad,Pcbnew,(6.0.2)*%
%TF.CreationDate,2022-10-19T14:49:45+05:30*%
%TF.ProjectId,header1,68656164-6572-4312-9e6b-696361645f70,rev?*%
%TF.SameCoordinates,Original*%
%TF.FileFunction,Copper,L2,Bot*%
%TF.FilePolarity,Positive*%
%FSLAX46Y46*%
G04 Gerber Fmt 4.6, Leading zero omitted, Abs format (unit mm)*
G04 Created by KiCad (PCBNEW (6.0.2)) date 2022-10-19 14:49:45*
%MOMM*%
%LPD*%
G01*
G04 APERTURE LIST*
G04 Aperture macros list*
%AMRoundRect*
0 Rectangle with rounded corners*
0 $1 Rounding radius*
0 $2 $3 $4 $5 $6 $7 $8 $9 X,Y pos of 4 corners*
0 Add a 4 corners polygon primitive as box body*
4,1,4,$2,$3,$4,$5,$6,$7,$8,$9,$2,$3,0*
0 Add four circle primitives for the rounded corners*
1,1,$1+$1,$2,$3*
1,1,$1+$1,$4,$5*
1,1,$1+$1,$6,$7*
1,1,$1+$1,$8,$9*
0 Add four rect primitives between the rounded corners*
20,1,$1+$1,$2,$3,$4,$5,0*
20,1,$1+$1,$4,$5,$6,$7,0*
20,1,$1+$1,$6,$7,$8,$9,0*
20,1,$1+$1,$8,$9,$2,$3,0*%
G04 Aperture macros list end*
%TA.AperFunction,ComponentPad*%
%ADD10R,1.700000X1.700000*%
%TD*%
%TA.AperFunction,ComponentPad*%
%ADD11O,1.700000X1.700000*%
%TD*%
%TA.AperFunction,ComponentPad*%
%ADD12RoundRect,0.250000X-0.600000X-0.725000X0.600000X-0.725000X0.600000X0.725000X-0.600000X0.725000X0*%
%TD*%
%TA.AperFunction,ComponentPad*%
%ADD13O,1.700000X1.950000*%
%TD*%
%TA.AperFunction,ComponentPad*%
%ADD14R,1.350000X1.350000*%
%TD*%
%TA.AperFunction,ComponentPad*%
%ADD15O,1.350000X1.350000*%
%TD*%
%TA.AperFunction,ViaPad*%
%ADD16C,0.800000*%
%TD*%
%TA.AperFunction,Conductor*%
%ADD17C,0.400000*%
%TD*%
%TA.AperFunction,Conductor*%
%ADD18C,0.800000*%
%TD*%
%TA.AperFunction,Conductor*%
%ADD19C,0.300000*%
%TD*%
G04 APERTURE END LIST*
D10*
%TO.P,J13,1,Pin_1*%
%TO.N,/5V*%
X132324000Y-94742000D03*
D11*
%TO.P,J13,2,Pin_2*%
%TO.N,/CAN1_RX*%
X129784000Y-94742000D03*
%TO.P,J13,3,Pin_3*%
%TO.N,/CAN1_TX*%
X127244000Y-94742000D03*
%TO.P,J13,4,Pin_4*%
%TO.N,GND*%
X124704000Y-94742000D03*
%TD*%
D10*
%TO.P,J7,1,Pin_1*%
%TO.N,/5VA*%
X103000000Y-68707000D03*
D11*
%TO.P,J7,2,Pin_2*%
%TO.N,/R_LEDn*%
X105540000Y-68707000D03*
%TO.P,J7,3,Pin_3*%
%TO.N,/G_LEDn*%
X108080000Y-68707000D03*
%TO.P,J7,4,Pin_4*%
%TO.N,/B_LEDn*%
X110620000Y-68707000D03*
%TD*%
D10*
%TO.P,J11,1,Pin_1*%
%TO.N,unconnected-(J11-Pad1)*%
X129667000Y-71374000D03*
D11*
%TO.P,J11,2,Pin_2*%
%TO.N,/GPS_TX*%
X129667000Y-73914000D03*
%TO.P,J11,3,Pin_3*%
%TO.N,/5V*%
X129667000Y-76454000D03*
%TO.P,J11,4,Pin_4*%
X129667000Y-78994000D03*
%TO.P,J11,5,Pin_5*%
X129667000Y-81534000D03*
%TO.P,J11,6,Pin_6*%
X129667000Y-84074000D03*
%TO.P,J11,7,Pin_7*%
X129667000Y-86614000D03*
%TO.P,J11,8,Pin_8*%
%TO.N,/MAVLINK_TX*%
X129667000Y-89154000D03*
%TD*%
D10*
%TO.P,J12,1,Pin_1*%
%TO.N,/USB_VCC*%
X132324000Y-63754000D03*
D11*
%TO.P,J12,2,Pin_2*%
%TO.N,/USB_DM*%
X129784000Y-63754000D03*
%TO.P,J12,3,Pin_3*%
%TO.N,/USB_DP*%
X127244000Y-63754000D03*
%TO.P,J12,4,Pin_4*%
%TO.N,GND*%
X124704000Y-63754000D03*
%TD*%
D10*
%TO.P,J3,1,Pin_1*%
%TO.N,/5VA*%
X103000000Y-55245000D03*
D11*
%TO.P,J3,2,Pin_2*%
%TO.N,/TRIGGER*%
X105540000Y-55245000D03*
%TO.P,J3,3,Pin_3*%
%TO.N,/ECO*%
X108080000Y-55245000D03*
%TO.P,J3,4,Pin_4*%
%TO.N,GND*%
X110620000Y-55245000D03*
%TD*%
D12*
%TO.P,J10,1,Pin_1*%
%TO.N,/BAT*%
X125897000Y-55961000D03*
D13*
%TO.P,J10,2,Pin_2*%
%TO.N,/5V*%
X128397000Y-55961000D03*
%TO.P,J10,3,Pin_3*%
%TO.N,GND*%
X130897000Y-55961000D03*
%TD*%
D10*
%TO.P,J2,1,Pin_1*%
%TO.N,/ESC1*%
X108080000Y-94000000D03*
D11*
%TO.P,J2,2,Pin_2*%
%TO.N,/ESC2*%
X108080000Y-91460000D03*
%TO.P,J2,3,Pin_3*%
%TO.N,/ESC3*%
X108080000Y-88920000D03*
%TO.P,J2,4,Pin_4*%
%TO.N,/ESC4*%
X108080000Y-86380000D03*
%TO.P,J2,5,Pin_5*%
%TO.N,/ESC5*%
X108080000Y-83840000D03*
%TO.P,J2,6,Pin_6*%
%TO.N,/ESC6*%
X108080000Y-81300000D03*
%TO.P,J2,7,Pin_7*%
%TO.N,/ESC7*%
X108080000Y-78760000D03*
%TO.P,J2,8,Pin_8*%
%TO.N,/ESC8*%
X108080000Y-76220000D03*
%TD*%
D10*
%TO.P,J6,1,Pin_1*%
%TO.N,GND*%
X103000000Y-94000000D03*
D11*
%TO.P,J6,2,Pin_2*%
X103000000Y-91460000D03*
%TO.P,J6,3,Pin_3*%
X103000000Y-88920000D03*
%TO.P,J6,4,Pin_4*%
X103000000Y-86380000D03*
%TO.P,J6,5,Pin_5*%
X103000000Y-83840000D03*
%TO.P,J6,6,Pin_6*%
X103000000Y-81300000D03*
%TO.P,J6,7,Pin_7*%
X103000000Y-78760000D03*
%TO.P,J6,8,Pin_8*%
X103000000Y-76220000D03*
%TD*%
D10*
%TO.P,J14,1,Pin_1*%
%TO.N,unconnected-(J14-Pad1)*%
X127127000Y-71374000D03*
D11*
%TO.P,J14,2,Pin_2*%
%TO.N,/GPS_RX*%
X127127000Y-73914000D03*
%TO.P,J14,3,Pin_3*%
%TO.N,/SWITCH1*%
X127127000Y-76454000D03*
%TO.P,J14,4,Pin_4*%
%TO.N,/SWITCH2*%
X127127000Y-78994000D03*
%TO.P,J14,5,Pin_5*%
%TO.N,/WATER_PUMP*%
X127127000Y-81534000D03*
%TO.P,J14,6,Pin_6*%
%TO.N,/FLOW_METER*%
X127127000Y-84074000D03*
%TO.P,J14,7,Pin_7*%
%TO.N,/SPARE_IO1*%
X127127000Y-86614000D03*
%TO.P,J14,8,Pin_8*%
%TO.N,/MAVLINK_RX*%
X127127000Y-89154000D03*
%TD*%
D10*
%TO.P,J4,1,Pin_1*%
%TO.N,/5VA*%
X103000000Y-62103000D03*
D11*
%TO.P,J4,2,Pin_2*%
%TO.N,GND*%
X105540000Y-62103000D03*
%TO.P,J4,3,Pin_3*%
%TO.N,/SCL*%
X108080000Y-62103000D03*
%TO.P,J4,4,Pin_4*%
%TO.N,/SDA*%
X110620000Y-62103000D03*
%TD*%
D10*
%TO.P,J5,1,Pin_1*%
%TO.N,unconnected-(J5-Pad1)*%
X105540000Y-94000000D03*
D11*
%TO.P,J5,2,Pin_2*%
%TO.N,unconnected-(J5-Pad2)*%
X105540000Y-91460000D03*
%TO.P,J5,3,Pin_3*%
%TO.N,unconnected-(J5-Pad3)*%
X105540000Y-88920000D03*
%TO.P,J5,4,Pin_4*%
%TO.N,unconnected-(J5-Pad4)*%
X105540000Y-86380000D03*
%TO.P,J5,5,Pin_5*%
%TO.N,unconnected-(J5-Pad5)*%
X105540000Y-83840000D03*
%TO.P,J5,6,Pin_6*%
%TO.N,unconnected-(J5-Pad6)*%
X105540000Y-81300000D03*
%TO.P,J5,7,Pin_7*%
%TO.N,unconnected-(J5-Pad7)*%
X105540000Y-78760000D03*
%TO.P,J5,8,Pin_8*%
%TO.N,unconnected-(J5-Pad8)*%
X105540000Y-76220000D03*
%TD*%
D10*
%TO.P,J9,1,Pin_1*%
%TO.N,GND*%
X132207000Y-71374000D03*
D11*
%TO.P,J9,2,Pin_2*%
X132207000Y-73914000D03*
%TO.P,J9,3,Pin_3*%
X132207000Y-76454000D03*
%TO.P,J9,4,Pin_4*%
X132207000Y-78994000D03*
%TO.P,J9,5,Pin_5*%
X132207000Y-81534000D03*
%TO.P,J9,6,Pin_6*%
X132207000Y-84074000D03*
%TO.P,J9,7,Pin_7*%
X132207000Y-86614000D03*
%TO.P,J9,8,Pin_8*%
X132207000Y-89154000D03*
%TD*%
D14*
%TO.P,J8,1,Pin_1*%
%TO.N,/BAT*%
X120000000Y-55753000D03*
D15*
%TO.P,J8,2,Pin_2*%
%TO.N,/5V*%
X120000000Y-57753000D03*
%TO.P,J8,3,Pin_3*%
X120000000Y-59753000D03*
%TO.P,J8,4,Pin_4*%
%TO.N,GND*%
X120000000Y-61753000D03*
%TO.P,J8,5,Pin_5*%
X120000000Y-63753000D03*
%TO.P,J8,6,Pin_6*%
%TO.N,/BUZZERn*%
X120000000Y-65753000D03*
%TO.P,J8,7,Pin_7*%
%TO.N,/GPS_RX*%
X120000000Y-67753000D03*
%TO.P,J8,8,Pin_8*%
%TO.N,/GPS_TX*%
X120000000Y-69753000D03*
%TO.P,J8,9,Pin_9*%
%TO.N,/SWITCH1*%
X120000000Y-71753000D03*
%TO.P,J8,10,Pin_10*%
%TO.N,/SWITCH2*%
X120000000Y-73753000D03*
%TO.P,J8,11,Pin_11*%
%TO.N,/USB_DM*%
X120000000Y-75753000D03*
%TO.P,J8,12,Pin_12*%
%TO.N,/USB_DP*%
X120000000Y-77753000D03*
%TO.P,J8,13,Pin_13*%
%TO.N,/USB_VCC*%
X120000000Y-79753000D03*
%TO.P,J8,14,Pin_14*%
%TO.N,/WATER_PUMP*%
X120000000Y-81753000D03*
%TO.P,J8,15,Pin_15*%
%TO.N,/FLOW_METER*%
X120000000Y-83753000D03*
%TO.P,J8,16,Pin_16*%
%TO.N,/SPARE_IO1*%
X120000000Y-85753000D03*
%TO.P,J8,17,Pin_17*%
%TO.N,/CAN1_RX*%
X120000000Y-87753000D03*
%TO.P,J8,18,Pin_18*%
%TO.N,/CAN1_TX*%
X120000000Y-89753000D03*
%TO.P,J8,19,Pin_19*%
%TO.N,/MAVLINK_RX*%
X120000000Y-91753000D03*
%TO.P,J8,20,Pin_20*%
%TO.N,/MAVLINK_TX*%
X120000000Y-93753000D03*
%TD*%
D14*
%TO.P,J1,1,Pin_1*%
%TO.N,/ESC1*%
X115000000Y-93730000D03*
D15*
%TO.P,J1,2,Pin_2*%
%TO.N,/ESC2*%
X115000000Y-91730000D03*
%TO.P,J1,3,Pin_3*%
%TO.N,/ESC3*%
X115000000Y-89730000D03*
%TO.P,J1,4,Pin_4*%
%TO.N,/ESC4*%
X115000000Y-87730000D03*
%TO.P,J1,5,Pin_5*%
%TO.N,/ESC5*%
X115000000Y-85730000D03*
%TO.P,J1,6,Pin_6*%
%TO.N,/ESC6*%
X115000000Y-83730000D03*
%TO.P,J1,7,Pin_7*%
%TO.N,/ESC7*%
X115000000Y-81730000D03*
%TO.P,J1,8,Pin_8*%
%TO.N,/ESC8*%
X115000000Y-79730000D03*
%TO.P,J1,9,Pin_9*%
%TO.N,/R_LEDn*%
X115000000Y-77730000D03*
%TO.P,J1,10,Pin_10*%
%TO.N,/G_LEDn*%
X115000000Y-75730000D03*
%TO.P,J1,11,Pin_11*%
%TO.N,/B_LEDn*%
X115000000Y-73730000D03*
%TO.P,J1,12,Pin_12*%
%TO.N,/5VA*%
X115000000Y-71730000D03*
%TO.P,J1,13,Pin_13*%
X115000000Y-69730000D03*
%TO.P,J1,14,Pin_14*%
%TO.N,GND*%
X115000000Y-67730000D03*
%TO.P,J1,15,Pin_15*%
X115000000Y-65730000D03*
%TO.P,J1,16,Pin_16*%
%TO.N,/SCL*%
X115000000Y-63730000D03*
%TO.P,J1,17,Pin_17*%
%TO.N,/SDA*%
X115000000Y-61730000D03*
%TO.P,J1,18,Pin_18*%
%TO.N,/TRIGGER*%
X115000000Y-59730000D03*
%TO.P,J1,19,Pin_19*%
%TO.N,/ECO*%
X115000000Y-57730000D03*
%TO.P,J1,20,Pin_20*%
%TO.N,unconnected-(J1-Pad20)*%
X115000000Y-55730000D03*
%TD*%
D16*
%TO.N,*%
X117475000Y-74422000D03*
X117475000Y-73533000D03*
X117475000Y-99441000D03*
X117475000Y-98298000D03*
%TO.N,GND*%
X117475000Y-51562000D03*
X117475000Y-50546000D03*
%TD*%
D17*
%TO.N,/ESC1*%
X114730000Y-94000000D02*
X115000000Y-93730000D01*
X108080000Y-94000000D02*
X114730000Y-94000000D01*
%TO.N,/ESC2*%
X114730000Y-91460000D02*
X115000000Y-91730000D01*
X108080000Y-91460000D02*
X114730000Y-91460000D01*
%TO.N,/ESC3*%
X108080000Y-88920000D02*
X108441000Y-89281000D01*
X114551000Y-89281000D02*
X115000000Y-89730000D01*
X108441000Y-89281000D02*
X114551000Y-89281000D01*
%TO.N,/ESC4*%
X114392000Y-87122000D02*
X115000000Y-87730000D01*
X108822000Y-87122000D02*
X114392000Y-87122000D01*
X108080000Y-86380000D02*
X108822000Y-87122000D01*
%TO.N,/ESC5*%
X108568000Y-84328000D02*
X112776000Y-84328000D01*
X112776000Y-84328000D02*
X114178000Y-85730000D01*
X114178000Y-85730000D02*
X115000000Y-85730000D01*
X108080000Y-83840000D02*
X108568000Y-84328000D01*
%TO.N,/ESC6*%
X108080000Y-81300000D02*
X112034000Y-81300000D01*
X112034000Y-81300000D02*
X114464000Y-83730000D01*
X114464000Y-83730000D02*
X115000000Y-83730000D01*
%TO.N,/ESC7*%
X114369000Y-81730000D02*
X115000000Y-81730000D01*
X108080000Y-78760000D02*
X111399000Y-78760000D01*
X111399000Y-78760000D02*
X114369000Y-81730000D01*
%TO.N,/ESC8*%
X111018000Y-76220000D02*
X114528000Y-79730000D01*
X108080000Y-76220000D02*
X111018000Y-76220000D01*
X114528000Y-79730000D02*
X115000000Y-79730000D01*
%TO.N,/R_LEDn*%
X105977000Y-68707000D02*
X105540000Y-68707000D01*
X115000000Y-77730000D02*
X105977000Y-68707000D01*
%TO.N,/G_LEDn*%
X115000000Y-75730000D02*
X108080000Y-68810000D01*
X108080000Y-68810000D02*
X108080000Y-68707000D01*
%TO.N,/B_LEDn*%
X110620000Y-69350000D02*
X110620000Y-68707000D01*
X115000000Y-73730000D02*
X110620000Y-69350000D01*
%TO.N,/5V*%
X129667000Y-86614000D02*
X130937000Y-87884000D01*
X130937000Y-93355000D02*
X132324000Y-94742000D01*
X130937000Y-87884000D02*
X130937000Y-93355000D01*
D18*
%TO.N,/5VA*%
X115000000Y-69730000D02*
X114688000Y-69730000D01*
X114688000Y-69730000D02*
X110239000Y-65281000D01*
X115000000Y-71730000D02*
X115000000Y-69730000D01*
X103000000Y-65281000D02*
X103000000Y-55245000D01*
X103000000Y-68707000D02*
X103000000Y-65281000D01*
X110239000Y-65281000D02*
X103000000Y-65281000D01*
D19*
%TO.N,/SCL*%
X108080000Y-62103000D02*
X109707000Y-63730000D01*
X109707000Y-63730000D02*
X115000000Y-63730000D01*
%TO.N,/SDA*%
X114627000Y-62103000D02*
X115000000Y-61730000D01*
X110620000Y-62103000D02*
X114627000Y-62103000D01*
%TO.N,/TRIGGER*%
X115000000Y-59730000D02*
X113944000Y-58674000D01*
X108969000Y-58674000D02*
X105540000Y-55245000D01*
X113944000Y-58674000D02*
X108969000Y-58674000D01*
%TO.N,/ECO*%
X110565000Y-57730000D02*
X108080000Y-55245000D01*
X115000000Y-57730000D02*
X110565000Y-57730000D01*
D17*
%TO.N,/USB_DM*%
X122555000Y-73198000D02*
X120000000Y-75753000D01*
X129784000Y-63754000D02*
X129784000Y-62347000D01*
X122555000Y-63246000D02*
X122555000Y-73198000D01*
X129784000Y-62347000D02*
X128778000Y-61341000D01*
X124460000Y-61341000D02*
X122555000Y-63246000D01*
X128778000Y-61341000D02*
X124460000Y-61341000D01*
%TO.N,/USB_DP*%
X120000000Y-77753000D02*
X123571000Y-74182000D01*
X123571000Y-67427000D02*
X127244000Y-63754000D01*
X123571000Y-74182000D02*
X123571000Y-67427000D01*
%TO.N,/USB_VCC*%
X124587000Y-76200000D02*
X124587000Y-68199000D01*
X132324000Y-65161000D02*
X132324000Y-63754000D01*
X131064000Y-66421000D02*
X132324000Y-65161000D01*
X120000000Y-79753000D02*
X121034000Y-79753000D01*
X126365000Y-66421000D02*
X131064000Y-66421000D01*
X124587000Y-68199000D02*
X126365000Y-66421000D01*
X121034000Y-79753000D02*
X124587000Y-76200000D01*
%TO.N,/CAN1_RX*%
X122170000Y-87753000D02*
X126238000Y-91821000D01*
X120000000Y-87753000D02*
X122170000Y-87753000D01*
X126863000Y-91821000D02*
X129784000Y-94742000D01*
X126238000Y-91821000D02*
X126863000Y-91821000D01*
%TO.N,/CAN1_TX*%
X120000000Y-89753000D02*
X122255000Y-89753000D01*
X122255000Y-89753000D02*
X127244000Y-94742000D01*
%TD*%
%TA.AperFunction,Conductor*%
%TO.N,GND*%
G36*
X134642121Y-50320002D02*
G01*
X134688614Y-50373658D01*
X134700000Y-50426000D01*
X134700000Y-99574000D01*
X134679998Y-99642121D01*
X134626342Y-99688614D01*
X134574000Y-99700000D01*
X118290934Y-99700000D01*
X118222813Y-99679998D01*
X118176320Y-99626342D01*
X118166191Y-99556248D01*
X118180490Y-99455778D01*
X118180645Y-99441000D01*
X118178840Y-99426080D01*
X118161188Y-99280220D01*
X118160276Y-99272680D01*
X118100345Y-99114077D01*
X118004312Y-98974349D01*
X117993321Y-98964556D01*
X117955766Y-98904305D01*
X117956747Y-98833316D01*
X117984391Y-98785196D01*
X117988648Y-98780566D01*
X117994423Y-98775634D01*
X118093361Y-98637947D01*
X118101237Y-98618356D01*
X118153766Y-98487687D01*
X118153767Y-98487685D01*
X118156601Y-98480634D01*
X118180490Y-98312778D01*
X118180645Y-98298000D01*
X118178840Y-98283080D01*
X118161188Y-98137220D01*
X118160276Y-98129680D01*
X118100345Y-97971077D01*
X118052371Y-97901274D01*
X118030271Y-97833804D01*
X118030479Y-97827591D01*
X118032740Y-97819782D01*
X118029470Y-97782025D01*
X118029000Y-97771153D01*
X118029000Y-95008962D01*
X123533616Y-95008962D01*
X123566563Y-95138689D01*
X123570401Y-95149527D01*
X123657898Y-95339324D01*
X123663649Y-95349285D01*
X123784272Y-95519962D01*
X123791740Y-95528705D01*
X123941446Y-95674543D01*
X123950380Y-95681777D01*
X124124152Y-95797889D01*
X124134265Y-95803380D01*
X124326288Y-95885879D01*
X124337221Y-95889431D01*
X124432331Y-95910952D01*
X124446405Y-95910063D01*
X124450000Y-95900664D01*
X124450000Y-95014115D01*
X124445525Y-94998876D01*
X124444135Y-94997671D01*
X124436452Y-94996000D01*
X123548439Y-94996000D01*
X123534908Y-94999973D01*
X123533616Y-95008962D01*
X118029000Y-95008962D01*
X118029000Y-74982256D01*
X118029562Y-74970756D01*
X118032740Y-74959782D01*
X118029470Y-74922025D01*
X118029000Y-74911153D01*
X118029000Y-74902095D01*
X118029249Y-74902095D01*
X118042366Y-74835149D01*
X118051859Y-74819703D01*
X118057440Y-74811937D01*
X118077966Y-74783371D01*
X118088929Y-74768115D01*
X118088929Y-74768114D01*
X118093361Y-74761947D01*
X118096194Y-74754900D01*
X118153766Y-74611687D01*
X118153767Y-74611685D01*
X118156601Y-74604634D01*
X118171739Y-74498270D01*
X118179909Y-74440862D01*
X118179909Y-74440859D01*
X118180490Y-74436778D01*
X118180645Y-74422000D01*
X118178840Y-74407080D01*
X118168486Y-74321527D01*
X118160276Y-74253680D01*
X118100345Y-74095077D01*
X118096041Y-74088814D01*
X118069057Y-74049551D01*
X118046957Y-73982082D01*
X118064843Y-73913375D01*
X118070574Y-73904660D01*
X118088928Y-73879118D01*
X118088932Y-73879111D01*
X118093361Y-73872947D01*
X118102909Y-73849197D01*
X118153766Y-73722687D01*
X118153767Y-73722685D01*
X118156601Y-73715634D01*
X118177507Y-73568741D01*
X118179909Y-73551862D01*
X118179909Y-73551859D01*
X118180490Y-73547778D01*
X118180645Y-73533000D01*
X118178840Y-73518080D01*
X118161407Y-73374026D01*
X118160276Y-73364680D01*
X118100345Y-73206077D01*
X118071157Y-73163608D01*
X118052371Y-73136274D01*
X118030271Y-73068804D01*
X118030479Y-73062591D01*
X118032740Y-73054782D01*
X118031400Y-73039303D01*
X118029470Y-73017025D01*
X118029000Y-73006153D01*
X118029000Y-64018975D01*
X119009914Y-64018975D01*
X119040667Y-64126227D01*
X119045186Y-64137639D01*
X119131432Y-64305456D01*
X119138079Y-64315769D01*
X119255280Y-64463639D01*
X119263803Y-64472465D01*
X119407496Y-64594758D01*
X119417568Y-64601758D01*
X119542272Y-64671452D01*
X119591978Y-64722145D01*
X119606386Y-64791664D01*
X119580923Y-64857937D01*
X119539178Y-64893101D01*
X119468732Y-64929930D01*
X119468728Y-64929932D01*
X119463268Y-64932787D01*
X119458468Y-64936647D01*
X119458467Y-64936647D01*
X119318983Y-65048795D01*
X119314176Y-65052660D01*
X119191207Y-65199208D01*
X119099045Y-65366850D01*
X119097184Y-65372717D01*
X119097183Y-65372719D01*
X119055703Y-65503481D01*
X119041200Y-65549201D01*
X119019876Y-65739314D01*
X119020392Y-65745458D01*
X119035299Y-65922978D01*
X119035884Y-65929948D01*
X119037583Y-65935872D01*
X119085959Y-66104582D01*
X119088614Y-66113843D01*
X119091433Y-66119328D01*
X119173242Y-66278511D01*
X119173245Y-66278516D01*
X119176060Y-66283993D01*
X119294889Y-66433918D01*
X119299583Y-66437913D01*
X119333334Y-66466637D01*
X119440575Y-66557907D01*
X119445953Y-66560913D01*
X119445955Y-66560914D01*
X119594700Y-66644044D01*
X119644406Y-66694737D01*
X119658814Y-66764256D01*
X119633351Y-66830529D01*
X119591605Y-66865694D01*
X119463268Y-66932787D01*
X119458468Y-66936647D01*
X119458467Y-66936647D01*
X119338102Y-67033423D01*
X119314176Y-67052660D01*
X119191207Y-67199208D01*
X119099045Y-67366850D01*
X119097184Y-67372717D01*
X119097183Y-67372719D01*
X119068718Y-67462452D01*
X119041200Y-67549201D01*
X119019876Y-67739314D01*
X119020392Y-67745458D01*
X119030893Y-67870506D01*
X119035884Y-67929948D01*
X119037583Y-67935872D01*
X119081898Y-68090420D01*
X119088614Y-68113843D01*
X119091433Y-68119328D01*
X119173242Y-68278511D01*
X119173245Y-68278516D01*
X119176060Y-68283993D01*
X119294889Y-68433918D01*
X119299583Y-68437913D01*
X119414829Y-68535995D01*
X119440575Y-68557907D01*
X119592707Y-68642930D01*
X119594700Y-68644044D01*
X119644406Y-68694737D01*
X119658814Y-68764256D01*
X119633351Y-68830529D01*
X119591605Y-68865694D01*
X119463268Y-68932787D01*
X119458468Y-68936647D01*
X119458467Y-68936647D01*
X119335675Y-69035374D01*
X119314176Y-69052660D01*
X119191207Y-69199208D01*
X119099045Y-69366850D01*
X119097184Y-69372717D01*
X119097183Y-69372719D01*
X119078642Y-69431169D01*
X119041200Y-69549201D01*
X119019876Y-69739314D01*
X119020392Y-69745458D01*
X119029539Y-69854382D01*
X119035884Y-69929948D01*
X119088614Y-70113843D01*
X119091433Y-70119328D01*
X119173242Y-70278511D01*
X119173245Y-70278516D01*
X119176060Y-70283993D01*
X119294889Y-70433918D01*
X119299583Y-70437913D01*
X119333334Y-70466637D01*
X119440575Y-70557907D01*
X119445953Y-70560913D01*
X119445955Y-70560914D01*
X119594700Y-70644044D01*
X119644406Y-70694737D01*
X119658814Y-70764256D01*
X119633351Y-70830529D01*
X119591605Y-70865694D01*
X119463268Y-70932787D01*
X119314176Y-71052660D01*
X119191207Y-71199208D01*
X119099045Y-71366850D01*
X119097184Y-71372717D01*
X119097183Y-71372719D01*
X119093171Y-71385367D01*
X119041200Y-71549201D01*
X119019876Y-71739314D01*
X119020392Y-71745458D01*
X119033953Y-71906948D01*
X119035884Y-71929948D01*
X119088614Y-72113843D01*
X119091433Y-72119328D01*
X119173242Y-72278511D01*
X119173245Y-72278516D01*
X119176060Y-72283993D01*
X119294889Y-72433918D01*
X119299583Y-72437913D01*
X119432455Y-72550996D01*
X119440575Y-72557907D01*
X119445953Y-72560913D01*
X119445955Y-72560914D01*
X119594700Y-72644044D01*
X119644406Y-72694737D01*
X119658814Y-72764256D01*
X119633351Y-72830529D01*
X119591605Y-72865694D01*
X119463268Y-72932787D01*
X119458468Y-72936647D01*
X119458467Y-72936647D01*
X119338659Y-73032975D01*
X119314176Y-73052660D01*
X119191207Y-73199208D01*
X119188237Y-73204611D01*
X119188236Y-73204612D01*
X119133730Y-73303759D01*
X119099045Y-73366850D01*
X119097184Y-73372717D01*
X119097183Y-73372719D01*
X119044243Y-73539608D01*
X119041200Y-73549201D01*
X119019876Y-73739314D01*
X119020392Y-73745458D01*
X119033953Y-73906948D01*
X119035884Y-73929948D01*
X119040821Y-73947166D01*
X119085270Y-74102180D01*
X119088614Y-74113843D01*
X119091433Y-74119328D01*
X119173242Y-74278511D01*
X119173245Y-74278516D01*
X119176060Y-74283993D01*
X119294889Y-74433918D01*
X119440575Y-74557907D01*
X119445953Y-74560913D01*
X119445955Y-74560914D01*
X119456970Y-74567070D01*
X119592036Y-74642555D01*
X119594700Y-74644044D01*
X119644406Y-74694737D01*
X119658814Y-74764256D01*
X119633351Y-74830529D01*
X119591605Y-74865694D01*
X119463268Y-74932787D01*
X119458468Y-74936647D01*
X119458467Y-74936647D01*
X119417560Y-74969537D01*
X119314176Y-75052660D01*
X119191207Y-75199208D01*
X119099045Y-75366850D01*
X119097184Y-75372717D01*
X119097183Y-75372719D01*
X119084063Y-75414079D01*
X119041200Y-75549201D01*
X119019876Y-75739314D01*
X119020392Y-75745458D01*
X119033953Y-75906948D01*
X119035884Y-75929948D01*
X119055491Y-75998326D01*
X119070436Y-76050446D01*
X119088614Y-76113843D01*
X119091433Y-76119328D01*
X119173242Y-76278511D01*
X119173245Y-76278516D01*
X119176060Y-76283993D01*
X119294889Y-76433918D01*
X119299583Y-76437913D01*
X119422450Y-76542481D01*
X119440575Y-76557907D01*
X119445953Y-76560913D01*
X119445955Y-76560914D01*
X119508856Y-76596068D01*
X119592036Y-76642555D01*
X119594700Y-76644044D01*
X119644406Y-76694737D01*
X119658814Y-76764256D01*
X119633351Y-76830529D01*
X119591605Y-76865694D01*
X119463268Y-76932787D01*
X119458468Y-76936647D01*
X119458467Y-76936647D01*
X119324850Y-77044078D01*
X119314176Y-77052660D01*
X119191207Y-77199208D01*
X119099045Y-77366850D01*
X119097184Y-77372717D01*
X119097183Y-77372719D01*
X119068607Y-77462803D01*
X119041200Y-77549201D01*
X119019876Y-77739314D01*
X119020392Y-77745458D01*
X119034887Y-77918072D01*
X119035884Y-77929948D01*
X119043993Y-77958227D01*
X119083592Y-78096328D01*
X119088614Y-78113843D01*
X119091433Y-78119328D01*
X119173242Y-78278511D01*
X119173245Y-78278516D01*
X119176060Y-78283993D01*
X119294889Y-78433918D01*
X119299583Y-78437913D01*
X119433442Y-78551836D01*
X119440575Y-78557907D01*
X119445953Y-78560913D01*
X119445955Y-78560914D01*
X119489940Y-78585496D01*
X119573150Y-78632000D01*
X119594700Y-78644044D01*
X119644406Y-78694737D01*
X119658814Y-78764256D01*
X119633351Y-78830529D01*
X119591605Y-78865694D01*
X119463268Y-78932787D01*
X119458468Y-78936647D01*
X119458467Y-78936647D01*
X119349803Y-79024015D01*
X119314176Y-79052660D01*
X119191207Y-79199208D01*
X119188237Y-79204611D01*
X119188236Y-79204612D01*
X119174304Y-79229955D01*
X119099045Y-79366850D01*
X119097184Y-79372717D01*
X119097183Y-79372719D01*
X119066642Y-79468998D01*
X119041200Y-79549201D01*
X119019876Y-79739314D01*
X119020731Y-79749490D01*
X119034715Y-79916024D01*
X119035884Y-79929948D01*
X119051237Y-79983490D01*
X119084977Y-80101158D01*
X119088614Y-80113843D01*
X119091433Y-80119328D01*
X119173242Y-80278511D01*
X119173245Y-80278516D01*
X119176060Y-80283993D01*
X119294889Y-80433918D01*
X119299583Y-80437913D01*
X119373534Y-80500850D01*
X119440575Y-80557907D01*
X119585845Y-80639095D01*
X119594700Y-80644044D01*
X119644406Y-80694737D01*
X119658814Y-80764256D01*
X119633351Y-80830529D01*
X119591605Y-80865694D01*
X119463268Y-80932787D01*
X119458468Y-80936647D01*
X119458467Y-80936647D01*
X119397379Y-80985763D01*
X119314176Y-81052660D01*
X119191207Y-81199208D01*
X119099045Y-81366850D01*
X119097184Y-81372717D01*
X119097183Y-81372719D01*
X119043062Y-81543331D01*
X119041200Y-81549201D01*
X119019876Y-81739314D01*
X119020392Y-81745458D01*
X119035023Y-81919690D01*
X119035884Y-81929948D01*
X119044182Y-81958888D01*
X119086500Y-82106469D01*
X119088614Y-82113843D01*
X119091433Y-82119328D01*
X119173242Y-82278511D01*
X119173245Y-82278516D01*
X119176060Y-82283993D01*
X119294889Y-82433918D01*
X119299583Y-82437913D01*
X119426821Y-82546201D01*
X119440575Y-82557907D01*
X119574721Y-82632878D01*
X119594700Y-82644044D01*
X119644406Y-82694737D01*
X119658814Y-82764256D01*
X119633351Y-82830529D01*
X119591605Y-82865694D01*
X119463268Y-82932787D01*
X119314176Y-83052660D01*
X119191207Y-83199208D01*
X119099045Y-83366850D01*
X119097184Y-83372717D01*
X119097183Y-83372719D01*
X119087598Y-83402936D01*
X119041200Y-83549201D01*
X119019876Y-83739314D01*
X119020392Y-83745458D01*
X119034320Y-83911318D01*
X119035884Y-83929948D01*
X119043996Y-83958239D01*
X119086641Y-84106962D01*
X119088614Y-84113843D01*
X119091433Y-84119328D01*
X119173242Y-84278511D01*
X119173245Y-84278516D01*
X119176060Y-84283993D01*
X119294889Y-84433918D01*
X119299583Y-84437913D01*
X119424182Y-84543955D01*
X119440575Y-84557907D01*
X119445953Y-84560913D01*
X119445955Y-84560914D01*
X119594700Y-84644044D01*
X119644406Y-84694737D01*
X119658814Y-84764256D01*
X119633351Y-84830529D01*
X119591605Y-84865694D01*
X119463268Y-84932787D01*
X119458468Y-84936647D01*
X119458467Y-84936647D01*
X119393806Y-84988636D01*
X119314176Y-85052660D01*
X119191207Y-85199208D01*
X119188237Y-85204611D01*
X119188236Y-85204612D01*
X119180728Y-85218269D01*
X119099045Y-85366850D01*
X119097184Y-85372717D01*
X119097183Y-85372719D01*
X119046115Y-85533706D01*
X119041200Y-85549201D01*
X119019876Y-85739314D01*
X119035884Y-85929948D01*
X119049094Y-85976018D01*
X119086407Y-86106146D01*
X119088614Y-86113843D01*
X119091433Y-86119328D01*
X119173242Y-86278511D01*
X119173245Y-86278516D01*
X119176060Y-86283993D01*
X119294889Y-86433918D01*
X119299583Y-86437913D01*
X119434194Y-86552476D01*
X119440575Y-86557907D01*
X119445953Y-86560913D01*
X119445955Y-86560914D01*
X119455682Y-86566350D01*
X119559417Y-86624325D01*
X119594700Y-86644044D01*
X119644406Y-86694737D01*
X119658814Y-86764256D01*
X119633351Y-86830529D01*
X119591605Y-86865694D01*
X119463268Y-86932787D01*
X119458468Y-86936647D01*
X119458467Y-86936647D01*
X119421841Y-86966095D01*
X119314176Y-87052660D01*
X119191207Y-87199208D01*
X119099045Y-87366850D01*
X119097184Y-87372717D01*
X119097183Y-87372719D01*
X119047724Y-87528636D01*
X119041200Y-87549201D01*
X119019876Y-87739314D01*
X119020392Y-87745458D01*
X119034309Y-87911186D01*
X119035884Y-87929948D01*
X119040821Y-87947166D01*
X119083592Y-88096328D01*
X119088614Y-88113843D01*
X119091433Y-88119328D01*
X119173242Y-88278511D01*
X119173245Y-88278516D01*
X119176060Y-88283993D01*
X119294889Y-88433918D01*
X119299583Y-88437913D01*
X119396236Y-88520171D01*
X119440575Y-88557907D01*
X119445953Y-88560913D01*
X119445955Y-88560914D01*
X119594700Y-88644044D01*
X119644406Y-88694737D01*
X119658814Y-88764256D01*
X119633351Y-88830529D01*
X119591605Y-88865694D01*
X119463268Y-88932787D01*
X119458468Y-88936647D01*
X119458467Y-88936647D01*
X119456676Y-88938087D01*
X119314176Y-89052660D01*
X119191207Y-89199208D01*
X119099045Y-89366850D01*
X119097184Y-89372717D01*
X119097183Y-89372719D01*
X119051312Y-89517324D01*
X119041200Y-89549201D01*
X119019876Y-89739314D01*
X119020392Y-89745458D01*
X119033953Y-89906948D01*
X119035884Y-89929948D01*
X119048717Y-89974703D01*
X119086428Y-90106219D01*
X119088614Y-90113843D01*
X119091433Y-90119328D01*
X119173242Y-90278511D01*
X119173245Y-90278516D01*
X119176060Y-90283993D01*
X119294889Y-90433918D01*
X119299583Y-90437913D01*
X119381719Y-90507816D01*
X119440575Y-90557907D01*
X119445953Y-90560913D01*
X119445955Y-90560914D01*
X119594700Y-90644044D01*
X119644406Y-90694737D01*
X119658814Y-90764256D01*
X119633351Y-90830529D01*
X119591605Y-90865694D01*
X119463268Y-90932787D01*
X119458468Y-90936647D01*
X119458467Y-90936647D01*
X119335675Y-91035374D01*
X119314176Y-91052660D01*
X119191207Y-91199208D01*
X119188237Y-91204611D01*
X119188236Y-91204612D01*
X119147200Y-91279256D01*
X119099045Y-91366850D01*
X119097184Y-91372717D01*
X119097183Y-91372719D01*
X119050314Y-91520470D01*
X119041200Y-91549201D01*
X119019876Y-91739314D01*
X119035884Y-91929948D01*
X119045661Y-91964046D01*
X119083592Y-92096328D01*
X119088614Y-92113843D01*
X119091433Y-92119328D01*
X119173242Y-92278511D01*
X119173245Y-92278516D01*
X119176060Y-92283993D01*
X119294889Y-92433918D01*
X119299583Y-92437913D01*
X119390791Y-92515537D01*
X119440575Y-92557907D01*
X119445953Y-92560913D01*
X119445955Y-92560914D01*
X119487859Y-92584333D01*
X119540667Y-92613846D01*
X119594700Y-92644044D01*
X119644406Y-92694737D01*
X119658814Y-92764256D01*
X119633351Y-92830529D01*
X119591605Y-92865694D01*
X119463268Y-92932787D01*
X119458468Y-92936647D01*
X119458467Y-92936647D01*
X119366794Y-93010354D01*
X119314176Y-93052660D01*
X119191207Y-93199208D01*
X119099045Y-93366850D01*
X119097184Y-93372717D01*
X119097183Y-93372719D01*
X119075996Y-93439510D01*
X119041200Y-93549201D01*
X119019876Y-93739314D01*
X119020471Y-93746396D01*
X119027537Y-93830541D01*
X119035884Y-93929948D01*
X119037583Y-93935872D01*
X119081993Y-94090751D01*
X119088614Y-94113843D01*
X119091433Y-94119328D01*
X119173242Y-94278511D01*
X119173245Y-94278516D01*
X119176060Y-94283993D01*
X119294889Y-94433918D01*
X119299583Y-94437913D01*
X119424182Y-94543955D01*
X119440575Y-94557907D01*
X119445953Y-94560913D01*
X119445955Y-94560914D01*
X119524072Y-94604572D01*
X119607570Y-94651237D01*
X119789512Y-94710354D01*
X119979472Y-94733005D01*
X119985607Y-94732533D01*
X119985609Y-94732533D01*
X120164071Y-94718801D01*
X120164075Y-94718800D01*
X120170213Y-94718328D01*
X120354472Y-94666882D01*
X120525228Y-94580627D01*
X120535700Y-94572446D01*
X120647883Y-94484799D01*
X123531415Y-94484799D01*
X123538147Y-94488000D01*
X124431885Y-94488000D01*
X124447124Y-94483525D01*
X124448329Y-94482135D01*
X124450000Y-94474452D01*
X124450000Y-93586087D01*
X124446194Y-93573125D01*
X124431278Y-93571189D01*
X124397787Y-93576944D01*
X124386661Y-93579925D01*
X124190592Y-93652258D01*
X124180210Y-93657210D01*
X124000604Y-93764064D01*
X123991292Y-93770829D01*
X123834163Y-93908629D01*
X123826246Y-93916972D01*
X123696862Y-94081095D01*
X123690591Y-94090751D01*
X123593287Y-94275696D01*
X123588881Y-94286333D01*
X123531634Y-94470698D01*
X123531415Y-94484799D01*
X120647883Y-94484799D01*
X120648916Y-94483992D01*
X120675979Y-94462848D01*
X120690537Y-94445983D01*
X120796958Y-94322692D01*
X120796959Y-94322691D01*
X120800982Y-94318030D01*
X120806118Y-94308990D01*
X120892429Y-94157054D01*
X120895476Y-94151691D01*
X120955861Y-93970166D01*
X120968262Y-93872000D01*
X120979396Y-93783872D01*
X120979397Y-93783863D01*
X120979838Y-93780369D01*
X120980220Y-93753000D01*
X120961552Y-93562608D01*
X120906259Y-93379467D01*
X120901844Y-93371164D01*
X120819342Y-93216001D01*
X120819341Y-93215999D01*
X120816446Y-93210555D01*
X120766125Y-93148855D01*
X120699430Y-93067078D01*
X120699427Y-93067075D01*
X120695535Y-93062303D01*
X120690704Y-93058306D01*
X120552879Y-92944288D01*
X120548132Y-92940361D01*
X120405107Y-92863027D01*
X120354701Y-92813035D01*
X120339324Y-92743724D01*
X120363860Y-92677102D01*
X120408228Y-92639728D01*
X120440889Y-92623230D01*
X120525228Y-92580627D01*
X120550048Y-92561236D01*
X120659899Y-92475411D01*
X120675979Y-92462848D01*
X120687510Y-92449490D01*
X120796958Y-92322692D01*
X120796959Y-92322691D01*
X120800982Y-92318030D01*
X120806856Y-92307691D01*
X120860743Y-92212832D01*
X120895476Y-92151691D01*
X120955861Y-91970166D01*
X120961718Y-91923807D01*
X120979396Y-91783872D01*
X120979397Y-91783863D01*
X120979838Y-91780369D01*
X120980220Y-91753000D01*
X120961552Y-91562608D01*
X120906259Y-91379467D01*
X120878087Y-91326484D01*
X120819342Y-91216001D01*
X120819341Y-91215999D01*
X120816446Y-91210555D01*
X120771248Y-91155137D01*
X120699430Y-91067078D01*
X120699427Y-91067075D01*
X120695535Y-91062303D01*
X120662984Y-91035374D01*
X120552879Y-90944288D01*
X120548132Y-90940361D01*
X120405107Y-90863027D01*
X120354701Y-90813035D01*
X120339324Y-90743724D01*
X120363860Y-90677102D01*
X120408228Y-90639728D01*
X120519734Y-90583402D01*
X120525228Y-90580627D01*
X120554309Y-90557907D01*
X120642725Y-90488829D01*
X120675979Y-90462848D01*
X120692562Y-90443637D01*
X120796957Y-90322693D01*
X120800982Y-90318030D01*
X120804027Y-90312669D01*
X120807574Y-90307641D01*
X120809771Y-90309191D01*
X120852440Y-90267921D01*
X120910973Y-90253500D01*
X121995496Y-90253500D01*
X122063617Y-90273502D01*
X122084591Y-90290405D01*
X125171384Y-93377198D01*
X125205410Y-93439510D01*
X125200345Y-93510325D01*
X125157798Y-93567161D01*
X125091278Y-93591972D01*
X125046504Y-93587105D01*
X125040612Y-93585360D01*
X124975770Y-93572462D01*
X124962894Y-93573614D01*
X124958000Y-93588770D01*
X124958000Y-95899691D01*
X124961966Y-95913197D01*
X124975966Y-95915201D01*
X124979618Y-95914672D01*
X124990803Y-95911987D01*
X125188707Y-95844807D01*
X125199216Y-95840128D01*
X125381552Y-95738015D01*
X125391045Y-95731490D01*
X125551725Y-95597854D01*
X125559854Y-95589725D01*
X125693490Y-95429045D01*
X125700015Y-95419552D01*
X125802128Y-95237216D01*
X125806807Y-95226707D01*
X125873985Y-95028809D01*
X125876671Y-95017619D01*
X125876712Y-95017338D01*
X125876768Y-95017215D01*
X125878020Y-95012001D01*
X125879044Y-95012247D01*
X125906279Y-94952791D01*
X125966050Y-94914476D01*
X126037046Y-94914558D01*
X126096728Y-94953010D01*
X126123532Y-95004397D01*
X126148305Y-95101939D01*
X126154845Y-95127690D01*
X126157262Y-95132933D01*
X126184245Y-95191463D01*
X126243369Y-95319714D01*
X126365405Y-95492391D01*
X126402682Y-95528705D01*
X126509727Y-95632983D01*
X126516865Y-95639937D01*
X126521661Y-95643142D01*
X126521664Y-95643144D01*
X126663649Y-95738015D01*
X126692677Y-95757411D01*
X126697985Y-95759692D01*
X126697986Y-95759692D01*
X126881650Y-95838600D01*
X126881653Y-95838601D01*
X126886953Y-95840878D01*
X126892582Y-95842152D01*
X126892583Y-95842152D01*
X127087550Y-95886269D01*
X127087553Y-95886269D01*
X127093186Y-95887544D01*
X127098957Y-95887771D01*
X127098959Y-95887771D01*
X127160989Y-95890208D01*
X127304470Y-95895846D01*
X127310179Y-95895018D01*
X127310183Y-95895018D01*
X127508015Y-95866333D01*
X127508019Y-95866332D01*
X127513730Y-95865504D01*
X127600579Y-95836023D01*
X127708483Y-95799395D01*
X127708488Y-95799393D01*
X127713955Y-95797537D01*
X127757103Y-95773373D01*
X127893395Y-95697046D01*
X127893399Y-95697043D01*
X127898442Y-95694219D01*
X128061012Y-95559012D01*
X128196219Y-95396442D01*
X128199043Y-95391399D01*
X128199046Y-95391395D01*
X128296713Y-95216998D01*
X128296714Y-95216996D01*
X128299537Y-95211955D01*
X128301393Y-95206488D01*
X128301395Y-95206483D01*
X128365647Y-95017200D01*
X128367504Y-95011730D01*
X128368333Y-95006013D01*
X128389090Y-94862860D01*
X128418660Y-94798315D01*
X128478432Y-94760003D01*
X128549429Y-94760087D01*
X128609109Y-94798542D01*
X128638525Y-94863158D01*
X128639515Y-94872695D01*
X128642796Y-94922749D01*
X128644217Y-94928345D01*
X128644218Y-94928350D01*
X128688305Y-95101939D01*
X128694845Y-95127690D01*
X128697262Y-95132933D01*
X128724245Y-95191463D01*
X128783369Y-95319714D01*
X128905405Y-95492391D01*
X128942682Y-95528705D01*
X129049727Y-95632983D01*
X129056865Y-95639937D01*
X129061661Y-95643142D01*
X129061664Y-95643144D01*
X129203649Y-95738015D01*
X129232677Y-95757411D01*
X129237985Y-95759692D01*
X129237986Y-95759692D01*
X129421650Y-95838600D01*
X129421653Y-95838601D01*
X129426953Y-95840878D01*
X129432582Y-95842152D01*
X129432583Y-95842152D01*
X129627550Y-95886269D01*
X129627553Y-95886269D01*
X129633186Y-95887544D01*
X129638957Y-95887771D01*
X129638959Y-95887771D01*
X129700989Y-95890208D01*
X129844470Y-95895846D01*
X129850179Y-95895018D01*
X129850183Y-95895018D01*
X130048015Y-95866333D01*
X130048019Y-95866332D01*
X130053730Y-95865504D01*
X130140579Y-95836023D01*
X130248483Y-95799395D01*
X130248488Y-95799393D01*
X130253955Y-95797537D01*
X130297103Y-95773373D01*
X130433395Y-95697046D01*
X130433399Y-95697043D01*
X130438442Y-95694219D01*
X130601012Y-95559012D01*
X130736219Y-95396442D01*
X130739043Y-95391399D01*
X130739046Y-95391395D01*
X130836713Y-95216998D01*
X130836714Y-95216996D01*
X130839537Y-95211955D01*
X130841393Y-95206488D01*
X130841395Y-95206483D01*
X130905647Y-95017200D01*
X130907504Y-95011730D01*
X130922804Y-94906211D01*
X130952374Y-94841665D01*
X131012146Y-94803353D01*
X131083143Y-94803437D01*
X131142823Y-94841892D01*
X131172239Y-94906508D01*
X131173500Y-94924291D01*
X131173500Y-95636646D01*
X131176618Y-95662846D01*
X131180456Y-95671486D01*
X131180456Y-95671487D01*
X131185027Y-95681777D01*
X131222061Y-95765153D01*
X131230294Y-95773372D01*
X131230295Y-95773373D01*
X131254854Y-95797889D01*
X131301287Y-95844241D01*
X131311924Y-95848944D01*
X131311926Y-95848945D01*
X131349382Y-95865504D01*
X131403673Y-95889506D01*
X131429354Y-95892500D01*
X133218646Y-95892500D01*
X133222350Y-95892059D01*
X133222353Y-95892059D01*
X133229746Y-95891179D01*
X133244846Y-95889382D01*
X133347153Y-95843939D01*
X133426241Y-95764713D01*
X133438045Y-95738015D01*
X133457265Y-95694538D01*
X133471506Y-95662327D01*
X133474500Y-95636646D01*
X133474500Y-93847354D01*
X133471382Y-93821154D01*
X133446885Y-93766002D01*
X133430663Y-93729482D01*
X133425939Y-93718847D01*
X133346713Y-93639759D01*
X133336076Y-93635056D01*
X133336074Y-93635055D01*
X133252992Y-93598325D01*
X133252993Y-93598325D01*
X133244327Y-93594494D01*
X133218646Y-93591500D01*
X131933504Y-93591500D01*
X131865383Y-93571498D01*
X131844409Y-93554595D01*
X131474405Y-93184591D01*
X131440379Y-93122279D01*
X131437500Y-93095496D01*
X131437500Y-90318703D01*
X131457502Y-90250582D01*
X131511158Y-90204089D01*
X131581432Y-90193985D01*
X131623624Y-90207973D01*
X131637266Y-90215380D01*
X131829288Y-90297879D01*
X131840221Y-90301431D01*
X131935331Y-90322952D01*
X131949405Y-90322063D01*
X131953000Y-90312664D01*
X131953000Y-90311691D01*
X132461000Y-90311691D01*
X132464966Y-90325197D01*
X132478966Y-90327201D01*
X132482618Y-90326672D01*
X132493803Y-90323987D01*
X132691707Y-90256807D01*
X132702216Y-90252128D01*
X132884552Y-90150015D01*
X132894045Y-90143490D01*
X133054725Y-90009854D01*
X133062854Y-90001725D01*
X133196490Y-89841045D01*
X133203015Y-89831552D01*
X133305128Y-89649216D01*
X133309807Y-89638707D01*
X133376987Y-89440803D01*
X133379672Y-89429618D01*
X133380206Y-89425931D01*
X133378219Y-89411992D01*
X133364653Y-89408000D01*
X132479115Y-89408000D01*
X132463876Y-89412475D01*
X132462671Y-89413865D01*
X132461000Y-89421548D01*
X132461000Y-90311691D01*
X131953000Y-90311691D01*
X131953000Y-89026000D01*
X131973002Y-88957879D01*
X132026658Y-88911386D01*
X132079000Y-88900000D01*
X133364150Y-88900000D01*
X133377681Y-88896027D01*
X133378850Y-88887892D01*
X133333664Y-88727675D01*
X133329542Y-88716936D01*
X133237107Y-88529497D01*
X133231097Y-88519689D01*
X133106047Y-88352227D01*
X133098357Y-88343687D01*
X132944883Y-88201816D01*
X132935758Y-88194815D01*
X132759006Y-88083293D01*
X132748759Y-88078072D01*
X132550512Y-87998979D01*
X132494652Y-87955158D01*
X132471352Y-87888094D01*
X132488008Y-87819079D01*
X132539332Y-87770024D01*
X132556701Y-87762636D01*
X132691704Y-87716809D01*
X132702216Y-87712128D01*
X132884552Y-87610015D01*
X132894045Y-87603490D01*
X133054725Y-87469854D01*
X133062854Y-87461725D01*
X133196490Y-87301045D01*
X133203015Y-87291552D01*
X133305128Y-87109216D01*
X133309807Y-87098707D01*
X133376987Y-86900803D01*
X133379672Y-86889618D01*
X133380206Y-86885931D01*
X133378219Y-86871992D01*
X133364653Y-86868000D01*
X132079000Y-86868000D01*
X132010879Y-86847998D01*
X131964386Y-86794342D01*
X131953000Y-86742000D01*
X131953000Y-86486000D01*
X131973002Y-86417879D01*
X132026658Y-86371386D01*
X132079000Y-86360000D01*
X133364150Y-86360000D01*
X133377681Y-86356027D01*
X133378850Y-86347892D01*
X133333664Y-86187675D01*
X133329542Y-86176936D01*
X133237107Y-85989497D01*
X133231097Y-85979689D01*
X133106047Y-85812227D01*
X133098357Y-85803687D01*
X132944883Y-85661816D01*
X132935758Y-85654815D01*
X132759006Y-85543293D01*
X132748759Y-85538072D01*
X132550512Y-85458979D01*
X132494652Y-85415158D01*
X132471352Y-85348094D01*
X132488008Y-85279079D01*
X132539332Y-85230024D01*
X132556701Y-85222636D01*
X132691704Y-85176809D01*
X132702216Y-85172128D01*
X132884552Y-85070015D01*
X132894045Y-85063490D01*
X133054725Y-84929854D01*
X133062854Y-84921725D01*
X133196490Y-84761045D01*
X133203015Y-84751552D01*
X133305128Y-84569216D01*
X133309807Y-84558707D01*
X133376987Y-84360803D01*
X133379672Y-84349618D01*
X133380206Y-84345931D01*
X133378219Y-84331992D01*
X133364653Y-84328000D01*
X132079000Y-84328000D01*
X132010879Y-84307998D01*
X131964386Y-84254342D01*
X131953000Y-84202000D01*
X131953000Y-83946000D01*
X131973002Y-83877879D01*
X132026658Y-83831386D01*
X132079000Y-83820000D01*
X133364150Y-83820000D01*
X133377681Y-83816027D01*
X133378850Y-83807892D01*
X133333664Y-83647675D01*
X133329542Y-83636936D01*
X133237107Y-83449497D01*
X133231097Y-83439689D01*
X133106047Y-83272227D01*
X133098357Y-83263687D01*
X132944883Y-83121816D01*
X132935758Y-83114815D01*
X132759006Y-83003293D01*
X132748759Y-82998072D01*
X132550512Y-82918979D01*
X132494652Y-82875158D01*
X132471352Y-82808094D01*
X132488008Y-82739079D01*
X132539332Y-82690024D01*
X132556701Y-82682636D01*
X132691704Y-82636809D01*
X132702216Y-82632128D01*
X132884552Y-82530015D01*
X132894045Y-82523490D01*
X133054725Y-82389854D01*
X133062854Y-82381725D01*
X133196490Y-82221045D01*
X133203015Y-82211552D01*
X133305128Y-82029216D01*
X133309807Y-82018707D01*
X133376987Y-81820803D01*
X133379672Y-81809618D01*
X133380206Y-81805931D01*
X133378219Y-81791992D01*
X133364653Y-81788000D01*
X132079000Y-81788000D01*
X132010879Y-81767998D01*
X131964386Y-81714342D01*
X131953000Y-81662000D01*
X131953000Y-81406000D01*
X131973002Y-81337879D01*
X132026658Y-81291386D01*
X132079000Y-81280000D01*
X133364150Y-81280000D01*
X133377681Y-81276027D01*
X133378850Y-81267892D01*
X133333664Y-81107675D01*
X133329542Y-81096936D01*
X133237107Y-80909497D01*
X133231097Y-80899689D01*
X133106047Y-80732227D01*
X133098357Y-80723687D01*
X132944883Y-80581816D01*
X132935758Y-80574815D01*
X132759006Y-80463293D01*
X132748759Y-80458072D01*
X132550512Y-80378979D01*
X132494652Y-80335158D01*
X132471352Y-80268094D01*
X132488008Y-80199079D01*
X132539332Y-80150024D01*
X132556701Y-80142636D01*
X132691704Y-80096809D01*
X132702216Y-80092128D01*
X132884552Y-79990015D01*
X132894045Y-79983490D01*
X133054725Y-79849854D01*
X133062854Y-79841725D01*
X133196490Y-79681045D01*
X133203015Y-79671552D01*
X133305128Y-79489216D01*
X133309807Y-79478707D01*
X133376987Y-79280803D01*
X133379672Y-79269618D01*
X133380206Y-79265931D01*
X133378219Y-79251992D01*
X133364653Y-79248000D01*
X132079000Y-79248000D01*
X132010879Y-79227998D01*
X131964386Y-79174342D01*
X131953000Y-79122000D01*
X131953000Y-78866000D01*
X131973002Y-78797879D01*
X132026658Y-78751386D01*
X132079000Y-78740000D01*
X133364150Y-78740000D01*
X133377681Y-78736027D01*
X133378850Y-78727892D01*
X133333664Y-78567675D01*
X133329542Y-78556936D01*
X133237107Y-78369497D01*
X133231097Y-78359689D01*
X133106047Y-78192227D01*
X133098357Y-78183687D01*
X132944883Y-78041816D01*
X132935758Y-78034815D01*
X132759006Y-77923293D01*
X132748759Y-77918072D01*
X132550512Y-77838979D01*
X132494652Y-77795158D01*
X132471352Y-77728094D01*
X132488008Y-77659079D01*
X132539332Y-77610024D01*
X132556701Y-77602636D01*
X132691704Y-77556809D01*
X132702216Y-77552128D01*
X132884552Y-77450015D01*
X132894045Y-77443490D01*
X133054725Y-77309854D01*
X133062854Y-77301725D01*
X133196490Y-77141045D01*
X133203015Y-77131552D01*
X133305128Y-76949216D01*
X133309807Y-76938707D01*
X133376987Y-76740803D01*
X133379672Y-76729618D01*
X133380206Y-76725931D01*
X133378219Y-76711992D01*
X133364653Y-76708000D01*
X132079000Y-76708000D01*
X132010879Y-76687998D01*
X131964386Y-76634342D01*
X131953000Y-76582000D01*
X131953000Y-76326000D01*
X131973002Y-76257879D01*
X132026658Y-76211386D01*
X132079000Y-76200000D01*
X133364150Y-76200000D01*
X133377681Y-76196027D01*
X133378850Y-76187892D01*
X133333664Y-76027675D01*
X133329542Y-76016936D01*
X133237107Y-75829497D01*
X133231097Y-75819689D01*
X133106047Y-75652227D01*
X133098357Y-75643687D01*
X132944883Y-75501816D01*
X132935758Y-75494815D01*
X132759006Y-75383293D01*
X132748759Y-75378072D01*
X132550512Y-75298979D01*
X132494652Y-75255158D01*
X132471352Y-75188094D01*
X132488008Y-75119079D01*
X132539332Y-75070024D01*
X132556701Y-75062636D01*
X132691704Y-75016809D01*
X132702216Y-75012128D01*
X132884552Y-74910015D01*
X132894045Y-74903490D01*
X133054725Y-74769854D01*
X133062854Y-74761725D01*
X133196490Y-74601045D01*
X133203015Y-74591552D01*
X133305128Y-74409216D01*
X133309807Y-74398707D01*
X133376987Y-74200803D01*
X133379672Y-74189618D01*
X133380206Y-74185931D01*
X133378219Y-74171992D01*
X133364653Y-74168000D01*
X132079000Y-74168000D01*
X132010879Y-74147998D01*
X131964386Y-74094342D01*
X131953000Y-74042000D01*
X131953000Y-73786000D01*
X131973002Y-73717879D01*
X132026658Y-73671386D01*
X132079000Y-73660000D01*
X133364150Y-73660000D01*
X133377681Y-73656027D01*
X133378850Y-73647892D01*
X133333664Y-73487675D01*
X133329542Y-73476936D01*
X133237107Y-73289497D01*
X133231097Y-73279689D01*
X133106047Y-73112227D01*
X133098357Y-73103687D01*
X132944883Y-72961816D01*
X132935758Y-72954815D01*
X132759006Y-72843293D01*
X132748762Y-72838074D01*
X132696014Y-72817029D01*
X132640155Y-72773208D01*
X132616855Y-72706144D01*
X132633511Y-72637128D01*
X132684836Y-72588074D01*
X132742705Y-72573999D01*
X133085568Y-72573999D01*
X133094734Y-72573328D01*
X133149278Y-72565300D01*
X133167759Y-72559557D01*
X133254213Y-72517111D01*
X133270918Y-72505151D01*
X133338523Y-72437428D01*
X133350455Y-72420700D01*
X133392755Y-72334162D01*
X133398463Y-72315694D01*
X133406340Y-72261703D01*
X133407000Y-72252604D01*
X133407000Y-71646115D01*
X133402525Y-71630876D01*
X133401135Y-71629671D01*
X133393452Y-71628000D01*
X132079000Y-71628000D01*
X132010879Y-71607998D01*
X131964386Y-71554342D01*
X131953000Y-71502000D01*
X131953000Y-71101885D01*
X132461000Y-71101885D01*
X132465475Y-71117124D01*
X132466865Y-71118329D01*
X132474548Y-71120000D01*
X133388884Y-71120000D01*
X133404123Y-71115525D01*
X133405328Y-71114135D01*
X133406999Y-71106452D01*
X133406999Y-70495432D01*
X133406328Y-70486266D01*
X133398300Y-70431722D01*
X133392557Y-70413241D01*
X133350111Y-70326787D01*
X133338151Y-70310082D01*
X133270428Y-70242477D01*
X133253700Y-70230545D01*
X133167162Y-70188245D01*
X133148694Y-70182537D01*
X133094703Y-70174660D01*
X133085604Y-70174000D01*
X132479115Y-70174000D01*
X132463876Y-70178475D01*
X132462671Y-70179865D01*
X132461000Y-70187548D01*
X132461000Y-71101885D01*
X131953000Y-71101885D01*
X131953000Y-70192116D01*
X131948525Y-70176877D01*
X131947135Y-70175672D01*
X131939452Y-70174001D01*
X131328432Y-70174001D01*
X131319266Y-70174672D01*
X131264722Y-70182700D01*
X131246241Y-70188443D01*
X131159787Y-70230889D01*
X131143082Y-70242849D01*
X131075477Y-70310572D01*
X131063547Y-70327298D01*
X131022379Y-70411517D01*
X130974493Y-70463933D01*
X130905870Y-70482140D01*
X130838298Y-70460356D01*
X130794030Y-70407334D01*
X130768939Y-70350847D01*
X130689713Y-70271759D01*
X130679076Y-70267056D01*
X130679074Y-70267055D01*
X130596490Y-70230545D01*
X130587327Y-70226494D01*
X130561646Y-70223500D01*
X128772354Y-70223500D01*
X128768650Y-70223941D01*
X128768647Y-70223941D01*
X128761254Y-70224821D01*
X128746154Y-70226618D01*
X128737514Y-70230456D01*
X128737513Y-70230456D01*
X128655117Y-70267055D01*
X128643847Y-70272061D01*
X128635628Y-70280294D01*
X128635627Y-70280295D01*
X128620918Y-70295030D01*
X128564759Y-70351287D01*
X128560056Y-70361924D01*
X128560055Y-70361926D01*
X128523544Y-70444512D01*
X128519494Y-70453673D01*
X128518452Y-70462610D01*
X128481370Y-70522855D01*
X128417375Y-70553597D01*
X128346918Y-70544861D01*
X128292368Y-70499420D01*
X128275528Y-70462647D01*
X128275499Y-70462543D01*
X128274382Y-70453154D01*
X128228939Y-70350847D01*
X128149713Y-70271759D01*
X128139076Y-70267056D01*
X128139074Y-70267055D01*
X128056490Y-70230545D01*
X128047327Y-70226494D01*
X128021646Y-70223500D01*
X126232354Y-70223500D01*
X126228650Y-70223941D01*
X126228647Y-70223941D01*
X126221254Y-70224821D01*
X126206154Y-70226618D01*
X126197514Y-70230456D01*
X126197513Y-70230456D01*
X126115117Y-70267055D01*
X126103847Y-70272061D01*
X126095628Y-70280294D01*
X126095627Y-70280295D01*
X126080918Y-70295030D01*
X126024759Y-70351287D01*
X125979494Y-70453673D01*
X125976500Y-70479354D01*
X125976500Y-72268646D01*
X125979618Y-72294846D01*
X125983456Y-72303486D01*
X125983456Y-72303487D01*
X126000099Y-72340955D01*
X126025061Y-72397153D01*
X126104287Y-72476241D01*
X126114924Y-72480944D01*
X126114926Y-72480945D01*
X126169679Y-72505151D01*
X126206673Y-72521506D01*
X126232354Y-72524500D01*
X126941988Y-72524500D01*
X127010109Y-72544502D01*
X127056602Y-72598158D01*
X127066706Y-72668432D01*
X127037212Y-72733012D01*
X126977486Y-72771396D01*
X126963326Y-72774680D01*
X126833650Y-72796962D01*
X126833649Y-72796962D01*
X126827953Y-72797941D01*
X126629575Y-72871127D01*
X126624614Y-72874079D01*
X126624613Y-72874079D01*
X126488908Y-72954815D01*
X126447856Y-72979238D01*
X126288881Y-73118655D01*
X126157976Y-73284708D01*
X126155287Y-73289819D01*
X126155285Y-73289822D01*
X126114759Y-73366850D01*
X126059523Y-73471836D01*
X125996820Y-73673773D01*
X125971967Y-73883754D01*
X125973487Y-73906948D01*
X125985390Y-74088547D01*
X125985796Y-74094749D01*
X125987217Y-74100345D01*
X125987218Y-74100350D01*
X126024356Y-74246577D01*
X126037845Y-74299690D01*
X126040262Y-74304933D01*
X126102926Y-74440862D01*
X126126369Y-74491714D01*
X126248405Y-74664391D01*
X126279556Y-74694737D01*
X126354881Y-74768115D01*
X126399865Y-74811937D01*
X126404661Y-74815142D01*
X126404664Y-74815144D01*
X126543493Y-74907906D01*
X126575677Y-74929411D01*
X126580985Y-74931692D01*
X126580986Y-74931692D01*
X126764650Y-75010600D01*
X126764653Y-75010601D01*
X126769953Y-75012878D01*
X126775582Y-75014152D01*
X126775583Y-75014152D01*
X126970550Y-75058269D01*
X126970553Y-75058269D01*
X126976186Y-75059544D01*
X126981958Y-75059771D01*
X126987687Y-75060525D01*
X126987327Y-75063257D01*
X127043604Y-75082216D01*
X127087950Y-75137659D01*
X127095282Y-75208276D01*
X127063271Y-75271647D01*
X127002081Y-75307651D01*
X126992704Y-75309632D01*
X126833650Y-75336962D01*
X126833649Y-75336962D01*
X126827953Y-75337941D01*
X126629575Y-75411127D01*
X126624614Y-75414079D01*
X126624613Y-75414079D01*
X126488908Y-75494815D01*
X126447856Y-75519238D01*
X126288881Y-75658655D01*
X126157976Y-75824708D01*
X126155287Y-75829819D01*
X126155285Y-75829822D01*
X126115331Y-75905763D01*
X126059523Y-76011836D01*
X125996820Y-76213773D01*
X125971967Y-76423754D01*
X125985796Y-76634749D01*
X125987217Y-76640345D01*
X125987218Y-76640350D01*
X126027184Y-76797714D01*
X126037845Y-76839690D01*
X126126369Y-77031714D01*
X126248405Y-77204391D01*
X126399865Y-77351937D01*
X126404661Y-77355142D01*
X126404664Y-77355144D01*
X126546649Y-77450015D01*
X126575677Y-77469411D01*
X126580985Y-77471692D01*
X126580986Y-77471692D01*
X126764650Y-77550600D01*
X126764653Y-77550601D01*
X126769953Y-77552878D01*
X126775582Y-77554152D01*
X126775583Y-77554152D01*
X126970550Y-77598269D01*
X126970553Y-77598269D01*
X126976186Y-77599544D01*
X126981958Y-77599771D01*
X126987687Y-77600525D01*
X126987327Y-77603257D01*
X127043604Y-77622216D01*
X127087950Y-77677659D01*
X127095282Y-77748276D01*
X127063271Y-77811647D01*
X127002081Y-77847651D01*
X126992704Y-77849632D01*
X126833650Y-77876962D01*
X126833649Y-77876962D01*
X126827953Y-77877941D01*
X126629575Y-77951127D01*
X126624614Y-77954079D01*
X126624613Y-77954079D01*
X126488908Y-78034815D01*
X126447856Y-78059238D01*
X126288881Y-78198655D01*
X126157976Y-78364708D01*
X126155287Y-78369819D01*
X126155285Y-78369822D01*
X126119461Y-78437913D01*
X126059523Y-78551836D01*
X125996820Y-78753773D01*
X125971967Y-78963754D01*
X125985796Y-79174749D01*
X125987217Y-79180345D01*
X125987218Y-79180350D01*
X126025852Y-79332469D01*
X126037845Y-79379690D01*
X126126369Y-79571714D01*
X126248405Y-79744391D01*
X126399865Y-79891937D01*
X126404661Y-79895142D01*
X126404664Y-79895144D01*
X126546649Y-79990015D01*
X126575677Y-80009411D01*
X126580985Y-80011692D01*
X126580986Y-80011692D01*
X126764650Y-80090600D01*
X126764653Y-80090601D01*
X126769953Y-80092878D01*
X126775582Y-80094152D01*
X126775583Y-80094152D01*
X126970550Y-80138269D01*
X126970553Y-80138269D01*
X126976186Y-80139544D01*
X126981958Y-80139771D01*
X126987687Y-80140525D01*
X126987327Y-80143257D01*
X127043604Y-80162216D01*
X127087950Y-80217659D01*
X127095282Y-80288276D01*
X127063271Y-80351647D01*
X127002081Y-80387651D01*
X126992704Y-80389632D01*
X126833650Y-80416962D01*
X126833649Y-80416962D01*
X126827953Y-80417941D01*
X126629575Y-80491127D01*
X126624614Y-80494079D01*
X126624613Y-80494079D01*
X126488908Y-80574815D01*
X126447856Y-80599238D01*
X126288881Y-80738655D01*
X126157976Y-80904708D01*
X126155287Y-80909819D01*
X126155285Y-80909822D01*
X126115331Y-80985763D01*
X126059523Y-81091836D01*
X125996820Y-81293773D01*
X125971967Y-81503754D01*
X125985796Y-81714749D01*
X125987217Y-81720345D01*
X125987218Y-81720350D01*
X126025852Y-81872469D01*
X126037845Y-81919690D01*
X126040262Y-81924933D01*
X126104217Y-82063663D01*
X126126369Y-82111714D01*
X126248405Y-82284391D01*
X126399865Y-82431937D01*
X126404661Y-82435142D01*
X126404664Y-82435144D01*
X126546649Y-82530015D01*
X126575677Y-82549411D01*
X126580985Y-82551692D01*
X126580986Y-82551692D01*
X126764650Y-82630600D01*
X126764653Y-82630601D01*
X126769953Y-82632878D01*
X126775582Y-82634152D01*
X126775583Y-82634152D01*
X126970550Y-82678269D01*
X126970553Y-82678269D01*
X126976186Y-82679544D01*
X126981958Y-82679771D01*
X126987687Y-82680525D01*
X126987327Y-82683257D01*
X127043604Y-82702216D01*
X127087950Y-82757659D01*
X127095282Y-82828276D01*
X127063271Y-82891647D01*
X127002081Y-82927651D01*
X126992704Y-82929632D01*
X126833650Y-82956962D01*
X126833649Y-82956962D01*
X126827953Y-82957941D01*
X126629575Y-83031127D01*
X126624614Y-83034079D01*
X126624613Y-83034079D01*
X126488908Y-83114815D01*
X126447856Y-83139238D01*
X126288881Y-83278655D01*
X126157976Y-83444708D01*
X126155287Y-83449819D01*
X126155285Y-83449822D01*
X126141792Y-83475469D01*
X126059523Y-83631836D01*
X125996820Y-83833773D01*
X125971967Y-84043754D01*
X125985796Y-84254749D01*
X125987217Y-84260345D01*
X125987218Y-84260350D01*
X126024231Y-84406087D01*
X126037845Y-84459690D01*
X126040262Y-84464933D01*
X126083492Y-84558707D01*
X126126369Y-84651714D01*
X126248405Y-84824391D01*
X126276953Y-84852201D01*
X126371483Y-84944288D01*
X126399865Y-84971937D01*
X126404661Y-84975142D01*
X126404664Y-84975144D01*
X126542253Y-85067078D01*
X126575677Y-85089411D01*
X126580985Y-85091692D01*
X126580986Y-85091692D01*
X126764650Y-85170600D01*
X126764653Y-85170601D01*
X126769953Y-85172878D01*
X126775582Y-85174152D01*
X126775583Y-85174152D01*
X126970550Y-85218269D01*
X126970553Y-85218269D01*
X126976186Y-85219544D01*
X126981958Y-85219771D01*
X126987687Y-85220525D01*
X126987327Y-85223257D01*
X127043604Y-85242216D01*
X127087950Y-85297659D01*
X127095282Y-85368276D01*
X127063271Y-85431647D01*
X127002081Y-85467651D01*
X126992704Y-85469632D01*
X126833650Y-85496962D01*
X126833649Y-85496962D01*
X126827953Y-85497941D01*
X126629575Y-85571127D01*
X126624614Y-85574079D01*
X126624613Y-85574079D01*
X126488908Y-85654815D01*
X126447856Y-85679238D01*
X126288881Y-85818655D01*
X126157976Y-85984708D01*
X126155287Y-85989819D01*
X126155285Y-85989822D01*
X126141792Y-86015469D01*
X126059523Y-86171836D01*
X125996820Y-86373773D01*
X125971967Y-86583754D01*
X125985796Y-86794749D01*
X125987217Y-86800345D01*
X125987218Y-86800350D01*
X126025852Y-86952469D01*
X126037845Y-86999690D01*
X126126369Y-87191714D01*
X126248405Y-87364391D01*
X126399865Y-87511937D01*
X126404661Y-87515142D01*
X126404664Y-87515144D01*
X126543696Y-87608042D01*
X126575677Y-87629411D01*
X126580985Y-87631692D01*
X126580986Y-87631692D01*
X126764650Y-87710600D01*
X126764653Y-87710601D01*
X126769953Y-87712878D01*
X126775582Y-87714152D01*
X126775583Y-87714152D01*
X126970550Y-87758269D01*
X126970553Y-87758269D01*
X126976186Y-87759544D01*
X126981958Y-87759771D01*
X126987687Y-87760525D01*
X126987327Y-87763257D01*
X127043604Y-87782216D01*
X127087950Y-87837659D01*
X127095282Y-87908276D01*
X127063271Y-87971647D01*
X127002081Y-88007651D01*
X126992704Y-88009632D01*
X126833650Y-88036962D01*
X126833649Y-88036962D01*
X126827953Y-88037941D01*
X126629575Y-88111127D01*
X126624614Y-88114079D01*
X126624613Y-88114079D01*
X126488908Y-88194815D01*
X126447856Y-88219238D01*
X126288881Y-88358655D01*
X126157976Y-88524708D01*
X126155287Y-88529819D01*
X126155285Y-88529822D01*
X126120885Y-88595206D01*
X126059523Y-88711836D01*
X125996820Y-88913773D01*
X125971967Y-89123754D01*
X125985796Y-89334749D01*
X125987217Y-89340345D01*
X125987218Y-89340350D01*
X126014741Y-89448720D01*
X126037845Y-89539690D01*
X126040262Y-89544933D01*
X126042230Y-89549201D01*
X126126369Y-89731714D01*
X126248405Y-89904391D01*
X126268336Y-89923807D01*
X126357357Y-90010527D01*
X126399865Y-90051937D01*
X126404661Y-90055142D01*
X126404664Y-90055144D01*
X126541875Y-90146825D01*
X126575677Y-90169411D01*
X126580985Y-90171692D01*
X126580986Y-90171692D01*
X126764650Y-90250600D01*
X126764653Y-90250601D01*
X126769953Y-90252878D01*
X126775582Y-90254152D01*
X126775583Y-90254152D01*
X126970550Y-90298269D01*
X126970553Y-90298269D01*
X126976186Y-90299544D01*
X126981957Y-90299771D01*
X126981959Y-90299771D01*
X127043989Y-90302208D01*
X127187470Y-90307846D01*
X127193179Y-90307018D01*
X127193183Y-90307018D01*
X127391015Y-90278333D01*
X127391019Y-90278332D01*
X127396730Y-90277504D01*
X127518921Y-90236026D01*
X127591483Y-90211395D01*
X127591488Y-90211393D01*
X127596955Y-90209537D01*
X127606683Y-90204089D01*
X127776395Y-90109046D01*
X127776399Y-90109043D01*
X127781442Y-90106219D01*
X127944012Y-89971012D01*
X128079219Y-89808442D01*
X128082043Y-89803399D01*
X128082046Y-89803395D01*
X128179713Y-89628998D01*
X128179714Y-89628996D01*
X128182537Y-89623955D01*
X128184393Y-89618488D01*
X128184395Y-89618483D01*
X128242021Y-89448720D01*
X128250504Y-89423730D01*
X128251739Y-89415216D01*
X128272090Y-89274860D01*
X128301660Y-89210315D01*
X128361432Y-89172003D01*
X128432429Y-89172087D01*
X128492109Y-89210542D01*
X128521525Y-89275158D01*
X128522515Y-89284695D01*
X128525796Y-89334749D01*
X128527217Y-89340345D01*
X128527218Y-89340350D01*
X128554741Y-89448720D01*
X128577845Y-89539690D01*
X128580262Y-89544933D01*
X128582230Y-89549201D01*
X128666369Y-89731714D01*
X128788405Y-89904391D01*
X128808336Y-89923807D01*
X128897357Y-90010527D01*
X128939865Y-90051937D01*
X128944661Y-90055142D01*
X128944664Y-90055144D01*
X129081875Y-90146825D01*
X129115677Y-90169411D01*
X129120985Y-90171692D01*
X129120986Y-90171692D01*
X129304650Y-90250600D01*
X129304653Y-90250601D01*
X129309953Y-90252878D01*
X129315582Y-90254152D01*
X129315583Y-90254152D01*
X129510550Y-90298269D01*
X129510553Y-90298269D01*
X129516186Y-90299544D01*
X129521957Y-90299771D01*
X129521959Y-90299771D01*
X129583989Y-90302208D01*
X129727470Y-90307846D01*
X129733179Y-90307018D01*
X129733183Y-90307018D01*
X129931015Y-90278333D01*
X129931019Y-90278332D01*
X129936730Y-90277504D01*
X130058921Y-90236026D01*
X130131483Y-90211395D01*
X130131488Y-90211393D01*
X130136955Y-90209537D01*
X130248936Y-90146825D01*
X130318142Y-90130992D01*
X130384925Y-90155089D01*
X130428077Y-90211466D01*
X130436500Y-90256760D01*
X130436500Y-93284819D01*
X130435172Y-93296704D01*
X130435682Y-93296745D01*
X130434962Y-93305691D01*
X130432981Y-93314447D01*
X130433537Y-93323407D01*
X130436258Y-93367264D01*
X130436500Y-93375067D01*
X130436500Y-93390940D01*
X130437135Y-93395374D01*
X130437948Y-93401050D01*
X130438978Y-93411106D01*
X130440715Y-93439097D01*
X130441859Y-93457538D01*
X130444907Y-93465982D01*
X130445676Y-93469694D01*
X130449343Y-93484399D01*
X130450404Y-93488027D01*
X130451677Y-93496918D01*
X130470939Y-93539282D01*
X130474750Y-93548647D01*
X130476766Y-93554233D01*
X130481076Y-93625098D01*
X130446390Y-93687045D01*
X130383719Y-93720405D01*
X130312961Y-93714586D01*
X130309177Y-93712898D01*
X130308554Y-93712505D01*
X130306106Y-93711528D01*
X130306094Y-93711523D01*
X130117524Y-93636292D01*
X130112160Y-93634152D01*
X130106503Y-93633027D01*
X130106497Y-93633025D01*
X129910442Y-93594028D01*
X129910440Y-93594028D01*
X129904775Y-93592901D01*
X129899000Y-93592825D01*
X129898996Y-93592825D01*
X129792976Y-93591437D01*
X129693346Y-93590133D01*
X129687649Y-93591112D01*
X129687648Y-93591112D01*
X129645607Y-93598336D01*
X129484953Y-93625941D01*
X129479534Y-93627940D01*
X129473951Y-93629436D01*
X129473553Y-93627951D01*
X129410009Y-93632261D01*
X129348149Y-93598335D01*
X127266534Y-91516720D01*
X127259068Y-91507376D01*
X127258678Y-91507708D01*
X127252860Y-91500872D01*
X127248070Y-91493280D01*
X127208399Y-91458244D01*
X127202712Y-91452898D01*
X127191494Y-91441680D01*
X127187905Y-91438990D01*
X127183316Y-91435550D01*
X127175477Y-91429168D01*
X127147339Y-91404318D01*
X127140612Y-91398377D01*
X127132489Y-91394563D01*
X127129336Y-91392492D01*
X127116324Y-91384673D01*
X127113005Y-91382856D01*
X127105824Y-91377474D01*
X127093141Y-91372719D01*
X127077485Y-91366850D01*
X127062261Y-91361143D01*
X127052947Y-91357217D01*
X127018966Y-91341263D01*
X127018963Y-91341262D01*
X127010837Y-91337447D01*
X127001963Y-91336065D01*
X126998350Y-91334961D01*
X126983693Y-91331115D01*
X126979990Y-91330301D01*
X126971580Y-91327148D01*
X126925157Y-91323698D01*
X126915144Y-91322548D01*
X126901991Y-91320500D01*
X126886796Y-91320500D01*
X126877459Y-91320154D01*
X126862036Y-91319008D01*
X126828608Y-91316524D01*
X126819832Y-91318397D01*
X126810875Y-91319008D01*
X126810875Y-91319002D01*
X126796682Y-91320500D01*
X126497504Y-91320500D01*
X126429383Y-91300498D01*
X126408409Y-91283595D01*
X122573534Y-87448720D01*
X122566068Y-87439376D01*
X122565678Y-87439708D01*
X122559860Y-87432872D01*
X122555070Y-87425280D01*
X122515399Y-87390244D01*
X122509712Y-87384898D01*
X122498494Y-87373680D01*
X122494905Y-87370990D01*
X122490316Y-87367550D01*
X122482477Y-87361168D01*
X122454339Y-87336318D01*
X122447612Y-87330377D01*
X122439489Y-87326563D01*
X122436336Y-87324492D01*
X122423324Y-87316673D01*
X122420005Y-87314856D01*
X122412824Y-87309474D01*
X122369261Y-87293143D01*
X122359947Y-87289217D01*
X122325966Y-87273263D01*
X122325963Y-87273262D01*
X122317837Y-87269447D01*
X122308963Y-87268065D01*
X122305350Y-87266961D01*
X122290693Y-87263115D01*
X122286990Y-87262301D01*
X122278580Y-87259148D01*
X122232157Y-87255698D01*
X122222144Y-87254548D01*
X122208991Y-87252500D01*
X122193796Y-87252500D01*
X122184459Y-87252154D01*
X122169036Y-87251008D01*
X122135608Y-87248524D01*
X122126832Y-87250397D01*
X122117875Y-87251008D01*
X122117875Y-87251002D01*
X122103682Y-87252500D01*
X120910485Y-87252500D01*
X120842364Y-87232498D01*
X120812842Y-87206136D01*
X120699430Y-87067078D01*
X120699427Y-87067075D01*
X120695535Y-87062303D01*
X120662984Y-87035374D01*
X120552879Y-86944288D01*
X120548132Y-86940361D01*
X120405107Y-86863027D01*
X120354701Y-86813035D01*
X120339324Y-86743724D01*
X120363860Y-86677102D01*
X120408228Y-86639728D01*
X120483910Y-86601498D01*
X120525228Y-86580627D01*
X120530996Y-86576121D01*
X120634880Y-86494958D01*
X120675979Y-86462848D01*
X120692562Y-86443637D01*
X120796958Y-86322692D01*
X120796959Y-86322691D01*
X120800982Y-86318030D01*
X120811400Y-86299692D01*
X120868455Y-86199256D01*
X120895476Y-86151691D01*
X120955861Y-85970166D01*
X120971611Y-85845491D01*
X120979396Y-85783872D01*
X120979397Y-85783863D01*
X120979838Y-85780369D01*
X120980220Y-85753000D01*
X120961552Y-85562608D01*
X120906259Y-85379467D01*
X120891137Y-85351026D01*
X120819342Y-85216001D01*
X120819341Y-85215999D01*
X120816446Y-85210555D01*
X120750370Y-85129537D01*
X120699430Y-85067078D01*
X120699427Y-85067075D01*
X120695535Y-85062303D01*
X120662984Y-85035374D01*
X120552879Y-84944288D01*
X120548132Y-84940361D01*
X120405107Y-84863027D01*
X120354701Y-84813035D01*
X120339324Y-84743724D01*
X120363860Y-84677102D01*
X120408228Y-84639728D01*
X120497926Y-84594418D01*
X120525228Y-84580627D01*
X120539834Y-84569216D01*
X120671129Y-84466637D01*
X120675979Y-84462848D01*
X120683535Y-84454095D01*
X120796958Y-84322692D01*
X120796959Y-84322691D01*
X120800982Y-84318030D01*
X120808679Y-84304482D01*
X120850460Y-84230933D01*
X120895476Y-84151691D01*
X120955861Y-83970166D01*
X120965777Y-83891673D01*
X120979396Y-83783872D01*
X120979397Y-83783863D01*
X120979838Y-83780369D01*
X120980220Y-83753000D01*
X120961552Y-83562608D01*
X120906259Y-83379467D01*
X120903366Y-83374026D01*
X120819342Y-83216001D01*
X120819341Y-83215999D01*
X120816446Y-83210555D01*
X120761389Y-83143048D01*
X120699430Y-83067078D01*
X120699427Y-83067075D01*
X120695535Y-83062303D01*
X120671436Y-83042366D01*
X120552879Y-82944288D01*
X120548132Y-82940361D01*
X120405107Y-82863027D01*
X120354701Y-82813035D01*
X120339324Y-82743724D01*
X120363860Y-82677102D01*
X120408228Y-82639728D01*
X120455150Y-82616026D01*
X120525228Y-82580627D01*
X120554309Y-82557907D01*
X120600604Y-82521737D01*
X120675979Y-82462848D01*
X120681870Y-82456024D01*
X120796958Y-82322692D01*
X120796959Y-82322691D01*
X120800982Y-82318030D01*
X120804294Y-82312201D01*
X120845436Y-82239777D01*
X120895476Y-82151691D01*
X120955861Y-81970166D01*
X120966945Y-81882430D01*
X120979396Y-81783872D01*
X120979397Y-81783863D01*
X120979838Y-81780369D01*
X120980220Y-81753000D01*
X120961552Y-81562608D01*
X120906259Y-81379467D01*
X120896158Y-81360470D01*
X120819342Y-81216001D01*
X120819341Y-81215999D01*
X120816446Y-81210555D01*
X120747074Y-81125496D01*
X120699430Y-81067078D01*
X120699427Y-81067075D01*
X120695535Y-81062303D01*
X120662984Y-81035374D01*
X120552879Y-80944288D01*
X120548132Y-80940361D01*
X120405107Y-80863027D01*
X120354701Y-80813035D01*
X120339324Y-80743724D01*
X120363860Y-80677102D01*
X120408228Y-80639728D01*
X120519734Y-80583402D01*
X120525228Y-80580627D01*
X120554309Y-80557907D01*
X120671129Y-80466637D01*
X120675979Y-80462848D01*
X120692026Y-80444258D01*
X120796957Y-80322693D01*
X120800982Y-80318030D01*
X120804027Y-80312669D01*
X120807574Y-80307641D01*
X120809771Y-80309191D01*
X120852440Y-80267921D01*
X120910973Y-80253500D01*
X120963819Y-80253500D01*
X120975704Y-80254828D01*
X120975745Y-80254318D01*
X120984691Y-80255038D01*
X120993447Y-80257019D01*
X121046263Y-80253742D01*
X121054067Y-80253500D01*
X121069940Y-80253500D01*
X121080052Y-80252052D01*
X121090106Y-80251022D01*
X121118097Y-80249285D01*
X121136538Y-80248141D01*
X121144982Y-80245093D01*
X121148694Y-80244324D01*
X121163399Y-80240657D01*
X121167027Y-80239596D01*
X121175918Y-80238323D01*
X121218282Y-80219061D01*
X121227637Y-80215254D01*
X121262943Y-80202509D01*
X121262947Y-80202507D01*
X121271387Y-80199460D01*
X121278635Y-80194165D01*
X121281975Y-80192389D01*
X121295089Y-80184726D01*
X121298261Y-80182697D01*
X121306428Y-80178984D01*
X121313223Y-80173129D01*
X121313226Y-80173127D01*
X121341675Y-80148613D01*
X121349596Y-80142324D01*
X121356402Y-80137352D01*
X121360336Y-80134478D01*
X121371079Y-80123735D01*
X121377926Y-80117377D01*
X121406358Y-80092878D01*
X121415037Y-80085400D01*
X121419920Y-80077866D01*
X121425819Y-80071104D01*
X121425824Y-80071108D01*
X121434800Y-80060014D01*
X124891280Y-76603534D01*
X124900624Y-76596068D01*
X124900292Y-76595678D01*
X124907128Y-76589860D01*
X124914720Y-76585070D01*
X124949756Y-76545399D01*
X124955102Y-76539712D01*
X124966321Y-76528493D01*
X124972450Y-76520316D01*
X124978832Y-76512477D01*
X125003684Y-76484337D01*
X125003685Y-76484336D01*
X125009623Y-76477612D01*
X125013434Y-76469494D01*
X125015506Y-76466341D01*
X125023329Y-76453320D01*
X125025141Y-76450011D01*
X125030527Y-76442824D01*
X125035515Y-76429520D01*
X125046857Y-76399263D01*
X125050784Y-76389943D01*
X125066737Y-76355964D01*
X125070553Y-76347837D01*
X125071934Y-76338965D01*
X125073042Y-76335342D01*
X125076888Y-76320683D01*
X125077701Y-76316986D01*
X125080852Y-76308580D01*
X125084302Y-76262157D01*
X125085453Y-76252139D01*
X125085911Y-76249197D01*
X125087500Y-76238991D01*
X125087500Y-76223796D01*
X125087846Y-76214459D01*
X125090811Y-76174556D01*
X125091476Y-76165608D01*
X125089603Y-76156832D01*
X125088992Y-76147875D01*
X125088998Y-76147875D01*
X125087500Y-76133682D01*
X125087500Y-68458504D01*
X125107502Y-68390383D01*
X125124405Y-68369409D01*
X126535409Y-66958405D01*
X126597721Y-66924379D01*
X126624504Y-66921500D01*
X130993819Y-66921500D01*
X131005704Y-66922828D01*
X131005745Y-66922318D01*
X131014691Y-66923038D01*
X131023447Y-66925019D01*
X131076263Y-66921742D01*
X131084067Y-66921500D01*
X131099940Y-66921500D01*
X131110052Y-66920052D01*
X131120106Y-66919022D01*
X131148097Y-66917285D01*
X131166538Y-66916141D01*
X131174982Y-66913093D01*
X131178694Y-66912324D01*
X131193399Y-66908657D01*
X131197027Y-66907596D01*
X131205918Y-66906323D01*
X131248282Y-66887061D01*
X131257637Y-66883254D01*
X131292943Y-66870509D01*
X131292947Y-66870507D01*
X131301387Y-66867460D01*
X131308635Y-66862165D01*
X131311975Y-66860389D01*
X131325089Y-66852726D01*
X131328261Y-66850697D01*
X131336428Y-66846984D01*
X131343223Y-66841129D01*
X131343226Y-66841127D01*
X131371675Y-66816613D01*
X131379596Y-66810324D01*
X131386402Y-66805352D01*
X131390336Y-66802478D01*
X131401079Y-66791735D01*
X131407926Y-66785377D01*
X131445037Y-66753400D01*
X131449920Y-66745866D01*
X131455819Y-66739104D01*
X131455824Y-66739108D01*
X131464800Y-66728014D01*
X132628280Y-65564534D01*
X132637624Y-65557068D01*
X132637292Y-65556678D01*
X132644128Y-65550860D01*
X132651720Y-65546070D01*
X132686756Y-65506399D01*
X132692102Y-65500712D01*
X132703320Y-65489494D01*
X132706010Y-65485905D01*
X132709450Y-65481316D01*
X132715832Y-65473477D01*
X132740682Y-65445339D01*
X132746623Y-65438612D01*
X132750437Y-65430489D01*
X132752508Y-65427336D01*
X132760327Y-65414324D01*
X132762143Y-65411006D01*
X132767526Y-65403824D01*
X132783858Y-65360259D01*
X132787783Y-65350944D01*
X132791319Y-65343413D01*
X132807553Y-65308837D01*
X132808935Y-65299964D01*
X132810042Y-65296342D01*
X132813891Y-65281672D01*
X132814702Y-65277983D01*
X132817852Y-65269581D01*
X132818517Y-65260636D01*
X132818519Y-65260626D01*
X132821302Y-65223172D01*
X132822452Y-65213145D01*
X132824500Y-65199991D01*
X132824500Y-65184797D01*
X132824846Y-65175460D01*
X132825588Y-65165470D01*
X132828476Y-65126609D01*
X132826603Y-65117833D01*
X132825992Y-65108876D01*
X132825998Y-65108876D01*
X132824500Y-65094683D01*
X132824500Y-65030500D01*
X132844502Y-64962379D01*
X132898158Y-64915886D01*
X132950500Y-64904500D01*
X133218646Y-64904500D01*
X133222350Y-64904059D01*
X133222353Y-64904059D01*
X133229746Y-64903179D01*
X133244846Y-64901382D01*
X133257562Y-64895734D01*
X133336518Y-64860663D01*
X133347153Y-64855939D01*
X133358916Y-64844156D01*
X133397080Y-64805925D01*
X133426241Y-64776713D01*
X133432600Y-64762331D01*
X133457265Y-64706538D01*
X133471506Y-64674327D01*
X133474500Y-64648646D01*
X133474500Y-62859354D01*
X133471382Y-62833154D01*
X133454353Y-62794815D01*
X133430663Y-62741482D01*
X133425939Y-62730847D01*
X133417444Y-62722366D01*
X133378302Y-62683293D01*
X133346713Y-62651759D01*
X133336076Y-62647056D01*
X133336074Y-62647055D01*
X133276538Y-62620735D01*
X133244327Y-62606494D01*
X133218646Y-62603500D01*
X131429354Y-62603500D01*
X131425650Y-62603941D01*
X131425647Y-62603941D01*
X131418254Y-62604821D01*
X131403154Y-62606618D01*
X131394514Y-62610456D01*
X131394513Y-62610456D01*
X131312117Y-62647055D01*
X131300847Y-62652061D01*
X131292628Y-62660294D01*
X131292627Y-62660295D01*
X131281205Y-62671737D01*
X131221759Y-62731287D01*
X131217056Y-62741924D01*
X131217055Y-62741926D01*
X131205907Y-62767142D01*
X131176494Y-62833673D01*
X131173500Y-62859354D01*
X131173500Y-63553111D01*
X131153498Y-63621232D01*
X131099842Y-63667725D01*
X131029568Y-63677829D01*
X130964988Y-63648335D01*
X130926604Y-63588609D01*
X130922029Y-63564640D01*
X130920610Y-63549197D01*
X130920081Y-63543440D01*
X130907077Y-63497329D01*
X130884255Y-63416409D01*
X130862686Y-63339931D01*
X130851553Y-63317354D01*
X130771719Y-63155469D01*
X130769165Y-63150290D01*
X130657638Y-63000937D01*
X130646104Y-62985491D01*
X130646103Y-62985490D01*
X130642651Y-62980867D01*
X130520183Y-62867659D01*
X130491622Y-62841257D01*
X130491620Y-62841255D01*
X130487381Y-62837337D01*
X130482503Y-62834259D01*
X130482491Y-62834250D01*
X130343264Y-62746404D01*
X130296326Y-62693138D01*
X130284500Y-62639843D01*
X130284500Y-62417181D01*
X130285828Y-62405296D01*
X130285318Y-62405255D01*
X130286038Y-62396309D01*
X130288019Y-62387553D01*
X130284742Y-62334736D01*
X130284500Y-62326933D01*
X130284500Y-62311060D01*
X130283052Y-62300948D01*
X130282022Y-62290894D01*
X130279697Y-62253425D01*
X130279141Y-62244462D01*
X130276093Y-62236018D01*
X130275324Y-62232306D01*
X130271657Y-62217601D01*
X130270596Y-62213973D01*
X130269323Y-62205082D01*
X130250061Y-62162718D01*
X130246254Y-62153363D01*
X130233509Y-62118057D01*
X130233507Y-62118053D01*
X130230460Y-62109613D01*
X130225165Y-62102365D01*
X130223389Y-62099025D01*
X130215726Y-62085911D01*
X130213697Y-62082739D01*
X130209984Y-62074572D01*
X130204129Y-62067777D01*
X130204127Y-62067774D01*
X130179613Y-62039325D01*
X130173324Y-62031404D01*
X130168352Y-62024598D01*
X130165478Y-62020664D01*
X130154735Y-62009921D01*
X130148377Y-62003074D01*
X130116400Y-61965963D01*
X130108866Y-61961080D01*
X130102104Y-61955181D01*
X130102108Y-61955176D01*
X130091014Y-61946200D01*
X129181534Y-61036720D01*
X129174068Y-61027376D01*
X129173678Y-61027708D01*
X129167860Y-61020872D01*
X129163070Y-61013280D01*
X129149235Y-61001061D01*
X129123400Y-60978245D01*
X129117712Y-60972898D01*
X129106494Y-60961680D01*
X129102905Y-60958990D01*
X129098316Y-60955550D01*
X129090477Y-60949168D01*
X129062339Y-60924318D01*
X129055612Y-60918377D01*
X129047489Y-60914563D01*
X129044336Y-60912492D01*
X129031324Y-60904673D01*
X129028005Y-60902856D01*
X129020824Y-60897474D01*
X128977261Y-60881143D01*
X128967947Y-60877217D01*
X128933966Y-60861263D01*
X128933963Y-60861262D01*
X128925837Y-60857447D01*
X128916963Y-60856065D01*
X128913350Y-60854961D01*
X128898693Y-60851115D01*
X128894990Y-60850301D01*
X128886580Y-60847148D01*
X128840157Y-60843698D01*
X128830144Y-60842548D01*
X128816991Y-60840500D01*
X128801796Y-60840500D01*
X128792459Y-60840154D01*
X128777036Y-60839008D01*
X128743608Y-60836524D01*
X128734832Y-60838397D01*
X128725875Y-60839008D01*
X128725875Y-60839002D01*
X128711682Y-60840500D01*
X124530181Y-60840500D01*
X124518296Y-60839172D01*
X124518255Y-60839682D01*
X124509309Y-60838962D01*
X124500553Y-60836981D01*
X124467980Y-60839002D01*
X124447736Y-60840258D01*
X124439933Y-60840500D01*
X124424060Y-60840500D01*
X124413948Y-60841948D01*
X124403894Y-60842978D01*
X124375903Y-60844715D01*
X124357462Y-60845859D01*
X124349018Y-60848907D01*
X124345306Y-60849676D01*
X124330601Y-60853343D01*
X124326973Y-60854404D01*
X124318082Y-60855677D01*
X124275718Y-60874939D01*
X124266363Y-60878746D01*
X124231057Y-60891491D01*
X124231053Y-60891493D01*
X124222613Y-60894540D01*
X124215365Y-60899835D01*
X124212025Y-60901611D01*
X124198911Y-60909274D01*
X124195739Y-60911303D01*
X124187572Y-60915016D01*
X124180777Y-60920871D01*
X124180774Y-60920873D01*
X124152325Y-60945387D01*
X124144405Y-60951675D01*
X124133664Y-60959522D01*
X124122921Y-60970265D01*
X124116075Y-60976623D01*
X124078963Y-61008600D01*
X124074080Y-61016134D01*
X124068181Y-61022896D01*
X124068176Y-61022892D01*
X124059200Y-61033986D01*
X122250720Y-62842466D01*
X122241376Y-62849932D01*
X122241708Y-62850322D01*
X122234872Y-62856140D01*
X122227280Y-62860930D01*
X122221338Y-62867658D01*
X122221337Y-62867659D01*
X122192245Y-62900600D01*
X122186898Y-62906288D01*
X122175680Y-62917506D01*
X122172991Y-62921094D01*
X122172990Y-62921095D01*
X122169550Y-62925684D01*
X122163168Y-62933523D01*
X122132377Y-62968388D01*
X122128563Y-62976511D01*
X122126492Y-62979664D01*
X122118673Y-62992676D01*
X122116856Y-62995995D01*
X122111474Y-63003176D01*
X122108325Y-63011577D01*
X122108324Y-63011578D01*
X122095144Y-63046736D01*
X122091217Y-63056053D01*
X122075263Y-63090034D01*
X122075262Y-63090037D01*
X122071447Y-63098163D01*
X122070065Y-63107037D01*
X122068961Y-63110650D01*
X122065115Y-63125307D01*
X122064301Y-63129010D01*
X122061148Y-63137420D01*
X122057698Y-63183843D01*
X122056548Y-63193856D01*
X122054500Y-63207009D01*
X122054500Y-63222204D01*
X122054154Y-63231541D01*
X122050524Y-63280392D01*
X122052397Y-63289168D01*
X122053008Y-63298125D01*
X122053002Y-63298125D01*
X122054500Y-63312318D01*
X122054500Y-72938496D01*
X122034498Y-73006617D01*
X122017595Y-73027591D01*
X121195218Y-73849968D01*
X121132906Y-73883994D01*
X121062091Y-73878929D01*
X121005255Y-73836382D01*
X120980444Y-73769862D01*
X120980135Y-73759122D01*
X120980171Y-73756510D01*
X120980220Y-73753000D01*
X120961552Y-73562608D01*
X120906259Y-73379467D01*
X120890822Y-73350434D01*
X120819342Y-73216001D01*
X120819341Y-73215999D01*
X120816446Y-73210555D01*
X120755864Y-73136274D01*
X120699430Y-73067078D01*
X120699427Y-73067075D01*
X120695535Y-73062303D01*
X120681076Y-73050341D01*
X120552879Y-72944288D01*
X120548132Y-72940361D01*
X120405107Y-72863027D01*
X120354701Y-72813035D01*
X120339324Y-72743724D01*
X120363860Y-72677102D01*
X120408228Y-72639728D01*
X120519734Y-72583402D01*
X120525228Y-72580627D01*
X120533712Y-72573999D01*
X120653177Y-72480663D01*
X120675979Y-72462848D01*
X120692562Y-72443637D01*
X120796958Y-72322692D01*
X120796959Y-72322691D01*
X120800982Y-72318030D01*
X120811400Y-72299692D01*
X120892429Y-72157054D01*
X120895476Y-72151691D01*
X120955861Y-71970166D01*
X120963847Y-71906948D01*
X120979396Y-71783872D01*
X120979397Y-71783863D01*
X120979838Y-71780369D01*
X120980220Y-71753000D01*
X120961552Y-71562608D01*
X120906259Y-71379467D01*
X120816446Y-71210555D01*
X120771248Y-71155137D01*
X120699430Y-71067078D01*
X120699427Y-71067075D01*
X120695535Y-71062303D01*
X120548132Y-70940361D01*
X120405107Y-70863027D01*
X120354701Y-70813035D01*
X120339324Y-70743724D01*
X120363860Y-70677102D01*
X120408228Y-70639728D01*
X120519734Y-70583402D01*
X120525228Y-70580627D01*
X120554309Y-70557907D01*
X120671129Y-70466637D01*
X120675979Y-70462848D01*
X120697503Y-70437913D01*
X120796958Y-70322692D01*
X120796959Y-70322691D01*
X120800982Y-70318030D01*
X120811400Y-70299692D01*
X120850485Y-70230889D01*
X120895476Y-70151691D01*
X120955861Y-69970166D01*
X120969478Y-69862377D01*
X120979396Y-69783872D01*
X120979397Y-69783863D01*
X120979838Y-69780369D01*
X120980220Y-69753000D01*
X120961552Y-69562608D01*
X120906259Y-69379467D01*
X120858385Y-69289430D01*
X120819342Y-69216001D01*
X120819341Y-69215999D01*
X120816446Y-69210555D01*
X120720318Y-69092690D01*
X120699430Y-69067078D01*
X120699427Y-69067075D01*
X120695535Y-69062303D01*
X120662984Y-69035374D01*
X120552879Y-68944288D01*
X120548132Y-68940361D01*
X120405107Y-68863027D01*
X120354701Y-68813035D01*
X120339324Y-68743724D01*
X120363860Y-68677102D01*
X120408228Y-68639728D01*
X120484318Y-68601292D01*
X120525228Y-68580627D01*
X120554309Y-68557907D01*
X120632983Y-68496440D01*
X120675979Y-68462848D01*
X120697503Y-68437913D01*
X120796958Y-68322692D01*
X120796959Y-68322691D01*
X120800982Y-68318030D01*
X120831201Y-68264836D01*
X120849063Y-68233392D01*
X120895476Y-68151691D01*
X120955861Y-67970166D01*
X120975335Y-67816017D01*
X120979396Y-67783872D01*
X120979397Y-67783863D01*
X120979838Y-67780369D01*
X120980220Y-67753000D01*
X120961552Y-67562608D01*
X120906259Y-67379467D01*
X120887089Y-67343413D01*
X120819342Y-67216001D01*
X120819341Y-67215999D01*
X120816446Y-67210555D01*
X120761667Y-67143389D01*
X120699430Y-67067078D01*
X120699427Y-67067075D01*
X120695535Y-67062303D01*
X120685036Y-67053617D01*
X120552879Y-66944288D01*
X120548132Y-66940361D01*
X120405107Y-66863027D01*
X120354701Y-66813035D01*
X120339324Y-66743724D01*
X120363860Y-66677102D01*
X120408228Y-66639728D01*
X120519734Y-66583402D01*
X120525228Y-66580627D01*
X120554309Y-66557907D01*
X120671129Y-66466637D01*
X120675979Y-66462848D01*
X120695150Y-66440639D01*
X120796958Y-66322692D01*
X120796959Y-66322691D01*
X120800982Y-66318030D01*
X120895476Y-66151691D01*
X120955861Y-65970166D01*
X120962580Y-65916981D01*
X120979396Y-65783872D01*
X120979397Y-65783863D01*
X120979838Y-65780369D01*
X120980220Y-65753000D01*
X120961552Y-65562608D01*
X120906259Y-65379467D01*
X120899550Y-65366850D01*
X120819342Y-65216001D01*
X120819341Y-65215999D01*
X120816446Y-65210555D01*
X120742261Y-65119595D01*
X120699430Y-65067078D01*
X120699427Y-65067075D01*
X120695535Y-65062303D01*
X120620618Y-65000326D01*
X120552879Y-64944288D01*
X120548132Y-64940361D01*
X120458136Y-64891700D01*
X120407731Y-64841708D01*
X120392353Y-64772397D01*
X120416889Y-64705775D01*
X120461257Y-64668401D01*
X120546380Y-64625402D01*
X120556739Y-64618828D01*
X120705425Y-64502662D01*
X120714307Y-64494204D01*
X120837600Y-64351367D01*
X120844670Y-64341345D01*
X120937872Y-64177279D01*
X120942861Y-64166073D01*
X120990060Y-64024189D01*
X120990561Y-64010097D01*
X120984372Y-64007000D01*
X119024595Y-64007000D01*
X119011064Y-64010973D01*
X119009914Y-64018975D01*
X118029000Y-64018975D01*
X118029000Y-62018975D01*
X119009914Y-62018975D01*
X119040667Y-62126227D01*
X119045186Y-62137639D01*
X119131432Y-62305456D01*
X119138079Y-62315769D01*
X119255280Y-62463639D01*
X119263803Y-62472465D01*
X119407496Y-62594758D01*
X119417564Y-62601755D01*
X119490631Y-62642591D01*
X119540336Y-62693285D01*
X119554744Y-62762804D01*
X119529280Y-62829077D01*
X119487535Y-62864241D01*
X119441491Y-62888312D01*
X119431229Y-62895028D01*
X119284180Y-63013259D01*
X119275414Y-63021843D01*
X119154125Y-63166389D01*
X119147199Y-63176503D01*
X119056293Y-63341861D01*
X119051465Y-63353125D01*
X119010669Y-63481731D01*
X119010365Y-63495831D01*
X119016926Y-63499000D01*
X119727885Y-63499000D01*
X119743124Y-63494525D01*
X119744329Y-63493135D01*
X119746000Y-63485452D01*
X119746000Y-62759238D01*
X119747063Y-62759238D01*
X119745769Y-62746331D01*
X120253075Y-62746331D01*
X120254372Y-62758827D01*
X120254000Y-62763547D01*
X120254000Y-63480885D01*
X120258475Y-63496124D01*
X120259865Y-63497329D01*
X120267548Y-63499000D01*
X120975942Y-63499000D01*
X120989473Y-63495027D01*
X120990565Y-63487433D01*
X120954026Y-63366413D01*
X120949353Y-63355074D01*
X120860769Y-63188470D01*
X120853981Y-63178253D01*
X120734724Y-63032030D01*
X120726080Y-63023326D01*
X120580695Y-62903053D01*
X120570519Y-62896189D01*
X120511950Y-62864520D01*
X120461541Y-62814525D01*
X120446164Y-62745214D01*
X120470701Y-62678592D01*
X120515069Y-62641219D01*
X120546376Y-62625405D01*
X120556739Y-62618828D01*
X120705425Y-62502662D01*
X120714307Y-62494204D01*
X120837600Y-62351367D01*
X120844670Y-62341345D01*
X120937872Y-62177279D01*
X120942861Y-62166073D01*
X120990060Y-62024189D01*
X120990561Y-62010097D01*
X120984372Y-62007000D01*
X120272115Y-62007000D01*
X120256876Y-62011475D01*
X120255671Y-62012865D01*
X120254000Y-62020548D01*
X120254000Y-62746331D01*
X120253075Y-62746331D01*
X119745769Y-62746331D01*
X119745733Y-62745974D01*
X119746000Y-62742865D01*
X119746000Y-62025115D01*
X119741525Y-62009876D01*
X119740135Y-62008671D01*
X119732452Y-62007000D01*
X119024595Y-62007000D01*
X119011064Y-62010973D01*
X119009914Y-62018975D01*
X118029000Y-62018975D01*
X118029000Y-61495831D01*
X119010365Y-61495831D01*
X119016926Y-61499000D01*
X120975942Y-61499000D01*
X120989473Y-61495027D01*
X120990565Y-61487433D01*
X120954026Y-61366413D01*
X120949353Y-61355074D01*
X120860769Y-61188470D01*
X120853981Y-61178253D01*
X120734724Y-61032030D01*
X120726080Y-61023326D01*
X120580695Y-60903053D01*
X120570527Y-60896194D01*
X120458920Y-60835848D01*
X120408511Y-60785853D01*
X120393134Y-60716542D01*
X120417670Y-60649920D01*
X120462039Y-60612546D01*
X120519731Y-60583404D01*
X120519733Y-60583403D01*
X120525228Y-60580627D01*
X120554309Y-60557907D01*
X120671129Y-60466637D01*
X120675979Y-60462848D01*
X120692562Y-60443637D01*
X120796958Y-60322692D01*
X120796959Y-60322691D01*
X120800982Y-60318030D01*
X120811400Y-60299692D01*
X120892429Y-60157054D01*
X120895476Y-60151691D01*
X120955861Y-59970166D01*
X120964623Y-59900807D01*
X120979396Y-59783872D01*
X120979397Y-59783863D01*
X120979838Y-59780369D01*
X120980220Y-59753000D01*
X120961552Y-59562608D01*
X120906259Y-59379467D01*
X120816446Y-59210555D01*
X120746341Y-59124597D01*
X120699430Y-59067078D01*
X120699427Y-59067075D01*
X120695535Y-59062303D01*
X120667917Y-59039455D01*
X120552879Y-58944288D01*
X120548132Y-58940361D01*
X120405107Y-58863027D01*
X120354701Y-58813035D01*
X120339324Y-58743724D01*
X120363860Y-58677102D01*
X120408228Y-58639728D01*
X120519734Y-58583402D01*
X120525228Y-58580627D01*
X120554309Y-58557907D01*
X120671129Y-58466637D01*
X120675979Y-58462848D01*
X120692562Y-58443637D01*
X120796958Y-58322692D01*
X120796959Y-58322691D01*
X120800982Y-58318030D01*
X120811400Y-58299692D01*
X120866045Y-58203498D01*
X120895476Y-58151691D01*
X120955861Y-57970166D01*
X120961718Y-57923807D01*
X120979396Y-57783872D01*
X120979397Y-57783863D01*
X120979838Y-57780369D01*
X120980220Y-57753000D01*
X120961552Y-57562608D01*
X120906259Y-57379467D01*
X120830448Y-57236888D01*
X120819342Y-57216001D01*
X120819341Y-57215999D01*
X120816446Y-57210555D01*
X120749828Y-57128873D01*
X120699430Y-57067078D01*
X120699427Y-57067075D01*
X120695535Y-57062303D01*
X120689594Y-57057388D01*
X120561700Y-56951585D01*
X120521961Y-56892751D01*
X120520339Y-56821773D01*
X120557349Y-56761185D01*
X120621239Y-56730225D01*
X120638739Y-56728772D01*
X124746500Y-56728772D01*
X124757364Y-56818547D01*
X124760344Y-56826075D01*
X124760345Y-56826077D01*
X124766924Y-56842694D01*
X124812887Y-56958783D01*
X124904078Y-57078922D01*
X125024217Y-57170113D01*
X125068271Y-57187555D01*
X125156923Y-57222655D01*
X125156925Y-57222656D01*
X125164453Y-57225636D01*
X125254228Y-57236500D01*
X126539772Y-57236500D01*
X126629547Y-57225636D01*
X126637075Y-57222656D01*
X126637077Y-57222655D01*
X126725729Y-57187555D01*
X126769783Y-57170113D01*
X126889922Y-57078922D01*
X126981113Y-56958783D01*
X127027076Y-56842694D01*
X127033655Y-56826077D01*
X127033656Y-56826075D01*
X127036636Y-56818547D01*
X127047500Y-56728772D01*
X127047500Y-56450785D01*
X127067502Y-56382664D01*
X127121158Y-56336171D01*
X127191432Y-56326067D01*
X127256012Y-56355561D01*
X127294769Y-56416584D01*
X127318314Y-56500069D01*
X127320867Y-56505247D01*
X127320869Y-56505251D01*
X127381520Y-56628237D01*
X127411835Y-56689710D01*
X127455737Y-56748502D01*
X127502038Y-56810506D01*
X127538349Y-56859133D01*
X127693619Y-57002663D01*
X127698502Y-57005744D01*
X127780009Y-57057171D01*
X127872446Y-57115495D01*
X128068840Y-57193848D01*
X128074497Y-57194973D01*
X128074503Y-57194975D01*
X128270558Y-57233972D01*
X128270560Y-57233972D01*
X128276225Y-57235099D01*
X128282000Y-57235175D01*
X128282004Y-57235175D01*
X128388024Y-57236563D01*
X128487654Y-57237867D01*
X128495610Y-57236500D01*
X128690350Y-57203038D01*
X128690351Y-57203038D01*
X128696047Y-57202059D01*
X128894425Y-57128873D01*
X128913316Y-57117634D01*
X129071179Y-57023716D01*
X129071180Y-57023715D01*
X129076144Y-57020762D01*
X129235119Y-56881345D01*
X129366024Y-56715292D01*
X129377049Y-56694338D01*
X129421976Y-56608945D01*
X129464477Y-56528164D01*
X129500958Y-56410676D01*
X129540261Y-56351551D01*
X129605291Y-56323060D01*
X129675400Y-56334250D01*
X129728330Y-56381567D01*
X129742560Y-56413839D01*
X129770335Y-56512323D01*
X129774458Y-56523064D01*
X129866893Y-56710503D01*
X129872903Y-56720311D01*
X129997953Y-56887773D01*
X130005643Y-56896313D01*
X130159117Y-57038184D01*
X130168242Y-57045185D01*
X130344994Y-57156707D01*
X130355241Y-57161928D01*
X130549353Y-57239371D01*
X130560389Y-57242640D01*
X130625230Y-57255538D01*
X130638106Y-57254386D01*
X130642134Y-57241913D01*
X131151000Y-57241913D01*
X131154806Y-57254875D01*
X131169722Y-57256811D01*
X131203213Y-57251056D01*
X131214339Y-57248075D01*
X131410408Y-57175742D01*
X131420790Y-57170790D01*
X131600396Y-57063936D01*
X131609708Y-57057171D01*
X131766837Y-56919371D01*
X131774754Y-56911028D01*
X131904138Y-56746905D01*
X131910409Y-56737249D01*
X132007713Y-56552304D01*
X132012119Y-56541667D01*
X132074092Y-56342084D01*
X132076485Y-56330826D01*
X132088065Y-56232988D01*
X132085623Y-56218569D01*
X132072881Y-56215000D01*
X131169115Y-56215000D01*
X131153876Y-56219475D01*
X131152671Y-56220865D01*
X131151000Y-56228548D01*
X131151000Y-57241913D01*
X130642134Y-57241913D01*
X130643000Y-57239230D01*
X130643000Y-55688885D01*
X131151000Y-55688885D01*
X131155475Y-55704124D01*
X131156865Y-55705329D01*
X131164548Y-55707000D01*
X132072173Y-55707000D01*
X132086718Y-55702729D01*
X132088781Y-55690595D01*
X132082490Y-55622134D01*
X132080393Y-55610820D01*
X132023664Y-55409675D01*
X132019542Y-55398936D01*
X131927107Y-55211497D01*
X131921097Y-55201689D01*
X131796047Y-55034227D01*
X131788357Y-55025687D01*
X131634883Y-54883816D01*
X131625758Y-54876815D01*
X131449006Y-54765293D01*
X131438759Y-54760072D01*
X131244647Y-54682629D01*
X131233611Y-54679360D01*
X131168770Y-54666462D01*
X131155894Y-54667614D01*
X131151000Y-54682770D01*
X131151000Y-55688885D01*
X130643000Y-55688885D01*
X130643000Y-54680087D01*
X130639194Y-54667125D01*
X130624278Y-54665189D01*
X130590787Y-54670944D01*
X130579661Y-54673925D01*
X130383592Y-54746258D01*
X130373210Y-54751210D01*
X130193604Y-54858064D01*
X130184292Y-54864829D01*
X130027163Y-55002629D01*
X130019246Y-55010972D01*
X129889862Y-55175095D01*
X129883591Y-55184751D01*
X129786287Y-55369696D01*
X129781880Y-55380335D01*
X129741416Y-55510650D01*
X129702113Y-55569776D01*
X129637084Y-55598266D01*
X129566975Y-55587076D01*
X129514045Y-55539759D01*
X129499815Y-55507487D01*
X129499076Y-55504865D01*
X129475686Y-55421931D01*
X129464553Y-55399354D01*
X129384719Y-55237469D01*
X129382165Y-55232290D01*
X129302763Y-55125958D01*
X129259104Y-55067491D01*
X129259103Y-55067490D01*
X129255651Y-55062867D01*
X129100381Y-54919337D01*
X129032988Y-54876815D01*
X128926434Y-54809584D01*
X128926433Y-54809584D01*
X128921554Y-54806505D01*
X128725160Y-54728152D01*
X128719503Y-54727027D01*
X128719497Y-54727025D01*
X128523442Y-54688028D01*
X128523440Y-54688028D01*
X128517775Y-54686901D01*
X128512000Y-54686825D01*
X128511996Y-54686825D01*
X128405976Y-54685437D01*
X128306346Y-54684133D01*
X128300649Y-54685112D01*
X128300648Y-54685112D01*
X128103650Y-54718962D01*
X128103649Y-54718962D01*
X128097953Y-54719941D01*
X127899575Y-54793127D01*
X127894614Y-54796079D01*
X127894613Y-54796079D01*
X127758908Y-54876815D01*
X127717856Y-54901238D01*
X127558881Y-55040655D01*
X127427976Y-55206708D01*
X127425287Y-55211819D01*
X127425285Y-55211822D01*
X127378201Y-55301315D01*
X127329523Y-55393836D01*
X127293934Y-55508452D01*
X127293833Y-55508777D01*
X127254530Y-55567902D01*
X127189500Y-55596393D01*
X127119391Y-55585203D01*
X127066461Y-55537886D01*
X127047500Y-55471413D01*
X127047500Y-55193228D01*
X127036636Y-55103453D01*
X127025281Y-55074772D01*
X127000020Y-55010972D01*
X126981113Y-54963217D01*
X126889922Y-54843078D01*
X126769783Y-54751887D01*
X126689096Y-54719941D01*
X126637077Y-54699345D01*
X126637075Y-54699344D01*
X126629547Y-54696364D01*
X126539772Y-54685500D01*
X125254228Y-54685500D01*
X125164453Y-54696364D01*
X125156925Y-54699344D01*
X125156923Y-54699345D01*
X125104904Y-54719941D01*
X125024217Y-54751887D01*
X124904078Y-54843078D01*
X124812887Y-54963217D01*
X124793980Y-55010972D01*
X124768720Y-55074772D01*
X124757364Y-55103453D01*
X124746500Y-55193228D01*
X124746500Y-56728772D01*
X120638739Y-56728772D01*
X120642015Y-56728500D01*
X120719646Y-56728500D01*
X120723350Y-56728059D01*
X120723353Y-56728059D01*
X120730746Y-56727179D01*
X120745846Y-56725382D01*
X120757263Y-56720311D01*
X120837518Y-56684663D01*
X120848153Y-56679939D01*
X120927241Y-56600713D01*
X120946290Y-56557627D01*
X120961570Y-56523064D01*
X120972506Y-56498327D01*
X120975500Y-56472646D01*
X120975500Y-55033354D01*
X120972382Y-55007154D01*
X120964465Y-54989329D01*
X120931663Y-54915482D01*
X120926939Y-54904847D01*
X120905872Y-54883816D01*
X120859865Y-54837890D01*
X120847713Y-54825759D01*
X120837076Y-54821056D01*
X120837074Y-54821055D01*
X120773902Y-54793127D01*
X120745327Y-54780494D01*
X120719646Y-54777500D01*
X119280354Y-54777500D01*
X119276650Y-54777941D01*
X119276647Y-54777941D01*
X119270304Y-54778696D01*
X119254154Y-54780618D01*
X119245514Y-54784456D01*
X119245513Y-54784456D01*
X119162482Y-54821337D01*
X119151847Y-54826061D01*
X119143628Y-54834294D01*
X119143627Y-54834295D01*
X119119900Y-54858064D01*
X119072759Y-54905287D01*
X119068056Y-54915924D01*
X119068055Y-54915926D01*
X119064814Y-54923257D01*
X119027494Y-55007673D01*
X119024500Y-55033354D01*
X119024500Y-56472646D01*
X119027618Y-56498846D01*
X119031456Y-56507486D01*
X119031456Y-56507487D01*
X119054960Y-56560402D01*
X119073061Y-56601153D01*
X119081294Y-56609372D01*
X119081295Y-56609373D01*
X119100192Y-56628237D01*
X119152287Y-56680241D01*
X119162924Y-56684944D01*
X119162926Y-56684945D01*
X119219611Y-56710005D01*
X119254673Y-56725506D01*
X119280354Y-56728500D01*
X119359553Y-56728500D01*
X119427674Y-56748502D01*
X119474167Y-56802158D01*
X119484271Y-56872432D01*
X119454777Y-56937012D01*
X119438505Y-56952697D01*
X119422428Y-56965623D01*
X119332181Y-57038184D01*
X119314176Y-57052660D01*
X119191207Y-57199208D01*
X119188237Y-57204611D01*
X119188236Y-57204612D01*
X119170492Y-57236888D01*
X119099045Y-57366850D01*
X119097184Y-57372717D01*
X119097183Y-57372719D01*
X119093171Y-57385367D01*
X119041200Y-57549201D01*
X119019876Y-57739314D01*
X119035884Y-57929948D01*
X119088614Y-58113843D01*
X119091433Y-58119328D01*
X119173242Y-58278511D01*
X119173245Y-58278516D01*
X119176060Y-58283993D01*
X119294889Y-58433918D01*
X119299583Y-58437913D01*
X119333334Y-58466637D01*
X119440575Y-58557907D01*
X119445953Y-58560913D01*
X119445955Y-58560914D01*
X119594700Y-58644044D01*
X119644406Y-58694737D01*
X119658814Y-58764256D01*
X119633351Y-58830529D01*
X119591605Y-58865694D01*
X119463268Y-58932787D01*
X119458468Y-58936647D01*
X119458467Y-58936647D01*
X119327737Y-59041757D01*
X119314176Y-59052660D01*
X119191207Y-59199208D01*
X119099045Y-59366850D01*
X119097184Y-59372717D01*
X119097183Y-59372719D01*
X119074306Y-59444837D01*
X119041200Y-59549201D01*
X119019876Y-59739314D01*
X119020392Y-59745458D01*
X119033953Y-59906948D01*
X119035884Y-59929948D01*
X119040821Y-59947166D01*
X119083592Y-60096328D01*
X119088614Y-60113843D01*
X119091433Y-60119328D01*
X119173242Y-60278511D01*
X119173245Y-60278516D01*
X119176060Y-60283993D01*
X119294889Y-60433918D01*
X119299583Y-60437913D01*
X119333334Y-60466637D01*
X119440575Y-60557907D01*
X119543061Y-60615185D01*
X119592764Y-60665875D01*
X119607173Y-60735394D01*
X119581709Y-60801667D01*
X119539963Y-60836832D01*
X119441491Y-60888312D01*
X119431229Y-60895028D01*
X119284180Y-61013259D01*
X119275414Y-61021843D01*
X119154125Y-61166389D01*
X119147199Y-61176503D01*
X119056293Y-61341861D01*
X119051465Y-61353125D01*
X119010669Y-61481731D01*
X119010365Y-61495831D01*
X118029000Y-61495831D01*
X118029000Y-52249256D01*
X118029562Y-52237756D01*
X118032740Y-52226782D01*
X118029470Y-52189025D01*
X118029000Y-52178153D01*
X118029000Y-52169095D01*
X118027779Y-52162538D01*
X118026121Y-52150352D01*
X118024101Y-52127033D01*
X118023097Y-52115440D01*
X118017988Y-52104989D01*
X118017080Y-52101714D01*
X118015864Y-52098563D01*
X118013735Y-52087130D01*
X117995338Y-52057284D01*
X117989412Y-52046528D01*
X117974017Y-52015034D01*
X117965485Y-52007120D01*
X117963467Y-52004403D01*
X117961197Y-52001900D01*
X117955091Y-51991993D01*
X117927195Y-51970781D01*
X117917784Y-51962871D01*
X117892083Y-51939029D01*
X117881277Y-51934717D01*
X117878410Y-51932905D01*
X117875389Y-51931386D01*
X117866131Y-51924346D01*
X117854963Y-51921112D01*
X117854957Y-51921109D01*
X117832475Y-51914599D01*
X117820833Y-51910602D01*
X117796541Y-51900910D01*
X117796535Y-51900909D01*
X117788280Y-51897615D01*
X117782007Y-51897000D01*
X117778918Y-51897000D01*
X117775855Y-51896850D01*
X117775861Y-51896736D01*
X117769756Y-51896438D01*
X117758782Y-51893260D01*
X117747189Y-51894264D01*
X117747188Y-51894264D01*
X117723482Y-51896317D01*
X117722538Y-51896399D01*
X117721025Y-51896530D01*
X117710153Y-51897000D01*
X117273256Y-51897000D01*
X117261756Y-51896438D01*
X117250782Y-51893260D01*
X117239189Y-51894264D01*
X117239188Y-51894264D01*
X117215482Y-51896317D01*
X117214538Y-51896399D01*
X117213025Y-51896530D01*
X117202153Y-51897000D01*
X117193095Y-51897000D01*
X117187394Y-51898062D01*
X117187391Y-51898062D01*
X117186539Y-51898221D01*
X117174352Y-51899879D01*
X117153860Y-51901654D01*
X117139440Y-51902903D01*
X117128989Y-51908012D01*
X117125714Y-51908920D01*
X117122563Y-51910136D01*
X117111130Y-51912265D01*
X117081284Y-51930662D01*
X117070528Y-51936588D01*
X117039034Y-51951983D01*
X117031120Y-51960515D01*
X117028403Y-51962533D01*
X117025900Y-51964803D01*
X117015993Y-51970909D01*
X116994782Y-51998803D01*
X116986871Y-52008216D01*
X116963029Y-52033917D01*
X116958717Y-52044723D01*
X116956905Y-52047590D01*
X116955386Y-52050611D01*
X116948346Y-52059869D01*
X116945112Y-52071037D01*
X116945109Y-52071043D01*
X116938599Y-52093525D01*
X116934602Y-52105167D01*
X116924910Y-52129459D01*
X116924909Y-52129465D01*
X116921615Y-52137720D01*
X116921000Y-52143993D01*
X116921000Y-52147082D01*
X116920850Y-52150145D01*
X116920736Y-52150139D01*
X116920438Y-52156244D01*
X116917260Y-52167218D01*
X116918264Y-52178811D01*
X116918264Y-52178812D01*
X116920530Y-52204975D01*
X116921000Y-52215847D01*
X116921000Y-72972744D01*
X116920438Y-72984244D01*
X116917260Y-72995218D01*
X116918264Y-73006811D01*
X116918264Y-73006812D01*
X116920530Y-73032975D01*
X116921000Y-73043847D01*
X116921000Y-73052905D01*
X116920796Y-73052905D01*
X116907642Y-73120011D01*
X116898920Y-73134369D01*
X116878371Y-73163608D01*
X116853113Y-73199547D01*
X116850354Y-73206622D01*
X116850353Y-73206625D01*
X116796076Y-73345837D01*
X116791524Y-73357513D01*
X116790532Y-73365046D01*
X116790532Y-73365047D01*
X116772043Y-73505493D01*
X116769394Y-73525611D01*
X116787999Y-73694135D01*
X116815711Y-73769862D01*
X116828377Y-73804471D01*
X116846266Y-73853356D01*
X116850502Y-73859659D01*
X116850502Y-73859660D01*
X116882107Y-73906693D01*
X116903499Y-73974390D01*
X116884895Y-74042906D01*
X116880614Y-74049417D01*
X116853113Y-74088547D01*
X116791524Y-74246513D01*
X116790532Y-74254046D01*
X116790532Y-74254047D01*
X116771488Y-74398707D01*
X116769394Y-74414611D01*
X116787999Y-74583135D01*
X116846266Y-74742356D01*
X116850504Y-74748663D01*
X116898364Y-74819887D01*
X116919756Y-74887584D01*
X116919577Y-74892217D01*
X116917260Y-74900218D01*
X116918264Y-74911810D01*
X116920530Y-74937975D01*
X116921000Y-74948847D01*
X116921000Y-97737744D01*
X116920438Y-97749244D01*
X116917260Y-97760218D01*
X116918264Y-97771811D01*
X116918264Y-97771812D01*
X116920530Y-97797975D01*
X116921000Y-97808847D01*
X116921000Y-97817905D01*
X116920796Y-97817905D01*
X116907642Y-97885011D01*
X116898920Y-97899369D01*
X116863258Y-97950112D01*
X116853113Y-97964547D01*
X116850354Y-97971622D01*
X116850353Y-97971625D01*
X116794284Y-98115434D01*
X116791524Y-98122513D01*
X116769394Y-98290611D01*
X116787999Y-98459135D01*
X116846266Y-98618356D01*
X116850502Y-98624659D01*
X116850502Y-98624660D01*
X116859431Y-98637947D01*
X116940830Y-98759083D01*
X116946450Y-98764197D01*
X116946451Y-98764198D01*
X116958702Y-98775346D01*
X116995624Y-98835987D01*
X116993899Y-98906962D01*
X116960657Y-98957516D01*
X116961410Y-98958194D01*
X116956963Y-98963133D01*
X116956730Y-98963487D01*
X116950604Y-98968831D01*
X116853113Y-99107547D01*
X116791524Y-99265513D01*
X116769394Y-99433611D01*
X116783367Y-99560175D01*
X116770961Y-99630077D01*
X116722732Y-99682178D01*
X116658128Y-99700000D01*
X100426000Y-99700000D01*
X100357879Y-99679998D01*
X100311386Y-99626342D01*
X100300000Y-99574000D01*
X100300000Y-94878568D01*
X101800001Y-94878568D01*
X101800672Y-94887734D01*
X101808700Y-94942278D01*
X101814443Y-94960759D01*
X101856889Y-95047213D01*
X101868849Y-95063918D01*
X101936572Y-95131523D01*
X101953300Y-95143455D01*
X102039838Y-95185755D01*
X102058306Y-95191463D01*
X102112297Y-95199340D01*
X102121396Y-95200000D01*
X102727885Y-95200000D01*
X102743124Y-95195525D01*
X102744329Y-95194135D01*
X102746000Y-95186452D01*
X102746000Y-94272115D01*
X102741525Y-94256876D01*
X102740135Y-94255671D01*
X102732452Y-94254000D01*
X101818116Y-94254000D01*
X101802877Y-94258475D01*
X101801672Y-94259865D01*
X101800001Y-94267548D01*
X101800001Y-94878568D01*
X100300000Y-94878568D01*
X100300000Y-93727885D01*
X101800000Y-93727885D01*
X101804475Y-93743124D01*
X101805865Y-93744329D01*
X101813548Y-93746000D01*
X103128000Y-93746000D01*
X103196121Y-93766002D01*
X103242614Y-93819658D01*
X103254000Y-93872000D01*
X103254000Y-95181884D01*
X103258475Y-95197123D01*
X103259865Y-95198328D01*
X103267548Y-95199999D01*
X103878568Y-95199999D01*
X103887734Y-95199328D01*
X103942278Y-95191300D01*
X103960759Y-95185557D01*
X104047213Y-95143111D01*
X104063918Y-95131151D01*
X104131523Y-95063428D01*
X104143453Y-95046702D01*
X104184621Y-94962483D01*
X104232507Y-94910067D01*
X104301130Y-94891860D01*
X104368702Y-94913644D01*
X104412970Y-94966666D01*
X104438061Y-95023153D01*
X104517287Y-95102241D01*
X104527924Y-95106944D01*
X104527926Y-95106945D01*
X104582679Y-95131151D01*
X104619673Y-95147506D01*
X104645354Y-95150500D01*
X106434646Y-95150500D01*
X106438350Y-95150059D01*
X106438353Y-95150059D01*
X106445746Y-95149179D01*
X106460846Y-95147382D01*
X106470462Y-95143111D01*
X106552518Y-95106663D01*
X106563153Y-95101939D01*
X106642241Y-95022713D01*
X106648321Y-95008962D01*
X106683675Y-94928993D01*
X106683675Y-94928992D01*
X106687506Y-94920327D01*
X106688548Y-94911390D01*
X106725630Y-94851145D01*
X106789625Y-94820403D01*
X106860082Y-94829139D01*
X106914632Y-94874580D01*
X106931472Y-94911353D01*
X106931501Y-94911457D01*
X106932618Y-94920846D01*
X106978061Y-95023153D01*
X107057287Y-95102241D01*
X107067924Y-95106944D01*
X107067926Y-95106945D01*
X107122679Y-95131151D01*
X107159673Y-95147506D01*
X107185354Y-95150500D01*
X108974646Y-95150500D01*
X108978350Y-95150059D01*
X108978353Y-95150059D01*
X108985746Y-95149179D01*
X109000846Y-95147382D01*
X109010462Y-95143111D01*
X109092518Y-95106663D01*
X109103153Y-95101939D01*
X109182241Y-95022713D01*
X109188321Y-95008962D01*
X109223675Y-94928992D01*
X109227506Y-94920327D01*
X109230500Y-94894646D01*
X109230500Y-94626500D01*
X109250502Y-94558379D01*
X109304158Y-94511886D01*
X109356500Y-94500500D01*
X113956665Y-94500500D01*
X114024786Y-94520502D01*
X114058686Y-94560039D01*
X114061749Y-94557934D01*
X114068340Y-94567523D01*
X114073061Y-94578153D01*
X114152287Y-94657241D01*
X114162924Y-94661944D01*
X114162926Y-94661945D01*
X114222462Y-94688265D01*
X114254673Y-94702506D01*
X114280354Y-94705500D01*
X115719646Y-94705500D01*
X115723350Y-94705059D01*
X115723353Y-94705059D01*
X115730746Y-94704179D01*
X115745846Y-94702382D01*
X115848153Y-94656939D01*
X115872579Y-94632471D01*
X115919023Y-94585945D01*
X115927241Y-94577713D01*
X115935986Y-94557934D01*
X115968675Y-94483992D01*
X115972506Y-94475327D01*
X115975500Y-94449646D01*
X115975500Y-93010354D01*
X115972382Y-92984154D01*
X115937799Y-92906295D01*
X115931663Y-92892482D01*
X115926939Y-92881847D01*
X115913919Y-92868849D01*
X115855945Y-92810977D01*
X115847713Y-92802759D01*
X115837076Y-92798056D01*
X115837074Y-92798055D01*
X115760622Y-92764256D01*
X115745327Y-92757494D01*
X115719646Y-92754500D01*
X115639173Y-92754500D01*
X115571052Y-92734498D01*
X115524559Y-92680842D01*
X115514455Y-92610568D01*
X115543949Y-92545988D01*
X115561600Y-92529210D01*
X115582716Y-92512713D01*
X115675979Y-92439848D01*
X115697388Y-92415046D01*
X115796958Y-92299692D01*
X115796959Y-92299691D01*
X115800982Y-92295030D01*
X115808024Y-92282635D01*
X115856587Y-92197148D01*
X115895476Y-92128691D01*
X115955861Y-91947166D01*
X115968018Y-91850933D01*
X115979396Y-91760872D01*
X115979397Y-91760863D01*
X115979838Y-91757369D01*
X115980220Y-91730000D01*
X115961552Y-91539608D01*
X115906259Y-91356467D01*
X115886951Y-91320154D01*
X115819342Y-91193001D01*
X115819341Y-91192999D01*
X115816446Y-91187555D01*
X115718188Y-91067078D01*
X115699430Y-91044078D01*
X115699427Y-91044075D01*
X115695535Y-91039303D01*
X115653264Y-91004333D01*
X115552879Y-90921288D01*
X115548132Y-90917361D01*
X115405107Y-90840027D01*
X115354701Y-90790035D01*
X115339324Y-90720724D01*
X115363860Y-90654102D01*
X115408228Y-90616728D01*
X115474202Y-90583402D01*
X115525228Y-90557627D01*
X115543519Y-90543337D01*
X115671129Y-90443637D01*
X115675979Y-90439848D01*
X115697503Y-90414913D01*
X115796958Y-90299692D01*
X115796959Y-90299691D01*
X115800982Y-90295030D01*
X115822723Y-90256760D01*
X115874167Y-90166201D01*
X115895476Y-90128691D01*
X115955861Y-89947166D01*
X115966901Y-89859777D01*
X115979396Y-89760872D01*
X115979397Y-89760863D01*
X115979838Y-89757369D01*
X115980220Y-89730000D01*
X115961552Y-89539608D01*
X115906259Y-89356467D01*
X115897689Y-89340350D01*
X115819342Y-89193001D01*
X115819341Y-89192999D01*
X115816446Y-89187555D01*
X115718188Y-89067078D01*
X115699430Y-89044078D01*
X115699427Y-89044075D01*
X115695535Y-89039303D01*
X115679455Y-89026000D01*
X115552879Y-88921288D01*
X115548132Y-88917361D01*
X115405107Y-88840027D01*
X115354701Y-88790035D01*
X115339324Y-88720724D01*
X115363860Y-88654102D01*
X115408228Y-88616728D01*
X115474202Y-88583402D01*
X115525228Y-88557627D01*
X115550464Y-88537911D01*
X115627356Y-88477836D01*
X115675979Y-88439848D01*
X115697503Y-88414913D01*
X115796958Y-88299692D01*
X115796959Y-88299691D01*
X115800982Y-88295030D01*
X115806289Y-88285689D01*
X115857912Y-88194815D01*
X115895476Y-88128691D01*
X115955861Y-87947166D01*
X115964845Y-87876049D01*
X115979396Y-87760872D01*
X115979397Y-87760863D01*
X115979838Y-87757369D01*
X115980220Y-87730000D01*
X115961552Y-87539608D01*
X115906259Y-87356467D01*
X115903366Y-87351026D01*
X115819342Y-87193001D01*
X115819341Y-87192999D01*
X115816446Y-87187555D01*
X115763310Y-87122404D01*
X115699430Y-87044078D01*
X115699427Y-87044075D01*
X115695535Y-87039303D01*
X115683559Y-87029395D01*
X115552879Y-86921288D01*
X115548132Y-86917361D01*
X115405107Y-86840027D01*
X115354701Y-86790035D01*
X115339324Y-86720724D01*
X115363860Y-86654102D01*
X115408228Y-86616728D01*
X115459574Y-86590791D01*
X115525228Y-86557627D01*
X115537753Y-86547842D01*
X115671129Y-86443637D01*
X115675979Y-86439848D01*
X115700726Y-86411179D01*
X115796958Y-86299692D01*
X115796959Y-86299691D01*
X115800982Y-86295030D01*
X115814934Y-86270471D01*
X115845854Y-86216042D01*
X115895476Y-86128691D01*
X115955861Y-85947166D01*
X115969290Y-85840867D01*
X115979396Y-85760872D01*
X115979397Y-85760863D01*
X115979838Y-85757369D01*
X115980220Y-85730000D01*
X115961552Y-85539608D01*
X115906259Y-85356467D01*
X115878400Y-85304072D01*
X115819342Y-85193001D01*
X115819341Y-85192999D01*
X115816446Y-85187555D01*
X115756533Y-85114094D01*
X115699430Y-85044078D01*
X115699427Y-85044075D01*
X115695535Y-85039303D01*
X115683137Y-85029046D01*
X115552879Y-84921288D01*
X115548132Y-84917361D01*
X115405107Y-84840027D01*
X115354701Y-84790035D01*
X115339324Y-84720724D01*
X115363860Y-84654102D01*
X115408228Y-84616728D01*
X115474202Y-84583402D01*
X115525228Y-84557627D01*
X115542728Y-84543955D01*
X115600604Y-84498737D01*
X115675979Y-84439848D01*
X115695085Y-84417714D01*
X115796958Y-84299692D01*
X115796959Y-84299691D01*
X115800982Y-84295030D01*
X115895476Y-84128691D01*
X115955861Y-83947166D01*
X115967141Y-83857876D01*
X115979396Y-83760872D01*
X115979397Y-83760863D01*
X115979838Y-83757369D01*
X115980220Y-83730000D01*
X115961552Y-83539608D01*
X115906259Y-83356467D01*
X115876696Y-83300867D01*
X115819342Y-83193001D01*
X115819341Y-83192999D01*
X115816446Y-83187555D01*
X115757121Y-83114815D01*
X115699430Y-83044078D01*
X115699427Y-83044075D01*
X115695535Y-83039303D01*
X115689221Y-83034079D01*
X115552879Y-82921288D01*
X115548132Y-82917361D01*
X115405107Y-82840027D01*
X115354701Y-82790035D01*
X115339324Y-82720724D01*
X115363860Y-82654102D01*
X115408228Y-82616728D01*
X115474202Y-82583402D01*
X115525228Y-82557627D01*
X115532825Y-82551692D01*
X115613008Y-82489046D01*
X115675979Y-82439848D01*
X115680040Y-82435144D01*
X115796958Y-82299692D01*
X115796959Y-82299691D01*
X115800982Y-82295030D01*
X115895476Y-82128691D01*
X115955861Y-81947166D01*
X115964635Y-81877714D01*
X115979396Y-81760872D01*
X115979397Y-81760863D01*
X115979838Y-81757369D01*
X115980220Y-81730000D01*
X115961552Y-81539608D01*
X115906259Y-81356467D01*
X115903366Y-81351026D01*
X115819342Y-81193001D01*
X115819341Y-81192999D01*
X115816446Y-81187555D01*
X115736426Y-81089440D01*
X115699430Y-81044078D01*
X115699427Y-81044075D01*
X115695535Y-81039303D01*
X115650317Y-81001895D01*
X115552879Y-80921288D01*
X115548132Y-80917361D01*
X115405107Y-80840027D01*
X115354701Y-80790035D01*
X115339324Y-80720724D01*
X115363860Y-80654102D01*
X115408228Y-80616728D01*
X115477342Y-80581816D01*
X115525228Y-80557627D01*
X115554309Y-80534907D01*
X115641701Y-80466629D01*
X115675979Y-80439848D01*
X115693162Y-80419942D01*
X115796958Y-80299692D01*
X115796959Y-80299691D01*
X115800982Y-80295030D01*
X115895476Y-80128691D01*
X115955861Y-79947166D01*
X115966518Y-79862809D01*
X115979396Y-79760872D01*
X115979397Y-79760863D01*
X115979838Y-79757369D01*
X115980220Y-79730000D01*
X115961552Y-79539608D01*
X115906259Y-79356467D01*
X115893499Y-79332469D01*
X115819342Y-79193001D01*
X115819341Y-79192999D01*
X115816446Y-79187555D01*
X115718192Y-79067083D01*
X115699430Y-79044078D01*
X115699427Y-79044075D01*
X115695535Y-79039303D01*
X115690594Y-79035215D01*
X115552879Y-78921288D01*
X115548132Y-78917361D01*
X115405107Y-78840027D01*
X115354701Y-78790035D01*
X115339324Y-78720724D01*
X115363860Y-78654102D01*
X115408228Y-78616728D01*
X115470057Y-78585496D01*
X115525228Y-78557627D01*
X115539189Y-78546720D01*
X115600603Y-78498738D01*
X115675979Y-78439848D01*
X115682512Y-78432280D01*
X115796958Y-78299692D01*
X115796959Y-78299691D01*
X115800982Y-78295030D01*
X115819348Y-78262701D01*
X115859382Y-78192227D01*
X115895476Y-78128691D01*
X115955861Y-77947166D01*
X115964730Y-77876962D01*
X115979396Y-77760872D01*
X115979397Y-77760863D01*
X115979838Y-77757369D01*
X115980220Y-77730000D01*
X115961552Y-77539608D01*
X115906259Y-77356467D01*
X115864215Y-77277395D01*
X115819342Y-77193001D01*
X115819341Y-77192999D01*
X115816446Y-77187555D01*
X115747807Y-77103395D01*
X115699430Y-77044078D01*
X115699427Y-77044075D01*
X115695535Y-77039303D01*
X115686362Y-77031714D01*
X115552879Y-76921288D01*
X115548132Y-76917361D01*
X115405107Y-76840027D01*
X115354701Y-76790035D01*
X115339324Y-76720724D01*
X115363860Y-76654102D01*
X115408228Y-76616728D01*
X115470900Y-76585070D01*
X115525228Y-76557627D01*
X115675979Y-76439848D01*
X115694822Y-76418019D01*
X115796958Y-76299692D01*
X115796959Y-76299691D01*
X115800982Y-76295030D01*
X115807378Y-76283772D01*
X115846753Y-76214459D01*
X115895476Y-76128691D01*
X115955861Y-75947166D01*
X115967445Y-75855469D01*
X115979396Y-75760872D01*
X115979397Y-75760863D01*
X115979838Y-75757369D01*
X115980220Y-75730000D01*
X115961552Y-75539608D01*
X115906259Y-75356467D01*
X115897472Y-75339942D01*
X115819342Y-75193001D01*
X115819341Y-75192999D01*
X115816446Y-75187555D01*
X115721244Y-75070825D01*
X115699430Y-75044078D01*
X115699427Y-75044075D01*
X115695535Y-75039303D01*
X115668345Y-75016809D01*
X115552879Y-74921288D01*
X115548132Y-74917361D01*
X115405107Y-74840027D01*
X115354701Y-74790035D01*
X115339324Y-74720724D01*
X115363860Y-74654102D01*
X115408228Y-74616728D01*
X115513809Y-74563395D01*
X115525228Y-74557627D01*
X115675979Y-74439848D01*
X115688948Y-74424824D01*
X115796958Y-74299692D01*
X115796959Y-74299691D01*
X115800982Y-74295030D01*
X115895476Y-74128691D01*
X115955861Y-73947166D01*
X115963872Y-73883754D01*
X115979396Y-73760872D01*
X115979397Y-73760863D01*
X115979838Y-73757369D01*
X115980220Y-73730000D01*
X115961552Y-73539608D01*
X115906259Y-73356467D01*
X115842732Y-73236991D01*
X115819342Y-73193001D01*
X115819341Y-73192999D01*
X115816446Y-73187555D01*
X115760253Y-73118655D01*
X115699430Y-73044078D01*
X115699427Y-73044075D01*
X115695535Y-73039303D01*
X115668606Y-73017025D01*
X115552879Y-72921288D01*
X115548132Y-72917361D01*
X115405107Y-72840027D01*
X115354701Y-72790035D01*
X115339324Y-72720724D01*
X115363860Y-72654102D01*
X115408228Y-72616728D01*
X115474202Y-72583402D01*
X115525228Y-72557627D01*
X115533716Y-72550996D01*
X115671129Y-72443637D01*
X115675979Y-72439848D01*
X115706107Y-72404945D01*
X115796958Y-72299692D01*
X115796959Y-72299691D01*
X115800982Y-72295030D01*
X115806480Y-72285353D01*
X115840682Y-72225145D01*
X115895476Y-72128691D01*
X115955861Y-71947166D01*
X115976490Y-71783872D01*
X115979396Y-71760872D01*
X115979397Y-71760863D01*
X115979838Y-71757369D01*
X115980220Y-71730000D01*
X115961552Y-71539608D01*
X115906259Y-71356467D01*
X115831571Y-71216001D01*
X115819342Y-71193001D01*
X115819341Y-71192999D01*
X115816446Y-71187555D01*
X115728857Y-71080160D01*
X115701303Y-71014728D01*
X115700500Y-71000524D01*
X115700500Y-70458300D01*
X115720502Y-70390179D01*
X115731118Y-70375969D01*
X115796958Y-70299692D01*
X115796959Y-70299691D01*
X115800982Y-70295030D01*
X115809534Y-70279977D01*
X115861532Y-70188443D01*
X115895476Y-70128691D01*
X115955861Y-69947166D01*
X115965644Y-69869729D01*
X115979396Y-69760872D01*
X115979397Y-69760863D01*
X115979838Y-69757369D01*
X115980220Y-69730000D01*
X115961552Y-69539608D01*
X115906259Y-69356467D01*
X115870618Y-69289436D01*
X115819342Y-69193001D01*
X115819341Y-69192999D01*
X115816446Y-69187555D01*
X115771248Y-69132137D01*
X115699430Y-69044078D01*
X115699427Y-69044075D01*
X115695535Y-69039303D01*
X115630998Y-68985913D01*
X115552879Y-68921288D01*
X115548132Y-68917361D01*
X115458136Y-68868700D01*
X115407731Y-68818708D01*
X115392353Y-68749397D01*
X115416889Y-68682775D01*
X115461257Y-68645401D01*
X115546380Y-68602402D01*
X115556739Y-68595828D01*
X115705425Y-68479662D01*
X115714307Y-68471204D01*
X115837600Y-68328367D01*
X115844670Y-68318345D01*
X115937872Y-68154279D01*
X115942861Y-68143073D01*
X115990060Y-68001189D01*
X115990561Y-67987097D01*
X115984372Y-67984000D01*
X114006480Y-67984000D01*
X114006480Y-67983806D01*
X113954257Y-67983805D01*
X113900662Y-67952005D01*
X111944632Y-65995975D01*
X114009914Y-65995975D01*
X114040667Y-66103227D01*
X114045186Y-66114639D01*
X114131432Y-66282456D01*
X114138079Y-66292769D01*
X114255280Y-66440639D01*
X114263803Y-66449465D01*
X114407496Y-66571758D01*
X114417564Y-66578755D01*
X114490631Y-66619591D01*
X114540336Y-66670285D01*
X114554744Y-66739804D01*
X114529280Y-66806077D01*
X114487535Y-66841241D01*
X114441491Y-66865312D01*
X114431229Y-66872028D01*
X114284180Y-66990259D01*
X114275414Y-66998843D01*
X114154125Y-67143389D01*
X114147199Y-67153503D01*
X114056293Y-67318861D01*
X114051465Y-67330125D01*
X114010669Y-67458731D01*
X114010365Y-67472831D01*
X114016926Y-67476000D01*
X114727885Y-67476000D01*
X114743124Y-67471525D01*
X114744329Y-67470135D01*
X114746000Y-67462452D01*
X114746000Y-66736238D01*
X114747063Y-66736238D01*
X114745769Y-66723331D01*
X115253075Y-66723331D01*
X115254372Y-66735827D01*
X115254000Y-66740547D01*
X115254000Y-67457885D01*
X115258475Y-67473124D01*
X115259865Y-67474329D01*
X115267548Y-67476000D01*
X115975942Y-67476000D01*
X115989473Y-67472027D01*
X115990565Y-67464433D01*
X115954026Y-67343413D01*
X115949353Y-67332074D01*
X115860769Y-67165470D01*
X115853981Y-67155253D01*
X115734724Y-67009030D01*
X115726080Y-67000326D01*
X115580695Y-66880053D01*
X115570519Y-66873189D01*
X115511950Y-66841520D01*
X115461541Y-66791525D01*
X115446164Y-66722214D01*
X115470701Y-66655592D01*
X115515069Y-66618219D01*
X115546376Y-66602405D01*
X115556739Y-66595828D01*
X115705425Y-66479662D01*
X115714307Y-66471204D01*
X115837600Y-66328367D01*
X115844670Y-66318345D01*
X115937872Y-66154279D01*
X115942861Y-66143073D01*
X115990060Y-66001189D01*
X115990561Y-65987097D01*
X115984372Y-65984000D01*
X115272115Y-65984000D01*
X115256876Y-65988475D01*
X115255671Y-65989865D01*
X115254000Y-65997548D01*
X115254000Y-66723331D01*
X115253075Y-66723331D01*
X114745769Y-66723331D01*
X114745733Y-66722974D01*
X114746000Y-66719865D01*
X114746000Y-66002115D01*
X114741525Y-65986876D01*
X114740135Y-65985671D01*
X114732452Y-65984000D01*
X114024595Y-65984000D01*
X114011064Y-65987973D01*
X114009914Y-65995975D01*
X111944632Y-65995975D01*
X110754582Y-64805925D01*
X110748728Y-64799659D01*
X110716165Y-64762331D01*
X110711169Y-64756604D01*
X110659527Y-64720310D01*
X110654242Y-64716384D01*
X110610524Y-64682105D01*
X110610520Y-64682103D01*
X110604543Y-64677416D01*
X110597620Y-64674290D01*
X110594672Y-64672505D01*
X110581712Y-64665113D01*
X110578666Y-64663480D01*
X110572453Y-64659113D01*
X110513633Y-64636180D01*
X110507554Y-64633624D01*
X110474784Y-64618828D01*
X110450016Y-64607645D01*
X110442545Y-64606260D01*
X110439277Y-64605236D01*
X110424836Y-64601123D01*
X110421563Y-64600283D01*
X110414487Y-64597524D01*
X110369817Y-64591644D01*
X110351894Y-64589284D01*
X110345377Y-64588252D01*
X110290775Y-64578132D01*
X110283308Y-64576748D01*
X110275728Y-64577185D01*
X110275727Y-64577185D01*
X110221856Y-64580291D01*
X110214604Y-64580500D01*
X103826500Y-64580500D01*
X103758379Y-64560498D01*
X103711886Y-64506842D01*
X103700500Y-64454500D01*
X103700500Y-63379500D01*
X103720502Y-63311379D01*
X103774158Y-63264886D01*
X103826500Y-63253500D01*
X103894646Y-63253500D01*
X103898350Y-63253059D01*
X103898353Y-63253059D01*
X103905746Y-63252179D01*
X103920846Y-63250382D01*
X103963264Y-63231541D01*
X104012518Y-63209663D01*
X104023153Y-63204939D01*
X104035071Y-63193001D01*
X104094023Y-63133945D01*
X104102241Y-63125713D01*
X104108901Y-63110650D01*
X104133265Y-63055538D01*
X104147506Y-63023327D01*
X104150500Y-62997646D01*
X104150500Y-62515191D01*
X104170502Y-62447070D01*
X104224158Y-62400577D01*
X104294432Y-62390473D01*
X104359012Y-62419967D01*
X104398623Y-62484176D01*
X104402562Y-62499687D01*
X104406401Y-62510527D01*
X104493898Y-62700324D01*
X104499649Y-62710285D01*
X104620272Y-62880962D01*
X104627740Y-62889705D01*
X104777446Y-63035543D01*
X104786380Y-63042777D01*
X104960152Y-63158889D01*
X104970265Y-63164380D01*
X105162288Y-63246879D01*
X105173221Y-63250431D01*
X105268331Y-63271952D01*
X105282405Y-63271063D01*
X105286000Y-63261664D01*
X105286000Y-60947087D01*
X105282194Y-60934125D01*
X105267278Y-60932189D01*
X105233787Y-60937944D01*
X105222661Y-60940925D01*
X105026592Y-61013258D01*
X105016210Y-61018210D01*
X104836604Y-61125064D01*
X104827292Y-61131829D01*
X104670163Y-61269629D01*
X104662246Y-61277972D01*
X104532862Y-61442095D01*
X104526591Y-61451751D01*
X104429287Y-61636696D01*
X104424880Y-61647336D01*
X104396832Y-61737664D01*
X104357529Y-61796790D01*
X104292500Y-61825280D01*
X104222391Y-61814090D01*
X104169461Y-61766773D01*
X104150500Y-61700300D01*
X104150500Y-61208354D01*
X104147382Y-61182154D01*
X104140380Y-61166389D01*
X104106663Y-61090482D01*
X104101939Y-61079847D01*
X104093444Y-61071366D01*
X104054302Y-61032293D01*
X104022713Y-61000759D01*
X104012076Y-60996056D01*
X104012074Y-60996055D01*
X103929438Y-60959522D01*
X103920327Y-60955494D01*
X103894646Y-60952500D01*
X103826500Y-60952500D01*
X103758379Y-60932498D01*
X103711886Y-60878842D01*
X103700500Y-60826500D01*
X103700500Y-56521500D01*
X103720502Y-56453379D01*
X103774158Y-56406886D01*
X103826500Y-56395500D01*
X103894646Y-56395500D01*
X103898350Y-56395059D01*
X103898353Y-56395059D01*
X103905746Y-56394179D01*
X103920846Y-56392382D01*
X103942725Y-56382664D01*
X104012518Y-56351663D01*
X104023153Y-56346939D01*
X104033903Y-56336171D01*
X104073444Y-56296560D01*
X104102241Y-56267713D01*
X104114045Y-56241015D01*
X104143675Y-56173992D01*
X104147506Y-56165327D01*
X104150500Y-56139646D01*
X104150500Y-55455673D01*
X104170502Y-55387552D01*
X104224158Y-55341059D01*
X104294432Y-55330955D01*
X104359012Y-55360449D01*
X104397396Y-55420175D01*
X104398658Y-55425784D01*
X104398796Y-55425749D01*
X104427276Y-55537886D01*
X104450845Y-55630690D01*
X104453262Y-55635933D01*
X104498243Y-55733505D01*
X104539369Y-55822714D01*
X104661405Y-55995391D01*
X104665539Y-55999418D01*
X104805727Y-56135983D01*
X104812865Y-56142937D01*
X104817661Y-56146142D01*
X104817664Y-56146144D01*
X104959649Y-56241015D01*
X104988677Y-56260411D01*
X104993985Y-56262692D01*
X104993986Y-56262692D01*
X105177650Y-56341600D01*
X105177653Y-56341601D01*
X105182953Y-56343878D01*
X105188582Y-56345152D01*
X105188583Y-56345152D01*
X105383550Y-56389269D01*
X105383553Y-56389269D01*
X105389186Y-56390544D01*
X105394957Y-56390771D01*
X105394959Y-56390771D01*
X105456989Y-56393208D01*
X105600470Y-56398846D01*
X105606179Y-56398018D01*
X105606183Y-56398018D01*
X105804015Y-56369333D01*
X105804019Y-56369332D01*
X105809730Y-56368504D01*
X105847860Y-56355561D01*
X105897298Y-56338779D01*
X105968233Y-56335823D01*
X106026894Y-56368997D01*
X108626247Y-58968350D01*
X108636101Y-58979439D01*
X108651293Y-58998709D01*
X108657128Y-59006110D01*
X108664875Y-59011465D01*
X108664877Y-59011466D01*
X108705375Y-59039455D01*
X108708597Y-59041757D01*
X108736414Y-59062303D01*
X108755816Y-59076634D01*
X108762632Y-59079027D01*
X108768569Y-59083131D01*
X108777549Y-59085971D01*
X108777551Y-59085972D01*
X108797717Y-59092350D01*
X108824519Y-59100826D01*
X108828250Y-59102071D01*
X108874737Y-59118396D01*
X108874739Y-59118396D01*
X108883631Y-59121519D01*
X108890819Y-59121801D01*
X108890878Y-59121812D01*
X108897730Y-59123980D01*
X108904337Y-59124500D01*
X108957016Y-59124500D01*
X108961962Y-59124597D01*
X109018994Y-59126838D01*
X109026100Y-59124954D01*
X109034344Y-59124500D01*
X113705207Y-59124500D01*
X113773328Y-59144502D01*
X113794302Y-59161405D01*
X114015422Y-59382525D01*
X114049448Y-59444837D01*
X114046428Y-59509720D01*
X114041200Y-59526201D01*
X114019876Y-59716314D01*
X114035884Y-59906948D01*
X114088614Y-60090843D01*
X114091433Y-60096328D01*
X114173242Y-60255511D01*
X114173245Y-60255516D01*
X114176060Y-60260993D01*
X114294889Y-60410918D01*
X114299583Y-60414913D01*
X114333334Y-60443637D01*
X114440575Y-60534907D01*
X114527351Y-60583404D01*
X114594700Y-60621044D01*
X114644406Y-60671737D01*
X114658814Y-60741256D01*
X114633351Y-60807529D01*
X114591605Y-60842694D01*
X114463268Y-60909787D01*
X114458468Y-60913647D01*
X114458467Y-60913647D01*
X114384774Y-60972898D01*
X114314176Y-61029660D01*
X114191207Y-61176208D01*
X114188237Y-61181611D01*
X114188236Y-61181612D01*
X114171521Y-61212017D01*
X114099045Y-61343850D01*
X114097184Y-61349717D01*
X114097183Y-61349719D01*
X114043064Y-61520323D01*
X114043063Y-61520329D01*
X114041200Y-61526201D01*
X114040513Y-61532326D01*
X114039591Y-61540547D01*
X114012119Y-61606013D01*
X113953615Y-61646234D01*
X113914376Y-61652500D01*
X111759072Y-61652500D01*
X111690951Y-61632498D01*
X111646066Y-61582229D01*
X111628072Y-61545741D01*
X111605165Y-61499290D01*
X111478651Y-61329867D01*
X111351236Y-61212086D01*
X111327622Y-61190257D01*
X111327620Y-61190255D01*
X111323381Y-61186337D01*
X111294696Y-61168238D01*
X111149434Y-61076584D01*
X111149433Y-61076584D01*
X111144554Y-61073505D01*
X110948160Y-60995152D01*
X110942503Y-60994027D01*
X110942497Y-60994025D01*
X110746442Y-60955028D01*
X110746440Y-60955028D01*
X110740775Y-60953901D01*
X110735000Y-60953825D01*
X110734996Y-60953825D01*
X110628976Y-60952437D01*
X110529346Y-60951133D01*
X110523649Y-60952112D01*
X110523648Y-60952112D01*
X110326650Y-60985962D01*
X110326649Y-60985962D01*
X110320953Y-60986941D01*
X110122575Y-61060127D01*
X110117614Y-61063079D01*
X110117613Y-61063079D01*
X109981908Y-61143815D01*
X109940856Y-61168238D01*
X109781881Y-61307655D01*
X109650976Y-61473708D01*
X109648287Y-61478819D01*
X109648285Y-61478822D01*
X109598400Y-61573638D01*
X109552523Y-61660836D01*
X109489820Y-61862773D01*
X109489141Y-61868510D01*
X109475088Y-61987239D01*
X109447217Y-62052537D01*
X109388469Y-62092401D01*
X109317494Y-62094174D01*
X109256828Y-62057295D01*
X109225730Y-61993471D01*
X109224490Y-61983958D01*
X109223462Y-61972763D01*
X109216081Y-61892440D01*
X109212123Y-61878404D01*
X109189105Y-61796790D01*
X109158686Y-61688931D01*
X109147553Y-61666354D01*
X109067719Y-61504469D01*
X109067718Y-61504467D01*
X109065165Y-61499290D01*
X108938651Y-61329867D01*
X108811236Y-61212086D01*
X108787622Y-61190257D01*
X108787620Y-61190255D01*
X108783381Y-61186337D01*
X108754696Y-61168238D01*
X108609434Y-61076584D01*
X108609433Y-61076584D01*
X108604554Y-61073505D01*
X108408160Y-60995152D01*
X108402503Y-60994027D01*
X108402497Y-60994025D01*
X108206442Y-60955028D01*
X108206440Y-60955028D01*
X108200775Y-60953901D01*
X108195000Y-60953825D01*
X108194996Y-60953825D01*
X108088976Y-60952437D01*
X107989346Y-60951133D01*
X107983649Y-60952112D01*
X107983648Y-60952112D01*
X107786650Y-60985962D01*
X107786649Y-60985962D01*
X107780953Y-60986941D01*
X107582575Y-61060127D01*
X107577614Y-61063079D01*
X107577613Y-61063079D01*
X107441908Y-61143815D01*
X107400856Y-61168238D01*
X107241881Y-61307655D01*
X107110976Y-61473708D01*
X107108287Y-61478819D01*
X107108285Y-61478822D01*
X107058400Y-61573638D01*
X107012523Y-61660836D01*
X106955081Y-61845830D01*
X106915778Y-61904955D01*
X106850748Y-61933446D01*
X106780639Y-61922256D01*
X106727709Y-61874939D01*
X106713479Y-61842668D01*
X106666664Y-61676675D01*
X106662542Y-61665936D01*
X106570107Y-61478497D01*
X106564097Y-61468689D01*
X106439047Y-61301227D01*
X106431357Y-61292687D01*
X106277883Y-61150816D01*
X106268758Y-61143815D01*
X106092006Y-61032293D01*
X106081759Y-61027072D01*
X105887647Y-60949629D01*
X105876611Y-60946360D01*
X105811770Y-60933462D01*
X105798894Y-60934614D01*
X105794000Y-60949770D01*
X105794000Y-63260691D01*
X105797966Y-63274197D01*
X105811966Y-63276201D01*
X105815618Y-63275672D01*
X105826803Y-63272987D01*
X106024707Y-63205807D01*
X106035216Y-63201128D01*
X106217552Y-63099015D01*
X106227045Y-63092490D01*
X106387725Y-62958854D01*
X106395854Y-62950725D01*
X106529490Y-62790045D01*
X106536015Y-62780552D01*
X106638128Y-62598216D01*
X106642807Y-62587707D01*
X106709985Y-62389809D01*
X106712671Y-62378619D01*
X106712712Y-62378338D01*
X106712768Y-62378215D01*
X106714020Y-62373001D01*
X106715044Y-62373247D01*
X106742279Y-62313791D01*
X106802050Y-62275476D01*
X106873046Y-62275558D01*
X106932728Y-62314010D01*
X106959532Y-62365397D01*
X106979403Y-62443637D01*
X106990845Y-62488690D01*
X106993262Y-62493933D01*
X107076951Y-62675469D01*
X107079369Y-62680714D01*
X107201405Y-62853391D01*
X107237252Y-62888312D01*
X107345727Y-62993983D01*
X107352865Y-63000937D01*
X107357661Y-63004142D01*
X107357664Y-63004144D01*
X107498374Y-63098163D01*
X107528677Y-63118411D01*
X107533985Y-63120692D01*
X107533986Y-63120692D01*
X107717650Y-63199600D01*
X107717653Y-63199601D01*
X107722953Y-63201878D01*
X107728582Y-63203152D01*
X107728583Y-63203152D01*
X107923550Y-63247269D01*
X107923553Y-63247269D01*
X107929186Y-63248544D01*
X107934957Y-63248771D01*
X107934959Y-63248771D01*
X107996989Y-63251208D01*
X108140470Y-63256846D01*
X108146179Y-63256018D01*
X108146183Y-63256018D01*
X108344015Y-63227333D01*
X108344019Y-63227332D01*
X108349730Y-63226504D01*
X108362398Y-63222204D01*
X108437298Y-63196779D01*
X108508233Y-63193823D01*
X108566894Y-63226997D01*
X109364247Y-64024350D01*
X109374101Y-64035439D01*
X109378335Y-64040809D01*
X109395128Y-64062110D01*
X109402875Y-64067465D01*
X109402877Y-64067466D01*
X109443375Y-64095455D01*
X109446597Y-64097757D01*
X109485142Y-64126227D01*
X109493816Y-64132634D01*
X109500632Y-64135027D01*
X109506569Y-64139131D01*
X109515549Y-64141971D01*
X109515551Y-64141972D01*
X109524914Y-64144933D01*
X109562519Y-64156826D01*
X109566250Y-64158071D01*
X109612737Y-64174396D01*
X109612739Y-64174396D01*
X109621631Y-64177519D01*
X109628819Y-64177801D01*
X109628878Y-64177812D01*
X109635730Y-64179980D01*
X109642337Y-64180500D01*
X109695016Y-64180500D01*
X109699962Y-64180597D01*
X109756994Y-64182838D01*
X109764100Y-64180954D01*
X109772344Y-64180500D01*
X114057782Y-64180500D01*
X114125903Y-64200502D01*
X114169849Y-64248908D01*
X114176060Y-64260993D01*
X114294889Y-64410918D01*
X114299583Y-64414913D01*
X114409451Y-64508418D01*
X114440575Y-64534907D01*
X114543061Y-64592185D01*
X114592764Y-64642875D01*
X114607173Y-64712394D01*
X114581709Y-64778667D01*
X114539963Y-64813832D01*
X114441491Y-64865312D01*
X114431229Y-64872028D01*
X114284180Y-64990259D01*
X114275414Y-64998843D01*
X114154125Y-65143389D01*
X114147199Y-65153503D01*
X114056293Y-65318861D01*
X114051465Y-65330125D01*
X114010669Y-65458731D01*
X114010365Y-65472831D01*
X114016926Y-65476000D01*
X115975942Y-65476000D01*
X115989473Y-65472027D01*
X115990565Y-65464433D01*
X115954026Y-65343413D01*
X115949353Y-65332074D01*
X115860769Y-65165470D01*
X115853981Y-65155253D01*
X115734724Y-65009030D01*
X115726080Y-65000326D01*
X115580695Y-64880053D01*
X115570527Y-64873194D01*
X115458920Y-64812848D01*
X115408511Y-64762853D01*
X115393134Y-64693542D01*
X115417670Y-64626920D01*
X115462039Y-64589546D01*
X115519731Y-64560404D01*
X115519733Y-64560403D01*
X115525228Y-64557627D01*
X115554309Y-64534907D01*
X115671129Y-64443637D01*
X115675979Y-64439848D01*
X115697503Y-64414913D01*
X115796958Y-64299692D01*
X115796959Y-64299691D01*
X115800982Y-64295030D01*
X115823432Y-64255512D01*
X115844467Y-64218483D01*
X115895476Y-64128691D01*
X115955861Y-63947166D01*
X115964958Y-63875158D01*
X115979396Y-63760872D01*
X115979397Y-63760863D01*
X115979838Y-63757369D01*
X115980220Y-63730000D01*
X115961552Y-63539608D01*
X115906259Y-63356467D01*
X115875238Y-63298125D01*
X115819342Y-63193001D01*
X115819341Y-63192999D01*
X115816446Y-63187555D01*
X115736910Y-63090034D01*
X115699430Y-63044078D01*
X115699427Y-63044075D01*
X115695535Y-63039303D01*
X115686744Y-63032030D01*
X115552879Y-62921288D01*
X115548132Y-62917361D01*
X115405107Y-62840027D01*
X115354701Y-62790035D01*
X115339324Y-62720724D01*
X115363860Y-62654102D01*
X115408228Y-62616728D01*
X115481489Y-62579721D01*
X115525228Y-62557627D01*
X115530511Y-62553500D01*
X115645528Y-62463639D01*
X115675979Y-62439848D01*
X115705804Y-62405296D01*
X115796958Y-62299692D01*
X115796959Y-62299691D01*
X115800982Y-62295030D01*
X115895476Y-62128691D01*
X115955861Y-61947166D01*
X115964548Y-61878404D01*
X115979396Y-61760872D01*
X115979397Y-61760863D01*
X115979838Y-61757369D01*
X115980220Y-61730000D01*
X115961552Y-61539608D01*
X115906259Y-61356467D01*
X115860086Y-61269629D01*
X115819342Y-61193001D01*
X115819341Y-61192999D01*
X115816446Y-61187555D01*
X115737638Y-61090926D01*
X115699430Y-61044078D01*
X115699427Y-61044075D01*
X115695535Y-61039303D01*
X115687062Y-61032293D01*
X115552879Y-60921288D01*
X115548132Y-60917361D01*
X115405107Y-60840027D01*
X115354701Y-60790035D01*
X115339324Y-60720724D01*
X115363860Y-60654102D01*
X115408228Y-60616728D01*
X115474198Y-60583404D01*
X115525228Y-60557627D01*
X115554309Y-60534907D01*
X115671129Y-60443637D01*
X115675979Y-60439848D01*
X115697503Y-60414913D01*
X115796958Y-60299692D01*
X115796959Y-60299691D01*
X115800982Y-60295030D01*
X115895476Y-60128691D01*
X115955861Y-59947166D01*
X115976490Y-59783872D01*
X115979396Y-59760872D01*
X115979397Y-59760863D01*
X115979838Y-59757369D01*
X115980220Y-59730000D01*
X115961552Y-59539608D01*
X115906259Y-59356467D01*
X115831571Y-59216001D01*
X115819342Y-59193001D01*
X115819341Y-59192999D01*
X115816446Y-59187555D01*
X115760998Y-59119569D01*
X115699430Y-59044078D01*
X115699427Y-59044075D01*
X115695535Y-59039303D01*
X115655412Y-59006110D01*
X115552879Y-58921288D01*
X115548132Y-58917361D01*
X115405107Y-58840027D01*
X115354701Y-58790035D01*
X115339324Y-58720724D01*
X115363860Y-58654102D01*
X115408228Y-58616728D01*
X115474202Y-58583402D01*
X115525228Y-58557627D01*
X115551982Y-58536725D01*
X115671129Y-58443637D01*
X115675979Y-58439848D01*
X115800982Y-58295030D01*
X115815785Y-58268973D01*
X115842945Y-58221162D01*
X115895476Y-58128691D01*
X115955861Y-57947166D01*
X115976490Y-57783872D01*
X115979396Y-57760872D01*
X115979397Y-57760863D01*
X115979838Y-57757369D01*
X115980220Y-57730000D01*
X115961552Y-57539608D01*
X115906259Y-57356467D01*
X115854699Y-57259498D01*
X115819342Y-57193001D01*
X115819341Y-57192999D01*
X115816446Y-57187555D01*
X115759420Y-57117634D01*
X115699430Y-57044078D01*
X115699427Y-57044075D01*
X115695535Y-57039303D01*
X115676694Y-57023716D01*
X115552879Y-56921288D01*
X115548132Y-56917361D01*
X115405107Y-56840027D01*
X115354701Y-56790035D01*
X115339324Y-56720724D01*
X115363860Y-56654102D01*
X115408228Y-56616728D01*
X115519734Y-56560402D01*
X115525228Y-56557627D01*
X115554309Y-56534907D01*
X115612479Y-56489459D01*
X115675979Y-56439848D01*
X115697439Y-56414987D01*
X115796958Y-56299692D01*
X115796959Y-56299691D01*
X115800982Y-56295030D01*
X115895476Y-56128691D01*
X115955861Y-55947166D01*
X115970987Y-55827430D01*
X115979396Y-55760872D01*
X115979397Y-55760863D01*
X115979838Y-55757369D01*
X115980220Y-55730000D01*
X115961552Y-55539608D01*
X115906259Y-55356467D01*
X115876934Y-55301315D01*
X115819342Y-55193001D01*
X115819341Y-55192999D01*
X115816446Y-55187555D01*
X115766209Y-55125958D01*
X115699430Y-55044078D01*
X115699427Y-55044075D01*
X115695535Y-55039303D01*
X115689400Y-55034227D01*
X115552879Y-54921288D01*
X115548132Y-54917361D01*
X115486092Y-54883816D01*
X115385276Y-54829304D01*
X115385273Y-54829303D01*
X115379851Y-54826371D01*
X115287294Y-54797720D01*
X115202988Y-54771623D01*
X115202985Y-54771622D01*
X115197101Y-54769801D01*
X115190976Y-54769157D01*
X115190975Y-54769157D01*
X115012971Y-54750448D01*
X115012970Y-54750448D01*
X115006843Y-54749804D01*
X114889867Y-54760449D01*
X114822466Y-54766583D01*
X114822465Y-54766583D01*
X114816325Y-54767142D01*
X114632803Y-54821156D01*
X114627338Y-54824013D01*
X114468728Y-54906932D01*
X114468724Y-54906935D01*
X114463268Y-54909787D01*
X114458468Y-54913647D01*
X114458467Y-54913647D01*
X114455222Y-54916256D01*
X114314176Y-55029660D01*
X114191207Y-55176208D01*
X114188237Y-55181611D01*
X114188236Y-55181612D01*
X114179767Y-55197017D01*
X114099045Y-55343850D01*
X114097184Y-55349717D01*
X114097183Y-55349719D01*
X114081571Y-55398936D01*
X114041200Y-55526201D01*
X114019876Y-55716314D01*
X114020392Y-55722458D01*
X114028987Y-55824808D01*
X114035884Y-55906948D01*
X114088614Y-56090843D01*
X114091433Y-56096328D01*
X114173242Y-56255511D01*
X114173245Y-56255516D01*
X114176060Y-56260993D01*
X114294889Y-56410918D01*
X114299583Y-56414913D01*
X114426660Y-56523064D01*
X114440575Y-56534907D01*
X114445953Y-56537913D01*
X114445955Y-56537914D01*
X114471703Y-56552304D01*
X114558322Y-56600713D01*
X114594700Y-56621044D01*
X114644406Y-56671737D01*
X114658814Y-56741256D01*
X114633351Y-56807529D01*
X114591605Y-56842694D01*
X114463268Y-56909787D01*
X114458468Y-56913647D01*
X114458467Y-56913647D01*
X114325243Y-57020762D01*
X114314176Y-57029660D01*
X114191207Y-57176208D01*
X114188238Y-57181609D01*
X114188231Y-57181619D01*
X114170319Y-57214201D01*
X114119974Y-57264260D01*
X114059905Y-57279500D01*
X110803793Y-57279500D01*
X110735672Y-57259498D01*
X110714698Y-57242595D01*
X110037514Y-56565411D01*
X110003488Y-56503099D01*
X110008553Y-56432284D01*
X110051100Y-56375448D01*
X110117620Y-56350637D01*
X110176346Y-56360548D01*
X110242288Y-56388879D01*
X110253221Y-56392431D01*
X110348331Y-56413952D01*
X110362405Y-56413063D01*
X110366000Y-56403664D01*
X110366000Y-56402691D01*
X110874000Y-56402691D01*
X110877966Y-56416197D01*
X110891966Y-56418201D01*
X110895618Y-56417672D01*
X110906803Y-56414987D01*
X111104707Y-56347807D01*
X111115216Y-56343128D01*
X111297552Y-56241015D01*
X111307045Y-56234490D01*
X111467725Y-56100854D01*
X111475854Y-56092725D01*
X111609490Y-55932045D01*
X111616015Y-55922552D01*
X111718128Y-55740216D01*
X111722807Y-55729707D01*
X111789987Y-55531803D01*
X111792672Y-55520618D01*
X111793206Y-55516931D01*
X111791219Y-55502992D01*
X111777653Y-55499000D01*
X110892115Y-55499000D01*
X110876876Y-55503475D01*
X110875671Y-55504865D01*
X110874000Y-55512548D01*
X110874000Y-56402691D01*
X110366000Y-56402691D01*
X110366000Y-54972885D01*
X110874000Y-54972885D01*
X110878475Y-54988124D01*
X110879865Y-54989329D01*
X110887548Y-54991000D01*
X111777150Y-54991000D01*
X111790681Y-54987027D01*
X111791850Y-54978892D01*
X111746664Y-54818675D01*
X111742542Y-54807936D01*
X111650107Y-54620497D01*
X111644097Y-54610689D01*
X111519047Y-54443227D01*
X111511357Y-54434687D01*
X111357883Y-54292816D01*
X111348758Y-54285815D01*
X111172006Y-54174293D01*
X111161759Y-54169072D01*
X110967647Y-54091629D01*
X110956611Y-54088360D01*
X110891770Y-54075462D01*
X110878894Y-54076614D01*
X110874000Y-54091770D01*
X110874000Y-54972885D01*
X110366000Y-54972885D01*
X110366000Y-54089087D01*
X110362194Y-54076125D01*
X110347278Y-54074189D01*
X110313787Y-54079944D01*
X110302661Y-54082925D01*
X110106592Y-54155258D01*
X110096210Y-54160210D01*
X109916604Y-54267064D01*
X109907292Y-54273829D01*
X109750163Y-54411629D01*
X109742246Y-54419972D01*
X109612862Y-54584095D01*
X109606591Y-54593751D01*
X109509287Y-54778696D01*
X109504884Y-54789326D01*
X109443456Y-54987156D01*
X109404153Y-55046281D01*
X109339123Y-55074772D01*
X109269014Y-55063582D01*
X109216084Y-55016265D01*
X109201854Y-54983994D01*
X109183619Y-54919337D01*
X109158686Y-54830931D01*
X109155539Y-54824548D01*
X109067719Y-54646469D01*
X109065165Y-54641290D01*
X108938651Y-54471867D01*
X108811236Y-54354086D01*
X108787622Y-54332257D01*
X108787620Y-54332255D01*
X108783381Y-54328337D01*
X108715988Y-54285815D01*
X108609434Y-54218584D01*
X108609433Y-54218584D01*
X108604554Y-54215505D01*
X108408160Y-54137152D01*
X108402503Y-54136027D01*
X108402497Y-54136025D01*
X108206442Y-54097028D01*
X108206440Y-54097028D01*
X108200775Y-54095901D01*
X108195000Y-54095825D01*
X108194996Y-54095825D01*
X108088976Y-54094437D01*
X107989346Y-54093133D01*
X107983649Y-54094112D01*
X107983648Y-54094112D01*
X107786650Y-54127962D01*
X107786649Y-54127962D01*
X107780953Y-54128941D01*
X107582575Y-54202127D01*
X107577614Y-54205079D01*
X107577613Y-54205079D01*
X107441908Y-54285815D01*
X107400856Y-54310238D01*
X107241881Y-54449655D01*
X107110976Y-54615708D01*
X107108287Y-54620819D01*
X107108285Y-54620822D01*
X107069053Y-54695391D01*
X107012523Y-54802836D01*
X106949820Y-55004773D01*
X106949141Y-55010510D01*
X106935088Y-55129239D01*
X106907217Y-55194537D01*
X106848469Y-55234401D01*
X106777494Y-55236174D01*
X106716828Y-55199295D01*
X106685730Y-55135471D01*
X106684490Y-55125958D01*
X106681731Y-55095923D01*
X106676081Y-55034440D01*
X106673613Y-55025687D01*
X106643619Y-54919337D01*
X106618686Y-54830931D01*
X106615539Y-54824548D01*
X106527719Y-54646469D01*
X106525165Y-54641290D01*
X106398651Y-54471867D01*
X106271236Y-54354086D01*
X106247622Y-54332257D01*
X106247620Y-54332255D01*
X106243381Y-54328337D01*
X106175988Y-54285815D01*
X106069434Y-54218584D01*
X106069433Y-54218584D01*
X106064554Y-54215505D01*
X105868160Y-54137152D01*
X105862503Y-54136027D01*
X105862497Y-54136025D01*
X105666442Y-54097028D01*
X105666440Y-54097028D01*
X105660775Y-54095901D01*
X105655000Y-54095825D01*
X105654996Y-54095825D01*
X105548976Y-54094437D01*
X105449346Y-54093133D01*
X105443649Y-54094112D01*
X105443648Y-54094112D01*
X105246650Y-54127962D01*
X105246649Y-54127962D01*
X105240953Y-54128941D01*
X105042575Y-54202127D01*
X105037614Y-54205079D01*
X105037613Y-54205079D01*
X104901908Y-54285815D01*
X104860856Y-54310238D01*
X104701881Y-54449655D01*
X104570976Y-54615708D01*
X104568287Y-54620819D01*
X104568285Y-54620822D01*
X104529053Y-54695391D01*
X104472523Y-54802836D01*
X104409820Y-55004773D01*
X104405733Y-55039303D01*
X104401627Y-55073995D01*
X104373756Y-55139292D01*
X104315008Y-55179156D01*
X104244034Y-55180930D01*
X104183367Y-55144051D01*
X104152269Y-55080227D01*
X104150500Y-55059185D01*
X104150500Y-54350354D01*
X104147382Y-54324154D01*
X104130353Y-54285815D01*
X104106663Y-54232482D01*
X104101939Y-54221847D01*
X104093444Y-54213366D01*
X104030945Y-54150977D01*
X104022713Y-54142759D01*
X104012076Y-54138056D01*
X104012074Y-54138055D01*
X103952538Y-54111735D01*
X103920327Y-54097494D01*
X103894646Y-54094500D01*
X102105354Y-54094500D01*
X102101650Y-54094941D01*
X102101647Y-54094941D01*
X102094254Y-54095821D01*
X102079154Y-54097618D01*
X102070514Y-54101456D01*
X102070513Y-54101456D01*
X102004131Y-54130942D01*
X101976847Y-54143061D01*
X101897759Y-54222287D01*
X101852494Y-54324673D01*
X101849500Y-54350354D01*
X101849500Y-56139646D01*
X101852618Y-56165846D01*
X101856456Y-56174486D01*
X101856456Y-56174487D01*
X101876439Y-56219475D01*
X101898061Y-56268153D01*
X101906294Y-56276372D01*
X101906295Y-56276373D01*
X101929655Y-56299692D01*
X101977287Y-56347241D01*
X101987924Y-56351944D01*
X101987926Y-56351945D01*
X102025382Y-56368504D01*
X102079673Y-56392506D01*
X102105354Y-56395500D01*
X102173500Y-56395500D01*
X102241621Y-56415502D01*
X102288114Y-56469158D01*
X102299500Y-56521500D01*
X102299500Y-60826500D01*
X102279498Y-60894621D01*
X102225842Y-60941114D01*
X102173500Y-60952500D01*
X102105354Y-60952500D01*
X102101650Y-60952941D01*
X102101647Y-60952941D01*
X102094254Y-60953821D01*
X102079154Y-60955618D01*
X102070514Y-60959456D01*
X102070513Y-60959456D01*
X102004131Y-60988942D01*
X101976847Y-61001061D01*
X101897759Y-61080287D01*
X101852494Y-61182673D01*
X101849500Y-61208354D01*
X101849500Y-62997646D01*
X101852618Y-63023846D01*
X101856456Y-63032486D01*
X101856456Y-63032487D01*
X101883108Y-63092490D01*
X101898061Y-63126153D01*
X101906294Y-63134372D01*
X101906295Y-63134373D01*
X101930854Y-63158889D01*
X101977287Y-63205241D01*
X101987924Y-63209944D01*
X101987926Y-63209945D01*
X102047462Y-63236265D01*
X102079673Y-63250506D01*
X102105354Y-63253500D01*
X102173500Y-63253500D01*
X102241621Y-63273502D01*
X102288114Y-63327158D01*
X102299500Y-63379500D01*
X102299500Y-65272281D01*
X102299498Y-65272941D01*
X102299031Y-65362105D01*
X102299392Y-65363609D01*
X102299500Y-65365481D01*
X102299500Y-67430500D01*
X102279498Y-67498621D01*
X102225842Y-67545114D01*
X102173500Y-67556500D01*
X102105354Y-67556500D01*
X102101650Y-67556941D01*
X102101647Y-67556941D01*
X102094254Y-67557821D01*
X102079154Y-67559618D01*
X102070514Y-67563456D01*
X102070513Y-67563456D01*
X102004131Y-67592942D01*
X101976847Y-67605061D01*
X101897759Y-67684287D01*
X101893056Y-67694924D01*
X101893055Y-67694926D01*
X101876139Y-67733189D01*
X101852494Y-67786673D01*
X101849500Y-67812354D01*
X101849500Y-69601646D01*
X101852618Y-69627846D01*
X101856456Y-69636486D01*
X101856456Y-69636487D01*
X101878176Y-69685386D01*
X101898061Y-69730153D01*
X101906294Y-69738372D01*
X101906295Y-69738373D01*
X101932363Y-69764395D01*
X101977287Y-69809241D01*
X101987924Y-69813944D01*
X101987926Y-69813945D01*
X102039212Y-69836618D01*
X102079673Y-69854506D01*
X102105354Y-69857500D01*
X103894646Y-69857500D01*
X103898350Y-69857059D01*
X103898353Y-69857059D01*
X103905746Y-69856179D01*
X103920846Y-69854382D01*
X103966445Y-69834128D01*
X104012518Y-69813663D01*
X104023153Y-69808939D01*
X104102241Y-69729713D01*
X104147506Y-69627327D01*
X104150500Y-69601646D01*
X104150500Y-68917673D01*
X104170502Y-68849552D01*
X104224158Y-68803059D01*
X104294432Y-68792955D01*
X104359012Y-68822449D01*
X104397396Y-68882175D01*
X104398658Y-68887784D01*
X104398796Y-68887749D01*
X104450845Y-69092690D01*
X104453262Y-69097933D01*
X104536951Y-69279469D01*
X104539369Y-69284714D01*
X104661405Y-69457391D01*
X104665539Y-69461418D01*
X104805727Y-69597983D01*
X104812865Y-69604937D01*
X104817661Y-69608142D01*
X104817664Y-69608144D01*
X104910680Y-69670295D01*
X104988677Y-69722411D01*
X104993985Y-69724692D01*
X104993986Y-69724692D01*
X105177650Y-69803600D01*
X105177653Y-69803601D01*
X105182953Y-69805878D01*
X105188582Y-69807152D01*
X105188583Y-69807152D01*
X105383550Y-69851269D01*
X105383553Y-69851269D01*
X105389186Y-69852544D01*
X105394957Y-69852771D01*
X105394959Y-69852771D01*
X105456989Y-69855208D01*
X105600470Y-69860846D01*
X105606179Y-69860018D01*
X105606183Y-69860018D01*
X105804015Y-69831333D01*
X105804019Y-69831332D01*
X105809730Y-69830504D01*
X105896579Y-69801023D01*
X106004483Y-69764395D01*
X106004488Y-69764393D01*
X106009955Y-69762537D01*
X106026985Y-69753000D01*
X106128508Y-69696144D01*
X106197716Y-69680310D01*
X106264498Y-69704407D01*
X106279169Y-69716983D01*
X114003080Y-77440894D01*
X114037106Y-77503206D01*
X114039200Y-77544033D01*
X114019876Y-77716314D01*
X114020392Y-77722458D01*
X114034138Y-77886152D01*
X114035884Y-77906948D01*
X114042479Y-77929948D01*
X114083858Y-78074256D01*
X114088614Y-78090843D01*
X114091433Y-78096328D01*
X114173242Y-78255511D01*
X114173245Y-78255516D01*
X114176060Y-78260993D01*
X114294889Y-78410918D01*
X114299583Y-78414913D01*
X114430112Y-78526002D01*
X114440575Y-78534907D01*
X114445953Y-78537913D01*
X114445955Y-78537914D01*
X114594700Y-78621044D01*
X114644406Y-78671737D01*
X114658814Y-78741256D01*
X114633351Y-78807529D01*
X114591605Y-78842694D01*
X114513988Y-78883271D01*
X114444352Y-78897105D01*
X114378292Y-78871095D01*
X114366518Y-78860704D01*
X111421534Y-75915720D01*
X111414068Y-75906376D01*
X111413678Y-75906708D01*
X111407860Y-75899872D01*
X111403070Y-75892280D01*
X111363399Y-75857244D01*
X111357712Y-75851898D01*
X111346494Y-75840680D01*
X111342905Y-75837990D01*
X111338316Y-75834550D01*
X111330477Y-75828168D01*
X111302339Y-75803318D01*
X111295612Y-75797377D01*
X111287489Y-75793563D01*
X111284336Y-75791492D01*
X111271324Y-75783673D01*
X111268005Y-75781856D01*
X111260824Y-75776474D01*
X111250811Y-75772720D01*
X111217264Y-75760144D01*
X111207947Y-75756217D01*
X111173966Y-75740263D01*
X111173963Y-75740262D01*
X111165837Y-75736447D01*
X111156963Y-75735065D01*
X111153350Y-75733961D01*
X111138693Y-75730115D01*
X111134990Y-75729301D01*
X111126580Y-75726148D01*
X111080157Y-75722698D01*
X111070144Y-75721548D01*
X111056991Y-75719500D01*
X111041796Y-75719500D01*
X111032459Y-75719154D01*
X111017036Y-75718008D01*
X110983608Y-75715524D01*
X110974832Y-75717397D01*
X110965875Y-75718008D01*
X110965875Y-75718002D01*
X110951682Y-75719500D01*
X109194415Y-75719500D01*
X109126294Y-75699498D01*
X109081409Y-75649229D01*
X109067719Y-75621469D01*
X109065165Y-75616290D01*
X108938651Y-75446867D01*
X108822980Y-75339942D01*
X108787622Y-75307257D01*
X108787620Y-75307255D01*
X108783381Y-75303337D01*
X108760734Y-75289048D01*
X108609434Y-75193584D01*
X108609433Y-75193584D01*
X108604554Y-75190505D01*
X108408160Y-75112152D01*
X108402503Y-75111027D01*
X108402497Y-75111025D01*
X108206442Y-75072028D01*
X108206440Y-75072028D01*
X108200775Y-75070901D01*
X108195000Y-75070825D01*
X108194996Y-75070825D01*
X108088976Y-75069437D01*
X107989346Y-75068133D01*
X107983649Y-75069112D01*
X107983648Y-75069112D01*
X107786650Y-75102962D01*
X107786649Y-75102962D01*
X107780953Y-75103941D01*
X107582575Y-75177127D01*
X107577614Y-75180079D01*
X107577613Y-75180079D01*
X107423701Y-75271647D01*
X107400856Y-75285238D01*
X107241881Y-75424655D01*
X107110976Y-75590708D01*
X107108287Y-75595819D01*
X107108285Y-75595822D01*
X107078609Y-75652227D01*
X107012523Y-75777836D01*
X106949820Y-75979773D01*
X106949141Y-75985510D01*
X106935088Y-76104239D01*
X106907217Y-76169537D01*
X106848469Y-76209401D01*
X106777494Y-76211174D01*
X106716828Y-76174295D01*
X106685730Y-76110471D01*
X106684490Y-76100958D01*
X106676610Y-76015197D01*
X106676081Y-76009440D01*
X106660169Y-75953018D01*
X106649649Y-75915720D01*
X106618686Y-75805931D01*
X106614962Y-75798378D01*
X106527719Y-75621469D01*
X106525165Y-75616290D01*
X106398651Y-75446867D01*
X106282980Y-75339942D01*
X106247622Y-75307257D01*
X106247620Y-75307255D01*
X106243381Y-75303337D01*
X106220734Y-75289048D01*
X106069434Y-75193584D01*
X106069433Y-75193584D01*
X106064554Y-75190505D01*
X105868160Y-75112152D01*
X105862503Y-75111027D01*
X105862497Y-75111025D01*
X105666442Y-75072028D01*
X105666440Y-75072028D01*
X105660775Y-75070901D01*
X105655000Y-75070825D01*
X105654996Y-75070825D01*
X105548976Y-75069437D01*
X105449346Y-75068133D01*
X105443649Y-75069112D01*
X105443648Y-75069112D01*
X105246650Y-75102962D01*
X105246649Y-75102962D01*
X105240953Y-75103941D01*
X105042575Y-75177127D01*
X105037614Y-75180079D01*
X105037613Y-75180079D01*
X104883701Y-75271647D01*
X104860856Y-75285238D01*
X104701881Y-75424655D01*
X104570976Y-75590708D01*
X104568287Y-75595819D01*
X104568285Y-75595822D01*
X104538609Y-75652227D01*
X104472523Y-75777836D01*
X104432507Y-75906708D01*
X104415081Y-75962830D01*
X104375778Y-76021955D01*
X104310748Y-76050446D01*
X104240639Y-76039256D01*
X104187709Y-75991939D01*
X104173479Y-75959668D01*
X104126664Y-75793675D01*
X104122542Y-75782936D01*
X104030107Y-75595497D01*
X104024097Y-75585689D01*
X103899047Y-75418227D01*
X103891357Y-75409687D01*
X103737883Y-75267816D01*
X103728758Y-75260815D01*
X103552006Y-75149293D01*
X103541759Y-75144072D01*
X103347647Y-75066629D01*
X103336611Y-75063360D01*
X103271770Y-75050462D01*
X103258894Y-75051614D01*
X103254000Y-75066770D01*
X103254000Y-76348000D01*
X103233998Y-76416121D01*
X103180342Y-76462614D01*
X103128000Y-76474000D01*
X101844439Y-76474000D01*
X101830908Y-76477973D01*
X101829616Y-76486962D01*
X101862563Y-76616689D01*
X101866401Y-76627527D01*
X101953898Y-76817324D01*
X101959649Y-76827285D01*
X102080272Y-76997962D01*
X102087740Y-77006705D01*
X102237446Y-77152543D01*
X102246380Y-77159777D01*
X102420152Y-77275889D01*
X102430265Y-77281380D01*
X102622288Y-77363879D01*
X102633226Y-77367432D01*
X102636246Y-77368116D01*
X102637530Y-77368831D01*
X102638718Y-77369217D01*
X102638642Y-77369450D01*
X102698272Y-77402660D01*
X102731775Y-77465255D01*
X102726119Y-77536026D01*
X102683098Y-77592504D01*
X102652045Y-77609220D01*
X102486592Y-77670258D01*
X102476210Y-77675210D01*
X102296604Y-77782064D01*
X102287292Y-77788829D01*
X102130163Y-77926629D01*
X102122246Y-77934972D01*
X101992862Y-78099095D01*
X101986591Y-78108751D01*
X101889287Y-78293696D01*
X101884881Y-78304333D01*
X101827634Y-78488698D01*
X101827415Y-78502799D01*
X101834147Y-78506000D01*
X103128000Y-78506000D01*
X103196121Y-78526002D01*
X103242614Y-78579658D01*
X103254000Y-78632000D01*
X103254000Y-78888000D01*
X103233998Y-78956121D01*
X103180342Y-79002614D01*
X103128000Y-79014000D01*
X101844439Y-79014000D01*
X101830908Y-79017973D01*
X101829616Y-79026962D01*
X101862563Y-79156689D01*
X101866401Y-79167527D01*
X101953898Y-79357324D01*
X101959649Y-79367285D01*
X102080272Y-79537962D01*
X102087740Y-79546705D01*
X102237446Y-79692543D01*
X102246380Y-79699777D01*
X102420152Y-79815889D01*
X102430265Y-79821380D01*
X102622288Y-79903879D01*
X102633226Y-79907432D01*
X102636246Y-79908116D01*
X102637530Y-79908831D01*
X102638718Y-79909217D01*
X102638642Y-79909450D01*
X102698272Y-79942660D01*
X102731775Y-80005255D01*
X102726119Y-80076026D01*
X102683098Y-80132504D01*
X102652045Y-80149220D01*
X102486592Y-80210258D01*
X102476210Y-80215210D01*
X102296604Y-80322064D01*
X102287292Y-80328829D01*
X102130163Y-80466629D01*
X102122246Y-80474972D01*
X101992862Y-80639095D01*
X101986591Y-80648751D01*
X101889287Y-80833696D01*
X101884881Y-80844333D01*
X101827634Y-81028698D01*
X101827415Y-81042799D01*
X101834147Y-81046000D01*
X103128000Y-81046000D01*
X103196121Y-81066002D01*
X103242614Y-81119658D01*
X103254000Y-81172000D01*
X103254000Y-81428000D01*
X103233998Y-81496121D01*
X103180342Y-81542614D01*
X103128000Y-81554000D01*
X101844439Y-81554000D01*
X101830908Y-81557973D01*
X101829616Y-81566962D01*
X101862563Y-81696689D01*
X101866401Y-81707527D01*
X101953898Y-81897324D01*
X101959649Y-81907285D01*
X102080272Y-82077962D01*
X102087740Y-82086705D01*
X102237446Y-82232543D01*
X102246380Y-82239777D01*
X102420152Y-82355889D01*
X102430265Y-82361380D01*
X102622288Y-82443879D01*
X102633226Y-82447432D01*
X102636246Y-82448116D01*
X102637530Y-82448831D01*
X102638718Y-82449217D01*
X102638642Y-82449450D01*
X102698272Y-82482660D01*
X102731775Y-82545255D01*
X102726119Y-82616026D01*
X102683098Y-82672504D01*
X102652045Y-82689220D01*
X102486592Y-82750258D01*
X102476210Y-82755210D01*
X102296604Y-82862064D01*
X102287292Y-82868829D01*
X102130163Y-83006629D01*
X102122246Y-83014972D01*
X101992862Y-83179095D01*
X101986591Y-83188751D01*
X101889287Y-83373696D01*
X101884881Y-83384333D01*
X101827634Y-83568698D01*
X101827415Y-83582799D01*
X101834147Y-83586000D01*
X103128000Y-83586000D01*
X103196121Y-83606002D01*
X103242614Y-83659658D01*
X103254000Y-83712000D01*
X103254000Y-83968000D01*
X103233998Y-84036121D01*
X103180342Y-84082614D01*
X103128000Y-84094000D01*
X101844439Y-84094000D01*
X101830908Y-84097973D01*
X101829616Y-84106962D01*
X101862563Y-84236689D01*
X101866401Y-84247527D01*
X101953898Y-84437324D01*
X101959649Y-84447285D01*
X102080272Y-84617962D01*
X102087740Y-84626705D01*
X102237446Y-84772543D01*
X102246380Y-84779777D01*
X102420152Y-84895889D01*
X102430265Y-84901380D01*
X102622288Y-84983879D01*
X102633226Y-84987432D01*
X102636246Y-84988116D01*
X102637530Y-84988831D01*
X102638718Y-84989217D01*
X102638642Y-84989450D01*
X102698272Y-85022660D01*
X102731775Y-85085255D01*
X102726119Y-85156026D01*
X102683098Y-85212504D01*
X102652045Y-85229220D01*
X102486592Y-85290258D01*
X102476210Y-85295210D01*
X102296604Y-85402064D01*
X102287292Y-85408829D01*
X102130163Y-85546629D01*
X102122246Y-85554972D01*
X101992862Y-85719095D01*
X101986591Y-85728751D01*
X101889287Y-85913696D01*
X101884881Y-85924333D01*
X101827634Y-86108698D01*
X101827415Y-86122799D01*
X101834147Y-86126000D01*
X103128000Y-86126000D01*
X103196121Y-86146002D01*
X103242614Y-86199658D01*
X103254000Y-86252000D01*
X103254000Y-86508000D01*
X103233998Y-86576121D01*
X103180342Y-86622614D01*
X103128000Y-86634000D01*
X101844439Y-86634000D01*
X101830908Y-86637973D01*
X101829616Y-86646962D01*
X101862563Y-86776689D01*
X101866401Y-86787527D01*
X101953898Y-86977324D01*
X101959649Y-86987285D01*
X102080272Y-87157962D01*
X102087740Y-87166705D01*
X102237446Y-87312543D01*
X102246380Y-87319777D01*
X102420152Y-87435889D01*
X102430265Y-87441380D01*
X102622288Y-87523879D01*
X102633226Y-87527432D01*
X102636246Y-87528116D01*
X102637530Y-87528831D01*
X102638718Y-87529217D01*
X102638642Y-87529450D01*
X102698272Y-87562660D01*
X102731775Y-87625255D01*
X102726119Y-87696026D01*
X102683098Y-87752504D01*
X102652045Y-87769220D01*
X102486592Y-87830258D01*
X102476210Y-87835210D01*
X102296604Y-87942064D01*
X102287292Y-87948829D01*
X102130163Y-88086629D01*
X102122246Y-88094972D01*
X101992862Y-88259095D01*
X101986591Y-88268751D01*
X101889287Y-88453696D01*
X101884881Y-88464333D01*
X101827634Y-88648698D01*
X101827415Y-88662799D01*
X101834147Y-88666000D01*
X103128000Y-88666000D01*
X103196121Y-88686002D01*
X103242614Y-88739658D01*
X103254000Y-88792000D01*
X103254000Y-89048000D01*
X103233998Y-89116121D01*
X103180342Y-89162614D01*
X103128000Y-89174000D01*
X101844439Y-89174000D01*
X101830908Y-89177973D01*
X101829616Y-89186962D01*
X101862563Y-89316689D01*
X101866401Y-89327527D01*
X101953898Y-89517324D01*
X101959649Y-89527285D01*
X102080272Y-89697962D01*
X102087740Y-89706705D01*
X102237446Y-89852543D01*
X102246380Y-89859777D01*
X102420152Y-89975889D01*
X102430265Y-89981380D01*
X102622288Y-90063879D01*
X102633226Y-90067432D01*
X102636246Y-90068116D01*
X102637530Y-90068831D01*
X102638718Y-90069217D01*
X102638642Y-90069450D01*
X102698272Y-90102660D01*
X102731775Y-90165255D01*
X102726119Y-90236026D01*
X102683098Y-90292504D01*
X102652045Y-90309220D01*
X102486592Y-90370258D01*
X102476210Y-90375210D01*
X102296604Y-90482064D01*
X102287292Y-90488829D01*
X102130163Y-90626629D01*
X102122246Y-90634972D01*
X101992862Y-90799095D01*
X101986591Y-90808751D01*
X101889287Y-90993696D01*
X101884881Y-91004333D01*
X101827634Y-91188698D01*
X101827415Y-91202799D01*
X101834147Y-91206000D01*
X103128000Y-91206000D01*
X103196121Y-91226002D01*
X103242614Y-91279658D01*
X103254000Y-91332000D01*
X103254000Y-91588000D01*
X103233998Y-91656121D01*
X103180342Y-91702614D01*
X103128000Y-91714000D01*
X101844439Y-91714000D01*
X101830908Y-91717973D01*
X101829616Y-91726962D01*
X101862563Y-91856689D01*
X101866401Y-91867527D01*
X101953898Y-92057324D01*
X101959649Y-92067285D01*
X102080272Y-92237962D01*
X102087740Y-92246705D01*
X102237446Y-92392543D01*
X102246380Y-92399777D01*
X102420152Y-92515889D01*
X102430261Y-92521378D01*
X102516044Y-92558233D01*
X102570737Y-92603501D01*
X102592274Y-92671152D01*
X102573817Y-92739708D01*
X102521226Y-92787402D01*
X102466306Y-92800001D01*
X102121432Y-92800001D01*
X102112266Y-92800672D01*
X102057722Y-92808700D01*
X102039241Y-92814443D01*
X101952787Y-92856889D01*
X101936082Y-92868849D01*
X101868477Y-92936572D01*
X101856545Y-92953300D01*
X101814245Y-93039838D01*
X101808537Y-93058306D01*
X101800660Y-93112297D01*
X101800000Y-93121396D01*
X101800000Y-93727885D01*
X100300000Y-93727885D01*
X100300000Y-75962799D01*
X101827415Y-75962799D01*
X101834147Y-75966000D01*
X102727885Y-75966000D01*
X102743124Y-75961525D01*
X102744329Y-75960135D01*
X102746000Y-75952452D01*
X102746000Y-75064087D01*
X102742194Y-75051125D01*
X102727278Y-75049189D01*
X102693787Y-75054944D01*
X102682661Y-75057925D01*
X102486592Y-75130258D01*
X102476210Y-75135210D01*
X102296604Y-75242064D01*
X102287292Y-75248829D01*
X102130163Y-75386629D01*
X102122246Y-75394972D01*
X101992862Y-75559095D01*
X101986591Y-75568751D01*
X101889287Y-75753696D01*
X101884881Y-75764333D01*
X101827634Y-75948698D01*
X101827415Y-75962799D01*
X100300000Y-75962799D01*
X100300000Y-50426000D01*
X100320002Y-50357879D01*
X100373658Y-50311386D01*
X100426000Y-50300000D01*
X134574000Y-50300000D01*
X134642121Y-50320002D01*
G37*
%TD.AperFunction*%
%TA.AperFunction,Conductor*%
G36*
X128586616Y-61861502D02*
G01*
X128607590Y-61878404D01*
X129246595Y-62517408D01*
X129280620Y-62579721D01*
X129283500Y-62606504D01*
X129283500Y-62641305D01*
X129263498Y-62709426D01*
X129221923Y-62749590D01*
X129124537Y-62807529D01*
X129104856Y-62819238D01*
X128945881Y-62958655D01*
X128814976Y-63124708D01*
X128812287Y-63129819D01*
X128812285Y-63129822D01*
X128769116Y-63211874D01*
X128716523Y-63311836D01*
X128653820Y-63513773D01*
X128653141Y-63519510D01*
X128639088Y-63638239D01*
X128611217Y-63703537D01*
X128552469Y-63743401D01*
X128481494Y-63745174D01*
X128420828Y-63708295D01*
X128389730Y-63644471D01*
X128388490Y-63634958D01*
X128384232Y-63588609D01*
X128380081Y-63543440D01*
X128367077Y-63497329D01*
X128344255Y-63416409D01*
X128322686Y-63339931D01*
X128311553Y-63317354D01*
X128231719Y-63155469D01*
X128229165Y-63150290D01*
X128117638Y-63000937D01*
X128106104Y-62985491D01*
X128106103Y-62985490D01*
X128102651Y-62980867D01*
X127980183Y-62867659D01*
X127951622Y-62841257D01*
X127951620Y-62841255D01*
X127947381Y-62837337D01*
X127914014Y-62816284D01*
X127773434Y-62727584D01*
X127773433Y-62727584D01*
X127768554Y-62724505D01*
X127572160Y-62646152D01*
X127566503Y-62645027D01*
X127566497Y-62645025D01*
X127370442Y-62606028D01*
X127370440Y-62606028D01*
X127364775Y-62604901D01*
X127359000Y-62604825D01*
X127358996Y-62604825D01*
X127252976Y-62603437D01*
X127153346Y-62602133D01*
X127147649Y-62603112D01*
X127147648Y-62603112D01*
X126950650Y-62636962D01*
X126950649Y-62636962D01*
X126944953Y-62637941D01*
X126746575Y-62711127D01*
X126741614Y-62714079D01*
X126741613Y-62714079D01*
X126605908Y-62794815D01*
X126564856Y-62819238D01*
X126405881Y-62958655D01*
X126274976Y-63124708D01*
X126272287Y-63129819D01*
X126272285Y-63129822D01*
X126229116Y-63211874D01*
X126176523Y-63311836D01*
X126155513Y-63379500D01*
X126119081Y-63496830D01*
X126079778Y-63555955D01*
X126014748Y-63584446D01*
X125944639Y-63573256D01*
X125891709Y-63525939D01*
X125877479Y-63493668D01*
X125830664Y-63327675D01*
X125826542Y-63316936D01*
X125734107Y-63129497D01*
X125728097Y-63119689D01*
X125603047Y-62952227D01*
X125595357Y-62943687D01*
X125441883Y-62801816D01*
X125432758Y-62794815D01*
X125256006Y-62683293D01*
X125245759Y-62678072D01*
X125051647Y-62600629D01*
X125040611Y-62597360D01*
X124975770Y-62584462D01*
X124962894Y-62585614D01*
X124958000Y-62600770D01*
X124958000Y-64911691D01*
X124961966Y-64925197D01*
X124975966Y-64927201D01*
X124979618Y-64926672D01*
X124990803Y-64923987D01*
X125047410Y-64904771D01*
X125118345Y-64901814D01*
X125179618Y-64937678D01*
X125211775Y-65000974D01*
X125204606Y-65071608D01*
X125177007Y-65113179D01*
X123270595Y-67019591D01*
X123208283Y-67053617D01*
X123137468Y-67048552D01*
X123080632Y-67006005D01*
X123055821Y-66939485D01*
X123055500Y-66930496D01*
X123055500Y-64020962D01*
X123533616Y-64020962D01*
X123566563Y-64150689D01*
X123570401Y-64161527D01*
X123657898Y-64351324D01*
X123663649Y-64361285D01*
X123784272Y-64531962D01*
X123791740Y-64540705D01*
X123941446Y-64686543D01*
X123950380Y-64693777D01*
X124124152Y-64809889D01*
X124134265Y-64815380D01*
X124326288Y-64897879D01*
X124337221Y-64901431D01*
X124432331Y-64922952D01*
X124446405Y-64922063D01*
X124450000Y-64912664D01*
X124450000Y-64026115D01*
X124445525Y-64010876D01*
X124444135Y-64009671D01*
X124436452Y-64008000D01*
X123548439Y-64008000D01*
X123534908Y-64011973D01*
X123533616Y-64020962D01*
X123055500Y-64020962D01*
X123055500Y-63505504D01*
X123075502Y-63437383D01*
X123092405Y-63416409D01*
X123419113Y-63089701D01*
X123481425Y-63055675D01*
X123552240Y-63060740D01*
X123609076Y-63103287D01*
X123633887Y-63169807D01*
X123619716Y-63237463D01*
X123593287Y-63287696D01*
X123588881Y-63298333D01*
X123531634Y-63482698D01*
X123531415Y-63496799D01*
X123538147Y-63500000D01*
X124431885Y-63500000D01*
X124447124Y-63495525D01*
X124448329Y-63494135D01*
X124450000Y-63486452D01*
X124450000Y-62598087D01*
X124446194Y-62585125D01*
X124431278Y-62583189D01*
X124397787Y-62588944D01*
X124386661Y-62591925D01*
X124185173Y-62666257D01*
X124184755Y-62665124D01*
X124120725Y-62675418D01*
X124055663Y-62647001D01*
X124016293Y-62587921D01*
X124015114Y-62516934D01*
X124047488Y-62461325D01*
X124630408Y-61878405D01*
X124692720Y-61844379D01*
X124719503Y-61841500D01*
X128518495Y-61841500D01*
X128586616Y-61861502D01*
G37*
%TD.AperFunction*%
%TD*%
M02*
