%TF.GenerationSoftware,KiCad,Pcbnew,(6.0.2)*%
%TF.CreationDate,2022-10-19T14:49:45+05:30*%
%TF.ProjectId,header1,68656164-6572-4312-9e6b-696361645f70,rev?*%
%TF.SameCoordinates,Original*%
%TF.FileFunction,Soldermask,Top*%
%TF.FilePolarity,Negative*%
%FSLAX46Y46*%
G04 Gerber Fmt 4.6, Leading zero omitted, Abs format (unit mm)*
G04 Created by KiCad (PCBNEW (6.0.2)) date 2022-10-19 14:49:45*
%MOMM*%
%LPD*%
G01*
G04 APERTURE LIST*
G04 Aperture macros list*
%AMRoundRect*
0 Rectangle with rounded corners*
0 $1 Rounding radius*
0 $2 $3 $4 $5 $6 $7 $8 $9 X,Y pos of 4 corners*
0 Add a 4 corners polygon primitive as box body*
4,1,4,$2,$3,$4,$5,$6,$7,$8,$9,$2,$3,0*
0 Add four circle primitives for the rounded corners*
1,1,$1+$1,$2,$3*
1,1,$1+$1,$4,$5*
1,1,$1+$1,$6,$7*
1,1,$1+$1,$8,$9*
0 Add four rect primitives between the rounded corners*
20,1,$1+$1,$2,$3,$4,$5,0*
20,1,$1+$1,$4,$5,$6,$7,0*
20,1,$1+$1,$6,$7,$8,$9,0*
20,1,$1+$1,$8,$9,$2,$3,0*%
G04 Aperture macros list end*
%ADD10R,1.700000X1.700000*%
%ADD11O,1.700000X1.700000*%
%ADD12RoundRect,0.250000X-0.600000X-0.725000X0.600000X-0.725000X0.600000X0.725000X-0.600000X0.725000X0*%
%ADD13O,1.700000X1.950000*%
%ADD14R,1.350000X1.350000*%
%ADD15O,1.350000X1.350000*%
G04 APERTURE END LIST*
D10*
%TO.C,J13*%
X132324000Y-94742000D03*
D11*
X129784000Y-94742000D03*
X127244000Y-94742000D03*
X124704000Y-94742000D03*
%TD*%
D10*
%TO.C,J7*%
X103000000Y-68707000D03*
D11*
X105540000Y-68707000D03*
X108080000Y-68707000D03*
X110620000Y-68707000D03*
%TD*%
D10*
%TO.C,J11*%
X129667000Y-71374000D03*
D11*
X129667000Y-73914000D03*
X129667000Y-76454000D03*
X129667000Y-78994000D03*
X129667000Y-81534000D03*
X129667000Y-84074000D03*
X129667000Y-86614000D03*
X129667000Y-89154000D03*
%TD*%
D10*
%TO.C,J12*%
X132324000Y-63754000D03*
D11*
X129784000Y-63754000D03*
X127244000Y-63754000D03*
X124704000Y-63754000D03*
%TD*%
D10*
%TO.C,J3*%
X103000000Y-55245000D03*
D11*
X105540000Y-55245000D03*
X108080000Y-55245000D03*
X110620000Y-55245000D03*
%TD*%
D12*
%TO.C,J10*%
X125897000Y-55961000D03*
D13*
X128397000Y-55961000D03*
X130897000Y-55961000D03*
%TD*%
D10*
%TO.C,J2*%
X108080000Y-94000000D03*
D11*
X108080000Y-91460000D03*
X108080000Y-88920000D03*
X108080000Y-86380000D03*
X108080000Y-83840000D03*
X108080000Y-81300000D03*
X108080000Y-78760000D03*
X108080000Y-76220000D03*
%TD*%
D10*
%TO.C,J6*%
X103000000Y-94000000D03*
D11*
X103000000Y-91460000D03*
X103000000Y-88920000D03*
X103000000Y-86380000D03*
X103000000Y-83840000D03*
X103000000Y-81300000D03*
X103000000Y-78760000D03*
X103000000Y-76220000D03*
%TD*%
D10*
%TO.C,J14*%
X127127000Y-71374000D03*
D11*
X127127000Y-73914000D03*
X127127000Y-76454000D03*
X127127000Y-78994000D03*
X127127000Y-81534000D03*
X127127000Y-84074000D03*
X127127000Y-86614000D03*
X127127000Y-89154000D03*
%TD*%
D10*
%TO.C,J4*%
X103000000Y-62103000D03*
D11*
X105540000Y-62103000D03*
X108080000Y-62103000D03*
X110620000Y-62103000D03*
%TD*%
D10*
%TO.C,J5*%
X105540000Y-94000000D03*
D11*
X105540000Y-91460000D03*
X105540000Y-88920000D03*
X105540000Y-86380000D03*
X105540000Y-83840000D03*
X105540000Y-81300000D03*
X105540000Y-78760000D03*
X105540000Y-76220000D03*
%TD*%
D10*
%TO.C,J9*%
X132207000Y-71374000D03*
D11*
X132207000Y-73914000D03*
X132207000Y-76454000D03*
X132207000Y-78994000D03*
X132207000Y-81534000D03*
X132207000Y-84074000D03*
X132207000Y-86614000D03*
X132207000Y-89154000D03*
%TD*%
D14*
%TO.C,J8*%
X120000000Y-55753000D03*
D15*
X120000000Y-57753000D03*
X120000000Y-59753000D03*
X120000000Y-61753000D03*
X120000000Y-63753000D03*
X120000000Y-65753000D03*
X120000000Y-67753000D03*
X120000000Y-69753000D03*
X120000000Y-71753000D03*
X120000000Y-73753000D03*
X120000000Y-75753000D03*
X120000000Y-77753000D03*
X120000000Y-79753000D03*
X120000000Y-81753000D03*
X120000000Y-83753000D03*
X120000000Y-85753000D03*
X120000000Y-87753000D03*
X120000000Y-89753000D03*
X120000000Y-91753000D03*
X120000000Y-93753000D03*
%TD*%
D14*
%TO.C,J1*%
X115000000Y-93730000D03*
D15*
X115000000Y-91730000D03*
X115000000Y-89730000D03*
X115000000Y-87730000D03*
X115000000Y-85730000D03*
X115000000Y-83730000D03*
X115000000Y-81730000D03*
X115000000Y-79730000D03*
X115000000Y-77730000D03*
X115000000Y-75730000D03*
X115000000Y-73730000D03*
X115000000Y-71730000D03*
X115000000Y-69730000D03*
X115000000Y-67730000D03*
X115000000Y-65730000D03*
X115000000Y-63730000D03*
X115000000Y-61730000D03*
X115000000Y-59730000D03*
X115000000Y-57730000D03*
X115000000Y-55730000D03*
%TD*%
M02*
