M48
; DRILL file {KiCad (6.0.2)} date Wed Oct 19 14:49:56 2022
; FORMAT={-:-/ absolute / inch / decimal}
; #@! TF.CreationDate,2022-10-19T14:49:56+05:30
; #@! TF.GenerationSoftware,Kicad,Pcbnew,(6.0.2)
; #@! TF.FileFunction,Plated,1,2,PTH
FMAT,2
INCH
; #@! TA.AperFunction,Plated,PTH,ViaDrill
T1C0.0157
; #@! TA.AperFunction,Plated,PTH,ComponentDrill
T2C0.0315
; #@! TA.AperFunction,Plated,PTH,ComponentDrill
T3C0.0374
; #@! TA.AperFunction,Plated,PTH,ComponentDrill
T4C0.0394
%
G90
G05
T1
X4.625Y-1.99
X4.625Y-2.03
X4.625Y-2.895
X4.625Y-2.93
X4.625Y-3.87
X4.625Y-3.915
T2
X4.5276Y-2.1941
X4.5276Y-2.2728
X4.5276Y-2.3516
X4.5276Y-2.4303
X4.5276Y-2.5091
X4.5276Y-2.5878
X4.5276Y-2.6665
X4.5276Y-2.7453
X4.5276Y-2.824
X4.5276Y-2.9028
X4.5276Y-2.9815
X4.5276Y-3.0602
X4.5276Y-3.139
X4.5276Y-3.2177
X4.5276Y-3.2965
X4.5276Y-3.3752
X4.5276Y-3.4539
X4.5276Y-3.5327
X4.5276Y-3.6114
X4.5276Y-3.6902
X4.7244Y-2.195
X4.7244Y-2.2737
X4.7244Y-2.3525
X4.7244Y-2.4312
X4.7244Y-2.51
X4.7244Y-2.5887
X4.7244Y-2.6674
X4.7244Y-2.7462
X4.7244Y-2.8249
X4.7244Y-2.9037
X4.7244Y-2.9824
X4.7244Y-3.0611
X4.7244Y-3.1399
X4.7244Y-3.2186
X4.7244Y-3.2974
X4.7244Y-3.3761
X4.7244Y-3.4548
X4.7244Y-3.5336
X4.7244Y-3.6123
X4.7244Y-3.6911
T3
X4.9566Y-2.2032
X5.055Y-2.2032
X5.1534Y-2.2032
T4
X4.0551Y-2.175
X4.0551Y-2.445
X4.0551Y-2.705
X4.0551Y-3.0008
X4.0551Y-3.1008
X4.0551Y-3.2008
X4.0551Y-3.3008
X4.0551Y-3.4008
X4.0551Y-3.5008
X4.0551Y-3.6008
X4.0551Y-3.7008
X4.1551Y-2.175
X4.1551Y-2.445
X4.1551Y-2.705
X4.1551Y-3.0008
X4.1551Y-3.1008
X4.1551Y-3.2008
X4.1551Y-3.3008
X4.1551Y-3.4008
X4.1551Y-3.5008
X4.1551Y-3.6008
X4.1551Y-3.7008
X4.2551Y-2.175
X4.2551Y-2.445
X4.2551Y-2.705
X4.2551Y-3.0008
X4.2551Y-3.1008
X4.2551Y-3.2008
X4.2551Y-3.3008
X4.2551Y-3.4008
X4.2551Y-3.5008
X4.2551Y-3.6008
X4.2551Y-3.7008
X4.3551Y-2.175
X4.3551Y-2.445
X4.3551Y-2.705
X4.9096Y-2.51
X4.9096Y-3.73
X5.005Y-2.81
X5.005Y-2.91
X5.005Y-3.01
X5.005Y-3.11
X5.005Y-3.21
X5.005Y-3.31
X5.005Y-3.41
X5.005Y-3.51
X5.0096Y-2.51
X5.0096Y-3.73
X5.105Y-2.81
X5.105Y-2.91
X5.105Y-3.01
X5.105Y-3.11
X5.105Y-3.21
X5.105Y-3.31
X5.105Y-3.41
X5.105Y-3.51
X5.1096Y-2.51
X5.1096Y-3.73
X5.205Y-2.81
X5.205Y-2.91
X5.205Y-3.01
X5.205Y-3.11
X5.205Y-3.21
X5.205Y-3.31
X5.205Y-3.41
X5.205Y-3.51
X5.2096Y-2.51
X5.2096Y-3.73
T0
M30
