%TF.GenerationSoftware,KiCad,Pcbnew,(6.0.2)*%
%TF.CreationDate,2022-10-19T15:06:20+05:30*%
%TF.ProjectId,flight_controller,666c6967-6874-45f6-936f-6e74726f6c6c,rev?*%
%TF.SameCoordinates,Original*%
%TF.FileFunction,Legend,Top*%
%TF.FilePolarity,Positive*%
%FSLAX46Y46*%
G04 Gerber Fmt 4.6, Leading zero omitted, Abs format (unit mm)*
G04 Created by KiCad (PCBNEW (6.0.2)) date 2022-10-19 15:06:20*
%MOMM*%
%LPD*%
G01*
G04 APERTURE LIST*
%ADD10C,0.150000*%
%ADD11C,0.120000*%
%ADD12C,0.100000*%
G04 APERTURE END LIST*
D10*
%TO.C,R25*%
X106827142Y-130982380D02*
X106493809Y-130506190D01*
X106255714Y-130982380D02*
X106255714Y-129982380D01*
X106636666Y-129982380D01*
X106731904Y-130030000D01*
X106779523Y-130077619D01*
X106827142Y-130172857D01*
X106827142Y-130315714D01*
X106779523Y-130410952D01*
X106731904Y-130458571D01*
X106636666Y-130506190D01*
X106255714Y-130506190D01*
X107208095Y-130077619D02*
X107255714Y-130030000D01*
X107350952Y-129982380D01*
X107589047Y-129982380D01*
X107684285Y-130030000D01*
X107731904Y-130077619D01*
X107779523Y-130172857D01*
X107779523Y-130268095D01*
X107731904Y-130410952D01*
X107160476Y-130982380D01*
X107779523Y-130982380D01*
X108684285Y-129982380D02*
X108208095Y-129982380D01*
X108160476Y-130458571D01*
X108208095Y-130410952D01*
X108303333Y-130363333D01*
X108541428Y-130363333D01*
X108636666Y-130410952D01*
X108684285Y-130458571D01*
X108731904Y-130553809D01*
X108731904Y-130791904D01*
X108684285Y-130887142D01*
X108636666Y-130934761D01*
X108541428Y-130982380D01*
X108303333Y-130982380D01*
X108208095Y-130934761D01*
X108160476Y-130887142D01*
%TO.C,R26*%
X106757142Y-133612380D02*
X106423809Y-133136190D01*
X106185714Y-133612380D02*
X106185714Y-132612380D01*
X106566666Y-132612380D01*
X106661904Y-132660000D01*
X106709523Y-132707619D01*
X106757142Y-132802857D01*
X106757142Y-132945714D01*
X106709523Y-133040952D01*
X106661904Y-133088571D01*
X106566666Y-133136190D01*
X106185714Y-133136190D01*
X107138095Y-132707619D02*
X107185714Y-132660000D01*
X107280952Y-132612380D01*
X107519047Y-132612380D01*
X107614285Y-132660000D01*
X107661904Y-132707619D01*
X107709523Y-132802857D01*
X107709523Y-132898095D01*
X107661904Y-133040952D01*
X107090476Y-133612380D01*
X107709523Y-133612380D01*
X108566666Y-132612380D02*
X108376190Y-132612380D01*
X108280952Y-132660000D01*
X108233333Y-132707619D01*
X108138095Y-132850476D01*
X108090476Y-133040952D01*
X108090476Y-133421904D01*
X108138095Y-133517142D01*
X108185714Y-133564761D01*
X108280952Y-133612380D01*
X108471428Y-133612380D01*
X108566666Y-133564761D01*
X108614285Y-133517142D01*
X108661904Y-133421904D01*
X108661904Y-133183809D01*
X108614285Y-133088571D01*
X108566666Y-133040952D01*
X108471428Y-132993333D01*
X108280952Y-132993333D01*
X108185714Y-133040952D01*
X108138095Y-133088571D01*
X108090476Y-133183809D01*
%TO.C,R34*%
X58307142Y-121602380D02*
X57973809Y-121126190D01*
X57735714Y-121602380D02*
X57735714Y-120602380D01*
X58116666Y-120602380D01*
X58211904Y-120650000D01*
X58259523Y-120697619D01*
X58307142Y-120792857D01*
X58307142Y-120935714D01*
X58259523Y-121030952D01*
X58211904Y-121078571D01*
X58116666Y-121126190D01*
X57735714Y-121126190D01*
X58640476Y-120602380D02*
X59259523Y-120602380D01*
X58926190Y-120983333D01*
X59069047Y-120983333D01*
X59164285Y-121030952D01*
X59211904Y-121078571D01*
X59259523Y-121173809D01*
X59259523Y-121411904D01*
X59211904Y-121507142D01*
X59164285Y-121554761D01*
X59069047Y-121602380D01*
X58783333Y-121602380D01*
X58688095Y-121554761D01*
X58640476Y-121507142D01*
X60116666Y-120935714D02*
X60116666Y-121602380D01*
X59878571Y-120554761D02*
X59640476Y-121269047D01*
X60259523Y-121269047D01*
%TO.C,C3*%
X66533333Y-132507142D02*
X66485714Y-132554761D01*
X66342857Y-132602380D01*
X66247619Y-132602380D01*
X66104761Y-132554761D01*
X66009523Y-132459523D01*
X65961904Y-132364285D01*
X65914285Y-132173809D01*
X65914285Y-132030952D01*
X65961904Y-131840476D01*
X66009523Y-131745238D01*
X66104761Y-131650000D01*
X66247619Y-131602380D01*
X66342857Y-131602380D01*
X66485714Y-131650000D01*
X66533333Y-131697619D01*
X66866666Y-131602380D02*
X67485714Y-131602380D01*
X67152380Y-131983333D01*
X67295238Y-131983333D01*
X67390476Y-132030952D01*
X67438095Y-132078571D01*
X67485714Y-132173809D01*
X67485714Y-132411904D01*
X67438095Y-132507142D01*
X67390476Y-132554761D01*
X67295238Y-132602380D01*
X67009523Y-132602380D01*
X66914285Y-132554761D01*
X66866666Y-132507142D01*
%TO.C,R24*%
X106767142Y-128502380D02*
X106433809Y-128026190D01*
X106195714Y-128502380D02*
X106195714Y-127502380D01*
X106576666Y-127502380D01*
X106671904Y-127550000D01*
X106719523Y-127597619D01*
X106767142Y-127692857D01*
X106767142Y-127835714D01*
X106719523Y-127930952D01*
X106671904Y-127978571D01*
X106576666Y-128026190D01*
X106195714Y-128026190D01*
X107148095Y-127597619D02*
X107195714Y-127550000D01*
X107290952Y-127502380D01*
X107529047Y-127502380D01*
X107624285Y-127550000D01*
X107671904Y-127597619D01*
X107719523Y-127692857D01*
X107719523Y-127788095D01*
X107671904Y-127930952D01*
X107100476Y-128502380D01*
X107719523Y-128502380D01*
X108576666Y-127835714D02*
X108576666Y-128502380D01*
X108338571Y-127454761D02*
X108100476Y-128169047D01*
X108719523Y-128169047D01*
%TO.C,R7*%
X97513333Y-108282380D02*
X97180000Y-107806190D01*
X96941904Y-108282380D02*
X96941904Y-107282380D01*
X97322857Y-107282380D01*
X97418095Y-107330000D01*
X97465714Y-107377619D01*
X97513333Y-107472857D01*
X97513333Y-107615714D01*
X97465714Y-107710952D01*
X97418095Y-107758571D01*
X97322857Y-107806190D01*
X96941904Y-107806190D01*
X97846666Y-107282380D02*
X98513333Y-107282380D01*
X98084761Y-108282380D01*
%TO.C,U1*%
X89178095Y-134162380D02*
X89178095Y-134971904D01*
X89225714Y-135067142D01*
X89273333Y-135114761D01*
X89368571Y-135162380D01*
X89559047Y-135162380D01*
X89654285Y-135114761D01*
X89701904Y-135067142D01*
X89749523Y-134971904D01*
X89749523Y-134162380D01*
X90749523Y-135162380D02*
X90178095Y-135162380D01*
X90463809Y-135162380D02*
X90463809Y-134162380D01*
X90368571Y-134305238D01*
X90273333Y-134400476D01*
X90178095Y-134448095D01*
%TO.C,C4*%
X67263333Y-127217142D02*
X67215714Y-127264761D01*
X67072857Y-127312380D01*
X66977619Y-127312380D01*
X66834761Y-127264761D01*
X66739523Y-127169523D01*
X66691904Y-127074285D01*
X66644285Y-126883809D01*
X66644285Y-126740952D01*
X66691904Y-126550476D01*
X66739523Y-126455238D01*
X66834761Y-126360000D01*
X66977619Y-126312380D01*
X67072857Y-126312380D01*
X67215714Y-126360000D01*
X67263333Y-126407619D01*
X68120476Y-126645714D02*
X68120476Y-127312380D01*
X67882380Y-126264761D02*
X67644285Y-126979047D01*
X68263333Y-126979047D01*
%TO.C,JP2*%
X102876666Y-123112380D02*
X102876666Y-123826666D01*
X102829047Y-123969523D01*
X102733809Y-124064761D01*
X102590952Y-124112380D01*
X102495714Y-124112380D01*
X103352857Y-124112380D02*
X103352857Y-123112380D01*
X103733809Y-123112380D01*
X103829047Y-123160000D01*
X103876666Y-123207619D01*
X103924285Y-123302857D01*
X103924285Y-123445714D01*
X103876666Y-123540952D01*
X103829047Y-123588571D01*
X103733809Y-123636190D01*
X103352857Y-123636190D01*
X104305238Y-123207619D02*
X104352857Y-123160000D01*
X104448095Y-123112380D01*
X104686190Y-123112380D01*
X104781428Y-123160000D01*
X104829047Y-123207619D01*
X104876666Y-123302857D01*
X104876666Y-123398095D01*
X104829047Y-123540952D01*
X104257619Y-124112380D01*
X104876666Y-124112380D01*
%TO.C,R38*%
X61907142Y-112272380D02*
X61573809Y-111796190D01*
X61335714Y-112272380D02*
X61335714Y-111272380D01*
X61716666Y-111272380D01*
X61811904Y-111320000D01*
X61859523Y-111367619D01*
X61907142Y-111462857D01*
X61907142Y-111605714D01*
X61859523Y-111700952D01*
X61811904Y-111748571D01*
X61716666Y-111796190D01*
X61335714Y-111796190D01*
X62240476Y-111272380D02*
X62859523Y-111272380D01*
X62526190Y-111653333D01*
X62669047Y-111653333D01*
X62764285Y-111700952D01*
X62811904Y-111748571D01*
X62859523Y-111843809D01*
X62859523Y-112081904D01*
X62811904Y-112177142D01*
X62764285Y-112224761D01*
X62669047Y-112272380D01*
X62383333Y-112272380D01*
X62288095Y-112224761D01*
X62240476Y-112177142D01*
X63430952Y-111700952D02*
X63335714Y-111653333D01*
X63288095Y-111605714D01*
X63240476Y-111510476D01*
X63240476Y-111462857D01*
X63288095Y-111367619D01*
X63335714Y-111320000D01*
X63430952Y-111272380D01*
X63621428Y-111272380D01*
X63716666Y-111320000D01*
X63764285Y-111367619D01*
X63811904Y-111462857D01*
X63811904Y-111510476D01*
X63764285Y-111605714D01*
X63716666Y-111653333D01*
X63621428Y-111700952D01*
X63430952Y-111700952D01*
X63335714Y-111748571D01*
X63288095Y-111796190D01*
X63240476Y-111891428D01*
X63240476Y-112081904D01*
X63288095Y-112177142D01*
X63335714Y-112224761D01*
X63430952Y-112272380D01*
X63621428Y-112272380D01*
X63716666Y-112224761D01*
X63764285Y-112177142D01*
X63811904Y-112081904D01*
X63811904Y-111891428D01*
X63764285Y-111796190D01*
X63716666Y-111748571D01*
X63621428Y-111700952D01*
%TO.C,R8*%
X95093333Y-108182380D02*
X94760000Y-107706190D01*
X94521904Y-108182380D02*
X94521904Y-107182380D01*
X94902857Y-107182380D01*
X94998095Y-107230000D01*
X95045714Y-107277619D01*
X95093333Y-107372857D01*
X95093333Y-107515714D01*
X95045714Y-107610952D01*
X94998095Y-107658571D01*
X94902857Y-107706190D01*
X94521904Y-107706190D01*
X95664761Y-107610952D02*
X95569523Y-107563333D01*
X95521904Y-107515714D01*
X95474285Y-107420476D01*
X95474285Y-107372857D01*
X95521904Y-107277619D01*
X95569523Y-107230000D01*
X95664761Y-107182380D01*
X95855238Y-107182380D01*
X95950476Y-107230000D01*
X95998095Y-107277619D01*
X96045714Y-107372857D01*
X96045714Y-107420476D01*
X95998095Y-107515714D01*
X95950476Y-107563333D01*
X95855238Y-107610952D01*
X95664761Y-107610952D01*
X95569523Y-107658571D01*
X95521904Y-107706190D01*
X95474285Y-107801428D01*
X95474285Y-107991904D01*
X95521904Y-108087142D01*
X95569523Y-108134761D01*
X95664761Y-108182380D01*
X95855238Y-108182380D01*
X95950476Y-108134761D01*
X95998095Y-108087142D01*
X96045714Y-107991904D01*
X96045714Y-107801428D01*
X95998095Y-107706190D01*
X95950476Y-107658571D01*
X95855238Y-107610952D01*
%TO.C,D2*%
X74941904Y-145282380D02*
X74941904Y-144282380D01*
X75180000Y-144282380D01*
X75322857Y-144330000D01*
X75418095Y-144425238D01*
X75465714Y-144520476D01*
X75513333Y-144710952D01*
X75513333Y-144853809D01*
X75465714Y-145044285D01*
X75418095Y-145139523D01*
X75322857Y-145234761D01*
X75180000Y-145282380D01*
X74941904Y-145282380D01*
X75894285Y-144377619D02*
X75941904Y-144330000D01*
X76037142Y-144282380D01*
X76275238Y-144282380D01*
X76370476Y-144330000D01*
X76418095Y-144377619D01*
X76465714Y-144472857D01*
X76465714Y-144568095D01*
X76418095Y-144710952D01*
X75846666Y-145282380D01*
X76465714Y-145282380D01*
%TO.C,R35*%
X62177142Y-119112380D02*
X61843809Y-118636190D01*
X61605714Y-119112380D02*
X61605714Y-118112380D01*
X61986666Y-118112380D01*
X62081904Y-118160000D01*
X62129523Y-118207619D01*
X62177142Y-118302857D01*
X62177142Y-118445714D01*
X62129523Y-118540952D01*
X62081904Y-118588571D01*
X61986666Y-118636190D01*
X61605714Y-118636190D01*
X62510476Y-118112380D02*
X63129523Y-118112380D01*
X62796190Y-118493333D01*
X62939047Y-118493333D01*
X63034285Y-118540952D01*
X63081904Y-118588571D01*
X63129523Y-118683809D01*
X63129523Y-118921904D01*
X63081904Y-119017142D01*
X63034285Y-119064761D01*
X62939047Y-119112380D01*
X62653333Y-119112380D01*
X62558095Y-119064761D01*
X62510476Y-119017142D01*
X64034285Y-118112380D02*
X63558095Y-118112380D01*
X63510476Y-118588571D01*
X63558095Y-118540952D01*
X63653333Y-118493333D01*
X63891428Y-118493333D01*
X63986666Y-118540952D01*
X64034285Y-118588571D01*
X64081904Y-118683809D01*
X64081904Y-118921904D01*
X64034285Y-119017142D01*
X63986666Y-119064761D01*
X63891428Y-119112380D01*
X63653333Y-119112380D01*
X63558095Y-119064761D01*
X63510476Y-119017142D01*
%TO.C,H1*%
X51816095Y-98614380D02*
X51816095Y-97614380D01*
X51816095Y-98090571D02*
X52387523Y-98090571D01*
X52387523Y-98614380D02*
X52387523Y-97614380D01*
X53387523Y-98614380D02*
X52816095Y-98614380D01*
X53101809Y-98614380D02*
X53101809Y-97614380D01*
X53006571Y-97757238D01*
X52911333Y-97852476D01*
X52816095Y-97900095D01*
%TO.C,J7*%
X116746666Y-146492380D02*
X116746666Y-147206666D01*
X116699047Y-147349523D01*
X116603809Y-147444761D01*
X116460952Y-147492380D01*
X116365714Y-147492380D01*
X117127619Y-146492380D02*
X117794285Y-146492380D01*
X117365714Y-147492380D01*
%TO.C,R5*%
X104163333Y-108222380D02*
X103830000Y-107746190D01*
X103591904Y-108222380D02*
X103591904Y-107222380D01*
X103972857Y-107222380D01*
X104068095Y-107270000D01*
X104115714Y-107317619D01*
X104163333Y-107412857D01*
X104163333Y-107555714D01*
X104115714Y-107650952D01*
X104068095Y-107698571D01*
X103972857Y-107746190D01*
X103591904Y-107746190D01*
X105068095Y-107222380D02*
X104591904Y-107222380D01*
X104544285Y-107698571D01*
X104591904Y-107650952D01*
X104687142Y-107603333D01*
X104925238Y-107603333D01*
X105020476Y-107650952D01*
X105068095Y-107698571D01*
X105115714Y-107793809D01*
X105115714Y-108031904D01*
X105068095Y-108127142D01*
X105020476Y-108174761D01*
X104925238Y-108222380D01*
X104687142Y-108222380D01*
X104591904Y-108174761D01*
X104544285Y-108127142D01*
%TO.C,C9*%
X80723333Y-139367142D02*
X80675714Y-139414761D01*
X80532857Y-139462380D01*
X80437619Y-139462380D01*
X80294761Y-139414761D01*
X80199523Y-139319523D01*
X80151904Y-139224285D01*
X80104285Y-139033809D01*
X80104285Y-138890952D01*
X80151904Y-138700476D01*
X80199523Y-138605238D01*
X80294761Y-138510000D01*
X80437619Y-138462380D01*
X80532857Y-138462380D01*
X80675714Y-138510000D01*
X80723333Y-138557619D01*
X81199523Y-139462380D02*
X81390000Y-139462380D01*
X81485238Y-139414761D01*
X81532857Y-139367142D01*
X81628095Y-139224285D01*
X81675714Y-139033809D01*
X81675714Y-138652857D01*
X81628095Y-138557619D01*
X81580476Y-138510000D01*
X81485238Y-138462380D01*
X81294761Y-138462380D01*
X81199523Y-138510000D01*
X81151904Y-138557619D01*
X81104285Y-138652857D01*
X81104285Y-138890952D01*
X81151904Y-138986190D01*
X81199523Y-139033809D01*
X81294761Y-139081428D01*
X81485238Y-139081428D01*
X81580476Y-139033809D01*
X81628095Y-138986190D01*
X81675714Y-138890952D01*
%TO.C,J6*%
X93816666Y-145822380D02*
X93816666Y-146536666D01*
X93769047Y-146679523D01*
X93673809Y-146774761D01*
X93530952Y-146822380D01*
X93435714Y-146822380D01*
X94721428Y-145822380D02*
X94530952Y-145822380D01*
X94435714Y-145870000D01*
X94388095Y-145917619D01*
X94292857Y-146060476D01*
X94245238Y-146250952D01*
X94245238Y-146631904D01*
X94292857Y-146727142D01*
X94340476Y-146774761D01*
X94435714Y-146822380D01*
X94626190Y-146822380D01*
X94721428Y-146774761D01*
X94769047Y-146727142D01*
X94816666Y-146631904D01*
X94816666Y-146393809D01*
X94769047Y-146298571D01*
X94721428Y-146250952D01*
X94626190Y-146203333D01*
X94435714Y-146203333D01*
X94340476Y-146250952D01*
X94292857Y-146298571D01*
X94245238Y-146393809D01*
%TO.C,C8*%
X103353333Y-116657142D02*
X103305714Y-116704761D01*
X103162857Y-116752380D01*
X103067619Y-116752380D01*
X102924761Y-116704761D01*
X102829523Y-116609523D01*
X102781904Y-116514285D01*
X102734285Y-116323809D01*
X102734285Y-116180952D01*
X102781904Y-115990476D01*
X102829523Y-115895238D01*
X102924761Y-115800000D01*
X103067619Y-115752380D01*
X103162857Y-115752380D01*
X103305714Y-115800000D01*
X103353333Y-115847619D01*
X103924761Y-116180952D02*
X103829523Y-116133333D01*
X103781904Y-116085714D01*
X103734285Y-115990476D01*
X103734285Y-115942857D01*
X103781904Y-115847619D01*
X103829523Y-115800000D01*
X103924761Y-115752380D01*
X104115238Y-115752380D01*
X104210476Y-115800000D01*
X104258095Y-115847619D01*
X104305714Y-115942857D01*
X104305714Y-115990476D01*
X104258095Y-116085714D01*
X104210476Y-116133333D01*
X104115238Y-116180952D01*
X103924761Y-116180952D01*
X103829523Y-116228571D01*
X103781904Y-116276190D01*
X103734285Y-116371428D01*
X103734285Y-116561904D01*
X103781904Y-116657142D01*
X103829523Y-116704761D01*
X103924761Y-116752380D01*
X104115238Y-116752380D01*
X104210476Y-116704761D01*
X104258095Y-116657142D01*
X104305714Y-116561904D01*
X104305714Y-116371428D01*
X104258095Y-116276190D01*
X104210476Y-116228571D01*
X104115238Y-116180952D01*
%TO.C,J8*%
X52756666Y-146342380D02*
X52756666Y-147056666D01*
X52709047Y-147199523D01*
X52613809Y-147294761D01*
X52470952Y-147342380D01*
X52375714Y-147342380D01*
X53375714Y-146770952D02*
X53280476Y-146723333D01*
X53232857Y-146675714D01*
X53185238Y-146580476D01*
X53185238Y-146532857D01*
X53232857Y-146437619D01*
X53280476Y-146390000D01*
X53375714Y-146342380D01*
X53566190Y-146342380D01*
X53661428Y-146390000D01*
X53709047Y-146437619D01*
X53756666Y-146532857D01*
X53756666Y-146580476D01*
X53709047Y-146675714D01*
X53661428Y-146723333D01*
X53566190Y-146770952D01*
X53375714Y-146770952D01*
X53280476Y-146818571D01*
X53232857Y-146866190D01*
X53185238Y-146961428D01*
X53185238Y-147151904D01*
X53232857Y-147247142D01*
X53280476Y-147294761D01*
X53375714Y-147342380D01*
X53566190Y-147342380D01*
X53661428Y-147294761D01*
X53709047Y-147247142D01*
X53756666Y-147151904D01*
X53756666Y-146961428D01*
X53709047Y-146866190D01*
X53661428Y-146818571D01*
X53566190Y-146770952D01*
%TO.C,C21*%
X62607142Y-146237142D02*
X62559523Y-146284761D01*
X62416666Y-146332380D01*
X62321428Y-146332380D01*
X62178571Y-146284761D01*
X62083333Y-146189523D01*
X62035714Y-146094285D01*
X61988095Y-145903809D01*
X61988095Y-145760952D01*
X62035714Y-145570476D01*
X62083333Y-145475238D01*
X62178571Y-145380000D01*
X62321428Y-145332380D01*
X62416666Y-145332380D01*
X62559523Y-145380000D01*
X62607142Y-145427619D01*
X62988095Y-145427619D02*
X63035714Y-145380000D01*
X63130952Y-145332380D01*
X63369047Y-145332380D01*
X63464285Y-145380000D01*
X63511904Y-145427619D01*
X63559523Y-145522857D01*
X63559523Y-145618095D01*
X63511904Y-145760952D01*
X62940476Y-146332380D01*
X63559523Y-146332380D01*
X64511904Y-146332380D02*
X63940476Y-146332380D01*
X64226190Y-146332380D02*
X64226190Y-145332380D01*
X64130952Y-145475238D01*
X64035714Y-145570476D01*
X63940476Y-145618095D01*
%TO.C,R21*%
X106637142Y-121502380D02*
X106303809Y-121026190D01*
X106065714Y-121502380D02*
X106065714Y-120502380D01*
X106446666Y-120502380D01*
X106541904Y-120550000D01*
X106589523Y-120597619D01*
X106637142Y-120692857D01*
X106637142Y-120835714D01*
X106589523Y-120930952D01*
X106541904Y-120978571D01*
X106446666Y-121026190D01*
X106065714Y-121026190D01*
X107018095Y-120597619D02*
X107065714Y-120550000D01*
X107160952Y-120502380D01*
X107399047Y-120502380D01*
X107494285Y-120550000D01*
X107541904Y-120597619D01*
X107589523Y-120692857D01*
X107589523Y-120788095D01*
X107541904Y-120930952D01*
X106970476Y-121502380D01*
X107589523Y-121502380D01*
X108541904Y-121502380D02*
X107970476Y-121502380D01*
X108256190Y-121502380D02*
X108256190Y-120502380D01*
X108160952Y-120645238D01*
X108065714Y-120740476D01*
X107970476Y-120788095D01*
%TO.C,R37*%
X62027142Y-114452380D02*
X61693809Y-113976190D01*
X61455714Y-114452380D02*
X61455714Y-113452380D01*
X61836666Y-113452380D01*
X61931904Y-113500000D01*
X61979523Y-113547619D01*
X62027142Y-113642857D01*
X62027142Y-113785714D01*
X61979523Y-113880952D01*
X61931904Y-113928571D01*
X61836666Y-113976190D01*
X61455714Y-113976190D01*
X62360476Y-113452380D02*
X62979523Y-113452380D01*
X62646190Y-113833333D01*
X62789047Y-113833333D01*
X62884285Y-113880952D01*
X62931904Y-113928571D01*
X62979523Y-114023809D01*
X62979523Y-114261904D01*
X62931904Y-114357142D01*
X62884285Y-114404761D01*
X62789047Y-114452380D01*
X62503333Y-114452380D01*
X62408095Y-114404761D01*
X62360476Y-114357142D01*
X63312857Y-113452380D02*
X63979523Y-113452380D01*
X63550952Y-114452380D01*
%TO.C,R39*%
X61937142Y-109912380D02*
X61603809Y-109436190D01*
X61365714Y-109912380D02*
X61365714Y-108912380D01*
X61746666Y-108912380D01*
X61841904Y-108960000D01*
X61889523Y-109007619D01*
X61937142Y-109102857D01*
X61937142Y-109245714D01*
X61889523Y-109340952D01*
X61841904Y-109388571D01*
X61746666Y-109436190D01*
X61365714Y-109436190D01*
X62270476Y-108912380D02*
X62889523Y-108912380D01*
X62556190Y-109293333D01*
X62699047Y-109293333D01*
X62794285Y-109340952D01*
X62841904Y-109388571D01*
X62889523Y-109483809D01*
X62889523Y-109721904D01*
X62841904Y-109817142D01*
X62794285Y-109864761D01*
X62699047Y-109912380D01*
X62413333Y-109912380D01*
X62318095Y-109864761D01*
X62270476Y-109817142D01*
X63365714Y-109912380D02*
X63556190Y-109912380D01*
X63651428Y-109864761D01*
X63699047Y-109817142D01*
X63794285Y-109674285D01*
X63841904Y-109483809D01*
X63841904Y-109102857D01*
X63794285Y-109007619D01*
X63746666Y-108960000D01*
X63651428Y-108912380D01*
X63460952Y-108912380D01*
X63365714Y-108960000D01*
X63318095Y-109007619D01*
X63270476Y-109102857D01*
X63270476Y-109340952D01*
X63318095Y-109436190D01*
X63365714Y-109483809D01*
X63460952Y-109531428D01*
X63651428Y-109531428D01*
X63746666Y-109483809D01*
X63794285Y-109436190D01*
X63841904Y-109340952D01*
%TO.C,C23*%
X63067142Y-134957142D02*
X63019523Y-135004761D01*
X62876666Y-135052380D01*
X62781428Y-135052380D01*
X62638571Y-135004761D01*
X62543333Y-134909523D01*
X62495714Y-134814285D01*
X62448095Y-134623809D01*
X62448095Y-134480952D01*
X62495714Y-134290476D01*
X62543333Y-134195238D01*
X62638571Y-134100000D01*
X62781428Y-134052380D01*
X62876666Y-134052380D01*
X63019523Y-134100000D01*
X63067142Y-134147619D01*
X63448095Y-134147619D02*
X63495714Y-134100000D01*
X63590952Y-134052380D01*
X63829047Y-134052380D01*
X63924285Y-134100000D01*
X63971904Y-134147619D01*
X64019523Y-134242857D01*
X64019523Y-134338095D01*
X63971904Y-134480952D01*
X63400476Y-135052380D01*
X64019523Y-135052380D01*
X64352857Y-134052380D02*
X64971904Y-134052380D01*
X64638571Y-134433333D01*
X64781428Y-134433333D01*
X64876666Y-134480952D01*
X64924285Y-134528571D01*
X64971904Y-134623809D01*
X64971904Y-134861904D01*
X64924285Y-134957142D01*
X64876666Y-135004761D01*
X64781428Y-135052380D01*
X64495714Y-135052380D01*
X64400476Y-135004761D01*
X64352857Y-134957142D01*
%TO.C,R1*%
X72773333Y-135952380D02*
X72440000Y-135476190D01*
X72201904Y-135952380D02*
X72201904Y-134952380D01*
X72582857Y-134952380D01*
X72678095Y-135000000D01*
X72725714Y-135047619D01*
X72773333Y-135142857D01*
X72773333Y-135285714D01*
X72725714Y-135380952D01*
X72678095Y-135428571D01*
X72582857Y-135476190D01*
X72201904Y-135476190D01*
X73725714Y-135952380D02*
X73154285Y-135952380D01*
X73440000Y-135952380D02*
X73440000Y-134952380D01*
X73344761Y-135095238D01*
X73249523Y-135190476D01*
X73154285Y-135238095D01*
%TO.C,C24*%
X58219642Y-148737142D02*
X58172023Y-148784761D01*
X58029166Y-148832380D01*
X57933928Y-148832380D01*
X57791071Y-148784761D01*
X57695833Y-148689523D01*
X57648214Y-148594285D01*
X57600595Y-148403809D01*
X57600595Y-148260952D01*
X57648214Y-148070476D01*
X57695833Y-147975238D01*
X57791071Y-147880000D01*
X57933928Y-147832380D01*
X58029166Y-147832380D01*
X58172023Y-147880000D01*
X58219642Y-147927619D01*
X58600595Y-147927619D02*
X58648214Y-147880000D01*
X58743452Y-147832380D01*
X58981547Y-147832380D01*
X59076785Y-147880000D01*
X59124404Y-147927619D01*
X59172023Y-148022857D01*
X59172023Y-148118095D01*
X59124404Y-148260952D01*
X58552976Y-148832380D01*
X59172023Y-148832380D01*
X60029166Y-148165714D02*
X60029166Y-148832380D01*
X59791071Y-147784761D02*
X59552976Y-148499047D01*
X60172023Y-148499047D01*
%TO.C,R4*%
X101953333Y-101782380D02*
X101620000Y-101306190D01*
X101381904Y-101782380D02*
X101381904Y-100782380D01*
X101762857Y-100782380D01*
X101858095Y-100830000D01*
X101905714Y-100877619D01*
X101953333Y-100972857D01*
X101953333Y-101115714D01*
X101905714Y-101210952D01*
X101858095Y-101258571D01*
X101762857Y-101306190D01*
X101381904Y-101306190D01*
X102810476Y-101115714D02*
X102810476Y-101782380D01*
X102572380Y-100734761D02*
X102334285Y-101449047D01*
X102953333Y-101449047D01*
%TO.C,R31*%
X62067142Y-130172380D02*
X61733809Y-129696190D01*
X61495714Y-130172380D02*
X61495714Y-129172380D01*
X61876666Y-129172380D01*
X61971904Y-129220000D01*
X62019523Y-129267619D01*
X62067142Y-129362857D01*
X62067142Y-129505714D01*
X62019523Y-129600952D01*
X61971904Y-129648571D01*
X61876666Y-129696190D01*
X61495714Y-129696190D01*
X62400476Y-129172380D02*
X63019523Y-129172380D01*
X62686190Y-129553333D01*
X62829047Y-129553333D01*
X62924285Y-129600952D01*
X62971904Y-129648571D01*
X63019523Y-129743809D01*
X63019523Y-129981904D01*
X62971904Y-130077142D01*
X62924285Y-130124761D01*
X62829047Y-130172380D01*
X62543333Y-130172380D01*
X62448095Y-130124761D01*
X62400476Y-130077142D01*
X63971904Y-130172380D02*
X63400476Y-130172380D01*
X63686190Y-130172380D02*
X63686190Y-129172380D01*
X63590952Y-129315238D01*
X63495714Y-129410476D01*
X63400476Y-129458095D01*
%TO.C,R19*%
X106667142Y-117042380D02*
X106333809Y-116566190D01*
X106095714Y-117042380D02*
X106095714Y-116042380D01*
X106476666Y-116042380D01*
X106571904Y-116090000D01*
X106619523Y-116137619D01*
X106667142Y-116232857D01*
X106667142Y-116375714D01*
X106619523Y-116470952D01*
X106571904Y-116518571D01*
X106476666Y-116566190D01*
X106095714Y-116566190D01*
X107619523Y-117042380D02*
X107048095Y-117042380D01*
X107333809Y-117042380D02*
X107333809Y-116042380D01*
X107238571Y-116185238D01*
X107143333Y-116280476D01*
X107048095Y-116328095D01*
X108095714Y-117042380D02*
X108286190Y-117042380D01*
X108381428Y-116994761D01*
X108429047Y-116947142D01*
X108524285Y-116804285D01*
X108571904Y-116613809D01*
X108571904Y-116232857D01*
X108524285Y-116137619D01*
X108476666Y-116090000D01*
X108381428Y-116042380D01*
X108190952Y-116042380D01*
X108095714Y-116090000D01*
X108048095Y-116137619D01*
X108000476Y-116232857D01*
X108000476Y-116470952D01*
X108048095Y-116566190D01*
X108095714Y-116613809D01*
X108190952Y-116661428D01*
X108381428Y-116661428D01*
X108476666Y-116613809D01*
X108524285Y-116566190D01*
X108571904Y-116470952D01*
%TO.C,R23*%
X106707142Y-126212380D02*
X106373809Y-125736190D01*
X106135714Y-126212380D02*
X106135714Y-125212380D01*
X106516666Y-125212380D01*
X106611904Y-125260000D01*
X106659523Y-125307619D01*
X106707142Y-125402857D01*
X106707142Y-125545714D01*
X106659523Y-125640952D01*
X106611904Y-125688571D01*
X106516666Y-125736190D01*
X106135714Y-125736190D01*
X107088095Y-125307619D02*
X107135714Y-125260000D01*
X107230952Y-125212380D01*
X107469047Y-125212380D01*
X107564285Y-125260000D01*
X107611904Y-125307619D01*
X107659523Y-125402857D01*
X107659523Y-125498095D01*
X107611904Y-125640952D01*
X107040476Y-126212380D01*
X107659523Y-126212380D01*
X107992857Y-125212380D02*
X108611904Y-125212380D01*
X108278571Y-125593333D01*
X108421428Y-125593333D01*
X108516666Y-125640952D01*
X108564285Y-125688571D01*
X108611904Y-125783809D01*
X108611904Y-126021904D01*
X108564285Y-126117142D01*
X108516666Y-126164761D01*
X108421428Y-126212380D01*
X108135714Y-126212380D01*
X108040476Y-126164761D01*
X107992857Y-126117142D01*
%TO.C,JP1*%
X79576666Y-107442380D02*
X79576666Y-108156666D01*
X79529047Y-108299523D01*
X79433809Y-108394761D01*
X79290952Y-108442380D01*
X79195714Y-108442380D01*
X80052857Y-108442380D02*
X80052857Y-107442380D01*
X80433809Y-107442380D01*
X80529047Y-107490000D01*
X80576666Y-107537619D01*
X80624285Y-107632857D01*
X80624285Y-107775714D01*
X80576666Y-107870952D01*
X80529047Y-107918571D01*
X80433809Y-107966190D01*
X80052857Y-107966190D01*
X81576666Y-108442380D02*
X81005238Y-108442380D01*
X81290952Y-108442380D02*
X81290952Y-107442380D01*
X81195714Y-107585238D01*
X81100476Y-107680476D01*
X81005238Y-107728095D01*
%TO.C,R41*%
X62757142Y-105752380D02*
X62423809Y-105276190D01*
X62185714Y-105752380D02*
X62185714Y-104752380D01*
X62566666Y-104752380D01*
X62661904Y-104800000D01*
X62709523Y-104847619D01*
X62757142Y-104942857D01*
X62757142Y-105085714D01*
X62709523Y-105180952D01*
X62661904Y-105228571D01*
X62566666Y-105276190D01*
X62185714Y-105276190D01*
X63614285Y-105085714D02*
X63614285Y-105752380D01*
X63376190Y-104704761D02*
X63138095Y-105419047D01*
X63757142Y-105419047D01*
X64661904Y-105752380D02*
X64090476Y-105752380D01*
X64376190Y-105752380D02*
X64376190Y-104752380D01*
X64280952Y-104895238D01*
X64185714Y-104990476D01*
X64090476Y-105038095D01*
%TO.C,R6*%
X99743333Y-108222380D02*
X99410000Y-107746190D01*
X99171904Y-108222380D02*
X99171904Y-107222380D01*
X99552857Y-107222380D01*
X99648095Y-107270000D01*
X99695714Y-107317619D01*
X99743333Y-107412857D01*
X99743333Y-107555714D01*
X99695714Y-107650952D01*
X99648095Y-107698571D01*
X99552857Y-107746190D01*
X99171904Y-107746190D01*
X100600476Y-107222380D02*
X100410000Y-107222380D01*
X100314761Y-107270000D01*
X100267142Y-107317619D01*
X100171904Y-107460476D01*
X100124285Y-107650952D01*
X100124285Y-108031904D01*
X100171904Y-108127142D01*
X100219523Y-108174761D01*
X100314761Y-108222380D01*
X100505238Y-108222380D01*
X100600476Y-108174761D01*
X100648095Y-108127142D01*
X100695714Y-108031904D01*
X100695714Y-107793809D01*
X100648095Y-107698571D01*
X100600476Y-107650952D01*
X100505238Y-107603333D01*
X100314761Y-107603333D01*
X100219523Y-107650952D01*
X100171904Y-107698571D01*
X100124285Y-107793809D01*
%TO.C,C12*%
X84067142Y-101887142D02*
X84019523Y-101934761D01*
X83876666Y-101982380D01*
X83781428Y-101982380D01*
X83638571Y-101934761D01*
X83543333Y-101839523D01*
X83495714Y-101744285D01*
X83448095Y-101553809D01*
X83448095Y-101410952D01*
X83495714Y-101220476D01*
X83543333Y-101125238D01*
X83638571Y-101030000D01*
X83781428Y-100982380D01*
X83876666Y-100982380D01*
X84019523Y-101030000D01*
X84067142Y-101077619D01*
X85019523Y-101982380D02*
X84448095Y-101982380D01*
X84733809Y-101982380D02*
X84733809Y-100982380D01*
X84638571Y-101125238D01*
X84543333Y-101220476D01*
X84448095Y-101268095D01*
X85400476Y-101077619D02*
X85448095Y-101030000D01*
X85543333Y-100982380D01*
X85781428Y-100982380D01*
X85876666Y-101030000D01*
X85924285Y-101077619D01*
X85971904Y-101172857D01*
X85971904Y-101268095D01*
X85924285Y-101410952D01*
X85352857Y-101982380D01*
X85971904Y-101982380D01*
%TO.C,R16*%
X106707142Y-110372380D02*
X106373809Y-109896190D01*
X106135714Y-110372380D02*
X106135714Y-109372380D01*
X106516666Y-109372380D01*
X106611904Y-109420000D01*
X106659523Y-109467619D01*
X106707142Y-109562857D01*
X106707142Y-109705714D01*
X106659523Y-109800952D01*
X106611904Y-109848571D01*
X106516666Y-109896190D01*
X106135714Y-109896190D01*
X107659523Y-110372380D02*
X107088095Y-110372380D01*
X107373809Y-110372380D02*
X107373809Y-109372380D01*
X107278571Y-109515238D01*
X107183333Y-109610476D01*
X107088095Y-109658095D01*
X108516666Y-109372380D02*
X108326190Y-109372380D01*
X108230952Y-109420000D01*
X108183333Y-109467619D01*
X108088095Y-109610476D01*
X108040476Y-109800952D01*
X108040476Y-110181904D01*
X108088095Y-110277142D01*
X108135714Y-110324761D01*
X108230952Y-110372380D01*
X108421428Y-110372380D01*
X108516666Y-110324761D01*
X108564285Y-110277142D01*
X108611904Y-110181904D01*
X108611904Y-109943809D01*
X108564285Y-109848571D01*
X108516666Y-109800952D01*
X108421428Y-109753333D01*
X108230952Y-109753333D01*
X108135714Y-109800952D01*
X108088095Y-109848571D01*
X108040476Y-109943809D01*
%TO.C,R40*%
X62807142Y-108002380D02*
X62473809Y-107526190D01*
X62235714Y-108002380D02*
X62235714Y-107002380D01*
X62616666Y-107002380D01*
X62711904Y-107050000D01*
X62759523Y-107097619D01*
X62807142Y-107192857D01*
X62807142Y-107335714D01*
X62759523Y-107430952D01*
X62711904Y-107478571D01*
X62616666Y-107526190D01*
X62235714Y-107526190D01*
X63664285Y-107335714D02*
X63664285Y-108002380D01*
X63426190Y-106954761D02*
X63188095Y-107669047D01*
X63807142Y-107669047D01*
X64378571Y-107002380D02*
X64473809Y-107002380D01*
X64569047Y-107050000D01*
X64616666Y-107097619D01*
X64664285Y-107192857D01*
X64711904Y-107383333D01*
X64711904Y-107621428D01*
X64664285Y-107811904D01*
X64616666Y-107907142D01*
X64569047Y-107954761D01*
X64473809Y-108002380D01*
X64378571Y-108002380D01*
X64283333Y-107954761D01*
X64235714Y-107907142D01*
X64188095Y-107811904D01*
X64140476Y-107621428D01*
X64140476Y-107383333D01*
X64188095Y-107192857D01*
X64235714Y-107097619D01*
X64283333Y-107050000D01*
X64378571Y-107002380D01*
%TO.C,U8*%
X107038095Y-143092380D02*
X107038095Y-143901904D01*
X107085714Y-143997142D01*
X107133333Y-144044761D01*
X107228571Y-144092380D01*
X107419047Y-144092380D01*
X107514285Y-144044761D01*
X107561904Y-143997142D01*
X107609523Y-143901904D01*
X107609523Y-143092380D01*
X108228571Y-143520952D02*
X108133333Y-143473333D01*
X108085714Y-143425714D01*
X108038095Y-143330476D01*
X108038095Y-143282857D01*
X108085714Y-143187619D01*
X108133333Y-143140000D01*
X108228571Y-143092380D01*
X108419047Y-143092380D01*
X108514285Y-143140000D01*
X108561904Y-143187619D01*
X108609523Y-143282857D01*
X108609523Y-143330476D01*
X108561904Y-143425714D01*
X108514285Y-143473333D01*
X108419047Y-143520952D01*
X108228571Y-143520952D01*
X108133333Y-143568571D01*
X108085714Y-143616190D01*
X108038095Y-143711428D01*
X108038095Y-143901904D01*
X108085714Y-143997142D01*
X108133333Y-144044761D01*
X108228571Y-144092380D01*
X108419047Y-144092380D01*
X108514285Y-144044761D01*
X108561904Y-143997142D01*
X108609523Y-143901904D01*
X108609523Y-143711428D01*
X108561904Y-143616190D01*
X108514285Y-143568571D01*
X108419047Y-143520952D01*
%TO.C,R2*%
X67663333Y-114852380D02*
X67330000Y-114376190D01*
X67091904Y-114852380D02*
X67091904Y-113852380D01*
X67472857Y-113852380D01*
X67568095Y-113900000D01*
X67615714Y-113947619D01*
X67663333Y-114042857D01*
X67663333Y-114185714D01*
X67615714Y-114280952D01*
X67568095Y-114328571D01*
X67472857Y-114376190D01*
X67091904Y-114376190D01*
X68044285Y-113947619D02*
X68091904Y-113900000D01*
X68187142Y-113852380D01*
X68425238Y-113852380D01*
X68520476Y-113900000D01*
X68568095Y-113947619D01*
X68615714Y-114042857D01*
X68615714Y-114138095D01*
X68568095Y-114280952D01*
X67996666Y-114852380D01*
X68615714Y-114852380D01*
%TO.C,C16*%
X91447142Y-108037142D02*
X91399523Y-108084761D01*
X91256666Y-108132380D01*
X91161428Y-108132380D01*
X91018571Y-108084761D01*
X90923333Y-107989523D01*
X90875714Y-107894285D01*
X90828095Y-107703809D01*
X90828095Y-107560952D01*
X90875714Y-107370476D01*
X90923333Y-107275238D01*
X91018571Y-107180000D01*
X91161428Y-107132380D01*
X91256666Y-107132380D01*
X91399523Y-107180000D01*
X91447142Y-107227619D01*
X92399523Y-108132380D02*
X91828095Y-108132380D01*
X92113809Y-108132380D02*
X92113809Y-107132380D01*
X92018571Y-107275238D01*
X91923333Y-107370476D01*
X91828095Y-107418095D01*
X93256666Y-107132380D02*
X93066190Y-107132380D01*
X92970952Y-107180000D01*
X92923333Y-107227619D01*
X92828095Y-107370476D01*
X92780476Y-107560952D01*
X92780476Y-107941904D01*
X92828095Y-108037142D01*
X92875714Y-108084761D01*
X92970952Y-108132380D01*
X93161428Y-108132380D01*
X93256666Y-108084761D01*
X93304285Y-108037142D01*
X93351904Y-107941904D01*
X93351904Y-107703809D01*
X93304285Y-107608571D01*
X93256666Y-107560952D01*
X93161428Y-107513333D01*
X92970952Y-107513333D01*
X92875714Y-107560952D01*
X92828095Y-107608571D01*
X92780476Y-107703809D01*
%TO.C,FB1*%
X68426666Y-142488571D02*
X68093333Y-142488571D01*
X68093333Y-143012380D02*
X68093333Y-142012380D01*
X68569523Y-142012380D01*
X69283809Y-142488571D02*
X69426666Y-142536190D01*
X69474285Y-142583809D01*
X69521904Y-142679047D01*
X69521904Y-142821904D01*
X69474285Y-142917142D01*
X69426666Y-142964761D01*
X69331428Y-143012380D01*
X68950476Y-143012380D01*
X68950476Y-142012380D01*
X69283809Y-142012380D01*
X69379047Y-142060000D01*
X69426666Y-142107619D01*
X69474285Y-142202857D01*
X69474285Y-142298095D01*
X69426666Y-142393333D01*
X69379047Y-142440952D01*
X69283809Y-142488571D01*
X68950476Y-142488571D01*
X70474285Y-143012380D02*
X69902857Y-143012380D01*
X70188571Y-143012380D02*
X70188571Y-142012380D01*
X70093333Y-142155238D01*
X69998095Y-142250476D01*
X69902857Y-142298095D01*
%TO.C,R29*%
X58357142Y-136252380D02*
X58023809Y-135776190D01*
X57785714Y-136252380D02*
X57785714Y-135252380D01*
X58166666Y-135252380D01*
X58261904Y-135300000D01*
X58309523Y-135347619D01*
X58357142Y-135442857D01*
X58357142Y-135585714D01*
X58309523Y-135680952D01*
X58261904Y-135728571D01*
X58166666Y-135776190D01*
X57785714Y-135776190D01*
X58738095Y-135347619D02*
X58785714Y-135300000D01*
X58880952Y-135252380D01*
X59119047Y-135252380D01*
X59214285Y-135300000D01*
X59261904Y-135347619D01*
X59309523Y-135442857D01*
X59309523Y-135538095D01*
X59261904Y-135680952D01*
X58690476Y-136252380D01*
X59309523Y-136252380D01*
X59785714Y-136252380D02*
X59976190Y-136252380D01*
X60071428Y-136204761D01*
X60119047Y-136157142D01*
X60214285Y-136014285D01*
X60261904Y-135823809D01*
X60261904Y-135442857D01*
X60214285Y-135347619D01*
X60166666Y-135300000D01*
X60071428Y-135252380D01*
X59880952Y-135252380D01*
X59785714Y-135300000D01*
X59738095Y-135347619D01*
X59690476Y-135442857D01*
X59690476Y-135680952D01*
X59738095Y-135776190D01*
X59785714Y-135823809D01*
X59880952Y-135871428D01*
X60071428Y-135871428D01*
X60166666Y-135823809D01*
X60214285Y-135776190D01*
X60261904Y-135680952D01*
%TO.C,R15*%
X106767142Y-108292380D02*
X106433809Y-107816190D01*
X106195714Y-108292380D02*
X106195714Y-107292380D01*
X106576666Y-107292380D01*
X106671904Y-107340000D01*
X106719523Y-107387619D01*
X106767142Y-107482857D01*
X106767142Y-107625714D01*
X106719523Y-107720952D01*
X106671904Y-107768571D01*
X106576666Y-107816190D01*
X106195714Y-107816190D01*
X107719523Y-108292380D02*
X107148095Y-108292380D01*
X107433809Y-108292380D02*
X107433809Y-107292380D01*
X107338571Y-107435238D01*
X107243333Y-107530476D01*
X107148095Y-107578095D01*
X108624285Y-107292380D02*
X108148095Y-107292380D01*
X108100476Y-107768571D01*
X108148095Y-107720952D01*
X108243333Y-107673333D01*
X108481428Y-107673333D01*
X108576666Y-107720952D01*
X108624285Y-107768571D01*
X108671904Y-107863809D01*
X108671904Y-108101904D01*
X108624285Y-108197142D01*
X108576666Y-108244761D01*
X108481428Y-108292380D01*
X108243333Y-108292380D01*
X108148095Y-108244761D01*
X108100476Y-108197142D01*
%TO.C,C11*%
X103257142Y-110577142D02*
X103209523Y-110624761D01*
X103066666Y-110672380D01*
X102971428Y-110672380D01*
X102828571Y-110624761D01*
X102733333Y-110529523D01*
X102685714Y-110434285D01*
X102638095Y-110243809D01*
X102638095Y-110100952D01*
X102685714Y-109910476D01*
X102733333Y-109815238D01*
X102828571Y-109720000D01*
X102971428Y-109672380D01*
X103066666Y-109672380D01*
X103209523Y-109720000D01*
X103257142Y-109767619D01*
X104209523Y-110672380D02*
X103638095Y-110672380D01*
X103923809Y-110672380D02*
X103923809Y-109672380D01*
X103828571Y-109815238D01*
X103733333Y-109910476D01*
X103638095Y-109958095D01*
X105161904Y-110672380D02*
X104590476Y-110672380D01*
X104876190Y-110672380D02*
X104876190Y-109672380D01*
X104780952Y-109815238D01*
X104685714Y-109910476D01*
X104590476Y-109958095D01*
%TO.C,C6*%
X67683333Y-117207142D02*
X67635714Y-117254761D01*
X67492857Y-117302380D01*
X67397619Y-117302380D01*
X67254761Y-117254761D01*
X67159523Y-117159523D01*
X67111904Y-117064285D01*
X67064285Y-116873809D01*
X67064285Y-116730952D01*
X67111904Y-116540476D01*
X67159523Y-116445238D01*
X67254761Y-116350000D01*
X67397619Y-116302380D01*
X67492857Y-116302380D01*
X67635714Y-116350000D01*
X67683333Y-116397619D01*
X68540476Y-116302380D02*
X68350000Y-116302380D01*
X68254761Y-116350000D01*
X68207142Y-116397619D01*
X68111904Y-116540476D01*
X68064285Y-116730952D01*
X68064285Y-117111904D01*
X68111904Y-117207142D01*
X68159523Y-117254761D01*
X68254761Y-117302380D01*
X68445238Y-117302380D01*
X68540476Y-117254761D01*
X68588095Y-117207142D01*
X68635714Y-117111904D01*
X68635714Y-116873809D01*
X68588095Y-116778571D01*
X68540476Y-116730952D01*
X68445238Y-116683333D01*
X68254761Y-116683333D01*
X68159523Y-116730952D01*
X68111904Y-116778571D01*
X68064285Y-116873809D01*
%TO.C,C1*%
X67233333Y-123047142D02*
X67185714Y-123094761D01*
X67042857Y-123142380D01*
X66947619Y-123142380D01*
X66804761Y-123094761D01*
X66709523Y-122999523D01*
X66661904Y-122904285D01*
X66614285Y-122713809D01*
X66614285Y-122570952D01*
X66661904Y-122380476D01*
X66709523Y-122285238D01*
X66804761Y-122190000D01*
X66947619Y-122142380D01*
X67042857Y-122142380D01*
X67185714Y-122190000D01*
X67233333Y-122237619D01*
X68185714Y-123142380D02*
X67614285Y-123142380D01*
X67900000Y-123142380D02*
X67900000Y-122142380D01*
X67804761Y-122285238D01*
X67709523Y-122380476D01*
X67614285Y-122428095D01*
%TO.C,C5*%
X72813333Y-132397142D02*
X72765714Y-132444761D01*
X72622857Y-132492380D01*
X72527619Y-132492380D01*
X72384761Y-132444761D01*
X72289523Y-132349523D01*
X72241904Y-132254285D01*
X72194285Y-132063809D01*
X72194285Y-131920952D01*
X72241904Y-131730476D01*
X72289523Y-131635238D01*
X72384761Y-131540000D01*
X72527619Y-131492380D01*
X72622857Y-131492380D01*
X72765714Y-131540000D01*
X72813333Y-131587619D01*
X73718095Y-131492380D02*
X73241904Y-131492380D01*
X73194285Y-131968571D01*
X73241904Y-131920952D01*
X73337142Y-131873333D01*
X73575238Y-131873333D01*
X73670476Y-131920952D01*
X73718095Y-131968571D01*
X73765714Y-132063809D01*
X73765714Y-132301904D01*
X73718095Y-132397142D01*
X73670476Y-132444761D01*
X73575238Y-132492380D01*
X73337142Y-132492380D01*
X73241904Y-132444761D01*
X73194285Y-132397142D01*
%TO.C,R9*%
X58683333Y-142972380D02*
X58350000Y-142496190D01*
X58111904Y-142972380D02*
X58111904Y-141972380D01*
X58492857Y-141972380D01*
X58588095Y-142020000D01*
X58635714Y-142067619D01*
X58683333Y-142162857D01*
X58683333Y-142305714D01*
X58635714Y-142400952D01*
X58588095Y-142448571D01*
X58492857Y-142496190D01*
X58111904Y-142496190D01*
X59159523Y-142972380D02*
X59350000Y-142972380D01*
X59445238Y-142924761D01*
X59492857Y-142877142D01*
X59588095Y-142734285D01*
X59635714Y-142543809D01*
X59635714Y-142162857D01*
X59588095Y-142067619D01*
X59540476Y-142020000D01*
X59445238Y-141972380D01*
X59254761Y-141972380D01*
X59159523Y-142020000D01*
X59111904Y-142067619D01*
X59064285Y-142162857D01*
X59064285Y-142400952D01*
X59111904Y-142496190D01*
X59159523Y-142543809D01*
X59254761Y-142591428D01*
X59445238Y-142591428D01*
X59540476Y-142543809D01*
X59588095Y-142496190D01*
X59635714Y-142400952D01*
%TO.C,R17*%
X106667142Y-112622380D02*
X106333809Y-112146190D01*
X106095714Y-112622380D02*
X106095714Y-111622380D01*
X106476666Y-111622380D01*
X106571904Y-111670000D01*
X106619523Y-111717619D01*
X106667142Y-111812857D01*
X106667142Y-111955714D01*
X106619523Y-112050952D01*
X106571904Y-112098571D01*
X106476666Y-112146190D01*
X106095714Y-112146190D01*
X107619523Y-112622380D02*
X107048095Y-112622380D01*
X107333809Y-112622380D02*
X107333809Y-111622380D01*
X107238571Y-111765238D01*
X107143333Y-111860476D01*
X107048095Y-111908095D01*
X107952857Y-111622380D02*
X108619523Y-111622380D01*
X108190952Y-112622380D01*
%TO.C,R36*%
X62117142Y-116692380D02*
X61783809Y-116216190D01*
X61545714Y-116692380D02*
X61545714Y-115692380D01*
X61926666Y-115692380D01*
X62021904Y-115740000D01*
X62069523Y-115787619D01*
X62117142Y-115882857D01*
X62117142Y-116025714D01*
X62069523Y-116120952D01*
X62021904Y-116168571D01*
X61926666Y-116216190D01*
X61545714Y-116216190D01*
X62450476Y-115692380D02*
X63069523Y-115692380D01*
X62736190Y-116073333D01*
X62879047Y-116073333D01*
X62974285Y-116120952D01*
X63021904Y-116168571D01*
X63069523Y-116263809D01*
X63069523Y-116501904D01*
X63021904Y-116597142D01*
X62974285Y-116644761D01*
X62879047Y-116692380D01*
X62593333Y-116692380D01*
X62498095Y-116644761D01*
X62450476Y-116597142D01*
X63926666Y-115692380D02*
X63736190Y-115692380D01*
X63640952Y-115740000D01*
X63593333Y-115787619D01*
X63498095Y-115930476D01*
X63450476Y-116120952D01*
X63450476Y-116501904D01*
X63498095Y-116597142D01*
X63545714Y-116644761D01*
X63640952Y-116692380D01*
X63831428Y-116692380D01*
X63926666Y-116644761D01*
X63974285Y-116597142D01*
X64021904Y-116501904D01*
X64021904Y-116263809D01*
X63974285Y-116168571D01*
X63926666Y-116120952D01*
X63831428Y-116073333D01*
X63640952Y-116073333D01*
X63545714Y-116120952D01*
X63498095Y-116168571D01*
X63450476Y-116263809D01*
%TO.C,U9*%
X63488095Y-120752380D02*
X63488095Y-121561904D01*
X63535714Y-121657142D01*
X63583333Y-121704761D01*
X63678571Y-121752380D01*
X63869047Y-121752380D01*
X63964285Y-121704761D01*
X64011904Y-121657142D01*
X64059523Y-121561904D01*
X64059523Y-120752380D01*
X64583333Y-121752380D02*
X64773809Y-121752380D01*
X64869047Y-121704761D01*
X64916666Y-121657142D01*
X65011904Y-121514285D01*
X65059523Y-121323809D01*
X65059523Y-120942857D01*
X65011904Y-120847619D01*
X64964285Y-120800000D01*
X64869047Y-120752380D01*
X64678571Y-120752380D01*
X64583333Y-120800000D01*
X64535714Y-120847619D01*
X64488095Y-120942857D01*
X64488095Y-121180952D01*
X64535714Y-121276190D01*
X64583333Y-121323809D01*
X64678571Y-121371428D01*
X64869047Y-121371428D01*
X64964285Y-121323809D01*
X65011904Y-121276190D01*
X65059523Y-121180952D01*
%TO.C,H2*%
X113538095Y-143318380D02*
X113538095Y-142318380D01*
X113538095Y-142794571D02*
X114109523Y-142794571D01*
X114109523Y-143318380D02*
X114109523Y-142318380D01*
X114538095Y-142413619D02*
X114585714Y-142366000D01*
X114680952Y-142318380D01*
X114919047Y-142318380D01*
X115014285Y-142366000D01*
X115061904Y-142413619D01*
X115109523Y-142508857D01*
X115109523Y-142604095D01*
X115061904Y-142746952D01*
X114490476Y-143318380D01*
X115109523Y-143318380D01*
%TO.C,R14*%
X106767142Y-106042380D02*
X106433809Y-105566190D01*
X106195714Y-106042380D02*
X106195714Y-105042380D01*
X106576666Y-105042380D01*
X106671904Y-105090000D01*
X106719523Y-105137619D01*
X106767142Y-105232857D01*
X106767142Y-105375714D01*
X106719523Y-105470952D01*
X106671904Y-105518571D01*
X106576666Y-105566190D01*
X106195714Y-105566190D01*
X107719523Y-106042380D02*
X107148095Y-106042380D01*
X107433809Y-106042380D02*
X107433809Y-105042380D01*
X107338571Y-105185238D01*
X107243333Y-105280476D01*
X107148095Y-105328095D01*
X108576666Y-105375714D02*
X108576666Y-106042380D01*
X108338571Y-104994761D02*
X108100476Y-105709047D01*
X108719523Y-105709047D01*
%TO.C,R18*%
X106647142Y-114812380D02*
X106313809Y-114336190D01*
X106075714Y-114812380D02*
X106075714Y-113812380D01*
X106456666Y-113812380D01*
X106551904Y-113860000D01*
X106599523Y-113907619D01*
X106647142Y-114002857D01*
X106647142Y-114145714D01*
X106599523Y-114240952D01*
X106551904Y-114288571D01*
X106456666Y-114336190D01*
X106075714Y-114336190D01*
X107599523Y-114812380D02*
X107028095Y-114812380D01*
X107313809Y-114812380D02*
X107313809Y-113812380D01*
X107218571Y-113955238D01*
X107123333Y-114050476D01*
X107028095Y-114098095D01*
X108170952Y-114240952D02*
X108075714Y-114193333D01*
X108028095Y-114145714D01*
X107980476Y-114050476D01*
X107980476Y-114002857D01*
X108028095Y-113907619D01*
X108075714Y-113860000D01*
X108170952Y-113812380D01*
X108361428Y-113812380D01*
X108456666Y-113860000D01*
X108504285Y-113907619D01*
X108551904Y-114002857D01*
X108551904Y-114050476D01*
X108504285Y-114145714D01*
X108456666Y-114193333D01*
X108361428Y-114240952D01*
X108170952Y-114240952D01*
X108075714Y-114288571D01*
X108028095Y-114336190D01*
X107980476Y-114431428D01*
X107980476Y-114621904D01*
X108028095Y-114717142D01*
X108075714Y-114764761D01*
X108170952Y-114812380D01*
X108361428Y-114812380D01*
X108456666Y-114764761D01*
X108504285Y-114717142D01*
X108551904Y-114621904D01*
X108551904Y-114431428D01*
X108504285Y-114336190D01*
X108456666Y-114288571D01*
X108361428Y-114240952D01*
%TO.C,D1*%
X64021904Y-139862380D02*
X64021904Y-138862380D01*
X64260000Y-138862380D01*
X64402857Y-138910000D01*
X64498095Y-139005238D01*
X64545714Y-139100476D01*
X64593333Y-139290952D01*
X64593333Y-139433809D01*
X64545714Y-139624285D01*
X64498095Y-139719523D01*
X64402857Y-139814761D01*
X64260000Y-139862380D01*
X64021904Y-139862380D01*
X65545714Y-139862380D02*
X64974285Y-139862380D01*
X65260000Y-139862380D02*
X65260000Y-138862380D01*
X65164761Y-139005238D01*
X65069523Y-139100476D01*
X64974285Y-139148095D01*
%TO.C,R33*%
X55137142Y-126032380D02*
X54803809Y-125556190D01*
X54565714Y-126032380D02*
X54565714Y-125032380D01*
X54946666Y-125032380D01*
X55041904Y-125080000D01*
X55089523Y-125127619D01*
X55137142Y-125222857D01*
X55137142Y-125365714D01*
X55089523Y-125460952D01*
X55041904Y-125508571D01*
X54946666Y-125556190D01*
X54565714Y-125556190D01*
X55470476Y-125032380D02*
X56089523Y-125032380D01*
X55756190Y-125413333D01*
X55899047Y-125413333D01*
X55994285Y-125460952D01*
X56041904Y-125508571D01*
X56089523Y-125603809D01*
X56089523Y-125841904D01*
X56041904Y-125937142D01*
X55994285Y-125984761D01*
X55899047Y-126032380D01*
X55613333Y-126032380D01*
X55518095Y-125984761D01*
X55470476Y-125937142D01*
X56422857Y-125032380D02*
X57041904Y-125032380D01*
X56708571Y-125413333D01*
X56851428Y-125413333D01*
X56946666Y-125460952D01*
X56994285Y-125508571D01*
X57041904Y-125603809D01*
X57041904Y-125841904D01*
X56994285Y-125937142D01*
X56946666Y-125984761D01*
X56851428Y-126032380D01*
X56565714Y-126032380D01*
X56470476Y-125984761D01*
X56422857Y-125937142D01*
%TO.C,R22*%
X106707142Y-123882380D02*
X106373809Y-123406190D01*
X106135714Y-123882380D02*
X106135714Y-122882380D01*
X106516666Y-122882380D01*
X106611904Y-122930000D01*
X106659523Y-122977619D01*
X106707142Y-123072857D01*
X106707142Y-123215714D01*
X106659523Y-123310952D01*
X106611904Y-123358571D01*
X106516666Y-123406190D01*
X106135714Y-123406190D01*
X107088095Y-122977619D02*
X107135714Y-122930000D01*
X107230952Y-122882380D01*
X107469047Y-122882380D01*
X107564285Y-122930000D01*
X107611904Y-122977619D01*
X107659523Y-123072857D01*
X107659523Y-123168095D01*
X107611904Y-123310952D01*
X107040476Y-123882380D01*
X107659523Y-123882380D01*
X108040476Y-122977619D02*
X108088095Y-122930000D01*
X108183333Y-122882380D01*
X108421428Y-122882380D01*
X108516666Y-122930000D01*
X108564285Y-122977619D01*
X108611904Y-123072857D01*
X108611904Y-123168095D01*
X108564285Y-123310952D01*
X107992857Y-123882380D01*
X108611904Y-123882380D01*
%TO.C,C7*%
X95053333Y-140487142D02*
X95005714Y-140534761D01*
X94862857Y-140582380D01*
X94767619Y-140582380D01*
X94624761Y-140534761D01*
X94529523Y-140439523D01*
X94481904Y-140344285D01*
X94434285Y-140153809D01*
X94434285Y-140010952D01*
X94481904Y-139820476D01*
X94529523Y-139725238D01*
X94624761Y-139630000D01*
X94767619Y-139582380D01*
X94862857Y-139582380D01*
X95005714Y-139630000D01*
X95053333Y-139677619D01*
X95386666Y-139582380D02*
X96053333Y-139582380D01*
X95624761Y-140582380D01*
%TO.C,R20*%
X106667142Y-119332380D02*
X106333809Y-118856190D01*
X106095714Y-119332380D02*
X106095714Y-118332380D01*
X106476666Y-118332380D01*
X106571904Y-118380000D01*
X106619523Y-118427619D01*
X106667142Y-118522857D01*
X106667142Y-118665714D01*
X106619523Y-118760952D01*
X106571904Y-118808571D01*
X106476666Y-118856190D01*
X106095714Y-118856190D01*
X107048095Y-118427619D02*
X107095714Y-118380000D01*
X107190952Y-118332380D01*
X107429047Y-118332380D01*
X107524285Y-118380000D01*
X107571904Y-118427619D01*
X107619523Y-118522857D01*
X107619523Y-118618095D01*
X107571904Y-118760952D01*
X107000476Y-119332380D01*
X107619523Y-119332380D01*
X108238571Y-118332380D02*
X108333809Y-118332380D01*
X108429047Y-118380000D01*
X108476666Y-118427619D01*
X108524285Y-118522857D01*
X108571904Y-118713333D01*
X108571904Y-118951428D01*
X108524285Y-119141904D01*
X108476666Y-119237142D01*
X108429047Y-119284761D01*
X108333809Y-119332380D01*
X108238571Y-119332380D01*
X108143333Y-119284761D01*
X108095714Y-119237142D01*
X108048095Y-119141904D01*
X108000476Y-118951428D01*
X108000476Y-118713333D01*
X108048095Y-118522857D01*
X108095714Y-118427619D01*
X108143333Y-118380000D01*
X108238571Y-118332380D01*
%TO.C,C15*%
X89377142Y-101777142D02*
X89329523Y-101824761D01*
X89186666Y-101872380D01*
X89091428Y-101872380D01*
X88948571Y-101824761D01*
X88853333Y-101729523D01*
X88805714Y-101634285D01*
X88758095Y-101443809D01*
X88758095Y-101300952D01*
X88805714Y-101110476D01*
X88853333Y-101015238D01*
X88948571Y-100920000D01*
X89091428Y-100872380D01*
X89186666Y-100872380D01*
X89329523Y-100920000D01*
X89377142Y-100967619D01*
X90329523Y-101872380D02*
X89758095Y-101872380D01*
X90043809Y-101872380D02*
X90043809Y-100872380D01*
X89948571Y-101015238D01*
X89853333Y-101110476D01*
X89758095Y-101158095D01*
X91234285Y-100872380D02*
X90758095Y-100872380D01*
X90710476Y-101348571D01*
X90758095Y-101300952D01*
X90853333Y-101253333D01*
X91091428Y-101253333D01*
X91186666Y-101300952D01*
X91234285Y-101348571D01*
X91281904Y-101443809D01*
X91281904Y-101681904D01*
X91234285Y-101777142D01*
X91186666Y-101824761D01*
X91091428Y-101872380D01*
X90853333Y-101872380D01*
X90758095Y-101824761D01*
X90710476Y-101777142D01*
%TO.C,R3*%
X81163333Y-101782380D02*
X80830000Y-101306190D01*
X80591904Y-101782380D02*
X80591904Y-100782380D01*
X80972857Y-100782380D01*
X81068095Y-100830000D01*
X81115714Y-100877619D01*
X81163333Y-100972857D01*
X81163333Y-101115714D01*
X81115714Y-101210952D01*
X81068095Y-101258571D01*
X80972857Y-101306190D01*
X80591904Y-101306190D01*
X81496666Y-100782380D02*
X82115714Y-100782380D01*
X81782380Y-101163333D01*
X81925238Y-101163333D01*
X82020476Y-101210952D01*
X82068095Y-101258571D01*
X82115714Y-101353809D01*
X82115714Y-101591904D01*
X82068095Y-101687142D01*
X82020476Y-101734761D01*
X81925238Y-101782380D01*
X81639523Y-101782380D01*
X81544285Y-101734761D01*
X81496666Y-101687142D01*
%TO.C,C10*%
X97577142Y-140407142D02*
X97529523Y-140454761D01*
X97386666Y-140502380D01*
X97291428Y-140502380D01*
X97148571Y-140454761D01*
X97053333Y-140359523D01*
X97005714Y-140264285D01*
X96958095Y-140073809D01*
X96958095Y-139930952D01*
X97005714Y-139740476D01*
X97053333Y-139645238D01*
X97148571Y-139550000D01*
X97291428Y-139502380D01*
X97386666Y-139502380D01*
X97529523Y-139550000D01*
X97577142Y-139597619D01*
X98529523Y-140502380D02*
X97958095Y-140502380D01*
X98243809Y-140502380D02*
X98243809Y-139502380D01*
X98148571Y-139645238D01*
X98053333Y-139740476D01*
X97958095Y-139788095D01*
X99148571Y-139502380D02*
X99243809Y-139502380D01*
X99339047Y-139550000D01*
X99386666Y-139597619D01*
X99434285Y-139692857D01*
X99481904Y-139883333D01*
X99481904Y-140121428D01*
X99434285Y-140311904D01*
X99386666Y-140407142D01*
X99339047Y-140454761D01*
X99243809Y-140502380D01*
X99148571Y-140502380D01*
X99053333Y-140454761D01*
X99005714Y-140407142D01*
X98958095Y-140311904D01*
X98910476Y-140121428D01*
X98910476Y-139883333D01*
X98958095Y-139692857D01*
X99005714Y-139597619D01*
X99053333Y-139550000D01*
X99148571Y-139502380D01*
%TO.C,C2*%
X78773333Y-101747142D02*
X78725714Y-101794761D01*
X78582857Y-101842380D01*
X78487619Y-101842380D01*
X78344761Y-101794761D01*
X78249523Y-101699523D01*
X78201904Y-101604285D01*
X78154285Y-101413809D01*
X78154285Y-101270952D01*
X78201904Y-101080476D01*
X78249523Y-100985238D01*
X78344761Y-100890000D01*
X78487619Y-100842380D01*
X78582857Y-100842380D01*
X78725714Y-100890000D01*
X78773333Y-100937619D01*
X79154285Y-100937619D02*
X79201904Y-100890000D01*
X79297142Y-100842380D01*
X79535238Y-100842380D01*
X79630476Y-100890000D01*
X79678095Y-100937619D01*
X79725714Y-101032857D01*
X79725714Y-101128095D01*
X79678095Y-101270952D01*
X79106666Y-101842380D01*
X79725714Y-101842380D01*
%TO.C,R30*%
X55117142Y-132662380D02*
X54783809Y-132186190D01*
X54545714Y-132662380D02*
X54545714Y-131662380D01*
X54926666Y-131662380D01*
X55021904Y-131710000D01*
X55069523Y-131757619D01*
X55117142Y-131852857D01*
X55117142Y-131995714D01*
X55069523Y-132090952D01*
X55021904Y-132138571D01*
X54926666Y-132186190D01*
X54545714Y-132186190D01*
X55450476Y-131662380D02*
X56069523Y-131662380D01*
X55736190Y-132043333D01*
X55879047Y-132043333D01*
X55974285Y-132090952D01*
X56021904Y-132138571D01*
X56069523Y-132233809D01*
X56069523Y-132471904D01*
X56021904Y-132567142D01*
X55974285Y-132614761D01*
X55879047Y-132662380D01*
X55593333Y-132662380D01*
X55498095Y-132614761D01*
X55450476Y-132567142D01*
X56688571Y-131662380D02*
X56783809Y-131662380D01*
X56879047Y-131710000D01*
X56926666Y-131757619D01*
X56974285Y-131852857D01*
X57021904Y-132043333D01*
X57021904Y-132281428D01*
X56974285Y-132471904D01*
X56926666Y-132567142D01*
X56879047Y-132614761D01*
X56783809Y-132662380D01*
X56688571Y-132662380D01*
X56593333Y-132614761D01*
X56545714Y-132567142D01*
X56498095Y-132471904D01*
X56450476Y-132281428D01*
X56450476Y-132043333D01*
X56498095Y-131852857D01*
X56545714Y-131757619D01*
X56593333Y-131710000D01*
X56688571Y-131662380D01*
%TO.C,R32*%
X62067142Y-127792380D02*
X61733809Y-127316190D01*
X61495714Y-127792380D02*
X61495714Y-126792380D01*
X61876666Y-126792380D01*
X61971904Y-126840000D01*
X62019523Y-126887619D01*
X62067142Y-126982857D01*
X62067142Y-127125714D01*
X62019523Y-127220952D01*
X61971904Y-127268571D01*
X61876666Y-127316190D01*
X61495714Y-127316190D01*
X62400476Y-126792380D02*
X63019523Y-126792380D01*
X62686190Y-127173333D01*
X62829047Y-127173333D01*
X62924285Y-127220952D01*
X62971904Y-127268571D01*
X63019523Y-127363809D01*
X63019523Y-127601904D01*
X62971904Y-127697142D01*
X62924285Y-127744761D01*
X62829047Y-127792380D01*
X62543333Y-127792380D01*
X62448095Y-127744761D01*
X62400476Y-127697142D01*
X63400476Y-126887619D02*
X63448095Y-126840000D01*
X63543333Y-126792380D01*
X63781428Y-126792380D01*
X63876666Y-126840000D01*
X63924285Y-126887619D01*
X63971904Y-126982857D01*
X63971904Y-127078095D01*
X63924285Y-127220952D01*
X63352857Y-127792380D01*
X63971904Y-127792380D01*
%TO.C,C13*%
X72667142Y-138187142D02*
X72619523Y-138234761D01*
X72476666Y-138282380D01*
X72381428Y-138282380D01*
X72238571Y-138234761D01*
X72143333Y-138139523D01*
X72095714Y-138044285D01*
X72048095Y-137853809D01*
X72048095Y-137710952D01*
X72095714Y-137520476D01*
X72143333Y-137425238D01*
X72238571Y-137330000D01*
X72381428Y-137282380D01*
X72476666Y-137282380D01*
X72619523Y-137330000D01*
X72667142Y-137377619D01*
X73619523Y-138282380D02*
X73048095Y-138282380D01*
X73333809Y-138282380D02*
X73333809Y-137282380D01*
X73238571Y-137425238D01*
X73143333Y-137520476D01*
X73048095Y-137568095D01*
X73952857Y-137282380D02*
X74571904Y-137282380D01*
X74238571Y-137663333D01*
X74381428Y-137663333D01*
X74476666Y-137710952D01*
X74524285Y-137758571D01*
X74571904Y-137853809D01*
X74571904Y-138091904D01*
X74524285Y-138187142D01*
X74476666Y-138234761D01*
X74381428Y-138282380D01*
X74095714Y-138282380D01*
X74000476Y-138234761D01*
X73952857Y-138187142D01*
%TO.C,FB2*%
X86936666Y-107268571D02*
X86603333Y-107268571D01*
X86603333Y-107792380D02*
X86603333Y-106792380D01*
X87079523Y-106792380D01*
X87793809Y-107268571D02*
X87936666Y-107316190D01*
X87984285Y-107363809D01*
X88031904Y-107459047D01*
X88031904Y-107601904D01*
X87984285Y-107697142D01*
X87936666Y-107744761D01*
X87841428Y-107792380D01*
X87460476Y-107792380D01*
X87460476Y-106792380D01*
X87793809Y-106792380D01*
X87889047Y-106840000D01*
X87936666Y-106887619D01*
X87984285Y-106982857D01*
X87984285Y-107078095D01*
X87936666Y-107173333D01*
X87889047Y-107220952D01*
X87793809Y-107268571D01*
X87460476Y-107268571D01*
X88412857Y-106887619D02*
X88460476Y-106840000D01*
X88555714Y-106792380D01*
X88793809Y-106792380D01*
X88889047Y-106840000D01*
X88936666Y-106887619D01*
X88984285Y-106982857D01*
X88984285Y-107078095D01*
X88936666Y-107220952D01*
X88365238Y-107792380D01*
X88984285Y-107792380D01*
%TO.C,C14*%
X77827142Y-140757142D02*
X77779523Y-140804761D01*
X77636666Y-140852380D01*
X77541428Y-140852380D01*
X77398571Y-140804761D01*
X77303333Y-140709523D01*
X77255714Y-140614285D01*
X77208095Y-140423809D01*
X77208095Y-140280952D01*
X77255714Y-140090476D01*
X77303333Y-139995238D01*
X77398571Y-139900000D01*
X77541428Y-139852380D01*
X77636666Y-139852380D01*
X77779523Y-139900000D01*
X77827142Y-139947619D01*
X78779523Y-140852380D02*
X78208095Y-140852380D01*
X78493809Y-140852380D02*
X78493809Y-139852380D01*
X78398571Y-139995238D01*
X78303333Y-140090476D01*
X78208095Y-140138095D01*
X79636666Y-140185714D02*
X79636666Y-140852380D01*
X79398571Y-139804761D02*
X79160476Y-140519047D01*
X79779523Y-140519047D01*
D11*
%TO.C,R25*%
X111922936Y-129815000D02*
X112377064Y-129815000D01*
X111922936Y-131285000D02*
X112377064Y-131285000D01*
%TO.C,R26*%
X111922936Y-132615000D02*
X112377064Y-132615000D01*
X111922936Y-134085000D02*
X112377064Y-134085000D01*
%TO.C,R34*%
X59227064Y-123735000D02*
X58772936Y-123735000D01*
X59227064Y-122265000D02*
X58772936Y-122265000D01*
%TO.C,C3*%
X63898752Y-132885000D02*
X63376248Y-132885000D01*
X63898752Y-131415000D02*
X63376248Y-131415000D01*
%TO.C,R24*%
X111922936Y-127315000D02*
X112377064Y-127315000D01*
X111922936Y-128785000D02*
X112377064Y-128785000D01*
%TO.C,R7*%
X96865000Y-104427064D02*
X96865000Y-103972936D01*
X98335000Y-104427064D02*
X98335000Y-103972936D01*
%TO.C,U1*%
X79940000Y-131860000D02*
X78990000Y-131860000D01*
X99210000Y-111640000D02*
X99210000Y-112590000D01*
X79940000Y-111640000D02*
X78990000Y-111640000D01*
X98260000Y-131860000D02*
X99210000Y-131860000D01*
X78990000Y-112590000D02*
X77700000Y-112590000D01*
X78990000Y-111640000D02*
X78990000Y-112590000D01*
X78990000Y-131860000D02*
X78990000Y-130910000D01*
X98260000Y-111640000D02*
X99210000Y-111640000D01*
X99210000Y-131860000D02*
X99210000Y-130910000D01*
%TO.C,C4*%
X70385000Y-127061252D02*
X70385000Y-126538748D01*
X68915000Y-127061252D02*
X68915000Y-126538748D01*
%TO.C,JP2*%
X103900000Y-122100000D02*
X103300000Y-122100000D01*
X104600000Y-120000000D02*
X104600000Y-121400000D01*
X103300000Y-119300000D02*
X103900000Y-119300000D01*
X102600000Y-121400000D02*
X102600000Y-120000000D01*
X102600000Y-121400000D02*
G75*
G03*
X103300000Y-122100000I699999J-1D01*
G01*
X104600000Y-120000000D02*
G75*
G03*
X103900000Y-119300000I-699999J1D01*
G01*
X103900000Y-122100000D02*
G75*
G03*
X104600000Y-121400000I1J699999D01*
G01*
X103300000Y-119300000D02*
G75*
G03*
X102600000Y-120000000I-1J-699999D01*
G01*
%TO.C,R38*%
X59227064Y-112435000D02*
X58772936Y-112435000D01*
X59227064Y-110965000D02*
X58772936Y-110965000D01*
%TO.C,R8*%
X94465000Y-104427064D02*
X94465000Y-103972936D01*
X95935000Y-104427064D02*
X95935000Y-103972936D01*
%TO.C,D2*%
X71240000Y-144800000D02*
X71240000Y-144150000D01*
X71240000Y-144800000D02*
X71240000Y-145450000D01*
X74360000Y-144800000D02*
X74360000Y-143125000D01*
X74360000Y-144800000D02*
X74360000Y-145450000D01*
%TO.C,R35*%
X59227064Y-119335000D02*
X58772936Y-119335000D01*
X59227064Y-117865000D02*
X58772936Y-117865000D01*
%TO.C,J7*%
X117782114Y-114410000D02*
X118340000Y-114410000D01*
X119960000Y-105040000D02*
X118340000Y-105040000D01*
X124160000Y-130410000D02*
X119960000Y-130410000D01*
X118340000Y-135100000D02*
X119960000Y-135100000D01*
X119960000Y-107790000D02*
X124160000Y-107790000D01*
X124160000Y-114410000D02*
X119960000Y-114410000D01*
X117782114Y-110410000D02*
X118340000Y-110410000D01*
X119960000Y-105850000D02*
X124160000Y-105850000D01*
X124160000Y-136410000D02*
X119960000Y-136410000D01*
X117782114Y-118410000D02*
X118340000Y-118410000D01*
X124160000Y-139790000D02*
X124160000Y-140410000D01*
X117782114Y-141790000D02*
X118340000Y-141790000D01*
X117782114Y-125790000D02*
X118340000Y-125790000D01*
X124160000Y-133790000D02*
X124160000Y-134410000D01*
X119960000Y-141790000D02*
X124160000Y-141790000D01*
X118340000Y-127100000D02*
X119960000Y-127100000D01*
X119960000Y-127790000D02*
X124160000Y-127790000D01*
X117782114Y-143790000D02*
X118340000Y-143790000D01*
X118340000Y-139100000D02*
X119960000Y-139100000D01*
X117782114Y-112410000D02*
X118340000Y-112410000D01*
X124160000Y-129790000D02*
X124160000Y-130410000D01*
X117782114Y-124410000D02*
X118340000Y-124410000D01*
X117782114Y-119790000D02*
X118340000Y-119790000D01*
X119960000Y-106210000D02*
X124160000Y-106210000D01*
X117782114Y-107790000D02*
X118340000Y-107790000D01*
X117782114Y-111790000D02*
X118340000Y-111790000D01*
X124160000Y-142410000D02*
X119960000Y-142410000D01*
X117782114Y-131790000D02*
X118340000Y-131790000D01*
X118340000Y-145160000D02*
X119960000Y-145160000D01*
X124160000Y-113790000D02*
X124160000Y-114410000D01*
X124160000Y-125790000D02*
X124160000Y-126410000D01*
X124160000Y-138410000D02*
X119960000Y-138410000D01*
X124160000Y-132410000D02*
X119960000Y-132410000D01*
X124160000Y-143790000D02*
X124160000Y-144410000D01*
X118340000Y-123100000D02*
X119960000Y-123100000D01*
X118340000Y-115100000D02*
X119960000Y-115100000D01*
X124160000Y-106410000D02*
X119960000Y-106410000D01*
X119960000Y-135790000D02*
X124160000Y-135790000D01*
X124160000Y-120410000D02*
X119960000Y-120410000D01*
X118340000Y-143100000D02*
X119960000Y-143100000D01*
X118340000Y-121100000D02*
X119960000Y-121100000D01*
X118340000Y-131100000D02*
X119960000Y-131100000D01*
X124160000Y-107790000D02*
X124160000Y-108410000D01*
X117782114Y-134410000D02*
X118340000Y-134410000D01*
X117782114Y-120410000D02*
X118340000Y-120410000D01*
X124160000Y-144410000D02*
X119960000Y-144410000D01*
X118340000Y-125100000D02*
X119960000Y-125100000D01*
X117782114Y-127790000D02*
X118340000Y-127790000D01*
X124160000Y-109790000D02*
X124160000Y-110410000D01*
X117782114Y-140410000D02*
X118340000Y-140410000D01*
X124160000Y-115790000D02*
X124160000Y-116410000D01*
X119960000Y-145160000D02*
X119960000Y-105040000D01*
X124160000Y-117790000D02*
X124160000Y-118410000D01*
X118340000Y-141100000D02*
X119960000Y-141100000D01*
X124160000Y-111790000D02*
X124160000Y-112410000D01*
X117835000Y-105790000D02*
X118340000Y-105790000D01*
X119960000Y-121790000D02*
X124160000Y-121790000D01*
X117782114Y-113790000D02*
X118340000Y-113790000D01*
X124160000Y-124410000D02*
X119960000Y-124410000D01*
X119960000Y-115790000D02*
X124160000Y-115790000D01*
X117782114Y-142410000D02*
X118340000Y-142410000D01*
X119960000Y-137790000D02*
X124160000Y-137790000D01*
X117782114Y-115790000D02*
X118340000Y-115790000D01*
X117782114Y-117790000D02*
X118340000Y-117790000D01*
X118340000Y-113100000D02*
X119960000Y-113100000D01*
X117782114Y-144410000D02*
X118340000Y-144410000D01*
X119960000Y-106090000D02*
X124160000Y-106090000D01*
X117782114Y-121790000D02*
X118340000Y-121790000D01*
X118340000Y-129100000D02*
X119960000Y-129100000D01*
X119960000Y-129790000D02*
X124160000Y-129790000D01*
X115900000Y-105100000D02*
X116900000Y-105100000D01*
X118340000Y-111100000D02*
X119960000Y-111100000D01*
X124160000Y-128410000D02*
X119960000Y-128410000D01*
X119960000Y-131790000D02*
X124160000Y-131790000D01*
X117782114Y-126410000D02*
X118340000Y-126410000D01*
X124160000Y-119790000D02*
X124160000Y-120410000D01*
X124160000Y-134410000D02*
X119960000Y-134410000D01*
X119960000Y-123790000D02*
X124160000Y-123790000D01*
X118340000Y-137100000D02*
X119960000Y-137100000D01*
X117782114Y-129790000D02*
X118340000Y-129790000D01*
X117782114Y-122410000D02*
X118340000Y-122410000D01*
X118340000Y-119100000D02*
X119960000Y-119100000D01*
X124160000Y-112410000D02*
X119960000Y-112410000D01*
X115900000Y-106100000D02*
X115900000Y-105100000D01*
X118340000Y-133100000D02*
X119960000Y-133100000D01*
X124160000Y-118410000D02*
X119960000Y-118410000D01*
X124160000Y-140410000D02*
X119960000Y-140410000D01*
X117782114Y-136410000D02*
X118340000Y-136410000D01*
X119960000Y-106330000D02*
X124160000Y-106330000D01*
X117782114Y-138410000D02*
X118340000Y-138410000D01*
X117782114Y-133790000D02*
X118340000Y-133790000D01*
X117782114Y-123790000D02*
X118340000Y-123790000D01*
X119960000Y-113790000D02*
X124160000Y-113790000D01*
X124160000Y-137790000D02*
X124160000Y-138410000D01*
X124160000Y-135790000D02*
X124160000Y-136410000D01*
X124160000Y-141790000D02*
X124160000Y-142410000D01*
X124160000Y-116410000D02*
X119960000Y-116410000D01*
X119960000Y-133790000D02*
X124160000Y-133790000D01*
X119960000Y-139790000D02*
X124160000Y-139790000D01*
X117782114Y-139790000D02*
X118340000Y-139790000D01*
X118340000Y-105040000D02*
X118340000Y-145160000D01*
X118340000Y-109100000D02*
X119960000Y-109100000D01*
X119960000Y-117790000D02*
X124160000Y-117790000D01*
X119960000Y-105970000D02*
X124160000Y-105970000D01*
X117782114Y-137790000D02*
X118340000Y-137790000D01*
X124160000Y-127790000D02*
X124160000Y-128410000D01*
X119960000Y-109790000D02*
X124160000Y-109790000D01*
X124160000Y-105790000D02*
X124160000Y-106410000D01*
X124160000Y-126410000D02*
X119960000Y-126410000D01*
X118340000Y-117100000D02*
X119960000Y-117100000D01*
X117782114Y-130410000D02*
X118340000Y-130410000D01*
X117782114Y-135790000D02*
X118340000Y-135790000D01*
X118340000Y-107100000D02*
X119960000Y-107100000D01*
X119960000Y-119790000D02*
X124160000Y-119790000D01*
X124160000Y-131790000D02*
X124160000Y-132410000D01*
X124160000Y-108410000D02*
X119960000Y-108410000D01*
X119960000Y-143790000D02*
X124160000Y-143790000D01*
X119960000Y-125790000D02*
X124160000Y-125790000D01*
X117782114Y-128410000D02*
X118340000Y-128410000D01*
X117782114Y-108410000D02*
X118340000Y-108410000D01*
X124160000Y-123790000D02*
X124160000Y-124410000D01*
X117782114Y-132410000D02*
X118340000Y-132410000D01*
X124160000Y-122410000D02*
X119960000Y-122410000D01*
X119960000Y-105790000D02*
X124160000Y-105790000D01*
X117782114Y-116410000D02*
X118340000Y-116410000D01*
X124160000Y-121790000D02*
X124160000Y-122410000D01*
X117835000Y-106410000D02*
X118340000Y-106410000D01*
X124160000Y-110410000D02*
X119960000Y-110410000D01*
X119960000Y-111790000D02*
X124160000Y-111790000D01*
X117782114Y-109790000D02*
X118340000Y-109790000D01*
%TO.C,R5*%
X103465000Y-104427064D02*
X103465000Y-103972936D01*
X104935000Y-104427064D02*
X104935000Y-103972936D01*
%TO.C,C9*%
X80215000Y-135788748D02*
X80215000Y-136311252D01*
X81685000Y-135788748D02*
X81685000Y-136311252D01*
D12*
%TO.C,J6*%
X82050000Y-147350000D02*
X82050000Y-148250000D01*
X84900000Y-143350000D02*
X84900000Y-143350000D01*
X82050000Y-148250000D02*
X91750000Y-148250000D01*
X82050000Y-145350000D02*
X82050000Y-144450000D01*
X89400000Y-144450000D02*
X91750000Y-144450000D01*
X91750000Y-148250000D02*
X91750000Y-147350000D01*
X85000000Y-143350000D02*
X85000000Y-143350000D01*
X82050000Y-144450000D02*
X84400000Y-144450000D01*
X91750000Y-144450000D02*
X91750000Y-145350000D01*
X84900000Y-143350000D02*
G75*
G03*
X85000000Y-143350000I50000J0D01*
G01*
X85000000Y-143350000D02*
G75*
G03*
X84900000Y-143350000I-50000J0D01*
G01*
D11*
%TO.C,C8*%
X103738748Y-115135000D02*
X104261252Y-115135000D01*
X103738748Y-113665000D02*
X104261252Y-113665000D01*
%TO.C,J8*%
X52217886Y-129740000D02*
X51660000Y-129740000D01*
X50040000Y-110360000D02*
X45840000Y-110360000D01*
X45840000Y-109740000D02*
X50040000Y-109740000D01*
X50040000Y-143820000D02*
X45840000Y-143820000D01*
X51660000Y-143050000D02*
X50040000Y-143050000D01*
X50040000Y-112360000D02*
X45840000Y-112360000D01*
X45840000Y-119740000D02*
X50040000Y-119740000D01*
X45840000Y-107740000D02*
X50040000Y-107740000D01*
X52217886Y-106360000D02*
X51660000Y-106360000D01*
X45840000Y-126360000D02*
X45840000Y-125740000D01*
X50040000Y-144300000D02*
X45840000Y-144300000D01*
X45840000Y-125740000D02*
X50040000Y-125740000D01*
X52217886Y-117740000D02*
X51660000Y-117740000D01*
X50040000Y-106360000D02*
X45840000Y-106360000D01*
X45840000Y-116360000D02*
X45840000Y-115740000D01*
X51660000Y-121050000D02*
X50040000Y-121050000D01*
X45840000Y-112360000D02*
X45840000Y-111740000D01*
X45840000Y-140360000D02*
X45840000Y-139740000D01*
X52217886Y-136360000D02*
X51660000Y-136360000D01*
X52217886Y-142360000D02*
X51660000Y-142360000D01*
X52217886Y-121740000D02*
X51660000Y-121740000D01*
X51660000Y-117050000D02*
X50040000Y-117050000D01*
X50040000Y-134360000D02*
X45840000Y-134360000D01*
X51660000Y-113050000D02*
X50040000Y-113050000D01*
X52217886Y-122360000D02*
X51660000Y-122360000D01*
X51660000Y-137050000D02*
X50040000Y-137050000D01*
X50040000Y-143940000D02*
X45840000Y-143940000D01*
X50040000Y-124360000D02*
X45840000Y-124360000D01*
X52217886Y-132360000D02*
X51660000Y-132360000D01*
X45840000Y-106360000D02*
X45840000Y-105740000D01*
X50040000Y-104990000D02*
X50040000Y-145110000D01*
X50040000Y-118360000D02*
X45840000Y-118360000D01*
X52217886Y-123740000D02*
X51660000Y-123740000D01*
X51660000Y-135050000D02*
X50040000Y-135050000D01*
X51660000Y-123050000D02*
X50040000Y-123050000D01*
X52217886Y-120360000D02*
X51660000Y-120360000D01*
X45840000Y-138360000D02*
X45840000Y-137740000D01*
X52217886Y-109740000D02*
X51660000Y-109740000D01*
X52217886Y-126360000D02*
X51660000Y-126360000D01*
X50040000Y-145110000D02*
X51660000Y-145110000D01*
X52217886Y-118360000D02*
X51660000Y-118360000D01*
X45840000Y-131740000D02*
X50040000Y-131740000D01*
X51660000Y-125050000D02*
X50040000Y-125050000D01*
X52217886Y-125740000D02*
X51660000Y-125740000D01*
X52217886Y-111740000D02*
X51660000Y-111740000D01*
X45840000Y-123740000D02*
X50040000Y-123740000D01*
X45840000Y-110360000D02*
X45840000Y-109740000D01*
X50040000Y-138360000D02*
X45840000Y-138360000D01*
X52217886Y-128360000D02*
X51660000Y-128360000D01*
X52217886Y-116360000D02*
X51660000Y-116360000D01*
X52217886Y-114360000D02*
X51660000Y-114360000D01*
X50040000Y-136360000D02*
X45840000Y-136360000D01*
X50040000Y-144360000D02*
X45840000Y-144360000D01*
X51660000Y-133050000D02*
X50040000Y-133050000D01*
X45840000Y-141740000D02*
X50040000Y-141740000D01*
X45840000Y-111740000D02*
X50040000Y-111740000D01*
X52217886Y-119740000D02*
X51660000Y-119740000D01*
X54100000Y-145050000D02*
X53100000Y-145050000D01*
X52217886Y-141740000D02*
X51660000Y-141740000D01*
X45840000Y-139740000D02*
X50040000Y-139740000D01*
X50040000Y-116360000D02*
X45840000Y-116360000D01*
X50040000Y-144180000D02*
X45840000Y-144180000D01*
X52217886Y-108360000D02*
X51660000Y-108360000D01*
X45840000Y-114360000D02*
X45840000Y-113740000D01*
X45840000Y-113740000D02*
X50040000Y-113740000D01*
X51660000Y-141050000D02*
X50040000Y-141050000D01*
X45840000Y-137740000D02*
X50040000Y-137740000D01*
X51660000Y-119050000D02*
X50040000Y-119050000D01*
X45840000Y-108360000D02*
X45840000Y-107740000D01*
X51660000Y-131050000D02*
X50040000Y-131050000D01*
X52165000Y-143740000D02*
X51660000Y-143740000D01*
X45840000Y-128360000D02*
X45840000Y-127740000D01*
X45840000Y-144360000D02*
X45840000Y-143740000D01*
X52217886Y-110360000D02*
X51660000Y-110360000D01*
X52217886Y-139740000D02*
X51660000Y-139740000D01*
X45840000Y-134360000D02*
X45840000Y-133740000D01*
X51660000Y-139050000D02*
X50040000Y-139050000D01*
X51660000Y-127050000D02*
X50040000Y-127050000D01*
X52217886Y-135740000D02*
X51660000Y-135740000D01*
X45840000Y-115740000D02*
X50040000Y-115740000D01*
X45840000Y-127740000D02*
X50040000Y-127740000D01*
X52217886Y-138360000D02*
X51660000Y-138360000D01*
X50040000Y-144060000D02*
X45840000Y-144060000D01*
X52217886Y-134360000D02*
X51660000Y-134360000D01*
X45840000Y-118360000D02*
X45840000Y-117740000D01*
X52217886Y-137740000D02*
X51660000Y-137740000D01*
X50040000Y-130360000D02*
X45840000Y-130360000D01*
X51660000Y-115050000D02*
X50040000Y-115050000D01*
X45840000Y-120360000D02*
X45840000Y-119740000D01*
X52217886Y-115740000D02*
X51660000Y-115740000D01*
X52217886Y-127740000D02*
X51660000Y-127740000D01*
X51660000Y-145110000D02*
X51660000Y-104990000D01*
X52217886Y-140360000D02*
X51660000Y-140360000D01*
X50040000Y-132360000D02*
X45840000Y-132360000D01*
X52217886Y-124360000D02*
X51660000Y-124360000D01*
X45840000Y-136360000D02*
X45840000Y-135740000D01*
X50040000Y-140360000D02*
X45840000Y-140360000D01*
X52217886Y-112360000D02*
X51660000Y-112360000D01*
X52217886Y-130360000D02*
X51660000Y-130360000D01*
X45840000Y-143740000D02*
X50040000Y-143740000D01*
X45840000Y-105740000D02*
X50040000Y-105740000D01*
X50040000Y-126360000D02*
X45840000Y-126360000D01*
X45840000Y-133740000D02*
X50040000Y-133740000D01*
X51660000Y-129050000D02*
X50040000Y-129050000D01*
X45840000Y-135740000D02*
X50040000Y-135740000D01*
X50040000Y-114360000D02*
X45840000Y-114360000D01*
X45840000Y-124360000D02*
X45840000Y-123740000D01*
X45840000Y-129740000D02*
X50040000Y-129740000D01*
X54100000Y-144050000D02*
X54100000Y-145050000D01*
X45840000Y-122360000D02*
X45840000Y-121740000D01*
X50040000Y-108360000D02*
X45840000Y-108360000D01*
X52217886Y-131740000D02*
X51660000Y-131740000D01*
X45840000Y-130360000D02*
X45840000Y-129740000D01*
X52217886Y-133740000D02*
X51660000Y-133740000D01*
X52165000Y-144360000D02*
X51660000Y-144360000D01*
X51660000Y-107050000D02*
X50040000Y-107050000D01*
X50040000Y-128360000D02*
X45840000Y-128360000D01*
X51660000Y-109050000D02*
X50040000Y-109050000D01*
X50040000Y-120360000D02*
X45840000Y-120360000D01*
X45840000Y-117740000D02*
X50040000Y-117740000D01*
X45840000Y-132360000D02*
X45840000Y-131740000D01*
X50040000Y-142360000D02*
X45840000Y-142360000D01*
X51660000Y-104990000D02*
X50040000Y-104990000D01*
X52217886Y-113740000D02*
X51660000Y-113740000D01*
X52217886Y-105740000D02*
X51660000Y-105740000D01*
X52217886Y-107740000D02*
X51660000Y-107740000D01*
X45840000Y-142360000D02*
X45840000Y-141740000D01*
X45840000Y-121740000D02*
X50040000Y-121740000D01*
X51660000Y-111050000D02*
X50040000Y-111050000D01*
X50040000Y-122360000D02*
X45840000Y-122360000D01*
%TO.C,C21*%
X63511252Y-144935000D02*
X62988748Y-144935000D01*
X63511252Y-143465000D02*
X62988748Y-143465000D01*
%TO.C,R21*%
X111922936Y-121835000D02*
X112377064Y-121835000D01*
X111922936Y-120365000D02*
X112377064Y-120365000D01*
%TO.C,R37*%
X59227064Y-114685000D02*
X58772936Y-114685000D01*
X59227064Y-113215000D02*
X58772936Y-113215000D01*
%TO.C,R39*%
X59227064Y-108765000D02*
X58772936Y-108765000D01*
X59227064Y-110235000D02*
X58772936Y-110235000D01*
%TO.C,C23*%
X64061252Y-135665000D02*
X63538748Y-135665000D01*
X64061252Y-137135000D02*
X63538748Y-137135000D01*
%TO.C,R1*%
X70177064Y-136185000D02*
X69722936Y-136185000D01*
X70177064Y-134715000D02*
X69722936Y-134715000D01*
%TO.C,C24*%
X59123752Y-147435000D02*
X58601248Y-147435000D01*
X59123752Y-145965000D02*
X58601248Y-145965000D01*
%TO.C,R4*%
X101265000Y-104427064D02*
X101265000Y-103972936D01*
X102735000Y-104427064D02*
X102735000Y-103972936D01*
%TO.C,R31*%
X59227064Y-128915000D02*
X58772936Y-128915000D01*
X59227064Y-130385000D02*
X58772936Y-130385000D01*
%TO.C,R19*%
X111922936Y-117335000D02*
X112377064Y-117335000D01*
X111922936Y-115865000D02*
X112377064Y-115865000D01*
%TO.C,R23*%
X111922936Y-125015000D02*
X112377064Y-125015000D01*
X111922936Y-126485000D02*
X112377064Y-126485000D01*
%TO.C,JP1*%
X85400000Y-109000000D02*
X82600000Y-109000000D01*
X82500000Y-109500000D02*
X83100000Y-109500000D01*
X82800000Y-109200000D02*
X83100000Y-109500000D01*
X82600000Y-107000000D02*
X85400000Y-107000000D01*
X82800000Y-109200000D02*
X82500000Y-109500000D01*
X81950000Y-108300000D02*
X81950000Y-107700000D01*
X86050000Y-107700000D02*
X86050000Y-108300000D01*
X82650000Y-107000000D02*
G75*
G03*
X81950000Y-107700000I-1J-699999D01*
G01*
X85350000Y-109000000D02*
G75*
G03*
X86050000Y-108300000I1J699999D01*
G01*
X86050000Y-107700000D02*
G75*
G03*
X85350000Y-107000000I-699999J1D01*
G01*
X81950000Y-108300000D02*
G75*
G03*
X82650000Y-109000000I699999J-1D01*
G01*
%TO.C,R41*%
X59227064Y-104365000D02*
X58772936Y-104365000D01*
X59227064Y-105835000D02*
X58772936Y-105835000D01*
%TO.C,R6*%
X100585000Y-104427064D02*
X100585000Y-103972936D01*
X99115000Y-104427064D02*
X99115000Y-103972936D01*
%TO.C,C12*%
X85585000Y-104661252D02*
X85585000Y-104138748D01*
X84115000Y-104661252D02*
X84115000Y-104138748D01*
%TO.C,R16*%
X111922936Y-110685000D02*
X112377064Y-110685000D01*
X111922936Y-109215000D02*
X112377064Y-109215000D01*
%TO.C,R40*%
X59227064Y-108085000D02*
X58772936Y-108085000D01*
X59227064Y-106615000D02*
X58772936Y-106615000D01*
%TO.C,U8*%
X112960000Y-138700000D02*
X112960000Y-136750000D01*
X102840000Y-138700000D02*
X102840000Y-142150000D01*
X112960000Y-138700000D02*
X112960000Y-140650000D01*
X102840000Y-138700000D02*
X102840000Y-136750000D01*
%TO.C,R2*%
X70722936Y-115085000D02*
X71177064Y-115085000D01*
X70722936Y-113615000D02*
X71177064Y-113615000D01*
%TO.C,C16*%
X91415000Y-104611252D02*
X91415000Y-104088748D01*
X92885000Y-104611252D02*
X92885000Y-104088748D01*
%TO.C,FB1*%
X70097742Y-139490000D02*
X68427258Y-139490000D01*
X70097742Y-141310000D02*
X68427258Y-141310000D01*
%TO.C,R29*%
X59227064Y-134885000D02*
X58772936Y-134885000D01*
X59227064Y-133415000D02*
X58772936Y-133415000D01*
%TO.C,R15*%
X111922936Y-108535000D02*
X112377064Y-108535000D01*
X111922936Y-107065000D02*
X112377064Y-107065000D01*
%TO.C,C11*%
X103638748Y-112635000D02*
X104161252Y-112635000D01*
X103638748Y-111165000D02*
X104161252Y-111165000D01*
%TO.C,C6*%
X71173752Y-115915000D02*
X70651248Y-115915000D01*
X71173752Y-117385000D02*
X70651248Y-117385000D01*
%TO.C,C1*%
X70385000Y-122438748D02*
X70385000Y-122961252D01*
X68915000Y-122438748D02*
X68915000Y-122961252D01*
%TO.C,C5*%
X70161252Y-132735000D02*
X69638748Y-132735000D01*
X70161252Y-131265000D02*
X69638748Y-131265000D01*
%TO.C,R9*%
X58635436Y-143515000D02*
X59089564Y-143515000D01*
X58635436Y-144985000D02*
X59089564Y-144985000D01*
%TO.C,R17*%
X111922936Y-111415000D02*
X112377064Y-111415000D01*
X111922936Y-112885000D02*
X112377064Y-112885000D01*
%TO.C,R36*%
X59227064Y-117035000D02*
X58772936Y-117035000D01*
X59227064Y-115565000D02*
X58772936Y-115565000D01*
%TO.C,U9*%
X64250000Y-122140000D02*
X65050000Y-122140000D01*
X64250000Y-125260000D02*
X63450000Y-125260000D01*
X64250000Y-125260000D02*
X65050000Y-125260000D01*
X64250000Y-122140000D02*
X62450000Y-122140000D01*
%TO.C,R14*%
X111922936Y-104865000D02*
X112377064Y-104865000D01*
X111922936Y-106335000D02*
X112377064Y-106335000D01*
%TO.C,R18*%
X111922936Y-115085000D02*
X112377064Y-115085000D01*
X111922936Y-113615000D02*
X112377064Y-113615000D01*
%TO.C,D1*%
X63380000Y-140860000D02*
X63380000Y-138140000D01*
X63380000Y-140860000D02*
X58400000Y-140860000D01*
X63380000Y-138140000D02*
X58400000Y-138140000D01*
%TO.C,R33*%
X59227064Y-124515000D02*
X58772936Y-124515000D01*
X59227064Y-125985000D02*
X58772936Y-125985000D01*
%TO.C,R22*%
X111922936Y-122715000D02*
X112377064Y-122715000D01*
X111922936Y-124185000D02*
X112377064Y-124185000D01*
%TO.C,C7*%
X94965000Y-136588748D02*
X94965000Y-137111252D01*
X96435000Y-136588748D02*
X96435000Y-137111252D01*
%TO.C,R20*%
X111922936Y-119585000D02*
X112377064Y-119585000D01*
X111922936Y-118115000D02*
X112377064Y-118115000D01*
%TO.C,C15*%
X89165000Y-104598752D02*
X89165000Y-104076248D01*
X90635000Y-104598752D02*
X90635000Y-104076248D01*
%TO.C,R3*%
X80515000Y-104022936D02*
X80515000Y-104477064D01*
X81985000Y-104022936D02*
X81985000Y-104477064D01*
%TO.C,C10*%
X97215000Y-136588748D02*
X97215000Y-137111252D01*
X98685000Y-136588748D02*
X98685000Y-137111252D01*
%TO.C,C2*%
X78365000Y-104548752D02*
X78365000Y-104026248D01*
X79835000Y-104548752D02*
X79835000Y-104026248D01*
%TO.C,R30*%
X59227064Y-131165000D02*
X58772936Y-131165000D01*
X59227064Y-132635000D02*
X58772936Y-132635000D01*
%TO.C,R32*%
X59227064Y-126665000D02*
X58772936Y-126665000D01*
X59227064Y-128135000D02*
X58772936Y-128135000D01*
%TO.C,C13*%
X70161252Y-137065000D02*
X69638748Y-137065000D01*
X70161252Y-138535000D02*
X69638748Y-138535000D01*
%TO.C,FB2*%
X86490000Y-102914758D02*
X86490000Y-104585242D01*
X88310000Y-102914758D02*
X88310000Y-104585242D01*
%TO.C,C14*%
X74738748Y-139665000D02*
X75261252Y-139665000D01*
X74738748Y-141135000D02*
X75261252Y-141135000D01*
%TD*%
M02*
