%TF.GenerationSoftware,KiCad,Pcbnew,(6.0.2)*%
%TF.CreationDate,2022-10-19T15:06:20+05:30*%
%TF.ProjectId,flight_controller,666c6967-6874-45f6-936f-6e74726f6c6c,rev?*%
%TF.SameCoordinates,Original*%
%TF.FileFunction,Soldermask,Bot*%
%TF.FilePolarity,Negative*%
%FSLAX46Y46*%
G04 Gerber Fmt 4.6, Leading zero omitted, Abs format (unit mm)*
G04 Created by KiCad (PCBNEW (6.0.2)) date 2022-10-19 15:06:20*
%MOMM*%
%LPD*%
G01*
G04 APERTURE LIST*
G04 Aperture macros list*
%AMRoundRect*
0 Rectangle with rounded corners*
0 $1 Rounding radius*
0 $2 $3 $4 $5 $6 $7 $8 $9 X,Y pos of 4 corners*
0 Add a 4 corners polygon primitive as box body*
4,1,4,$2,$3,$4,$5,$6,$7,$8,$9,$2,$3,0*
0 Add four circle primitives for the rounded corners*
1,1,$1+$1,$2,$3*
1,1,$1+$1,$4,$5*
1,1,$1+$1,$6,$7*
1,1,$1+$1,$8,$9*
0 Add four rect primitives between the rounded corners*
20,1,$1+$1,$2,$3,$4,$5,0*
20,1,$1+$1,$4,$5,$6,$7,0*
20,1,$1+$1,$6,$7,$8,$9,0*
20,1,$1+$1,$8,$9,$2,$3,0*%
G04 Aperture macros list end*
%ADD10C,3.200000*%
%ADD11R,1.350000X1.350000*%
%ADD12O,1.350000X1.350000*%
%ADD13RoundRect,0.250000X0.350000X0.450000X-0.350000X0.450000X-0.350000X-0.450000X0.350000X-0.450000X0*%
%ADD14RoundRect,0.250000X0.337500X0.475000X-0.337500X0.475000X-0.337500X-0.475000X0.337500X-0.475000X0*%
%ADD15RoundRect,0.250000X-0.450000X0.350000X-0.450000X-0.350000X0.450000X-0.350000X0.450000X0.350000X0*%
%ADD16RoundRect,0.250000X-0.475000X0.337500X-0.475000X-0.337500X0.475000X-0.337500X0.475000X0.337500X0*%
%ADD17RoundRect,0.250000X-0.337500X-0.475000X0.337500X-0.475000X0.337500X0.475000X-0.337500X0.475000X0*%
%ADD18RoundRect,0.250000X0.475000X-0.337500X0.475000X0.337500X-0.475000X0.337500X-0.475000X-0.337500X0*%
%ADD19RoundRect,0.250000X-0.350000X-0.450000X0.350000X-0.450000X0.350000X0.450000X-0.350000X0.450000X0*%
%ADD20RoundRect,0.100000X-0.100000X0.637500X-0.100000X-0.637500X0.100000X-0.637500X0.100000X0.637500X0*%
%ADD21RoundRect,0.150000X-0.150000X0.512500X-0.150000X-0.512500X0.150000X-0.512500X0.150000X0.512500X0*%
%ADD22C,1.500000*%
%ADD23RoundRect,0.087500X0.187500X0.087500X-0.187500X0.087500X-0.187500X-0.087500X0.187500X-0.087500X0*%
%ADD24RoundRect,0.087500X0.087500X0.187500X-0.087500X0.187500X-0.087500X-0.187500X0.087500X-0.187500X0*%
%ADD25RoundRect,0.250000X0.450000X-0.350000X0.450000X0.350000X-0.450000X0.350000X-0.450000X-0.350000X0*%
%ADD26R,0.950000X0.550000*%
%ADD27RoundRect,0.250000X0.450000X-0.325000X0.450000X0.325000X-0.450000X0.325000X-0.450000X-0.325000X0*%
%ADD28R,2.000000X1.500000*%
%ADD29R,2.000000X3.800000*%
%ADD30R,0.800000X1.500000*%
%ADD31R,1.450000X2.000000*%
%ADD32C,0.800000*%
G04 APERTURE END LIST*
D10*
%TO.C,H1*%
X52578000Y-102362000D03*
%TD*%
D11*
%TO.C,J7*%
X116900000Y-106100000D03*
D12*
X116900000Y-108100000D03*
X116900000Y-110100000D03*
X116900000Y-112100000D03*
X116900000Y-114100000D03*
X116900000Y-116100000D03*
X116900000Y-118100000D03*
X116900000Y-120100000D03*
X116900000Y-122100000D03*
X116900000Y-124100000D03*
X116900000Y-126100000D03*
X116900000Y-128100000D03*
X116900000Y-130100000D03*
X116900000Y-132100000D03*
X116900000Y-134100000D03*
X116900000Y-136100000D03*
X116900000Y-138100000D03*
X116900000Y-140100000D03*
X116900000Y-142100000D03*
X116900000Y-144100000D03*
%TD*%
D11*
%TO.C,J8*%
X53100000Y-144050000D03*
D12*
X53100000Y-142050000D03*
X53100000Y-140050000D03*
X53100000Y-138050000D03*
X53100000Y-136050000D03*
X53100000Y-134050000D03*
X53100000Y-132050000D03*
X53100000Y-130050000D03*
X53100000Y-128050000D03*
X53100000Y-126050000D03*
X53100000Y-124050000D03*
X53100000Y-122050000D03*
X53100000Y-120050000D03*
X53100000Y-118050000D03*
X53100000Y-116050000D03*
X53100000Y-114050000D03*
X53100000Y-112050000D03*
X53100000Y-110050000D03*
X53100000Y-108050000D03*
X53100000Y-106050000D03*
%TD*%
D10*
%TO.C,H2*%
X114300000Y-147066000D03*
%TD*%
D11*
%TO.C,J3*%
X108800000Y-102050000D03*
D12*
X110800000Y-102050000D03*
X112800000Y-102050000D03*
X114800000Y-102050000D03*
X116800000Y-102050000D03*
%TD*%
D13*
%TO.C,R13*%
X94234000Y-144272000D03*
X92234000Y-144272000D03*
%TD*%
D11*
%TO.C,J2*%
X65050000Y-101900000D03*
D12*
X63050000Y-101900000D03*
X61050000Y-101900000D03*
X59050000Y-101900000D03*
%TD*%
D14*
%TO.C,C18*%
X108537500Y-137100000D03*
X106462500Y-137100000D03*
%TD*%
%TO.C,C32*%
X62087500Y-120750000D03*
X60012500Y-120750000D03*
%TD*%
%TO.C,C29*%
X59687500Y-142300000D03*
X57612500Y-142300000D03*
%TD*%
%TO.C,C27*%
X59787500Y-134900000D03*
X57712500Y-134900000D03*
%TD*%
D15*
%TO.C,R11*%
X76600000Y-139500000D03*
X76600000Y-141500000D03*
%TD*%
D16*
%TO.C,C19*%
X76250000Y-106812500D03*
X76250000Y-108887500D03*
%TD*%
D17*
%TO.C,C25*%
X80362500Y-140250000D03*
X82437500Y-140250000D03*
%TD*%
D18*
%TO.C,C26*%
X96500000Y-135537500D03*
X96500000Y-133462500D03*
%TD*%
D19*
%TO.C,R28*%
X111014000Y-129794000D03*
X113014000Y-129794000D03*
%TD*%
D20*
%TO.C,U5*%
X85575000Y-133787500D03*
X86225000Y-133787500D03*
X86875000Y-133787500D03*
X87525000Y-133787500D03*
X88175000Y-133787500D03*
X88825000Y-133787500D03*
X89475000Y-133787500D03*
X90125000Y-133787500D03*
X90775000Y-133787500D03*
X91425000Y-133787500D03*
X91425000Y-139512500D03*
X90775000Y-139512500D03*
X90125000Y-139512500D03*
X89475000Y-139512500D03*
X88825000Y-139512500D03*
X88175000Y-139512500D03*
X87525000Y-139512500D03*
X86875000Y-139512500D03*
X86225000Y-139512500D03*
X85575000Y-139512500D03*
%TD*%
D21*
%TO.C,U4*%
X80500000Y-135212500D03*
X81450000Y-135212500D03*
X82400000Y-135212500D03*
X82400000Y-137487500D03*
X80500000Y-137487500D03*
%TD*%
D16*
%TO.C,C22*%
X94000000Y-137862500D03*
X94000000Y-139937500D03*
%TD*%
D22*
%TO.C,Y1*%
X72050000Y-121750000D03*
X72050000Y-126630000D03*
%TD*%
D17*
%TO.C,C20*%
X80512500Y-132500000D03*
X82587500Y-132500000D03*
%TD*%
D16*
%TO.C,C17*%
X108900000Y-139912500D03*
X108900000Y-141987500D03*
%TD*%
D23*
%TO.C,U2*%
X105125000Y-140050000D03*
X105125000Y-140550000D03*
X105125000Y-141050000D03*
X105125000Y-141550000D03*
X105125000Y-142050000D03*
D24*
X104400000Y-142275000D03*
X103900000Y-142275000D03*
X103400000Y-142275000D03*
D23*
X102675000Y-142050000D03*
X102675000Y-141550000D03*
X102675000Y-141050000D03*
X102675000Y-140550000D03*
X102675000Y-140050000D03*
D24*
X103400000Y-139825000D03*
X103900000Y-139825000D03*
X104400000Y-139825000D03*
%TD*%
D18*
%TO.C,C30*%
X73100000Y-138237500D03*
X73100000Y-136162500D03*
%TD*%
D25*
%TO.C,R10*%
X94000000Y-135450000D03*
X94000000Y-133450000D03*
%TD*%
D16*
%TO.C,C31*%
X73050000Y-146012500D03*
X73050000Y-148087500D03*
%TD*%
D11*
%TO.C,J1*%
X75400000Y-101950000D03*
D12*
X73400000Y-101950000D03*
X71400000Y-101950000D03*
X69400000Y-101950000D03*
%TD*%
D14*
%TO.C,C28*%
X59687500Y-144950000D03*
X57612500Y-144950000D03*
%TD*%
D13*
%TO.C,R12*%
X94218000Y-146558000D03*
X92218000Y-146558000D03*
%TD*%
D26*
%TO.C,U3*%
X72825000Y-106875000D03*
X72825000Y-108125000D03*
X72825000Y-109375000D03*
X72825000Y-110625000D03*
X70675000Y-110625000D03*
X70675000Y-109375000D03*
X70675000Y-108125000D03*
X70675000Y-106875000D03*
%TD*%
D27*
%TO.C,D3*%
X76550000Y-145775000D03*
X76550000Y-143725000D03*
%TD*%
D28*
%TO.C,U7*%
X63000000Y-147950000D03*
X63000000Y-145650000D03*
D29*
X69300000Y-145650000D03*
D28*
X63000000Y-143350000D03*
%TD*%
D11*
%TO.C,J5*%
X101050000Y-146000000D03*
D12*
X103050000Y-146000000D03*
X105050000Y-146000000D03*
X107050000Y-146000000D03*
%TD*%
D30*
%TO.C,J4*%
X93650000Y-110800000D03*
X94750000Y-110800000D03*
X95850000Y-110800000D03*
X96950000Y-110800000D03*
X98050000Y-110800000D03*
X99150000Y-110800000D03*
X100250000Y-110800000D03*
X101350000Y-110800000D03*
D31*
X89975000Y-113400000D03*
X89975000Y-105100000D03*
X103725000Y-105100000D03*
X103725000Y-113400000D03*
%TD*%
D28*
%TO.C,U6*%
X62950000Y-139650000D03*
D29*
X69250000Y-137350000D03*
D28*
X62950000Y-137350000D03*
X62950000Y-135050000D03*
%TD*%
D19*
%TO.C,R27*%
X111030000Y-127000000D03*
X113030000Y-127000000D03*
%TD*%
D32*
X73600000Y-116925500D03*
X81025000Y-116825000D03*
X92125000Y-106375000D03*
X82300000Y-113750000D03*
X86578063Y-130355908D03*
X65200000Y-141650000D03*
X65000000Y-134400000D03*
X85344000Y-141732000D03*
X93700000Y-114300000D03*
X95100000Y-108700000D03*
X95618347Y-106287411D03*
X66700000Y-137350000D03*
X107500000Y-107500000D03*
X65300000Y-108150000D03*
X100150000Y-134700000D03*
X75900000Y-126050000D03*
X78700000Y-134950000D03*
X93523299Y-142148701D03*
X85933299Y-137241299D03*
X98725000Y-140075000D03*
X76650000Y-104650000D03*
X76100000Y-121950000D03*
X95450000Y-114200000D03*
X103350000Y-118350000D03*
X102000000Y-106700000D03*
X103900000Y-137800000D03*
X82700000Y-106400000D03*
X71200000Y-124550000D03*
X87630000Y-135723500D03*
X64650000Y-113950000D03*
X109650000Y-144000000D03*
X76400000Y-110750000D03*
X104850000Y-116650000D03*
X109350000Y-106050000D03*
X112395000Y-143129000D03*
X93250000Y-108500000D03*
X96900000Y-139050000D03*
X99350000Y-133150000D03*
X63850000Y-126450000D03*
X97750000Y-117900000D03*
X77550000Y-111600000D03*
X92050000Y-135723500D03*
X99100000Y-108650000D03*
X105650000Y-110400000D03*
X84150000Y-101450000D03*
X101346000Y-140050000D03*
X102000000Y-108700000D03*
X102750000Y-117050000D03*
X106150000Y-122650000D03*
X93750000Y-128200000D03*
X106500000Y-123850000D03*
X94751238Y-128258716D03*
X105300000Y-125300000D03*
X95800000Y-128449500D03*
X106400000Y-125550000D03*
X96100381Y-129402797D03*
X109650000Y-116600000D03*
X102900500Y-125450000D03*
X109700000Y-118850000D03*
X102250000Y-123750000D03*
X103050000Y-122900000D03*
X109700000Y-121050000D03*
X76800000Y-133650000D03*
X61100000Y-133950000D03*
X61150000Y-132150000D03*
X75550000Y-132200000D03*
X93600000Y-116550000D03*
X67250000Y-116650000D03*
X100076000Y-142494000D03*
X109100000Y-133250000D03*
X92550000Y-115700000D03*
X66600000Y-115700000D03*
X64500000Y-118250000D03*
X91254977Y-119745023D03*
X92550000Y-119974489D03*
X64100000Y-116300000D03*
X65100000Y-115550000D03*
X94350000Y-121200000D03*
X64250000Y-112200000D03*
X87850000Y-114700000D03*
X87900000Y-113450000D03*
X65650000Y-112200000D03*
X80850000Y-106700000D03*
X79150000Y-108500000D03*
X67700000Y-106900000D03*
X69000000Y-109100000D03*
X67625000Y-108125000D03*
X102870000Y-129794000D03*
X102870000Y-130810000D03*
X80750000Y-122300000D03*
X81150000Y-127750000D03*
X84050000Y-130300000D03*
X75750000Y-112700000D03*
X67800000Y-110650000D03*
X89500000Y-127150000D03*
X61400000Y-107450000D03*
X92550000Y-122400000D03*
X93000000Y-121150000D03*
X61550000Y-105500000D03*
X97350000Y-120450000D03*
X95750000Y-118550000D03*
X87630000Y-108204000D03*
X87550000Y-130000000D03*
X84950000Y-113750000D03*
X85600000Y-129100000D03*
X83750000Y-113550000D03*
X89500000Y-108300000D03*
X86125500Y-113800011D03*
X88392000Y-108966000D03*
X88850000Y-130350000D03*
X87630000Y-141986000D03*
X86360000Y-142240000D03*
X84074000Y-142240000D03*
X63650000Y-121400000D03*
X88646000Y-141732000D03*
X84650000Y-136300000D03*
X84250000Y-139200000D03*
X109250000Y-131100000D03*
X98806000Y-142240000D03*
M02*
