%TF.GenerationSoftware,KiCad,Pcbnew,(6.0.2)*%
%TF.CreationDate,2022-10-19T15:06:20+05:30*%
%TF.ProjectId,flight_controller,666c6967-6874-45f6-936f-6e74726f6c6c,rev?*%
%TF.SameCoordinates,Original*%
%TF.FileFunction,Soldermask,Top*%
%TF.FilePolarity,Negative*%
%FSLAX46Y46*%
G04 Gerber Fmt 4.6, Leading zero omitted, Abs format (unit mm)*
G04 Created by KiCad (PCBNEW (6.0.2)) date 2022-10-19 15:06:20*
%MOMM*%
%LPD*%
G01*
G04 APERTURE LIST*
G04 Aperture macros list*
%AMRoundRect*
0 Rectangle with rounded corners*
0 $1 Rounding radius*
0 $2 $3 $4 $5 $6 $7 $8 $9 X,Y pos of 4 corners*
0 Add a 4 corners polygon primitive as box body*
4,1,4,$2,$3,$4,$5,$6,$7,$8,$9,$2,$3,0*
0 Add four circle primitives for the rounded corners*
1,1,$1+$1,$2,$3*
1,1,$1+$1,$4,$5*
1,1,$1+$1,$6,$7*
1,1,$1+$1,$8,$9*
0 Add four rect primitives between the rounded corners*
20,1,$1+$1,$2,$3,$4,$5,0*
20,1,$1+$1,$4,$5,$6,$7,0*
20,1,$1+$1,$6,$7,$8,$9,0*
20,1,$1+$1,$8,$9,$2,$3,0*%
%AMFreePoly0*
4,1,22,0.500000,-0.750000,0.000000,-0.750000,0.000000,-0.745033,-0.079941,-0.743568,-0.215256,-0.701293,-0.333266,-0.622738,-0.424486,-0.514219,-0.481581,-0.384460,-0.499164,-0.250000,-0.500000,-0.250000,-0.500000,0.250000,-0.499164,0.250000,-0.499963,0.256109,-0.478152,0.396186,-0.417904,0.524511,-0.324060,0.630769,-0.204165,0.706417,-0.067858,0.745374,0.000000,0.744959,0.000000,0.750000,
0.500000,0.750000,0.500000,-0.750000,0.500000,-0.750000,$1*%
%AMFreePoly1*
4,1,20,0.000000,0.744959,0.073905,0.744508,0.209726,0.703889,0.328688,0.626782,0.421226,0.519385,0.479903,0.390333,0.500000,0.250000,0.500000,-0.250000,0.499851,-0.262216,0.476331,-0.402017,0.414519,-0.529596,0.319384,-0.634700,0.198574,-0.708877,0.061801,-0.746166,0.000000,-0.745033,0.000000,-0.750000,-0.500000,-0.750000,-0.500000,0.750000,0.000000,0.750000,0.000000,0.744959,
0.000000,0.744959,$1*%
%AMFreePoly2*
4,1,22,0.550000,-0.750000,0.000000,-0.750000,0.000000,-0.745033,-0.079941,-0.743568,-0.215256,-0.701293,-0.333266,-0.622738,-0.424486,-0.514219,-0.481581,-0.384460,-0.499164,-0.250000,-0.500000,-0.250000,-0.500000,0.250000,-0.499164,0.250000,-0.499963,0.256109,-0.478152,0.396186,-0.417904,0.524511,-0.324060,0.630769,-0.204165,0.706417,-0.067858,0.745374,0.000000,0.744959,0.000000,0.750000,
0.550000,0.750000,0.550000,-0.750000,0.550000,-0.750000,$1*%
%AMFreePoly3*
4,1,20,0.000000,0.744959,0.073905,0.744508,0.209726,0.703889,0.328688,0.626782,0.421226,0.519385,0.479903,0.390333,0.500000,0.250000,0.500000,-0.250000,0.499851,-0.262216,0.476331,-0.402017,0.414519,-0.529596,0.319384,-0.634700,0.198574,-0.708877,0.061801,-0.746166,0.000000,-0.745033,0.000000,-0.750000,-0.550000,-0.750000,-0.550000,0.750000,0.000000,0.750000,0.000000,0.744959,
0.000000,0.744959,$1*%
G04 Aperture macros list end*
%ADD10RoundRect,0.250000X-0.350000X-0.450000X0.350000X-0.450000X0.350000X0.450000X-0.350000X0.450000X0*%
%ADD11RoundRect,0.250000X0.350000X0.450000X-0.350000X0.450000X-0.350000X-0.450000X0.350000X-0.450000X0*%
%ADD12RoundRect,0.250000X0.337500X0.475000X-0.337500X0.475000X-0.337500X-0.475000X0.337500X-0.475000X0*%
%ADD13RoundRect,0.250000X0.450000X-0.350000X0.450000X0.350000X-0.450000X0.350000X-0.450000X-0.350000X0*%
%ADD14RoundRect,0.075000X-0.662500X-0.075000X0.662500X-0.075000X0.662500X0.075000X-0.662500X0.075000X0*%
%ADD15RoundRect,0.075000X-0.075000X-0.662500X0.075000X-0.662500X0.075000X0.662500X-0.075000X0.662500X0*%
%ADD16RoundRect,0.250000X0.475000X-0.337500X0.475000X0.337500X-0.475000X0.337500X-0.475000X-0.337500X0*%
%ADD17FreePoly0,90.000000*%
%ADD18FreePoly1,90.000000*%
%ADD19RoundRect,0.150000X-0.150000X0.587500X-0.150000X-0.587500X0.150000X-0.587500X0.150000X0.587500X0*%
%ADD20C,3.200000*%
%ADD21R,1.350000X1.350000*%
%ADD22O,1.350000X1.350000*%
%ADD23RoundRect,0.250000X-0.475000X0.337500X-0.475000X-0.337500X0.475000X-0.337500X0.475000X0.337500X0*%
%ADD24R,0.300000X1.000000*%
%ADD25R,1.650000X1.300000*%
%ADD26RoundRect,0.250000X-0.337500X-0.475000X0.337500X-0.475000X0.337500X0.475000X-0.337500X0.475000X0*%
%ADD27FreePoly2,0.000000*%
%ADD28R,1.000000X1.500000*%
%ADD29FreePoly3,0.000000*%
%ADD30RoundRect,0.150000X0.150000X-0.825000X0.150000X0.825000X-0.150000X0.825000X-0.150000X-0.825000X0*%
%ADD31RoundRect,0.250000X0.362500X0.700000X-0.362500X0.700000X-0.362500X-0.700000X0.362500X-0.700000X0*%
%ADD32RoundRect,0.150000X-0.512500X-0.150000X0.512500X-0.150000X0.512500X0.150000X-0.512500X0.150000X0*%
%ADD33R,1.400000X2.100000*%
%ADD34RoundRect,0.250000X-0.450000X0.350000X-0.450000X-0.350000X0.450000X-0.350000X0.450000X0.350000X0*%
%ADD35RoundRect,0.250000X-0.700000X0.362500X-0.700000X-0.362500X0.700000X-0.362500X0.700000X0.362500X0*%
%ADD36C,1.500000*%
%ADD37C,0.800000*%
G04 APERTURE END LIST*
D10*
%TO.C,R25*%
X111150000Y-130550000D03*
X113150000Y-130550000D03*
%TD*%
%TO.C,R26*%
X111150000Y-133350000D03*
X113150000Y-133350000D03*
%TD*%
D11*
%TO.C,R34*%
X60000000Y-123000000D03*
X58000000Y-123000000D03*
%TD*%
D12*
%TO.C,C3*%
X64675000Y-132150000D03*
X62600000Y-132150000D03*
%TD*%
D10*
%TO.C,R24*%
X111150000Y-128050000D03*
X113150000Y-128050000D03*
%TD*%
D13*
%TO.C,R7*%
X97600000Y-105200000D03*
X97600000Y-103200000D03*
%TD*%
D14*
%TO.C,U1*%
X78437500Y-113000000D03*
X78437500Y-113500000D03*
X78437500Y-114000000D03*
X78437500Y-114500000D03*
X78437500Y-115000000D03*
X78437500Y-115500000D03*
X78437500Y-116000000D03*
X78437500Y-116500000D03*
X78437500Y-117000000D03*
X78437500Y-117500000D03*
X78437500Y-118000000D03*
X78437500Y-118500000D03*
X78437500Y-119000000D03*
X78437500Y-119500000D03*
X78437500Y-120000000D03*
X78437500Y-120500000D03*
X78437500Y-121000000D03*
X78437500Y-121500000D03*
X78437500Y-122000000D03*
X78437500Y-122500000D03*
X78437500Y-123000000D03*
X78437500Y-123500000D03*
X78437500Y-124000000D03*
X78437500Y-124500000D03*
X78437500Y-125000000D03*
X78437500Y-125500000D03*
X78437500Y-126000000D03*
X78437500Y-126500000D03*
X78437500Y-127000000D03*
X78437500Y-127500000D03*
X78437500Y-128000000D03*
X78437500Y-128500000D03*
X78437500Y-129000000D03*
X78437500Y-129500000D03*
X78437500Y-130000000D03*
X78437500Y-130500000D03*
D15*
X80350000Y-132412500D03*
X80850000Y-132412500D03*
X81350000Y-132412500D03*
X81850000Y-132412500D03*
X82350000Y-132412500D03*
X82850000Y-132412500D03*
X83350000Y-132412500D03*
X83850000Y-132412500D03*
X84350000Y-132412500D03*
X84850000Y-132412500D03*
X85350000Y-132412500D03*
X85850000Y-132412500D03*
X86350000Y-132412500D03*
X86850000Y-132412500D03*
X87350000Y-132412500D03*
X87850000Y-132412500D03*
X88350000Y-132412500D03*
X88850000Y-132412500D03*
X89350000Y-132412500D03*
X89850000Y-132412500D03*
X90350000Y-132412500D03*
X90850000Y-132412500D03*
X91350000Y-132412500D03*
X91850000Y-132412500D03*
X92350000Y-132412500D03*
X92850000Y-132412500D03*
X93350000Y-132412500D03*
X93850000Y-132412500D03*
X94350000Y-132412500D03*
X94850000Y-132412500D03*
X95350000Y-132412500D03*
X95850000Y-132412500D03*
X96350000Y-132412500D03*
X96850000Y-132412500D03*
X97350000Y-132412500D03*
X97850000Y-132412500D03*
D14*
X99762500Y-130500000D03*
X99762500Y-130000000D03*
X99762500Y-129500000D03*
X99762500Y-129000000D03*
X99762500Y-128500000D03*
X99762500Y-128000000D03*
X99762500Y-127500000D03*
X99762500Y-127000000D03*
X99762500Y-126500000D03*
X99762500Y-126000000D03*
X99762500Y-125500000D03*
X99762500Y-125000000D03*
X99762500Y-124500000D03*
X99762500Y-124000000D03*
X99762500Y-123500000D03*
X99762500Y-123000000D03*
X99762500Y-122500000D03*
X99762500Y-122000000D03*
X99762500Y-121500000D03*
X99762500Y-121000000D03*
X99762500Y-120500000D03*
X99762500Y-120000000D03*
X99762500Y-119500000D03*
X99762500Y-119000000D03*
X99762500Y-118500000D03*
X99762500Y-118000000D03*
X99762500Y-117500000D03*
X99762500Y-117000000D03*
X99762500Y-116500000D03*
X99762500Y-116000000D03*
X99762500Y-115500000D03*
X99762500Y-115000000D03*
X99762500Y-114500000D03*
X99762500Y-114000000D03*
X99762500Y-113500000D03*
X99762500Y-113000000D03*
D15*
X97850000Y-111087500D03*
X97350000Y-111087500D03*
X96850000Y-111087500D03*
X96350000Y-111087500D03*
X95850000Y-111087500D03*
X95350000Y-111087500D03*
X94850000Y-111087500D03*
X94350000Y-111087500D03*
X93850000Y-111087500D03*
X93350000Y-111087500D03*
X92850000Y-111087500D03*
X92350000Y-111087500D03*
X91850000Y-111087500D03*
X91350000Y-111087500D03*
X90850000Y-111087500D03*
X90350000Y-111087500D03*
X89850000Y-111087500D03*
X89350000Y-111087500D03*
X88850000Y-111087500D03*
X88350000Y-111087500D03*
X87850000Y-111087500D03*
X87350000Y-111087500D03*
X86850000Y-111087500D03*
X86350000Y-111087500D03*
X85850000Y-111087500D03*
X85350000Y-111087500D03*
X84850000Y-111087500D03*
X84350000Y-111087500D03*
X83850000Y-111087500D03*
X83350000Y-111087500D03*
X82850000Y-111087500D03*
X82350000Y-111087500D03*
X81850000Y-111087500D03*
X81350000Y-111087500D03*
X80850000Y-111087500D03*
X80350000Y-111087500D03*
%TD*%
D16*
%TO.C,C4*%
X69650000Y-127837500D03*
X69650000Y-125762500D03*
%TD*%
D17*
%TO.C,JP2*%
X103600000Y-121350000D03*
D18*
X103600000Y-120050000D03*
%TD*%
D11*
%TO.C,R38*%
X60000000Y-111700000D03*
X58000000Y-111700000D03*
%TD*%
D13*
%TO.C,R8*%
X95200000Y-105200000D03*
X95200000Y-103200000D03*
%TD*%
D19*
%TO.C,D2*%
X73750000Y-143862500D03*
X71850000Y-143862500D03*
X72800000Y-145737500D03*
%TD*%
D11*
%TO.C,R35*%
X60000000Y-118600000D03*
X58000000Y-118600000D03*
%TD*%
D20*
%TO.C,H1*%
X52578000Y-102362000D03*
%TD*%
D21*
%TO.C,J7*%
X116900000Y-106100000D03*
D22*
X116900000Y-108100000D03*
X116900000Y-110100000D03*
X116900000Y-112100000D03*
X116900000Y-114100000D03*
X116900000Y-116100000D03*
X116900000Y-118100000D03*
X116900000Y-120100000D03*
X116900000Y-122100000D03*
X116900000Y-124100000D03*
X116900000Y-126100000D03*
X116900000Y-128100000D03*
X116900000Y-130100000D03*
X116900000Y-132100000D03*
X116900000Y-134100000D03*
X116900000Y-136100000D03*
X116900000Y-138100000D03*
X116900000Y-140100000D03*
X116900000Y-142100000D03*
X116900000Y-144100000D03*
%TD*%
D13*
%TO.C,R5*%
X104200000Y-105200000D03*
X104200000Y-103200000D03*
%TD*%
D23*
%TO.C,C9*%
X80950000Y-135012500D03*
X80950000Y-137087500D03*
%TD*%
D24*
%TO.C,J6*%
X85150000Y-144450000D03*
X85650000Y-144450000D03*
X86150000Y-144450000D03*
X86650000Y-144450000D03*
X87150000Y-144450000D03*
X87650000Y-144450000D03*
X88150000Y-144450000D03*
X88650000Y-144450000D03*
D25*
X82875000Y-146350000D03*
X90925000Y-146350000D03*
%TD*%
D26*
%TO.C,C8*%
X102962500Y-114400000D03*
X105037500Y-114400000D03*
%TD*%
D21*
%TO.C,J8*%
X53100000Y-144050000D03*
D22*
X53100000Y-142050000D03*
X53100000Y-140050000D03*
X53100000Y-138050000D03*
X53100000Y-136050000D03*
X53100000Y-134050000D03*
X53100000Y-132050000D03*
X53100000Y-130050000D03*
X53100000Y-128050000D03*
X53100000Y-126050000D03*
X53100000Y-124050000D03*
X53100000Y-122050000D03*
X53100000Y-120050000D03*
X53100000Y-118050000D03*
X53100000Y-116050000D03*
X53100000Y-114050000D03*
X53100000Y-112050000D03*
X53100000Y-110050000D03*
X53100000Y-108050000D03*
X53100000Y-106050000D03*
%TD*%
D12*
%TO.C,C21*%
X64287500Y-144200000D03*
X62212500Y-144200000D03*
%TD*%
D10*
%TO.C,R21*%
X111150000Y-121100000D03*
X113150000Y-121100000D03*
%TD*%
D11*
%TO.C,R37*%
X60000000Y-113950000D03*
X58000000Y-113950000D03*
%TD*%
%TO.C,R39*%
X60000000Y-109500000D03*
X58000000Y-109500000D03*
%TD*%
D12*
%TO.C,C23*%
X64837500Y-136400000D03*
X62762500Y-136400000D03*
%TD*%
D11*
%TO.C,R1*%
X70950000Y-135450000D03*
X68950000Y-135450000D03*
%TD*%
D12*
%TO.C,C24*%
X59900000Y-146700000D03*
X57825000Y-146700000D03*
%TD*%
D13*
%TO.C,R4*%
X102000000Y-105200000D03*
X102000000Y-103200000D03*
%TD*%
D11*
%TO.C,R31*%
X60000000Y-129650000D03*
X58000000Y-129650000D03*
%TD*%
D10*
%TO.C,R19*%
X111150000Y-116600000D03*
X113150000Y-116600000D03*
%TD*%
%TO.C,R23*%
X111150000Y-125750000D03*
X113150000Y-125750000D03*
%TD*%
D27*
%TO.C,JP1*%
X82700000Y-108000000D03*
D28*
X84000000Y-108000000D03*
D29*
X85300000Y-108000000D03*
%TD*%
D11*
%TO.C,R41*%
X60000000Y-105100000D03*
X58000000Y-105100000D03*
%TD*%
D13*
%TO.C,R6*%
X99850000Y-105200000D03*
X99850000Y-103200000D03*
%TD*%
D16*
%TO.C,C12*%
X84850000Y-105437500D03*
X84850000Y-103362500D03*
%TD*%
D10*
%TO.C,R16*%
X111150000Y-109950000D03*
X113150000Y-109950000D03*
%TD*%
D11*
%TO.C,R40*%
X60000000Y-107350000D03*
X58000000Y-107350000D03*
%TD*%
D30*
%TO.C,U8*%
X103455000Y-141175000D03*
X104725000Y-141175000D03*
X105995000Y-141175000D03*
X107265000Y-141175000D03*
X108535000Y-141175000D03*
X109805000Y-141175000D03*
X111075000Y-141175000D03*
X112345000Y-141175000D03*
X112345000Y-136225000D03*
X111075000Y-136225000D03*
X109805000Y-136225000D03*
X108535000Y-136225000D03*
X107265000Y-136225000D03*
X105995000Y-136225000D03*
X104725000Y-136225000D03*
X103455000Y-136225000D03*
%TD*%
D10*
%TO.C,R2*%
X69950000Y-114350000D03*
X71950000Y-114350000D03*
%TD*%
D16*
%TO.C,C16*%
X92150000Y-105387500D03*
X92150000Y-103312500D03*
%TD*%
D31*
%TO.C,FB1*%
X70925000Y-140400000D03*
X67600000Y-140400000D03*
%TD*%
D11*
%TO.C,R29*%
X60000000Y-134150000D03*
X58000000Y-134150000D03*
%TD*%
D10*
%TO.C,R15*%
X111150000Y-107800000D03*
X113150000Y-107800000D03*
%TD*%
D26*
%TO.C,C11*%
X102862500Y-111900000D03*
X104937500Y-111900000D03*
%TD*%
D12*
%TO.C,C6*%
X71950000Y-116650000D03*
X69875000Y-116650000D03*
%TD*%
D23*
%TO.C,C1*%
X69650000Y-121662500D03*
X69650000Y-123737500D03*
%TD*%
D12*
%TO.C,C5*%
X70937500Y-132000000D03*
X68862500Y-132000000D03*
%TD*%
D10*
%TO.C,R9*%
X57862500Y-144250000D03*
X59862500Y-144250000D03*
%TD*%
%TO.C,R17*%
X111150000Y-112150000D03*
X113150000Y-112150000D03*
%TD*%
D11*
%TO.C,R36*%
X60000000Y-116300000D03*
X58000000Y-116300000D03*
%TD*%
D32*
%TO.C,U9*%
X63112500Y-122750000D03*
X63112500Y-123700000D03*
X63112500Y-124650000D03*
X65387500Y-124650000D03*
X65387500Y-123700000D03*
X65387500Y-122750000D03*
%TD*%
D20*
%TO.C,H2*%
X114300000Y-147066000D03*
%TD*%
D10*
%TO.C,R14*%
X111150000Y-105600000D03*
X113150000Y-105600000D03*
%TD*%
%TO.C,R18*%
X111150000Y-114350000D03*
X113150000Y-114350000D03*
%TD*%
D33*
%TO.C,D1*%
X62500000Y-139500000D03*
X58100000Y-139500000D03*
%TD*%
D11*
%TO.C,R33*%
X60000000Y-125250000D03*
X58000000Y-125250000D03*
%TD*%
D10*
%TO.C,R22*%
X111150000Y-123450000D03*
X113150000Y-123450000D03*
%TD*%
D23*
%TO.C,C7*%
X95700000Y-135812500D03*
X95700000Y-137887500D03*
%TD*%
D10*
%TO.C,R20*%
X111150000Y-118850000D03*
X113150000Y-118850000D03*
%TD*%
D16*
%TO.C,C15*%
X89900000Y-105375000D03*
X89900000Y-103300000D03*
%TD*%
D34*
%TO.C,R3*%
X81250000Y-103250000D03*
X81250000Y-105250000D03*
%TD*%
D23*
%TO.C,C10*%
X97950000Y-135812500D03*
X97950000Y-137887500D03*
%TD*%
D16*
%TO.C,C2*%
X79100000Y-105325000D03*
X79100000Y-103250000D03*
%TD*%
D11*
%TO.C,R30*%
X60000000Y-131900000D03*
X58000000Y-131900000D03*
%TD*%
%TO.C,R32*%
X60000000Y-127400000D03*
X58000000Y-127400000D03*
%TD*%
D12*
%TO.C,C13*%
X70937500Y-137800000D03*
X68862500Y-137800000D03*
%TD*%
D35*
%TO.C,FB2*%
X87400000Y-102087500D03*
X87400000Y-105412500D03*
%TD*%
D26*
%TO.C,C14*%
X73962500Y-140400000D03*
X76037500Y-140400000D03*
%TD*%
D21*
%TO.C,J3*%
X108800000Y-102050000D03*
D22*
X110800000Y-102050000D03*
X112800000Y-102050000D03*
X114800000Y-102050000D03*
X116800000Y-102050000D03*
%TD*%
D21*
%TO.C,J2*%
X65050000Y-101900000D03*
D22*
X63050000Y-101900000D03*
X61050000Y-101900000D03*
X59050000Y-101900000D03*
%TD*%
D36*
%TO.C,Y1*%
X72050000Y-121750000D03*
X72050000Y-126630000D03*
%TD*%
D21*
%TO.C,J1*%
X75400000Y-101950000D03*
D22*
X73400000Y-101950000D03*
X71400000Y-101950000D03*
X69400000Y-101950000D03*
%TD*%
D21*
%TO.C,J5*%
X101050000Y-146000000D03*
D22*
X103050000Y-146000000D03*
X105050000Y-146000000D03*
X107050000Y-146000000D03*
%TD*%
D37*
X73600000Y-116925500D03*
X81025000Y-116825000D03*
X92125000Y-106375000D03*
X82300000Y-113750000D03*
X86578063Y-130355908D03*
X65200000Y-141650000D03*
X65000000Y-134400000D03*
X85344000Y-141732000D03*
X93700000Y-114300000D03*
X95100000Y-108700000D03*
X95618347Y-106287411D03*
X66700000Y-137350000D03*
X107500000Y-107500000D03*
X65300000Y-108150000D03*
X100150000Y-134700000D03*
X75900000Y-126050000D03*
X78700000Y-134950000D03*
X93523299Y-142148701D03*
X85933299Y-137241299D03*
X98725000Y-140075000D03*
X76650000Y-104650000D03*
X76100000Y-121950000D03*
X95450000Y-114200000D03*
X103350000Y-118350000D03*
X102000000Y-106700000D03*
X103900000Y-137800000D03*
X82700000Y-106400000D03*
X71200000Y-124550000D03*
X87630000Y-135723500D03*
X64650000Y-113950000D03*
X109650000Y-144000000D03*
X76400000Y-110750000D03*
X104850000Y-116650000D03*
X109350000Y-106050000D03*
X112395000Y-143129000D03*
X93250000Y-108500000D03*
X96900000Y-139050000D03*
X99350000Y-133150000D03*
X63850000Y-126450000D03*
X97750000Y-117900000D03*
X77550000Y-111600000D03*
X92050000Y-135723500D03*
X99100000Y-108650000D03*
X105650000Y-110400000D03*
X84150000Y-101450000D03*
X101346000Y-140050000D03*
X102000000Y-108700000D03*
X102750000Y-117050000D03*
X106150000Y-122650000D03*
X93750000Y-128200000D03*
X106500000Y-123850000D03*
X94751238Y-128258716D03*
X105300000Y-125300000D03*
X95800000Y-128449500D03*
X106400000Y-125550000D03*
X96100381Y-129402797D03*
X109650000Y-116600000D03*
X102900500Y-125450000D03*
X109700000Y-118850000D03*
X102250000Y-123750000D03*
X103050000Y-122900000D03*
X109700000Y-121050000D03*
X76800000Y-133650000D03*
X61100000Y-133950000D03*
X61150000Y-132150000D03*
X75550000Y-132200000D03*
X93600000Y-116550000D03*
X67250000Y-116650000D03*
X100076000Y-142494000D03*
X109100000Y-133250000D03*
X92550000Y-115700000D03*
X66600000Y-115700000D03*
X64500000Y-118250000D03*
X91254977Y-119745023D03*
X92550000Y-119974489D03*
X64100000Y-116300000D03*
X65100000Y-115550000D03*
X94350000Y-121200000D03*
X64250000Y-112200000D03*
X87850000Y-114700000D03*
X87900000Y-113450000D03*
X65650000Y-112200000D03*
X80850000Y-106700000D03*
X79150000Y-108500000D03*
X67700000Y-106900000D03*
X69000000Y-109100000D03*
X67625000Y-108125000D03*
X102870000Y-129794000D03*
X102870000Y-130810000D03*
X80750000Y-122300000D03*
X81150000Y-127750000D03*
X84050000Y-130300000D03*
X75750000Y-112700000D03*
X67800000Y-110650000D03*
X89500000Y-127150000D03*
X61400000Y-107450000D03*
X92550000Y-122400000D03*
X93000000Y-121150000D03*
X61550000Y-105500000D03*
X97350000Y-120450000D03*
X95750000Y-118550000D03*
X87630000Y-108204000D03*
X87550000Y-130000000D03*
X84950000Y-113750000D03*
X85600000Y-129100000D03*
X83750000Y-113550000D03*
X89500000Y-108300000D03*
X86125500Y-113800011D03*
X88392000Y-108966000D03*
X88850000Y-130350000D03*
X87630000Y-141986000D03*
X86360000Y-142240000D03*
X84074000Y-142240000D03*
X63650000Y-121400000D03*
X88646000Y-141732000D03*
X84650000Y-136300000D03*
X84250000Y-139200000D03*
X109250000Y-131100000D03*
X98806000Y-142240000D03*
M02*
