%TF.GenerationSoftware,KiCad,Pcbnew,(6.0.2)*%
%TF.CreationDate,2022-10-19T15:06:20+05:30*%
%TF.ProjectId,flight_controller,666c6967-6874-45f6-936f-6e74726f6c6c,rev?*%
%TF.SameCoordinates,Original*%
%TF.FileFunction,Paste,Top*%
%TF.FilePolarity,Positive*%
%FSLAX46Y46*%
G04 Gerber Fmt 4.6, Leading zero omitted, Abs format (unit mm)*
G04 Created by KiCad (PCBNEW (6.0.2)) date 2022-10-19 15:06:20*
%MOMM*%
%LPD*%
G01*
G04 APERTURE LIST*
G04 Aperture macros list*
%AMRoundRect*
0 Rectangle with rounded corners*
0 $1 Rounding radius*
0 $2 $3 $4 $5 $6 $7 $8 $9 X,Y pos of 4 corners*
0 Add a 4 corners polygon primitive as box body*
4,1,4,$2,$3,$4,$5,$6,$7,$8,$9,$2,$3,0*
0 Add four circle primitives for the rounded corners*
1,1,$1+$1,$2,$3*
1,1,$1+$1,$4,$5*
1,1,$1+$1,$6,$7*
1,1,$1+$1,$8,$9*
0 Add four rect primitives between the rounded corners*
20,1,$1+$1,$2,$3,$4,$5,0*
20,1,$1+$1,$4,$5,$6,$7,0*
20,1,$1+$1,$6,$7,$8,$9,0*
20,1,$1+$1,$8,$9,$2,$3,0*%
G04 Aperture macros list end*
%ADD10RoundRect,0.250000X-0.350000X-0.450000X0.350000X-0.450000X0.350000X0.450000X-0.350000X0.450000X0*%
%ADD11RoundRect,0.250000X0.350000X0.450000X-0.350000X0.450000X-0.350000X-0.450000X0.350000X-0.450000X0*%
%ADD12RoundRect,0.250000X0.337500X0.475000X-0.337500X0.475000X-0.337500X-0.475000X0.337500X-0.475000X0*%
%ADD13RoundRect,0.250000X0.450000X-0.350000X0.450000X0.350000X-0.450000X0.350000X-0.450000X-0.350000X0*%
%ADD14RoundRect,0.075000X-0.662500X-0.075000X0.662500X-0.075000X0.662500X0.075000X-0.662500X0.075000X0*%
%ADD15RoundRect,0.075000X-0.075000X-0.662500X0.075000X-0.662500X0.075000X0.662500X-0.075000X0.662500X0*%
%ADD16RoundRect,0.250000X0.475000X-0.337500X0.475000X0.337500X-0.475000X0.337500X-0.475000X-0.337500X0*%
%ADD17RoundRect,0.150000X-0.150000X0.587500X-0.150000X-0.587500X0.150000X-0.587500X0.150000X0.587500X0*%
%ADD18RoundRect,0.250000X-0.475000X0.337500X-0.475000X-0.337500X0.475000X-0.337500X0.475000X0.337500X0*%
%ADD19R,0.300000X1.000000*%
%ADD20R,1.650000X1.300000*%
%ADD21RoundRect,0.250000X-0.337500X-0.475000X0.337500X-0.475000X0.337500X0.475000X-0.337500X0.475000X0*%
%ADD22RoundRect,0.150000X0.150000X-0.825000X0.150000X0.825000X-0.150000X0.825000X-0.150000X-0.825000X0*%
%ADD23RoundRect,0.250000X0.362500X0.700000X-0.362500X0.700000X-0.362500X-0.700000X0.362500X-0.700000X0*%
%ADD24RoundRect,0.150000X-0.512500X-0.150000X0.512500X-0.150000X0.512500X0.150000X-0.512500X0.150000X0*%
%ADD25R,1.400000X2.100000*%
%ADD26RoundRect,0.250000X-0.450000X0.350000X-0.450000X-0.350000X0.450000X-0.350000X0.450000X0.350000X0*%
%ADD27RoundRect,0.250000X-0.700000X0.362500X-0.700000X-0.362500X0.700000X-0.362500X0.700000X0.362500X0*%
G04 APERTURE END LIST*
D10*
%TO.C,R25*%
X111150000Y-130550000D03*
X113150000Y-130550000D03*
%TD*%
%TO.C,R26*%
X111150000Y-133350000D03*
X113150000Y-133350000D03*
%TD*%
D11*
%TO.C,R34*%
X60000000Y-123000000D03*
X58000000Y-123000000D03*
%TD*%
D12*
%TO.C,C3*%
X64675000Y-132150000D03*
X62600000Y-132150000D03*
%TD*%
D10*
%TO.C,R24*%
X111150000Y-128050000D03*
X113150000Y-128050000D03*
%TD*%
D13*
%TO.C,R7*%
X97600000Y-105200000D03*
X97600000Y-103200000D03*
%TD*%
D14*
%TO.C,U1*%
X78437500Y-113000000D03*
X78437500Y-113500000D03*
X78437500Y-114000000D03*
X78437500Y-114500000D03*
X78437500Y-115000000D03*
X78437500Y-115500000D03*
X78437500Y-116000000D03*
X78437500Y-116500000D03*
X78437500Y-117000000D03*
X78437500Y-117500000D03*
X78437500Y-118000000D03*
X78437500Y-118500000D03*
X78437500Y-119000000D03*
X78437500Y-119500000D03*
X78437500Y-120000000D03*
X78437500Y-120500000D03*
X78437500Y-121000000D03*
X78437500Y-121500000D03*
X78437500Y-122000000D03*
X78437500Y-122500000D03*
X78437500Y-123000000D03*
X78437500Y-123500000D03*
X78437500Y-124000000D03*
X78437500Y-124500000D03*
X78437500Y-125000000D03*
X78437500Y-125500000D03*
X78437500Y-126000000D03*
X78437500Y-126500000D03*
X78437500Y-127000000D03*
X78437500Y-127500000D03*
X78437500Y-128000000D03*
X78437500Y-128500000D03*
X78437500Y-129000000D03*
X78437500Y-129500000D03*
X78437500Y-130000000D03*
X78437500Y-130500000D03*
D15*
X80350000Y-132412500D03*
X80850000Y-132412500D03*
X81350000Y-132412500D03*
X81850000Y-132412500D03*
X82350000Y-132412500D03*
X82850000Y-132412500D03*
X83350000Y-132412500D03*
X83850000Y-132412500D03*
X84350000Y-132412500D03*
X84850000Y-132412500D03*
X85350000Y-132412500D03*
X85850000Y-132412500D03*
X86350000Y-132412500D03*
X86850000Y-132412500D03*
X87350000Y-132412500D03*
X87850000Y-132412500D03*
X88350000Y-132412500D03*
X88850000Y-132412500D03*
X89350000Y-132412500D03*
X89850000Y-132412500D03*
X90350000Y-132412500D03*
X90850000Y-132412500D03*
X91350000Y-132412500D03*
X91850000Y-132412500D03*
X92350000Y-132412500D03*
X92850000Y-132412500D03*
X93350000Y-132412500D03*
X93850000Y-132412500D03*
X94350000Y-132412500D03*
X94850000Y-132412500D03*
X95350000Y-132412500D03*
X95850000Y-132412500D03*
X96350000Y-132412500D03*
X96850000Y-132412500D03*
X97350000Y-132412500D03*
X97850000Y-132412500D03*
D14*
X99762500Y-130500000D03*
X99762500Y-130000000D03*
X99762500Y-129500000D03*
X99762500Y-129000000D03*
X99762500Y-128500000D03*
X99762500Y-128000000D03*
X99762500Y-127500000D03*
X99762500Y-127000000D03*
X99762500Y-126500000D03*
X99762500Y-126000000D03*
X99762500Y-125500000D03*
X99762500Y-125000000D03*
X99762500Y-124500000D03*
X99762500Y-124000000D03*
X99762500Y-123500000D03*
X99762500Y-123000000D03*
X99762500Y-122500000D03*
X99762500Y-122000000D03*
X99762500Y-121500000D03*
X99762500Y-121000000D03*
X99762500Y-120500000D03*
X99762500Y-120000000D03*
X99762500Y-119500000D03*
X99762500Y-119000000D03*
X99762500Y-118500000D03*
X99762500Y-118000000D03*
X99762500Y-117500000D03*
X99762500Y-117000000D03*
X99762500Y-116500000D03*
X99762500Y-116000000D03*
X99762500Y-115500000D03*
X99762500Y-115000000D03*
X99762500Y-114500000D03*
X99762500Y-114000000D03*
X99762500Y-113500000D03*
X99762500Y-113000000D03*
D15*
X97850000Y-111087500D03*
X97350000Y-111087500D03*
X96850000Y-111087500D03*
X96350000Y-111087500D03*
X95850000Y-111087500D03*
X95350000Y-111087500D03*
X94850000Y-111087500D03*
X94350000Y-111087500D03*
X93850000Y-111087500D03*
X93350000Y-111087500D03*
X92850000Y-111087500D03*
X92350000Y-111087500D03*
X91850000Y-111087500D03*
X91350000Y-111087500D03*
X90850000Y-111087500D03*
X90350000Y-111087500D03*
X89850000Y-111087500D03*
X89350000Y-111087500D03*
X88850000Y-111087500D03*
X88350000Y-111087500D03*
X87850000Y-111087500D03*
X87350000Y-111087500D03*
X86850000Y-111087500D03*
X86350000Y-111087500D03*
X85850000Y-111087500D03*
X85350000Y-111087500D03*
X84850000Y-111087500D03*
X84350000Y-111087500D03*
X83850000Y-111087500D03*
X83350000Y-111087500D03*
X82850000Y-111087500D03*
X82350000Y-111087500D03*
X81850000Y-111087500D03*
X81350000Y-111087500D03*
X80850000Y-111087500D03*
X80350000Y-111087500D03*
%TD*%
D16*
%TO.C,C4*%
X69650000Y-127837500D03*
X69650000Y-125762500D03*
%TD*%
D11*
%TO.C,R38*%
X60000000Y-111700000D03*
X58000000Y-111700000D03*
%TD*%
D13*
%TO.C,R8*%
X95200000Y-105200000D03*
X95200000Y-103200000D03*
%TD*%
D17*
%TO.C,D2*%
X73750000Y-143862500D03*
X71850000Y-143862500D03*
X72800000Y-145737500D03*
%TD*%
D11*
%TO.C,R35*%
X60000000Y-118600000D03*
X58000000Y-118600000D03*
%TD*%
D13*
%TO.C,R5*%
X104200000Y-105200000D03*
X104200000Y-103200000D03*
%TD*%
D18*
%TO.C,C9*%
X80950000Y-135012500D03*
X80950000Y-137087500D03*
%TD*%
D19*
%TO.C,J6*%
X85150000Y-144450000D03*
X85650000Y-144450000D03*
X86150000Y-144450000D03*
X86650000Y-144450000D03*
X87150000Y-144450000D03*
X87650000Y-144450000D03*
X88150000Y-144450000D03*
X88650000Y-144450000D03*
D20*
X82875000Y-146350000D03*
X90925000Y-146350000D03*
%TD*%
D21*
%TO.C,C8*%
X102962500Y-114400000D03*
X105037500Y-114400000D03*
%TD*%
D12*
%TO.C,C21*%
X64287500Y-144200000D03*
X62212500Y-144200000D03*
%TD*%
D10*
%TO.C,R21*%
X111150000Y-121100000D03*
X113150000Y-121100000D03*
%TD*%
D11*
%TO.C,R37*%
X60000000Y-113950000D03*
X58000000Y-113950000D03*
%TD*%
%TO.C,R39*%
X60000000Y-109500000D03*
X58000000Y-109500000D03*
%TD*%
D12*
%TO.C,C23*%
X64837500Y-136400000D03*
X62762500Y-136400000D03*
%TD*%
D11*
%TO.C,R1*%
X70950000Y-135450000D03*
X68950000Y-135450000D03*
%TD*%
D12*
%TO.C,C24*%
X59900000Y-146700000D03*
X57825000Y-146700000D03*
%TD*%
D13*
%TO.C,R4*%
X102000000Y-105200000D03*
X102000000Y-103200000D03*
%TD*%
D11*
%TO.C,R31*%
X60000000Y-129650000D03*
X58000000Y-129650000D03*
%TD*%
D10*
%TO.C,R19*%
X111150000Y-116600000D03*
X113150000Y-116600000D03*
%TD*%
%TO.C,R23*%
X111150000Y-125750000D03*
X113150000Y-125750000D03*
%TD*%
D11*
%TO.C,R41*%
X60000000Y-105100000D03*
X58000000Y-105100000D03*
%TD*%
D13*
%TO.C,R6*%
X99850000Y-105200000D03*
X99850000Y-103200000D03*
%TD*%
D16*
%TO.C,C12*%
X84850000Y-105437500D03*
X84850000Y-103362500D03*
%TD*%
D10*
%TO.C,R16*%
X111150000Y-109950000D03*
X113150000Y-109950000D03*
%TD*%
D11*
%TO.C,R40*%
X60000000Y-107350000D03*
X58000000Y-107350000D03*
%TD*%
D22*
%TO.C,U8*%
X103455000Y-141175000D03*
X104725000Y-141175000D03*
X105995000Y-141175000D03*
X107265000Y-141175000D03*
X108535000Y-141175000D03*
X109805000Y-141175000D03*
X111075000Y-141175000D03*
X112345000Y-141175000D03*
X112345000Y-136225000D03*
X111075000Y-136225000D03*
X109805000Y-136225000D03*
X108535000Y-136225000D03*
X107265000Y-136225000D03*
X105995000Y-136225000D03*
X104725000Y-136225000D03*
X103455000Y-136225000D03*
%TD*%
D10*
%TO.C,R2*%
X69950000Y-114350000D03*
X71950000Y-114350000D03*
%TD*%
D16*
%TO.C,C16*%
X92150000Y-105387500D03*
X92150000Y-103312500D03*
%TD*%
D23*
%TO.C,FB1*%
X70925000Y-140400000D03*
X67600000Y-140400000D03*
%TD*%
D11*
%TO.C,R29*%
X60000000Y-134150000D03*
X58000000Y-134150000D03*
%TD*%
D10*
%TO.C,R15*%
X111150000Y-107800000D03*
X113150000Y-107800000D03*
%TD*%
D21*
%TO.C,C11*%
X102862500Y-111900000D03*
X104937500Y-111900000D03*
%TD*%
D12*
%TO.C,C6*%
X71950000Y-116650000D03*
X69875000Y-116650000D03*
%TD*%
D18*
%TO.C,C1*%
X69650000Y-121662500D03*
X69650000Y-123737500D03*
%TD*%
D12*
%TO.C,C5*%
X70937500Y-132000000D03*
X68862500Y-132000000D03*
%TD*%
D10*
%TO.C,R9*%
X57862500Y-144250000D03*
X59862500Y-144250000D03*
%TD*%
%TO.C,R17*%
X111150000Y-112150000D03*
X113150000Y-112150000D03*
%TD*%
D11*
%TO.C,R36*%
X60000000Y-116300000D03*
X58000000Y-116300000D03*
%TD*%
D24*
%TO.C,U9*%
X63112500Y-122750000D03*
X63112500Y-123700000D03*
X63112500Y-124650000D03*
X65387500Y-124650000D03*
X65387500Y-123700000D03*
X65387500Y-122750000D03*
%TD*%
D10*
%TO.C,R14*%
X111150000Y-105600000D03*
X113150000Y-105600000D03*
%TD*%
%TO.C,R18*%
X111150000Y-114350000D03*
X113150000Y-114350000D03*
%TD*%
D25*
%TO.C,D1*%
X62500000Y-139500000D03*
X58100000Y-139500000D03*
%TD*%
D11*
%TO.C,R33*%
X60000000Y-125250000D03*
X58000000Y-125250000D03*
%TD*%
D10*
%TO.C,R22*%
X111150000Y-123450000D03*
X113150000Y-123450000D03*
%TD*%
D18*
%TO.C,C7*%
X95700000Y-135812500D03*
X95700000Y-137887500D03*
%TD*%
D10*
%TO.C,R20*%
X111150000Y-118850000D03*
X113150000Y-118850000D03*
%TD*%
D16*
%TO.C,C15*%
X89900000Y-105375000D03*
X89900000Y-103300000D03*
%TD*%
D26*
%TO.C,R3*%
X81250000Y-103250000D03*
X81250000Y-105250000D03*
%TD*%
D18*
%TO.C,C10*%
X97950000Y-135812500D03*
X97950000Y-137887500D03*
%TD*%
D16*
%TO.C,C2*%
X79100000Y-105325000D03*
X79100000Y-103250000D03*
%TD*%
D11*
%TO.C,R30*%
X60000000Y-131900000D03*
X58000000Y-131900000D03*
%TD*%
%TO.C,R32*%
X60000000Y-127400000D03*
X58000000Y-127400000D03*
%TD*%
D12*
%TO.C,C13*%
X70937500Y-137800000D03*
X68862500Y-137800000D03*
%TD*%
D27*
%TO.C,FB2*%
X87400000Y-102087500D03*
X87400000Y-105412500D03*
%TD*%
D21*
%TO.C,C14*%
X73962500Y-140400000D03*
X76037500Y-140400000D03*
%TD*%
M02*
