M48
; DRILL file {KiCad (6.0.2)} date Wed Oct 19 15:06:22 2022
; FORMAT={-:-/ absolute / inch / decimal}
; #@! TF.CreationDate,2022-10-19T15:06:22+05:30
; #@! TF.GenerationSoftware,Kicad,Pcbnew,(6.0.2)
; #@! TF.FileFunction,Plated,1,2,PTH
FMAT,2
INCH
; #@! TA.AperFunction,Plated,PTH,ViaDrill
T1C0.0157
; #@! TA.AperFunction,Plated,PTH,ComponentDrill
T2C0.0315
%
G90
G05
T1
X2.4055Y-5.2736
X2.4075Y-5.2028
X2.4173Y-4.2303
X2.4232Y-4.1535
X2.5059Y-4.7795
X2.5138Y-4.9783
X2.5236Y-4.5787
X2.5295Y-4.4173
X2.5394Y-4.6555
X2.5453Y-4.4862
X2.5591Y-5.2913
X2.563Y-4.5492
X2.5669Y-5.5768
X2.5709Y-4.2579
X2.5846Y-4.4173
X2.622Y-4.5551
X2.626Y-5.4075
X2.6476Y-4.5925
X2.6624Y-4.2569
X2.6654Y-4.2087
X2.6693Y-4.3563
X2.7165Y-4.2953
X2.8031Y-4.9035
X2.8976Y-4.6034
X2.9744Y-5.2047
X2.9823Y-4.437
X2.9882Y-4.9626
X2.9961Y-4.8012
X3.0079Y-4.3602
X3.0177Y-4.1201
X3.0236Y-5.2618
X3.0531Y-4.3937
X3.0984Y-5.313
X3.1161Y-4.2717
X3.1791Y-4.815
X3.1831Y-4.2008
X3.19Y-4.5994
X3.1949Y-5.0295
X3.2402Y-4.4783
X3.2559Y-4.189
X3.2972Y-4.4705
X3.3091Y-5.1299
X3.31Y-5.6
X3.313Y-3.9941
X3.3169Y-5.4803
X3.3327Y-5.3661
X3.3445Y-4.4783
X3.36Y-5.58
X3.3701Y-5.0827
X3.3832Y-5.4032
X3.3908Y-4.4803
X3.4Y-5.6
X3.4086Y-5.1321
X3.4469Y-5.1181
X3.45Y-4.26
X3.45Y-5.3434
X3.45Y-5.59
X3.4587Y-4.5157
X3.4606Y-4.4665
X3.48Y-4.29
X3.49Y-5.58
X3.498Y-5.1319
X3.5236Y-4.2638
X3.5236Y-5.0059
X3.5927Y-4.7144
X3.624Y-5.3434
X3.627Y-4.188
X3.6437Y-4.5551
X3.6437Y-4.7234
X3.6437Y-4.8189
X3.6614Y-4.7697
X3.6713Y-4.2717
X3.682Y-5.5964
X3.685Y-4.5886
X3.689Y-4.5
X3.6909Y-5.0472
X3.7146Y-4.7717
X3.7304Y-5.0496
X3.7441Y-4.2795
X3.7579Y-4.4961
X3.7645Y-4.1845
X3.7697Y-4.6673
X3.7717Y-5.0571
X3.7835Y-5.0946
X3.815Y-5.4744
X3.8327Y-4.7421
X3.8484Y-4.6417
X3.8868Y-5.5148
X3.89Y-5.6
X3.9016Y-4.2776
X3.9114Y-5.2421
X3.94Y-5.61
X3.9429Y-5.3031
X3.99Y-5.5138
X4.0157Y-4.2008
X4.0157Y-4.2795
X4.0256Y-4.872
X4.0453Y-4.6083
X4.05Y-5.11
X4.05Y-5.15
X4.0512Y-4.939
X4.0571Y-4.8386
X4.0689Y-4.6594
X4.0906Y-5.4252
X4.128Y-4.5925
X4.1457Y-4.9331
X4.1594Y-4.3465
X4.1791Y-4.8287
X4.189Y-4.9429
X4.1929Y-4.876
X4.2323Y-4.2323
X4.2953Y-5.2461
X4.3012Y-5.1614
X4.3051Y-4.1752
X4.3169Y-4.5906
X4.3169Y-5.6693
X4.3189Y-4.6791
X4.3189Y-4.7657
X4.425Y-5.635
T2
X2.0906Y-4.1752
X2.0906Y-4.2539
X2.0906Y-4.3327
X2.0906Y-4.4114
X2.0906Y-4.4902
X2.0906Y-4.5689
X2.0906Y-4.6476
X2.0906Y-4.7264
X2.0906Y-4.8051
X2.0906Y-4.8839
X2.0906Y-4.9626
X2.0906Y-5.0413
X2.0906Y-5.1201
X2.0906Y-5.1988
X2.0906Y-5.2776
X2.0906Y-5.3563
X2.0906Y-5.435
X2.0906Y-5.5138
X2.0906Y-5.5925
X2.0906Y-5.6713
X2.3248Y-4.0118
X2.4035Y-4.0118
X2.4823Y-4.0118
X2.561Y-4.0118
X2.7323Y-4.0138
X2.811Y-4.0138
X2.8366Y-4.7933
X2.8366Y-4.9854
X2.8898Y-4.0138
X2.9685Y-4.0138
X3.9783Y-5.748
X4.0571Y-5.748
X4.1358Y-5.748
X4.2146Y-5.748
X4.2835Y-4.0177
X4.3622Y-4.0177
X4.4409Y-4.0177
X4.5197Y-4.0177
X4.5984Y-4.0177
X4.6024Y-4.1772
X4.6024Y-4.2559
X4.6024Y-4.3346
X4.6024Y-4.4134
X4.6024Y-4.4921
X4.6024Y-4.5709
X4.6024Y-4.6496
X4.6024Y-4.7283
X4.6024Y-4.8071
X4.6024Y-4.8858
X4.6024Y-4.9646
X4.6024Y-5.0433
X4.6024Y-5.122
X4.6024Y-5.2008
X4.6024Y-5.2795
X4.6024Y-5.3583
X4.6024Y-5.437
X4.6024Y-5.5157
X4.6024Y-5.5945
X4.6024Y-5.6732
T0
M30
